G04 EAGLE Gerber RS-274X export*
G75*
%MOMM*%
%FSLAX34Y34*%
%LPD*%
%INSolderpaste Bottom*%
%IPPOS*%
%AMOC8*
5,1,8,0,0,1.08239X$1,22.5*%
G01*
%ADD10R,0.600000X0.600000*%
%ADD11R,0.400000X0.750000*%
%ADD12R,0.330200X0.685800*%
%ADD13R,0.500000X0.550000*%
%ADD14R,0.660400X0.355600*%
%ADD15R,0.550000X1.200000*%
%ADD16R,0.600000X0.250000*%
%ADD17R,0.400000X0.800000*%
%ADD18R,0.250000X0.650000*%
%ADD19R,1.100000X0.400000*%


D10*
X8970Y98425D03*
X18970Y98425D03*
D11*
X20470Y89530D03*
X7470Y89530D03*
D12*
X20701Y73025D03*
X13970Y73025D03*
X7239Y73025D03*
D10*
X18335Y60325D03*
X8335Y60325D03*
X18970Y21590D03*
X8970Y21590D03*
X80565Y200025D03*
X70565Y200025D03*
X90805Y206455D03*
X90805Y216455D03*
X73660Y210265D03*
X73660Y220265D03*
X86360Y184705D03*
X86360Y174705D03*
X67310Y184705D03*
X67310Y174705D03*
X76835Y184705D03*
X76835Y174705D03*
X36115Y119380D03*
X26115Y119380D03*
X26115Y109855D03*
X36115Y109855D03*
X17780Y221060D03*
X17780Y231060D03*
X30560Y200025D03*
X40560Y200025D03*
X19605Y204470D03*
X9605Y204470D03*
X8382Y150415D03*
X8382Y140415D03*
X41910Y160575D03*
X41910Y150575D03*
X22860Y160575D03*
X22860Y150575D03*
X32385Y160575D03*
X32385Y150575D03*
D13*
X32400Y184455D03*
X32400Y174955D03*
X18400Y174955D03*
X18400Y184455D03*
D10*
X52070Y184705D03*
X52070Y174705D03*
X42545Y184705D03*
X42545Y174705D03*
X8255Y176229D03*
X8255Y186229D03*
X18970Y340995D03*
X8970Y340995D03*
X8970Y331470D03*
X18970Y331470D03*
X17145Y278210D03*
X17145Y288210D03*
X26670Y278210D03*
X26670Y288210D03*
D14*
X16510Y305943D03*
X16510Y297307D03*
D10*
X34925Y302340D03*
X34925Y312340D03*
X44450Y302340D03*
X44450Y312340D03*
X29290Y321945D03*
X39290Y321945D03*
X29290Y331470D03*
X39290Y331470D03*
X29290Y340995D03*
X39290Y340995D03*
X25400Y302340D03*
X25400Y312340D03*
X62230Y160575D03*
X62230Y150575D03*
X81280Y160575D03*
X81280Y150575D03*
X71755Y160575D03*
X71755Y150575D03*
X87710Y21590D03*
X97710Y21590D03*
D15*
X81305Y313991D03*
X90805Y313991D03*
X100305Y313991D03*
X100305Y287989D03*
X81305Y287989D03*
D10*
X18335Y50800D03*
X8335Y50800D03*
X30480Y72470D03*
X30480Y82470D03*
X100330Y328375D03*
X100330Y338375D03*
D16*
X93260Y133230D03*
X93260Y128230D03*
X93260Y123230D03*
X93260Y118230D03*
X66760Y118230D03*
X66760Y123230D03*
X66760Y128230D03*
X66760Y133230D03*
D10*
X88820Y97790D03*
X78820Y97790D03*
X88820Y107315D03*
X78820Y107315D03*
D17*
X100840Y373945D03*
D18*
X90840Y398945D03*
X85840Y398945D03*
D17*
X5840Y373945D03*
D18*
X80840Y398945D03*
X75840Y398945D03*
X70840Y398945D03*
X65840Y398945D03*
X60840Y398945D03*
X55840Y398945D03*
X50840Y398945D03*
X45840Y398945D03*
X40840Y398945D03*
X35840Y398945D03*
X30840Y398945D03*
X25840Y398945D03*
X20840Y398945D03*
X15840Y398945D03*
D19*
X75840Y41500D03*
X75840Y35000D03*
X75840Y28500D03*
X75840Y22000D03*
X30840Y22000D03*
X30840Y28500D03*
X30840Y35000D03*
X30840Y41500D03*
D10*
X31195Y55245D03*
X41195Y55245D03*
X120730Y98425D03*
X130730Y98425D03*
D11*
X132230Y89530D03*
X119230Y89530D03*
D12*
X132461Y73025D03*
X125730Y73025D03*
X118999Y73025D03*
D10*
X130095Y60325D03*
X120095Y60325D03*
X130730Y21590D03*
X120730Y21590D03*
X192325Y200025D03*
X182325Y200025D03*
X202565Y206455D03*
X202565Y216455D03*
X185420Y210265D03*
X185420Y220265D03*
X198120Y184705D03*
X198120Y174705D03*
X179070Y184705D03*
X179070Y174705D03*
X188595Y184705D03*
X188595Y174705D03*
X147875Y119380D03*
X137875Y119380D03*
X137875Y109855D03*
X147875Y109855D03*
X129540Y221060D03*
X129540Y231060D03*
X142320Y200025D03*
X152320Y200025D03*
X131365Y204470D03*
X121365Y204470D03*
X120142Y150415D03*
X120142Y140415D03*
X153670Y160575D03*
X153670Y150575D03*
X134620Y160575D03*
X134620Y150575D03*
X144145Y160575D03*
X144145Y150575D03*
D13*
X144160Y184455D03*
X144160Y174955D03*
X130160Y174955D03*
X130160Y184455D03*
D10*
X163830Y184705D03*
X163830Y174705D03*
X154305Y184705D03*
X154305Y174705D03*
X120015Y176229D03*
X120015Y186229D03*
X130730Y340995D03*
X120730Y340995D03*
X120730Y331470D03*
X130730Y331470D03*
X128905Y278210D03*
X128905Y288210D03*
X138430Y278210D03*
X138430Y288210D03*
D14*
X128270Y305943D03*
X128270Y297307D03*
D10*
X146685Y302340D03*
X146685Y312340D03*
X156210Y302340D03*
X156210Y312340D03*
X141050Y321945D03*
X151050Y321945D03*
X141050Y331470D03*
X151050Y331470D03*
X141050Y340995D03*
X151050Y340995D03*
X137160Y302340D03*
X137160Y312340D03*
X173990Y160575D03*
X173990Y150575D03*
X193040Y160575D03*
X193040Y150575D03*
X183515Y160575D03*
X183515Y150575D03*
X199470Y21590D03*
X209470Y21590D03*
D15*
X193065Y313991D03*
X202565Y313991D03*
X212065Y313991D03*
X212065Y287989D03*
X193065Y287989D03*
D10*
X130095Y50800D03*
X120095Y50800D03*
X142240Y72470D03*
X142240Y82470D03*
X212090Y328375D03*
X212090Y338375D03*
D16*
X205020Y133230D03*
X205020Y128230D03*
X205020Y123230D03*
X205020Y118230D03*
X178520Y118230D03*
X178520Y123230D03*
X178520Y128230D03*
X178520Y133230D03*
D10*
X200580Y97790D03*
X190580Y97790D03*
X200580Y107315D03*
X190580Y107315D03*
D17*
X212600Y373945D03*
D18*
X202600Y398945D03*
X197600Y398945D03*
D17*
X117600Y373945D03*
D18*
X192600Y398945D03*
X187600Y398945D03*
X182600Y398945D03*
X177600Y398945D03*
X172600Y398945D03*
X167600Y398945D03*
X162600Y398945D03*
X157600Y398945D03*
X152600Y398945D03*
X147600Y398945D03*
X142600Y398945D03*
X137600Y398945D03*
X132600Y398945D03*
X127600Y398945D03*
D19*
X187600Y41500D03*
X187600Y35000D03*
X187600Y28500D03*
X187600Y22000D03*
X142600Y22000D03*
X142600Y28500D03*
X142600Y35000D03*
X142600Y41500D03*
D10*
X142955Y55245D03*
X152955Y55245D03*
X232490Y98425D03*
X242490Y98425D03*
D11*
X243990Y89530D03*
X230990Y89530D03*
D12*
X244221Y73025D03*
X237490Y73025D03*
X230759Y73025D03*
D10*
X241855Y60325D03*
X231855Y60325D03*
X242490Y21590D03*
X232490Y21590D03*
X304085Y200025D03*
X294085Y200025D03*
X314325Y206455D03*
X314325Y216455D03*
X297180Y210265D03*
X297180Y220265D03*
X309880Y184705D03*
X309880Y174705D03*
X290830Y184705D03*
X290830Y174705D03*
X300355Y184705D03*
X300355Y174705D03*
X259635Y119380D03*
X249635Y119380D03*
X249635Y109855D03*
X259635Y109855D03*
X241300Y221060D03*
X241300Y231060D03*
X254080Y200025D03*
X264080Y200025D03*
X243125Y204470D03*
X233125Y204470D03*
X231902Y150415D03*
X231902Y140415D03*
X265430Y160575D03*
X265430Y150575D03*
X246380Y160575D03*
X246380Y150575D03*
X255905Y160575D03*
X255905Y150575D03*
D13*
X255920Y184455D03*
X255920Y174955D03*
X241920Y174955D03*
X241920Y184455D03*
D10*
X275590Y184705D03*
X275590Y174705D03*
X266065Y184705D03*
X266065Y174705D03*
X231775Y176229D03*
X231775Y186229D03*
X242490Y340995D03*
X232490Y340995D03*
X232490Y331470D03*
X242490Y331470D03*
X240665Y278210D03*
X240665Y288210D03*
X250190Y278210D03*
X250190Y288210D03*
D14*
X240030Y305943D03*
X240030Y297307D03*
D10*
X258445Y302340D03*
X258445Y312340D03*
X267970Y302340D03*
X267970Y312340D03*
X252810Y321945D03*
X262810Y321945D03*
X252810Y331470D03*
X262810Y331470D03*
X252810Y340995D03*
X262810Y340995D03*
X248920Y302340D03*
X248920Y312340D03*
X285750Y160575D03*
X285750Y150575D03*
X304800Y160575D03*
X304800Y150575D03*
X295275Y160575D03*
X295275Y150575D03*
X311230Y21590D03*
X321230Y21590D03*
D15*
X304825Y313991D03*
X314325Y313991D03*
X323825Y313991D03*
X323825Y287989D03*
X304825Y287989D03*
D10*
X241855Y50800D03*
X231855Y50800D03*
X254000Y72470D03*
X254000Y82470D03*
X323850Y328375D03*
X323850Y338375D03*
D16*
X316780Y133230D03*
X316780Y128230D03*
X316780Y123230D03*
X316780Y118230D03*
X290280Y118230D03*
X290280Y123230D03*
X290280Y128230D03*
X290280Y133230D03*
D10*
X312340Y97790D03*
X302340Y97790D03*
X312340Y107315D03*
X302340Y107315D03*
D17*
X324360Y373945D03*
D18*
X314360Y398945D03*
X309360Y398945D03*
D17*
X229360Y373945D03*
D18*
X304360Y398945D03*
X299360Y398945D03*
X294360Y398945D03*
X289360Y398945D03*
X284360Y398945D03*
X279360Y398945D03*
X274360Y398945D03*
X269360Y398945D03*
X264360Y398945D03*
X259360Y398945D03*
X254360Y398945D03*
X249360Y398945D03*
X244360Y398945D03*
X239360Y398945D03*
D19*
X299360Y41500D03*
X299360Y35000D03*
X299360Y28500D03*
X299360Y22000D03*
X254360Y22000D03*
X254360Y28500D03*
X254360Y35000D03*
X254360Y41500D03*
D10*
X254715Y55245D03*
X264715Y55245D03*
X344250Y98425D03*
X354250Y98425D03*
D11*
X355750Y89530D03*
X342750Y89530D03*
D12*
X355981Y73025D03*
X349250Y73025D03*
X342519Y73025D03*
D10*
X353615Y60325D03*
X343615Y60325D03*
X354250Y21590D03*
X344250Y21590D03*
X415845Y200025D03*
X405845Y200025D03*
X426085Y206455D03*
X426085Y216455D03*
X408940Y210265D03*
X408940Y220265D03*
X421640Y184705D03*
X421640Y174705D03*
X402590Y184705D03*
X402590Y174705D03*
X412115Y184705D03*
X412115Y174705D03*
X371395Y119380D03*
X361395Y119380D03*
X361395Y109855D03*
X371395Y109855D03*
X353060Y221060D03*
X353060Y231060D03*
X365840Y200025D03*
X375840Y200025D03*
X354885Y204470D03*
X344885Y204470D03*
X343662Y150415D03*
X343662Y140415D03*
X377190Y160575D03*
X377190Y150575D03*
X358140Y160575D03*
X358140Y150575D03*
X367665Y160575D03*
X367665Y150575D03*
D13*
X367680Y184455D03*
X367680Y174955D03*
X353680Y174955D03*
X353680Y184455D03*
D10*
X387350Y184705D03*
X387350Y174705D03*
X377825Y184705D03*
X377825Y174705D03*
X343535Y176229D03*
X343535Y186229D03*
X354250Y340995D03*
X344250Y340995D03*
X344250Y331470D03*
X354250Y331470D03*
X352425Y278210D03*
X352425Y288210D03*
X361950Y278210D03*
X361950Y288210D03*
D14*
X351790Y305943D03*
X351790Y297307D03*
D10*
X370205Y302340D03*
X370205Y312340D03*
X379730Y302340D03*
X379730Y312340D03*
X364570Y321945D03*
X374570Y321945D03*
X364570Y331470D03*
X374570Y331470D03*
X364570Y340995D03*
X374570Y340995D03*
X360680Y302340D03*
X360680Y312340D03*
X397510Y160575D03*
X397510Y150575D03*
X416560Y160575D03*
X416560Y150575D03*
X407035Y160575D03*
X407035Y150575D03*
X422990Y21590D03*
X432990Y21590D03*
D15*
X416585Y313991D03*
X426085Y313991D03*
X435585Y313991D03*
X435585Y287989D03*
X416585Y287989D03*
D10*
X353615Y50800D03*
X343615Y50800D03*
X365760Y72470D03*
X365760Y82470D03*
X435610Y328375D03*
X435610Y338375D03*
D16*
X428540Y133230D03*
X428540Y128230D03*
X428540Y123230D03*
X428540Y118230D03*
X402040Y118230D03*
X402040Y123230D03*
X402040Y128230D03*
X402040Y133230D03*
D10*
X424100Y97790D03*
X414100Y97790D03*
X424100Y107315D03*
X414100Y107315D03*
D17*
X436120Y373945D03*
D18*
X426120Y398945D03*
X421120Y398945D03*
D17*
X341120Y373945D03*
D18*
X416120Y398945D03*
X411120Y398945D03*
X406120Y398945D03*
X401120Y398945D03*
X396120Y398945D03*
X391120Y398945D03*
X386120Y398945D03*
X381120Y398945D03*
X376120Y398945D03*
X371120Y398945D03*
X366120Y398945D03*
X361120Y398945D03*
X356120Y398945D03*
X351120Y398945D03*
D19*
X411120Y41500D03*
X411120Y35000D03*
X411120Y28500D03*
X411120Y22000D03*
X366120Y22000D03*
X366120Y28500D03*
X366120Y35000D03*
X366120Y41500D03*
D10*
X366475Y55245D03*
X376475Y55245D03*
X456010Y98425D03*
X466010Y98425D03*
D11*
X467510Y89530D03*
X454510Y89530D03*
D12*
X467741Y73025D03*
X461010Y73025D03*
X454279Y73025D03*
D10*
X465375Y60325D03*
X455375Y60325D03*
X466010Y21590D03*
X456010Y21590D03*
X527605Y200025D03*
X517605Y200025D03*
X537845Y206455D03*
X537845Y216455D03*
X520700Y210265D03*
X520700Y220265D03*
X533400Y184705D03*
X533400Y174705D03*
X514350Y184705D03*
X514350Y174705D03*
X523875Y184705D03*
X523875Y174705D03*
X483155Y119380D03*
X473155Y119380D03*
X473155Y109855D03*
X483155Y109855D03*
X464820Y221060D03*
X464820Y231060D03*
X477600Y200025D03*
X487600Y200025D03*
X466645Y204470D03*
X456645Y204470D03*
X455422Y150415D03*
X455422Y140415D03*
X488950Y160575D03*
X488950Y150575D03*
X469900Y160575D03*
X469900Y150575D03*
X479425Y160575D03*
X479425Y150575D03*
D13*
X479440Y184455D03*
X479440Y174955D03*
X465440Y174955D03*
X465440Y184455D03*
D10*
X499110Y184705D03*
X499110Y174705D03*
X489585Y184705D03*
X489585Y174705D03*
X455295Y176229D03*
X455295Y186229D03*
X466010Y340995D03*
X456010Y340995D03*
X456010Y331470D03*
X466010Y331470D03*
X464185Y278210D03*
X464185Y288210D03*
X473710Y278210D03*
X473710Y288210D03*
D14*
X463550Y305943D03*
X463550Y297307D03*
D10*
X481965Y302340D03*
X481965Y312340D03*
X491490Y302340D03*
X491490Y312340D03*
X476330Y321945D03*
X486330Y321945D03*
X476330Y331470D03*
X486330Y331470D03*
X476330Y340995D03*
X486330Y340995D03*
X472440Y302340D03*
X472440Y312340D03*
X509270Y160575D03*
X509270Y150575D03*
X528320Y160575D03*
X528320Y150575D03*
X518795Y160575D03*
X518795Y150575D03*
X534750Y21590D03*
X544750Y21590D03*
D15*
X528345Y313991D03*
X537845Y313991D03*
X547345Y313991D03*
X547345Y287989D03*
X528345Y287989D03*
D10*
X465375Y50800D03*
X455375Y50800D03*
X477520Y72470D03*
X477520Y82470D03*
X547370Y328375D03*
X547370Y338375D03*
D16*
X540300Y133230D03*
X540300Y128230D03*
X540300Y123230D03*
X540300Y118230D03*
X513800Y118230D03*
X513800Y123230D03*
X513800Y128230D03*
X513800Y133230D03*
D10*
X535860Y97790D03*
X525860Y97790D03*
X535860Y107315D03*
X525860Y107315D03*
D17*
X547880Y373945D03*
D18*
X537880Y398945D03*
X532880Y398945D03*
D17*
X452880Y373945D03*
D18*
X527880Y398945D03*
X522880Y398945D03*
X517880Y398945D03*
X512880Y398945D03*
X507880Y398945D03*
X502880Y398945D03*
X497880Y398945D03*
X492880Y398945D03*
X487880Y398945D03*
X482880Y398945D03*
X477880Y398945D03*
X472880Y398945D03*
X467880Y398945D03*
X462880Y398945D03*
D19*
X522880Y41500D03*
X522880Y35000D03*
X522880Y28500D03*
X522880Y22000D03*
X477880Y22000D03*
X477880Y28500D03*
X477880Y35000D03*
X477880Y41500D03*
D10*
X478235Y55245D03*
X488235Y55245D03*
X567770Y98425D03*
X577770Y98425D03*
D11*
X579270Y89530D03*
X566270Y89530D03*
D12*
X579501Y73025D03*
X572770Y73025D03*
X566039Y73025D03*
D10*
X577135Y60325D03*
X567135Y60325D03*
X577770Y21590D03*
X567770Y21590D03*
X639365Y200025D03*
X629365Y200025D03*
X649605Y206455D03*
X649605Y216455D03*
X632460Y210265D03*
X632460Y220265D03*
X645160Y184705D03*
X645160Y174705D03*
X626110Y184705D03*
X626110Y174705D03*
X635635Y184705D03*
X635635Y174705D03*
X594915Y119380D03*
X584915Y119380D03*
X584915Y109855D03*
X594915Y109855D03*
X576580Y221060D03*
X576580Y231060D03*
X589360Y200025D03*
X599360Y200025D03*
X578405Y204470D03*
X568405Y204470D03*
X567182Y150415D03*
X567182Y140415D03*
X600710Y160575D03*
X600710Y150575D03*
X581660Y160575D03*
X581660Y150575D03*
X591185Y160575D03*
X591185Y150575D03*
D13*
X591200Y184455D03*
X591200Y174955D03*
X577200Y174955D03*
X577200Y184455D03*
D10*
X610870Y184705D03*
X610870Y174705D03*
X601345Y184705D03*
X601345Y174705D03*
X567055Y176229D03*
X567055Y186229D03*
X577770Y340995D03*
X567770Y340995D03*
X567770Y331470D03*
X577770Y331470D03*
X575945Y278210D03*
X575945Y288210D03*
X585470Y278210D03*
X585470Y288210D03*
D14*
X575310Y305943D03*
X575310Y297307D03*
D10*
X593725Y302340D03*
X593725Y312340D03*
X603250Y302340D03*
X603250Y312340D03*
X588090Y321945D03*
X598090Y321945D03*
X588090Y331470D03*
X598090Y331470D03*
X588090Y340995D03*
X598090Y340995D03*
X584200Y302340D03*
X584200Y312340D03*
X621030Y160575D03*
X621030Y150575D03*
X640080Y160575D03*
X640080Y150575D03*
X630555Y160575D03*
X630555Y150575D03*
X646510Y21590D03*
X656510Y21590D03*
D15*
X640105Y313991D03*
X649605Y313991D03*
X659105Y313991D03*
X659105Y287989D03*
X640105Y287989D03*
D10*
X577135Y50800D03*
X567135Y50800D03*
X589280Y72470D03*
X589280Y82470D03*
X659130Y328375D03*
X659130Y338375D03*
D16*
X652060Y133230D03*
X652060Y128230D03*
X652060Y123230D03*
X652060Y118230D03*
X625560Y118230D03*
X625560Y123230D03*
X625560Y128230D03*
X625560Y133230D03*
D10*
X647620Y97790D03*
X637620Y97790D03*
X647620Y107315D03*
X637620Y107315D03*
D17*
X659640Y373945D03*
D18*
X649640Y398945D03*
X644640Y398945D03*
D17*
X564640Y373945D03*
D18*
X639640Y398945D03*
X634640Y398945D03*
X629640Y398945D03*
X624640Y398945D03*
X619640Y398945D03*
X614640Y398945D03*
X609640Y398945D03*
X604640Y398945D03*
X599640Y398945D03*
X594640Y398945D03*
X589640Y398945D03*
X584640Y398945D03*
X579640Y398945D03*
X574640Y398945D03*
D19*
X634640Y41500D03*
X634640Y35000D03*
X634640Y28500D03*
X634640Y22000D03*
X589640Y22000D03*
X589640Y28500D03*
X589640Y35000D03*
X589640Y41500D03*
D10*
X589995Y55245D03*
X599995Y55245D03*
X679530Y98425D03*
X689530Y98425D03*
D11*
X691030Y89530D03*
X678030Y89530D03*
D12*
X691261Y73025D03*
X684530Y73025D03*
X677799Y73025D03*
D10*
X688895Y60325D03*
X678895Y60325D03*
X689530Y21590D03*
X679530Y21590D03*
X751125Y200025D03*
X741125Y200025D03*
X761365Y206455D03*
X761365Y216455D03*
X744220Y210265D03*
X744220Y220265D03*
X756920Y184705D03*
X756920Y174705D03*
X737870Y184705D03*
X737870Y174705D03*
X747395Y184705D03*
X747395Y174705D03*
X706675Y119380D03*
X696675Y119380D03*
X696675Y109855D03*
X706675Y109855D03*
X688340Y221060D03*
X688340Y231060D03*
X701120Y200025D03*
X711120Y200025D03*
X690165Y204470D03*
X680165Y204470D03*
X678942Y150415D03*
X678942Y140415D03*
X712470Y160575D03*
X712470Y150575D03*
X693420Y160575D03*
X693420Y150575D03*
X702945Y160575D03*
X702945Y150575D03*
D13*
X702960Y184455D03*
X702960Y174955D03*
X688960Y174955D03*
X688960Y184455D03*
D10*
X722630Y184705D03*
X722630Y174705D03*
X713105Y184705D03*
X713105Y174705D03*
X678815Y176229D03*
X678815Y186229D03*
X689530Y340995D03*
X679530Y340995D03*
X679530Y331470D03*
X689530Y331470D03*
X687705Y278210D03*
X687705Y288210D03*
X697230Y278210D03*
X697230Y288210D03*
D14*
X687070Y305943D03*
X687070Y297307D03*
D10*
X705485Y302340D03*
X705485Y312340D03*
X715010Y302340D03*
X715010Y312340D03*
X699850Y321945D03*
X709850Y321945D03*
X699850Y331470D03*
X709850Y331470D03*
X699850Y340995D03*
X709850Y340995D03*
X695960Y302340D03*
X695960Y312340D03*
X732790Y160575D03*
X732790Y150575D03*
X751840Y160575D03*
X751840Y150575D03*
X742315Y160575D03*
X742315Y150575D03*
X758270Y21590D03*
X768270Y21590D03*
D15*
X751865Y313991D03*
X761365Y313991D03*
X770865Y313991D03*
X770865Y287989D03*
X751865Y287989D03*
D10*
X688895Y50800D03*
X678895Y50800D03*
X701040Y72470D03*
X701040Y82470D03*
X770890Y328375D03*
X770890Y338375D03*
D16*
X763820Y133230D03*
X763820Y128230D03*
X763820Y123230D03*
X763820Y118230D03*
X737320Y118230D03*
X737320Y123230D03*
X737320Y128230D03*
X737320Y133230D03*
D10*
X759380Y97790D03*
X749380Y97790D03*
X759380Y107315D03*
X749380Y107315D03*
D17*
X771400Y373945D03*
D18*
X761400Y398945D03*
X756400Y398945D03*
D17*
X676400Y373945D03*
D18*
X751400Y398945D03*
X746400Y398945D03*
X741400Y398945D03*
X736400Y398945D03*
X731400Y398945D03*
X726400Y398945D03*
X721400Y398945D03*
X716400Y398945D03*
X711400Y398945D03*
X706400Y398945D03*
X701400Y398945D03*
X696400Y398945D03*
X691400Y398945D03*
X686400Y398945D03*
D19*
X746400Y41500D03*
X746400Y35000D03*
X746400Y28500D03*
X746400Y22000D03*
X701400Y22000D03*
X701400Y28500D03*
X701400Y35000D03*
X701400Y41500D03*
D10*
X701755Y55245D03*
X711755Y55245D03*
X791290Y98425D03*
X801290Y98425D03*
D11*
X802790Y89530D03*
X789790Y89530D03*
D12*
X803021Y73025D03*
X796290Y73025D03*
X789559Y73025D03*
D10*
X800655Y60325D03*
X790655Y60325D03*
X801290Y21590D03*
X791290Y21590D03*
X862885Y200025D03*
X852885Y200025D03*
X873125Y206455D03*
X873125Y216455D03*
X855980Y210265D03*
X855980Y220265D03*
X868680Y184705D03*
X868680Y174705D03*
X849630Y184705D03*
X849630Y174705D03*
X859155Y184705D03*
X859155Y174705D03*
X818435Y119380D03*
X808435Y119380D03*
X808435Y109855D03*
X818435Y109855D03*
X800100Y221060D03*
X800100Y231060D03*
X812880Y200025D03*
X822880Y200025D03*
X801925Y204470D03*
X791925Y204470D03*
X790702Y150415D03*
X790702Y140415D03*
X824230Y160575D03*
X824230Y150575D03*
X805180Y160575D03*
X805180Y150575D03*
X814705Y160575D03*
X814705Y150575D03*
D13*
X814720Y184455D03*
X814720Y174955D03*
X800720Y174955D03*
X800720Y184455D03*
D10*
X834390Y184705D03*
X834390Y174705D03*
X824865Y184705D03*
X824865Y174705D03*
X790575Y176229D03*
X790575Y186229D03*
X801290Y340995D03*
X791290Y340995D03*
X791290Y331470D03*
X801290Y331470D03*
X799465Y278210D03*
X799465Y288210D03*
X808990Y278210D03*
X808990Y288210D03*
D14*
X798830Y305943D03*
X798830Y297307D03*
D10*
X817245Y302340D03*
X817245Y312340D03*
X826770Y302340D03*
X826770Y312340D03*
X811610Y321945D03*
X821610Y321945D03*
X811610Y331470D03*
X821610Y331470D03*
X811610Y340995D03*
X821610Y340995D03*
X807720Y302340D03*
X807720Y312340D03*
X844550Y160575D03*
X844550Y150575D03*
X863600Y160575D03*
X863600Y150575D03*
X854075Y160575D03*
X854075Y150575D03*
X870030Y21590D03*
X880030Y21590D03*
D15*
X863625Y313991D03*
X873125Y313991D03*
X882625Y313991D03*
X882625Y287989D03*
X863625Y287989D03*
D10*
X800655Y50800D03*
X790655Y50800D03*
X812800Y72470D03*
X812800Y82470D03*
X882650Y328375D03*
X882650Y338375D03*
D16*
X875580Y133230D03*
X875580Y128230D03*
X875580Y123230D03*
X875580Y118230D03*
X849080Y118230D03*
X849080Y123230D03*
X849080Y128230D03*
X849080Y133230D03*
D10*
X871140Y97790D03*
X861140Y97790D03*
X871140Y107315D03*
X861140Y107315D03*
D17*
X883160Y373945D03*
D18*
X873160Y398945D03*
X868160Y398945D03*
D17*
X788160Y373945D03*
D18*
X863160Y398945D03*
X858160Y398945D03*
X853160Y398945D03*
X848160Y398945D03*
X843160Y398945D03*
X838160Y398945D03*
X833160Y398945D03*
X828160Y398945D03*
X823160Y398945D03*
X818160Y398945D03*
X813160Y398945D03*
X808160Y398945D03*
X803160Y398945D03*
X798160Y398945D03*
D19*
X858160Y41500D03*
X858160Y35000D03*
X858160Y28500D03*
X858160Y22000D03*
X813160Y22000D03*
X813160Y28500D03*
X813160Y35000D03*
X813160Y41500D03*
D10*
X813515Y55245D03*
X823515Y55245D03*
X903050Y98425D03*
X913050Y98425D03*
D11*
X914550Y89530D03*
X901550Y89530D03*
D12*
X914781Y73025D03*
X908050Y73025D03*
X901319Y73025D03*
D10*
X912415Y60325D03*
X902415Y60325D03*
X913050Y21590D03*
X903050Y21590D03*
X974645Y200025D03*
X964645Y200025D03*
X984885Y206455D03*
X984885Y216455D03*
X967740Y210265D03*
X967740Y220265D03*
X980440Y184705D03*
X980440Y174705D03*
X961390Y184705D03*
X961390Y174705D03*
X970915Y184705D03*
X970915Y174705D03*
X930195Y119380D03*
X920195Y119380D03*
X920195Y109855D03*
X930195Y109855D03*
X911860Y221060D03*
X911860Y231060D03*
X924640Y200025D03*
X934640Y200025D03*
X913685Y204470D03*
X903685Y204470D03*
X902462Y150415D03*
X902462Y140415D03*
X935990Y160575D03*
X935990Y150575D03*
X916940Y160575D03*
X916940Y150575D03*
X926465Y160575D03*
X926465Y150575D03*
D13*
X926480Y184455D03*
X926480Y174955D03*
X912480Y174955D03*
X912480Y184455D03*
D10*
X946150Y184705D03*
X946150Y174705D03*
X936625Y184705D03*
X936625Y174705D03*
X902335Y176229D03*
X902335Y186229D03*
X913050Y340995D03*
X903050Y340995D03*
X903050Y331470D03*
X913050Y331470D03*
X911225Y278210D03*
X911225Y288210D03*
X920750Y278210D03*
X920750Y288210D03*
D14*
X910590Y305943D03*
X910590Y297307D03*
D10*
X929005Y302340D03*
X929005Y312340D03*
X938530Y302340D03*
X938530Y312340D03*
X923370Y321945D03*
X933370Y321945D03*
X923370Y331470D03*
X933370Y331470D03*
X923370Y340995D03*
X933370Y340995D03*
X919480Y302340D03*
X919480Y312340D03*
X956310Y160575D03*
X956310Y150575D03*
X975360Y160575D03*
X975360Y150575D03*
X965835Y160575D03*
X965835Y150575D03*
X981790Y21590D03*
X991790Y21590D03*
D15*
X975385Y313991D03*
X984885Y313991D03*
X994385Y313991D03*
X994385Y287989D03*
X975385Y287989D03*
D10*
X912415Y50800D03*
X902415Y50800D03*
X924560Y72470D03*
X924560Y82470D03*
X994410Y328375D03*
X994410Y338375D03*
D16*
X987340Y133230D03*
X987340Y128230D03*
X987340Y123230D03*
X987340Y118230D03*
X960840Y118230D03*
X960840Y123230D03*
X960840Y128230D03*
X960840Y133230D03*
D10*
X982900Y97790D03*
X972900Y97790D03*
X982900Y107315D03*
X972900Y107315D03*
D17*
X994920Y373945D03*
D18*
X984920Y398945D03*
X979920Y398945D03*
D17*
X899920Y373945D03*
D18*
X974920Y398945D03*
X969920Y398945D03*
X964920Y398945D03*
X959920Y398945D03*
X954920Y398945D03*
X949920Y398945D03*
X944920Y398945D03*
X939920Y398945D03*
X934920Y398945D03*
X929920Y398945D03*
X924920Y398945D03*
X919920Y398945D03*
X914920Y398945D03*
X909920Y398945D03*
D19*
X969920Y41500D03*
X969920Y35000D03*
X969920Y28500D03*
X969920Y22000D03*
X924920Y22000D03*
X924920Y28500D03*
X924920Y35000D03*
X924920Y41500D03*
D10*
X925275Y55245D03*
X935275Y55245D03*
X1014810Y98425D03*
X1024810Y98425D03*
D11*
X1026310Y89530D03*
X1013310Y89530D03*
D12*
X1026541Y73025D03*
X1019810Y73025D03*
X1013079Y73025D03*
D10*
X1024175Y60325D03*
X1014175Y60325D03*
X1024810Y21590D03*
X1014810Y21590D03*
X1086405Y200025D03*
X1076405Y200025D03*
X1096645Y206455D03*
X1096645Y216455D03*
X1079500Y210265D03*
X1079500Y220265D03*
X1092200Y184705D03*
X1092200Y174705D03*
X1073150Y184705D03*
X1073150Y174705D03*
X1082675Y184705D03*
X1082675Y174705D03*
X1041955Y119380D03*
X1031955Y119380D03*
X1031955Y109855D03*
X1041955Y109855D03*
X1023620Y221060D03*
X1023620Y231060D03*
X1036400Y200025D03*
X1046400Y200025D03*
X1025445Y204470D03*
X1015445Y204470D03*
X1014222Y150415D03*
X1014222Y140415D03*
X1047750Y160575D03*
X1047750Y150575D03*
X1028700Y160575D03*
X1028700Y150575D03*
X1038225Y160575D03*
X1038225Y150575D03*
D13*
X1038240Y184455D03*
X1038240Y174955D03*
X1024240Y174955D03*
X1024240Y184455D03*
D10*
X1057910Y184705D03*
X1057910Y174705D03*
X1048385Y184705D03*
X1048385Y174705D03*
X1014095Y176229D03*
X1014095Y186229D03*
X1024810Y340995D03*
X1014810Y340995D03*
X1014810Y331470D03*
X1024810Y331470D03*
X1022985Y278210D03*
X1022985Y288210D03*
X1032510Y278210D03*
X1032510Y288210D03*
D14*
X1022350Y305943D03*
X1022350Y297307D03*
D10*
X1040765Y302340D03*
X1040765Y312340D03*
X1050290Y302340D03*
X1050290Y312340D03*
X1035130Y321945D03*
X1045130Y321945D03*
X1035130Y331470D03*
X1045130Y331470D03*
X1035130Y340995D03*
X1045130Y340995D03*
X1031240Y302340D03*
X1031240Y312340D03*
X1068070Y160575D03*
X1068070Y150575D03*
X1087120Y160575D03*
X1087120Y150575D03*
X1077595Y160575D03*
X1077595Y150575D03*
X1093550Y21590D03*
X1103550Y21590D03*
D15*
X1087145Y313991D03*
X1096645Y313991D03*
X1106145Y313991D03*
X1106145Y287989D03*
X1087145Y287989D03*
D10*
X1024175Y50800D03*
X1014175Y50800D03*
X1036320Y72470D03*
X1036320Y82470D03*
X1106170Y328375D03*
X1106170Y338375D03*
D16*
X1099100Y133230D03*
X1099100Y128230D03*
X1099100Y123230D03*
X1099100Y118230D03*
X1072600Y118230D03*
X1072600Y123230D03*
X1072600Y128230D03*
X1072600Y133230D03*
D10*
X1094660Y97790D03*
X1084660Y97790D03*
X1094660Y107315D03*
X1084660Y107315D03*
D17*
X1106680Y373945D03*
D18*
X1096680Y398945D03*
X1091680Y398945D03*
D17*
X1011680Y373945D03*
D18*
X1086680Y398945D03*
X1081680Y398945D03*
X1076680Y398945D03*
X1071680Y398945D03*
X1066680Y398945D03*
X1061680Y398945D03*
X1056680Y398945D03*
X1051680Y398945D03*
X1046680Y398945D03*
X1041680Y398945D03*
X1036680Y398945D03*
X1031680Y398945D03*
X1026680Y398945D03*
X1021680Y398945D03*
D19*
X1081680Y41500D03*
X1081680Y35000D03*
X1081680Y28500D03*
X1081680Y22000D03*
X1036680Y22000D03*
X1036680Y28500D03*
X1036680Y35000D03*
X1036680Y41500D03*
D10*
X1037035Y55245D03*
X1047035Y55245D03*
X1126570Y98425D03*
X1136570Y98425D03*
D11*
X1138070Y89530D03*
X1125070Y89530D03*
D12*
X1138301Y73025D03*
X1131570Y73025D03*
X1124839Y73025D03*
D10*
X1135935Y60325D03*
X1125935Y60325D03*
X1136570Y21590D03*
X1126570Y21590D03*
X1198165Y200025D03*
X1188165Y200025D03*
X1208405Y206455D03*
X1208405Y216455D03*
X1191260Y210265D03*
X1191260Y220265D03*
X1203960Y184705D03*
X1203960Y174705D03*
X1184910Y184705D03*
X1184910Y174705D03*
X1194435Y184705D03*
X1194435Y174705D03*
X1153715Y119380D03*
X1143715Y119380D03*
X1143715Y109855D03*
X1153715Y109855D03*
X1135380Y221060D03*
X1135380Y231060D03*
X1148160Y200025D03*
X1158160Y200025D03*
X1137205Y204470D03*
X1127205Y204470D03*
X1125982Y150415D03*
X1125982Y140415D03*
X1159510Y160575D03*
X1159510Y150575D03*
X1140460Y160575D03*
X1140460Y150575D03*
X1149985Y160575D03*
X1149985Y150575D03*
D13*
X1150000Y184455D03*
X1150000Y174955D03*
X1136000Y174955D03*
X1136000Y184455D03*
D10*
X1169670Y184705D03*
X1169670Y174705D03*
X1160145Y184705D03*
X1160145Y174705D03*
X1125855Y176229D03*
X1125855Y186229D03*
X1136570Y340995D03*
X1126570Y340995D03*
X1126570Y331470D03*
X1136570Y331470D03*
X1134745Y278210D03*
X1134745Y288210D03*
X1144270Y278210D03*
X1144270Y288210D03*
D14*
X1134110Y305943D03*
X1134110Y297307D03*
D10*
X1152525Y302340D03*
X1152525Y312340D03*
X1162050Y302340D03*
X1162050Y312340D03*
X1146890Y321945D03*
X1156890Y321945D03*
X1146890Y331470D03*
X1156890Y331470D03*
X1146890Y340995D03*
X1156890Y340995D03*
X1143000Y302340D03*
X1143000Y312340D03*
X1179830Y160575D03*
X1179830Y150575D03*
X1198880Y160575D03*
X1198880Y150575D03*
X1189355Y160575D03*
X1189355Y150575D03*
X1205310Y21590D03*
X1215310Y21590D03*
D15*
X1198905Y313991D03*
X1208405Y313991D03*
X1217905Y313991D03*
X1217905Y287989D03*
X1198905Y287989D03*
D10*
X1135935Y50800D03*
X1125935Y50800D03*
X1148080Y72470D03*
X1148080Y82470D03*
X1217930Y328375D03*
X1217930Y338375D03*
D16*
X1210860Y133230D03*
X1210860Y128230D03*
X1210860Y123230D03*
X1210860Y118230D03*
X1184360Y118230D03*
X1184360Y123230D03*
X1184360Y128230D03*
X1184360Y133230D03*
D10*
X1206420Y97790D03*
X1196420Y97790D03*
X1206420Y107315D03*
X1196420Y107315D03*
D17*
X1218440Y373945D03*
D18*
X1208440Y398945D03*
X1203440Y398945D03*
D17*
X1123440Y373945D03*
D18*
X1198440Y398945D03*
X1193440Y398945D03*
X1188440Y398945D03*
X1183440Y398945D03*
X1178440Y398945D03*
X1173440Y398945D03*
X1168440Y398945D03*
X1163440Y398945D03*
X1158440Y398945D03*
X1153440Y398945D03*
X1148440Y398945D03*
X1143440Y398945D03*
X1138440Y398945D03*
X1133440Y398945D03*
D19*
X1193440Y41500D03*
X1193440Y35000D03*
X1193440Y28500D03*
X1193440Y22000D03*
X1148440Y22000D03*
X1148440Y28500D03*
X1148440Y35000D03*
X1148440Y41500D03*
D10*
X1148795Y55245D03*
X1158795Y55245D03*
X1238330Y98425D03*
X1248330Y98425D03*
D11*
X1249830Y89530D03*
X1236830Y89530D03*
D12*
X1250061Y73025D03*
X1243330Y73025D03*
X1236599Y73025D03*
D10*
X1247695Y60325D03*
X1237695Y60325D03*
X1248330Y21590D03*
X1238330Y21590D03*
X1309925Y200025D03*
X1299925Y200025D03*
X1320165Y206455D03*
X1320165Y216455D03*
X1303020Y210265D03*
X1303020Y220265D03*
X1315720Y184705D03*
X1315720Y174705D03*
X1296670Y184705D03*
X1296670Y174705D03*
X1306195Y184705D03*
X1306195Y174705D03*
X1265475Y119380D03*
X1255475Y119380D03*
X1255475Y109855D03*
X1265475Y109855D03*
X1247140Y221060D03*
X1247140Y231060D03*
X1259920Y200025D03*
X1269920Y200025D03*
X1248965Y204470D03*
X1238965Y204470D03*
X1237742Y150415D03*
X1237742Y140415D03*
X1271270Y160575D03*
X1271270Y150575D03*
X1252220Y160575D03*
X1252220Y150575D03*
X1261745Y160575D03*
X1261745Y150575D03*
D13*
X1261760Y184455D03*
X1261760Y174955D03*
X1247760Y174955D03*
X1247760Y184455D03*
D10*
X1281430Y184705D03*
X1281430Y174705D03*
X1271905Y184705D03*
X1271905Y174705D03*
X1237615Y176229D03*
X1237615Y186229D03*
X1248330Y340995D03*
X1238330Y340995D03*
X1238330Y331470D03*
X1248330Y331470D03*
X1246505Y278210D03*
X1246505Y288210D03*
X1256030Y278210D03*
X1256030Y288210D03*
D14*
X1245870Y305943D03*
X1245870Y297307D03*
D10*
X1264285Y302340D03*
X1264285Y312340D03*
X1273810Y302340D03*
X1273810Y312340D03*
X1258650Y321945D03*
X1268650Y321945D03*
X1258650Y331470D03*
X1268650Y331470D03*
X1258650Y340995D03*
X1268650Y340995D03*
X1254760Y302340D03*
X1254760Y312340D03*
X1291590Y160575D03*
X1291590Y150575D03*
X1310640Y160575D03*
X1310640Y150575D03*
X1301115Y160575D03*
X1301115Y150575D03*
X1317070Y21590D03*
X1327070Y21590D03*
D15*
X1310665Y313991D03*
X1320165Y313991D03*
X1329665Y313991D03*
X1329665Y287989D03*
X1310665Y287989D03*
D10*
X1247695Y50800D03*
X1237695Y50800D03*
X1259840Y72470D03*
X1259840Y82470D03*
X1329690Y328375D03*
X1329690Y338375D03*
D16*
X1322620Y133230D03*
X1322620Y128230D03*
X1322620Y123230D03*
X1322620Y118230D03*
X1296120Y118230D03*
X1296120Y123230D03*
X1296120Y128230D03*
X1296120Y133230D03*
D10*
X1318180Y97790D03*
X1308180Y97790D03*
X1318180Y107315D03*
X1308180Y107315D03*
D17*
X1330200Y373945D03*
D18*
X1320200Y398945D03*
X1315200Y398945D03*
D17*
X1235200Y373945D03*
D18*
X1310200Y398945D03*
X1305200Y398945D03*
X1300200Y398945D03*
X1295200Y398945D03*
X1290200Y398945D03*
X1285200Y398945D03*
X1280200Y398945D03*
X1275200Y398945D03*
X1270200Y398945D03*
X1265200Y398945D03*
X1260200Y398945D03*
X1255200Y398945D03*
X1250200Y398945D03*
X1245200Y398945D03*
D19*
X1305200Y41500D03*
X1305200Y35000D03*
X1305200Y28500D03*
X1305200Y22000D03*
X1260200Y22000D03*
X1260200Y28500D03*
X1260200Y35000D03*
X1260200Y41500D03*
D10*
X1260555Y55245D03*
X1270555Y55245D03*
X1350090Y98425D03*
X1360090Y98425D03*
D11*
X1361590Y89530D03*
X1348590Y89530D03*
D12*
X1361821Y73025D03*
X1355090Y73025D03*
X1348359Y73025D03*
D10*
X1359455Y60325D03*
X1349455Y60325D03*
X1360090Y21590D03*
X1350090Y21590D03*
X1421685Y200025D03*
X1411685Y200025D03*
X1431925Y206455D03*
X1431925Y216455D03*
X1414780Y210265D03*
X1414780Y220265D03*
X1427480Y184705D03*
X1427480Y174705D03*
X1408430Y184705D03*
X1408430Y174705D03*
X1417955Y184705D03*
X1417955Y174705D03*
X1377235Y119380D03*
X1367235Y119380D03*
X1367235Y109855D03*
X1377235Y109855D03*
X1358900Y221060D03*
X1358900Y231060D03*
X1371680Y200025D03*
X1381680Y200025D03*
X1360725Y204470D03*
X1350725Y204470D03*
X1349502Y150415D03*
X1349502Y140415D03*
X1383030Y160575D03*
X1383030Y150575D03*
X1363980Y160575D03*
X1363980Y150575D03*
X1373505Y160575D03*
X1373505Y150575D03*
D13*
X1373520Y184455D03*
X1373520Y174955D03*
X1359520Y174955D03*
X1359520Y184455D03*
D10*
X1393190Y184705D03*
X1393190Y174705D03*
X1383665Y184705D03*
X1383665Y174705D03*
X1349375Y176229D03*
X1349375Y186229D03*
X1360090Y340995D03*
X1350090Y340995D03*
X1350090Y331470D03*
X1360090Y331470D03*
X1358265Y278210D03*
X1358265Y288210D03*
X1367790Y278210D03*
X1367790Y288210D03*
D14*
X1357630Y305943D03*
X1357630Y297307D03*
D10*
X1376045Y302340D03*
X1376045Y312340D03*
X1385570Y302340D03*
X1385570Y312340D03*
X1370410Y321945D03*
X1380410Y321945D03*
X1370410Y331470D03*
X1380410Y331470D03*
X1370410Y340995D03*
X1380410Y340995D03*
X1366520Y302340D03*
X1366520Y312340D03*
X1403350Y160575D03*
X1403350Y150575D03*
X1422400Y160575D03*
X1422400Y150575D03*
X1412875Y160575D03*
X1412875Y150575D03*
X1428830Y21590D03*
X1438830Y21590D03*
D15*
X1422425Y313991D03*
X1431925Y313991D03*
X1441425Y313991D03*
X1441425Y287989D03*
X1422425Y287989D03*
D10*
X1359455Y50800D03*
X1349455Y50800D03*
X1371600Y72470D03*
X1371600Y82470D03*
X1441450Y328375D03*
X1441450Y338375D03*
D16*
X1434380Y133230D03*
X1434380Y128230D03*
X1434380Y123230D03*
X1434380Y118230D03*
X1407880Y118230D03*
X1407880Y123230D03*
X1407880Y128230D03*
X1407880Y133230D03*
D10*
X1429940Y97790D03*
X1419940Y97790D03*
X1429940Y107315D03*
X1419940Y107315D03*
D17*
X1441960Y373945D03*
D18*
X1431960Y398945D03*
X1426960Y398945D03*
D17*
X1346960Y373945D03*
D18*
X1421960Y398945D03*
X1416960Y398945D03*
X1411960Y398945D03*
X1406960Y398945D03*
X1401960Y398945D03*
X1396960Y398945D03*
X1391960Y398945D03*
X1386960Y398945D03*
X1381960Y398945D03*
X1376960Y398945D03*
X1371960Y398945D03*
X1366960Y398945D03*
X1361960Y398945D03*
X1356960Y398945D03*
D19*
X1416960Y41500D03*
X1416960Y35000D03*
X1416960Y28500D03*
X1416960Y22000D03*
X1371960Y22000D03*
X1371960Y28500D03*
X1371960Y35000D03*
X1371960Y41500D03*
D10*
X1372315Y55245D03*
X1382315Y55245D03*
X1461850Y98425D03*
X1471850Y98425D03*
D11*
X1473350Y89530D03*
X1460350Y89530D03*
D12*
X1473581Y73025D03*
X1466850Y73025D03*
X1460119Y73025D03*
D10*
X1471215Y60325D03*
X1461215Y60325D03*
X1471850Y21590D03*
X1461850Y21590D03*
X1533445Y200025D03*
X1523445Y200025D03*
X1543685Y206455D03*
X1543685Y216455D03*
X1526540Y210265D03*
X1526540Y220265D03*
X1539240Y184705D03*
X1539240Y174705D03*
X1520190Y184705D03*
X1520190Y174705D03*
X1529715Y184705D03*
X1529715Y174705D03*
X1488995Y119380D03*
X1478995Y119380D03*
X1478995Y109855D03*
X1488995Y109855D03*
X1470660Y221060D03*
X1470660Y231060D03*
X1483440Y200025D03*
X1493440Y200025D03*
X1472485Y204470D03*
X1462485Y204470D03*
X1461262Y150415D03*
X1461262Y140415D03*
X1494790Y160575D03*
X1494790Y150575D03*
X1475740Y160575D03*
X1475740Y150575D03*
X1485265Y160575D03*
X1485265Y150575D03*
D13*
X1485280Y184455D03*
X1485280Y174955D03*
X1471280Y174955D03*
X1471280Y184455D03*
D10*
X1504950Y184705D03*
X1504950Y174705D03*
X1495425Y184705D03*
X1495425Y174705D03*
X1461135Y176229D03*
X1461135Y186229D03*
X1471850Y340995D03*
X1461850Y340995D03*
X1461850Y331470D03*
X1471850Y331470D03*
X1470025Y278210D03*
X1470025Y288210D03*
X1479550Y278210D03*
X1479550Y288210D03*
D14*
X1469390Y305943D03*
X1469390Y297307D03*
D10*
X1487805Y302340D03*
X1487805Y312340D03*
X1497330Y302340D03*
X1497330Y312340D03*
X1482170Y321945D03*
X1492170Y321945D03*
X1482170Y331470D03*
X1492170Y331470D03*
X1482170Y340995D03*
X1492170Y340995D03*
X1478280Y302340D03*
X1478280Y312340D03*
X1515110Y160575D03*
X1515110Y150575D03*
X1534160Y160575D03*
X1534160Y150575D03*
X1524635Y160575D03*
X1524635Y150575D03*
X1540590Y21590D03*
X1550590Y21590D03*
D15*
X1534185Y313991D03*
X1543685Y313991D03*
X1553185Y313991D03*
X1553185Y287989D03*
X1534185Y287989D03*
D10*
X1471215Y50800D03*
X1461215Y50800D03*
X1483360Y72470D03*
X1483360Y82470D03*
X1553210Y328375D03*
X1553210Y338375D03*
D16*
X1546140Y133230D03*
X1546140Y128230D03*
X1546140Y123230D03*
X1546140Y118230D03*
X1519640Y118230D03*
X1519640Y123230D03*
X1519640Y128230D03*
X1519640Y133230D03*
D10*
X1541700Y97790D03*
X1531700Y97790D03*
X1541700Y107315D03*
X1531700Y107315D03*
D17*
X1553720Y373945D03*
D18*
X1543720Y398945D03*
X1538720Y398945D03*
D17*
X1458720Y373945D03*
D18*
X1533720Y398945D03*
X1528720Y398945D03*
X1523720Y398945D03*
X1518720Y398945D03*
X1513720Y398945D03*
X1508720Y398945D03*
X1503720Y398945D03*
X1498720Y398945D03*
X1493720Y398945D03*
X1488720Y398945D03*
X1483720Y398945D03*
X1478720Y398945D03*
X1473720Y398945D03*
X1468720Y398945D03*
D19*
X1528720Y41500D03*
X1528720Y35000D03*
X1528720Y28500D03*
X1528720Y22000D03*
X1483720Y22000D03*
X1483720Y28500D03*
X1483720Y35000D03*
X1483720Y41500D03*
D10*
X1484075Y55245D03*
X1494075Y55245D03*
X1573610Y98425D03*
X1583610Y98425D03*
D11*
X1585110Y89530D03*
X1572110Y89530D03*
D12*
X1585341Y73025D03*
X1578610Y73025D03*
X1571879Y73025D03*
D10*
X1582975Y60325D03*
X1572975Y60325D03*
X1583610Y21590D03*
X1573610Y21590D03*
X1645205Y200025D03*
X1635205Y200025D03*
X1655445Y206455D03*
X1655445Y216455D03*
X1638300Y210265D03*
X1638300Y220265D03*
X1651000Y184705D03*
X1651000Y174705D03*
X1631950Y184705D03*
X1631950Y174705D03*
X1641475Y184705D03*
X1641475Y174705D03*
X1600755Y119380D03*
X1590755Y119380D03*
X1590755Y109855D03*
X1600755Y109855D03*
X1582420Y221060D03*
X1582420Y231060D03*
X1595200Y200025D03*
X1605200Y200025D03*
X1584245Y204470D03*
X1574245Y204470D03*
X1573022Y150415D03*
X1573022Y140415D03*
X1606550Y160575D03*
X1606550Y150575D03*
X1587500Y160575D03*
X1587500Y150575D03*
X1597025Y160575D03*
X1597025Y150575D03*
D13*
X1597040Y184455D03*
X1597040Y174955D03*
X1583040Y174955D03*
X1583040Y184455D03*
D10*
X1616710Y184705D03*
X1616710Y174705D03*
X1607185Y184705D03*
X1607185Y174705D03*
X1572895Y176229D03*
X1572895Y186229D03*
X1583610Y340995D03*
X1573610Y340995D03*
X1573610Y331470D03*
X1583610Y331470D03*
X1581785Y278210D03*
X1581785Y288210D03*
X1591310Y278210D03*
X1591310Y288210D03*
D14*
X1581150Y305943D03*
X1581150Y297307D03*
D10*
X1599565Y302340D03*
X1599565Y312340D03*
X1609090Y302340D03*
X1609090Y312340D03*
X1593930Y321945D03*
X1603930Y321945D03*
X1593930Y331470D03*
X1603930Y331470D03*
X1593930Y340995D03*
X1603930Y340995D03*
X1590040Y302340D03*
X1590040Y312340D03*
X1626870Y160575D03*
X1626870Y150575D03*
X1645920Y160575D03*
X1645920Y150575D03*
X1636395Y160575D03*
X1636395Y150575D03*
X1652350Y21590D03*
X1662350Y21590D03*
D15*
X1645945Y313991D03*
X1655445Y313991D03*
X1664945Y313991D03*
X1664945Y287989D03*
X1645945Y287989D03*
D10*
X1582975Y50800D03*
X1572975Y50800D03*
X1595120Y72470D03*
X1595120Y82470D03*
X1664970Y328375D03*
X1664970Y338375D03*
D16*
X1657900Y133230D03*
X1657900Y128230D03*
X1657900Y123230D03*
X1657900Y118230D03*
X1631400Y118230D03*
X1631400Y123230D03*
X1631400Y128230D03*
X1631400Y133230D03*
D10*
X1653460Y97790D03*
X1643460Y97790D03*
X1653460Y107315D03*
X1643460Y107315D03*
D17*
X1665480Y373945D03*
D18*
X1655480Y398945D03*
X1650480Y398945D03*
D17*
X1570480Y373945D03*
D18*
X1645480Y398945D03*
X1640480Y398945D03*
X1635480Y398945D03*
X1630480Y398945D03*
X1625480Y398945D03*
X1620480Y398945D03*
X1615480Y398945D03*
X1610480Y398945D03*
X1605480Y398945D03*
X1600480Y398945D03*
X1595480Y398945D03*
X1590480Y398945D03*
X1585480Y398945D03*
X1580480Y398945D03*
D19*
X1640480Y41500D03*
X1640480Y35000D03*
X1640480Y28500D03*
X1640480Y22000D03*
X1595480Y22000D03*
X1595480Y28500D03*
X1595480Y35000D03*
X1595480Y41500D03*
D10*
X1595835Y55245D03*
X1605835Y55245D03*
X1685370Y98425D03*
X1695370Y98425D03*
D11*
X1696870Y89530D03*
X1683870Y89530D03*
D12*
X1697101Y73025D03*
X1690370Y73025D03*
X1683639Y73025D03*
D10*
X1694735Y60325D03*
X1684735Y60325D03*
X1695370Y21590D03*
X1685370Y21590D03*
X1756965Y200025D03*
X1746965Y200025D03*
X1767205Y206455D03*
X1767205Y216455D03*
X1750060Y210265D03*
X1750060Y220265D03*
X1762760Y184705D03*
X1762760Y174705D03*
X1743710Y184705D03*
X1743710Y174705D03*
X1753235Y184705D03*
X1753235Y174705D03*
X1712515Y119380D03*
X1702515Y119380D03*
X1702515Y109855D03*
X1712515Y109855D03*
X1694180Y221060D03*
X1694180Y231060D03*
X1706960Y200025D03*
X1716960Y200025D03*
X1696005Y204470D03*
X1686005Y204470D03*
X1684782Y150415D03*
X1684782Y140415D03*
X1718310Y160575D03*
X1718310Y150575D03*
X1699260Y160575D03*
X1699260Y150575D03*
X1708785Y160575D03*
X1708785Y150575D03*
D13*
X1708800Y184455D03*
X1708800Y174955D03*
X1694800Y174955D03*
X1694800Y184455D03*
D10*
X1728470Y184705D03*
X1728470Y174705D03*
X1718945Y184705D03*
X1718945Y174705D03*
X1684655Y176229D03*
X1684655Y186229D03*
X1695370Y340995D03*
X1685370Y340995D03*
X1685370Y331470D03*
X1695370Y331470D03*
X1693545Y278210D03*
X1693545Y288210D03*
X1703070Y278210D03*
X1703070Y288210D03*
D14*
X1692910Y305943D03*
X1692910Y297307D03*
D10*
X1711325Y302340D03*
X1711325Y312340D03*
X1720850Y302340D03*
X1720850Y312340D03*
X1705690Y321945D03*
X1715690Y321945D03*
X1705690Y331470D03*
X1715690Y331470D03*
X1705690Y340995D03*
X1715690Y340995D03*
X1701800Y302340D03*
X1701800Y312340D03*
X1738630Y160575D03*
X1738630Y150575D03*
X1757680Y160575D03*
X1757680Y150575D03*
X1748155Y160575D03*
X1748155Y150575D03*
X1764110Y21590D03*
X1774110Y21590D03*
D15*
X1757705Y313991D03*
X1767205Y313991D03*
X1776705Y313991D03*
X1776705Y287989D03*
X1757705Y287989D03*
D10*
X1694735Y50800D03*
X1684735Y50800D03*
X1706880Y72470D03*
X1706880Y82470D03*
X1776730Y328375D03*
X1776730Y338375D03*
D16*
X1769660Y133230D03*
X1769660Y128230D03*
X1769660Y123230D03*
X1769660Y118230D03*
X1743160Y118230D03*
X1743160Y123230D03*
X1743160Y128230D03*
X1743160Y133230D03*
D10*
X1765220Y97790D03*
X1755220Y97790D03*
X1765220Y107315D03*
X1755220Y107315D03*
D17*
X1777240Y373945D03*
D18*
X1767240Y398945D03*
X1762240Y398945D03*
D17*
X1682240Y373945D03*
D18*
X1757240Y398945D03*
X1752240Y398945D03*
X1747240Y398945D03*
X1742240Y398945D03*
X1737240Y398945D03*
X1732240Y398945D03*
X1727240Y398945D03*
X1722240Y398945D03*
X1717240Y398945D03*
X1712240Y398945D03*
X1707240Y398945D03*
X1702240Y398945D03*
X1697240Y398945D03*
X1692240Y398945D03*
D19*
X1752240Y41500D03*
X1752240Y35000D03*
X1752240Y28500D03*
X1752240Y22000D03*
X1707240Y22000D03*
X1707240Y28500D03*
X1707240Y35000D03*
X1707240Y41500D03*
D10*
X1707595Y55245D03*
X1717595Y55245D03*
X8970Y509905D03*
X18970Y509905D03*
D11*
X20470Y501010D03*
X7470Y501010D03*
D12*
X20701Y484505D03*
X13970Y484505D03*
X7239Y484505D03*
D10*
X18335Y471805D03*
X8335Y471805D03*
X18970Y433070D03*
X8970Y433070D03*
X80565Y611505D03*
X70565Y611505D03*
X90805Y617935D03*
X90805Y627935D03*
X73660Y621745D03*
X73660Y631745D03*
X86360Y596185D03*
X86360Y586185D03*
X67310Y596185D03*
X67310Y586185D03*
X76835Y596185D03*
X76835Y586185D03*
X36115Y530860D03*
X26115Y530860D03*
X26115Y521335D03*
X36115Y521335D03*
X17780Y632540D03*
X17780Y642540D03*
X30560Y611505D03*
X40560Y611505D03*
X19605Y615950D03*
X9605Y615950D03*
X8382Y561895D03*
X8382Y551895D03*
X41910Y572055D03*
X41910Y562055D03*
X22860Y572055D03*
X22860Y562055D03*
X32385Y572055D03*
X32385Y562055D03*
D13*
X32400Y595935D03*
X32400Y586435D03*
X18400Y586435D03*
X18400Y595935D03*
D10*
X52070Y596185D03*
X52070Y586185D03*
X42545Y596185D03*
X42545Y586185D03*
X8255Y587709D03*
X8255Y597709D03*
X18970Y752475D03*
X8970Y752475D03*
X8970Y742950D03*
X18970Y742950D03*
X17145Y689690D03*
X17145Y699690D03*
X26670Y689690D03*
X26670Y699690D03*
D14*
X16510Y717423D03*
X16510Y708787D03*
D10*
X34925Y713820D03*
X34925Y723820D03*
X44450Y713820D03*
X44450Y723820D03*
X29290Y733425D03*
X39290Y733425D03*
X29290Y742950D03*
X39290Y742950D03*
X29290Y752475D03*
X39290Y752475D03*
X25400Y713820D03*
X25400Y723820D03*
X62230Y572055D03*
X62230Y562055D03*
X81280Y572055D03*
X81280Y562055D03*
X71755Y572055D03*
X71755Y562055D03*
X87710Y433070D03*
X97710Y433070D03*
D15*
X81305Y725471D03*
X90805Y725471D03*
X100305Y725471D03*
X100305Y699469D03*
X81305Y699469D03*
D10*
X18335Y462280D03*
X8335Y462280D03*
X30480Y483950D03*
X30480Y493950D03*
X100330Y739855D03*
X100330Y749855D03*
D16*
X93260Y544710D03*
X93260Y539710D03*
X93260Y534710D03*
X93260Y529710D03*
X66760Y529710D03*
X66760Y534710D03*
X66760Y539710D03*
X66760Y544710D03*
D10*
X88820Y509270D03*
X78820Y509270D03*
X88820Y518795D03*
X78820Y518795D03*
D17*
X100840Y785425D03*
D18*
X90840Y810425D03*
X85840Y810425D03*
D17*
X5840Y785425D03*
D18*
X80840Y810425D03*
X75840Y810425D03*
X70840Y810425D03*
X65840Y810425D03*
X60840Y810425D03*
X55840Y810425D03*
X50840Y810425D03*
X45840Y810425D03*
X40840Y810425D03*
X35840Y810425D03*
X30840Y810425D03*
X25840Y810425D03*
X20840Y810425D03*
X15840Y810425D03*
D19*
X75840Y452980D03*
X75840Y446480D03*
X75840Y439980D03*
X75840Y433480D03*
X30840Y433480D03*
X30840Y439980D03*
X30840Y446480D03*
X30840Y452980D03*
D10*
X31195Y466725D03*
X41195Y466725D03*
X120730Y509905D03*
X130730Y509905D03*
D11*
X132230Y501010D03*
X119230Y501010D03*
D12*
X132461Y484505D03*
X125730Y484505D03*
X118999Y484505D03*
D10*
X130095Y471805D03*
X120095Y471805D03*
X130730Y433070D03*
X120730Y433070D03*
X192325Y611505D03*
X182325Y611505D03*
X202565Y617935D03*
X202565Y627935D03*
X185420Y621745D03*
X185420Y631745D03*
X198120Y596185D03*
X198120Y586185D03*
X179070Y596185D03*
X179070Y586185D03*
X188595Y596185D03*
X188595Y586185D03*
X147875Y530860D03*
X137875Y530860D03*
X137875Y521335D03*
X147875Y521335D03*
X129540Y632540D03*
X129540Y642540D03*
X142320Y611505D03*
X152320Y611505D03*
X131365Y615950D03*
X121365Y615950D03*
X120142Y561895D03*
X120142Y551895D03*
X153670Y572055D03*
X153670Y562055D03*
X134620Y572055D03*
X134620Y562055D03*
X144145Y572055D03*
X144145Y562055D03*
D13*
X144160Y595935D03*
X144160Y586435D03*
X130160Y586435D03*
X130160Y595935D03*
D10*
X163830Y596185D03*
X163830Y586185D03*
X154305Y596185D03*
X154305Y586185D03*
X120015Y587709D03*
X120015Y597709D03*
X130730Y752475D03*
X120730Y752475D03*
X120730Y742950D03*
X130730Y742950D03*
X128905Y689690D03*
X128905Y699690D03*
X138430Y689690D03*
X138430Y699690D03*
D14*
X128270Y717423D03*
X128270Y708787D03*
D10*
X146685Y713820D03*
X146685Y723820D03*
X156210Y713820D03*
X156210Y723820D03*
X141050Y733425D03*
X151050Y733425D03*
X141050Y742950D03*
X151050Y742950D03*
X141050Y752475D03*
X151050Y752475D03*
X137160Y713820D03*
X137160Y723820D03*
X173990Y572055D03*
X173990Y562055D03*
X193040Y572055D03*
X193040Y562055D03*
X183515Y572055D03*
X183515Y562055D03*
X199470Y433070D03*
X209470Y433070D03*
D15*
X193065Y725471D03*
X202565Y725471D03*
X212065Y725471D03*
X212065Y699469D03*
X193065Y699469D03*
D10*
X130095Y462280D03*
X120095Y462280D03*
X142240Y483950D03*
X142240Y493950D03*
X212090Y739855D03*
X212090Y749855D03*
D16*
X205020Y544710D03*
X205020Y539710D03*
X205020Y534710D03*
X205020Y529710D03*
X178520Y529710D03*
X178520Y534710D03*
X178520Y539710D03*
X178520Y544710D03*
D10*
X200580Y509270D03*
X190580Y509270D03*
X200580Y518795D03*
X190580Y518795D03*
D17*
X212600Y785425D03*
D18*
X202600Y810425D03*
X197600Y810425D03*
D17*
X117600Y785425D03*
D18*
X192600Y810425D03*
X187600Y810425D03*
X182600Y810425D03*
X177600Y810425D03*
X172600Y810425D03*
X167600Y810425D03*
X162600Y810425D03*
X157600Y810425D03*
X152600Y810425D03*
X147600Y810425D03*
X142600Y810425D03*
X137600Y810425D03*
X132600Y810425D03*
X127600Y810425D03*
D19*
X187600Y452980D03*
X187600Y446480D03*
X187600Y439980D03*
X187600Y433480D03*
X142600Y433480D03*
X142600Y439980D03*
X142600Y446480D03*
X142600Y452980D03*
D10*
X142955Y466725D03*
X152955Y466725D03*
X232490Y509905D03*
X242490Y509905D03*
D11*
X243990Y501010D03*
X230990Y501010D03*
D12*
X244221Y484505D03*
X237490Y484505D03*
X230759Y484505D03*
D10*
X241855Y471805D03*
X231855Y471805D03*
X242490Y433070D03*
X232490Y433070D03*
X304085Y611505D03*
X294085Y611505D03*
X314325Y617935D03*
X314325Y627935D03*
X297180Y621745D03*
X297180Y631745D03*
X309880Y596185D03*
X309880Y586185D03*
X290830Y596185D03*
X290830Y586185D03*
X300355Y596185D03*
X300355Y586185D03*
X259635Y530860D03*
X249635Y530860D03*
X249635Y521335D03*
X259635Y521335D03*
X241300Y632540D03*
X241300Y642540D03*
X254080Y611505D03*
X264080Y611505D03*
X243125Y615950D03*
X233125Y615950D03*
X231902Y561895D03*
X231902Y551895D03*
X265430Y572055D03*
X265430Y562055D03*
X246380Y572055D03*
X246380Y562055D03*
X255905Y572055D03*
X255905Y562055D03*
D13*
X255920Y595935D03*
X255920Y586435D03*
X241920Y586435D03*
X241920Y595935D03*
D10*
X275590Y596185D03*
X275590Y586185D03*
X266065Y596185D03*
X266065Y586185D03*
X231775Y587709D03*
X231775Y597709D03*
X242490Y752475D03*
X232490Y752475D03*
X232490Y742950D03*
X242490Y742950D03*
X240665Y689690D03*
X240665Y699690D03*
X250190Y689690D03*
X250190Y699690D03*
D14*
X240030Y717423D03*
X240030Y708787D03*
D10*
X258445Y713820D03*
X258445Y723820D03*
X267970Y713820D03*
X267970Y723820D03*
X252810Y733425D03*
X262810Y733425D03*
X252810Y742950D03*
X262810Y742950D03*
X252810Y752475D03*
X262810Y752475D03*
X248920Y713820D03*
X248920Y723820D03*
X285750Y572055D03*
X285750Y562055D03*
X304800Y572055D03*
X304800Y562055D03*
X295275Y572055D03*
X295275Y562055D03*
X311230Y433070D03*
X321230Y433070D03*
D15*
X304825Y725471D03*
X314325Y725471D03*
X323825Y725471D03*
X323825Y699469D03*
X304825Y699469D03*
D10*
X241855Y462280D03*
X231855Y462280D03*
X254000Y483950D03*
X254000Y493950D03*
X323850Y739855D03*
X323850Y749855D03*
D16*
X316780Y544710D03*
X316780Y539710D03*
X316780Y534710D03*
X316780Y529710D03*
X290280Y529710D03*
X290280Y534710D03*
X290280Y539710D03*
X290280Y544710D03*
D10*
X312340Y509270D03*
X302340Y509270D03*
X312340Y518795D03*
X302340Y518795D03*
D17*
X324360Y785425D03*
D18*
X314360Y810425D03*
X309360Y810425D03*
D17*
X229360Y785425D03*
D18*
X304360Y810425D03*
X299360Y810425D03*
X294360Y810425D03*
X289360Y810425D03*
X284360Y810425D03*
X279360Y810425D03*
X274360Y810425D03*
X269360Y810425D03*
X264360Y810425D03*
X259360Y810425D03*
X254360Y810425D03*
X249360Y810425D03*
X244360Y810425D03*
X239360Y810425D03*
D19*
X299360Y452980D03*
X299360Y446480D03*
X299360Y439980D03*
X299360Y433480D03*
X254360Y433480D03*
X254360Y439980D03*
X254360Y446480D03*
X254360Y452980D03*
D10*
X254715Y466725D03*
X264715Y466725D03*
X344250Y509905D03*
X354250Y509905D03*
D11*
X355750Y501010D03*
X342750Y501010D03*
D12*
X355981Y484505D03*
X349250Y484505D03*
X342519Y484505D03*
D10*
X353615Y471805D03*
X343615Y471805D03*
X354250Y433070D03*
X344250Y433070D03*
X415845Y611505D03*
X405845Y611505D03*
X426085Y617935D03*
X426085Y627935D03*
X408940Y621745D03*
X408940Y631745D03*
X421640Y596185D03*
X421640Y586185D03*
X402590Y596185D03*
X402590Y586185D03*
X412115Y596185D03*
X412115Y586185D03*
X371395Y530860D03*
X361395Y530860D03*
X361395Y521335D03*
X371395Y521335D03*
X353060Y632540D03*
X353060Y642540D03*
X365840Y611505D03*
X375840Y611505D03*
X354885Y615950D03*
X344885Y615950D03*
X343662Y561895D03*
X343662Y551895D03*
X377190Y572055D03*
X377190Y562055D03*
X358140Y572055D03*
X358140Y562055D03*
X367665Y572055D03*
X367665Y562055D03*
D13*
X367680Y595935D03*
X367680Y586435D03*
X353680Y586435D03*
X353680Y595935D03*
D10*
X387350Y596185D03*
X387350Y586185D03*
X377825Y596185D03*
X377825Y586185D03*
X343535Y587709D03*
X343535Y597709D03*
X354250Y752475D03*
X344250Y752475D03*
X344250Y742950D03*
X354250Y742950D03*
X352425Y689690D03*
X352425Y699690D03*
X361950Y689690D03*
X361950Y699690D03*
D14*
X351790Y717423D03*
X351790Y708787D03*
D10*
X370205Y713820D03*
X370205Y723820D03*
X379730Y713820D03*
X379730Y723820D03*
X364570Y733425D03*
X374570Y733425D03*
X364570Y742950D03*
X374570Y742950D03*
X364570Y752475D03*
X374570Y752475D03*
X360680Y713820D03*
X360680Y723820D03*
X397510Y572055D03*
X397510Y562055D03*
X416560Y572055D03*
X416560Y562055D03*
X407035Y572055D03*
X407035Y562055D03*
X422990Y433070D03*
X432990Y433070D03*
D15*
X416585Y725471D03*
X426085Y725471D03*
X435585Y725471D03*
X435585Y699469D03*
X416585Y699469D03*
D10*
X353615Y462280D03*
X343615Y462280D03*
X365760Y483950D03*
X365760Y493950D03*
X435610Y739855D03*
X435610Y749855D03*
D16*
X428540Y544710D03*
X428540Y539710D03*
X428540Y534710D03*
X428540Y529710D03*
X402040Y529710D03*
X402040Y534710D03*
X402040Y539710D03*
X402040Y544710D03*
D10*
X424100Y509270D03*
X414100Y509270D03*
X424100Y518795D03*
X414100Y518795D03*
D17*
X436120Y785425D03*
D18*
X426120Y810425D03*
X421120Y810425D03*
D17*
X341120Y785425D03*
D18*
X416120Y810425D03*
X411120Y810425D03*
X406120Y810425D03*
X401120Y810425D03*
X396120Y810425D03*
X391120Y810425D03*
X386120Y810425D03*
X381120Y810425D03*
X376120Y810425D03*
X371120Y810425D03*
X366120Y810425D03*
X361120Y810425D03*
X356120Y810425D03*
X351120Y810425D03*
D19*
X411120Y452980D03*
X411120Y446480D03*
X411120Y439980D03*
X411120Y433480D03*
X366120Y433480D03*
X366120Y439980D03*
X366120Y446480D03*
X366120Y452980D03*
D10*
X366475Y466725D03*
X376475Y466725D03*
X456010Y509905D03*
X466010Y509905D03*
D11*
X467510Y501010D03*
X454510Y501010D03*
D12*
X467741Y484505D03*
X461010Y484505D03*
X454279Y484505D03*
D10*
X465375Y471805D03*
X455375Y471805D03*
X466010Y433070D03*
X456010Y433070D03*
X527605Y611505D03*
X517605Y611505D03*
X537845Y617935D03*
X537845Y627935D03*
X520700Y621745D03*
X520700Y631745D03*
X533400Y596185D03*
X533400Y586185D03*
X514350Y596185D03*
X514350Y586185D03*
X523875Y596185D03*
X523875Y586185D03*
X483155Y530860D03*
X473155Y530860D03*
X473155Y521335D03*
X483155Y521335D03*
X464820Y632540D03*
X464820Y642540D03*
X477600Y611505D03*
X487600Y611505D03*
X466645Y615950D03*
X456645Y615950D03*
X455422Y561895D03*
X455422Y551895D03*
X488950Y572055D03*
X488950Y562055D03*
X469900Y572055D03*
X469900Y562055D03*
X479425Y572055D03*
X479425Y562055D03*
D13*
X479440Y595935D03*
X479440Y586435D03*
X465440Y586435D03*
X465440Y595935D03*
D10*
X499110Y596185D03*
X499110Y586185D03*
X489585Y596185D03*
X489585Y586185D03*
X455295Y587709D03*
X455295Y597709D03*
X466010Y752475D03*
X456010Y752475D03*
X456010Y742950D03*
X466010Y742950D03*
X464185Y689690D03*
X464185Y699690D03*
X473710Y689690D03*
X473710Y699690D03*
D14*
X463550Y717423D03*
X463550Y708787D03*
D10*
X481965Y713820D03*
X481965Y723820D03*
X491490Y713820D03*
X491490Y723820D03*
X476330Y733425D03*
X486330Y733425D03*
X476330Y742950D03*
X486330Y742950D03*
X476330Y752475D03*
X486330Y752475D03*
X472440Y713820D03*
X472440Y723820D03*
X509270Y572055D03*
X509270Y562055D03*
X528320Y572055D03*
X528320Y562055D03*
X518795Y572055D03*
X518795Y562055D03*
X534750Y433070D03*
X544750Y433070D03*
D15*
X528345Y725471D03*
X537845Y725471D03*
X547345Y725471D03*
X547345Y699469D03*
X528345Y699469D03*
D10*
X465375Y462280D03*
X455375Y462280D03*
X477520Y483950D03*
X477520Y493950D03*
X547370Y739855D03*
X547370Y749855D03*
D16*
X540300Y544710D03*
X540300Y539710D03*
X540300Y534710D03*
X540300Y529710D03*
X513800Y529710D03*
X513800Y534710D03*
X513800Y539710D03*
X513800Y544710D03*
D10*
X535860Y509270D03*
X525860Y509270D03*
X535860Y518795D03*
X525860Y518795D03*
D17*
X547880Y785425D03*
D18*
X537880Y810425D03*
X532880Y810425D03*
D17*
X452880Y785425D03*
D18*
X527880Y810425D03*
X522880Y810425D03*
X517880Y810425D03*
X512880Y810425D03*
X507880Y810425D03*
X502880Y810425D03*
X497880Y810425D03*
X492880Y810425D03*
X487880Y810425D03*
X482880Y810425D03*
X477880Y810425D03*
X472880Y810425D03*
X467880Y810425D03*
X462880Y810425D03*
D19*
X522880Y452980D03*
X522880Y446480D03*
X522880Y439980D03*
X522880Y433480D03*
X477880Y433480D03*
X477880Y439980D03*
X477880Y446480D03*
X477880Y452980D03*
D10*
X478235Y466725D03*
X488235Y466725D03*
X567770Y509905D03*
X577770Y509905D03*
D11*
X579270Y501010D03*
X566270Y501010D03*
D12*
X579501Y484505D03*
X572770Y484505D03*
X566039Y484505D03*
D10*
X577135Y471805D03*
X567135Y471805D03*
X577770Y433070D03*
X567770Y433070D03*
X639365Y611505D03*
X629365Y611505D03*
X649605Y617935D03*
X649605Y627935D03*
X632460Y621745D03*
X632460Y631745D03*
X645160Y596185D03*
X645160Y586185D03*
X626110Y596185D03*
X626110Y586185D03*
X635635Y596185D03*
X635635Y586185D03*
X594915Y530860D03*
X584915Y530860D03*
X584915Y521335D03*
X594915Y521335D03*
X576580Y632540D03*
X576580Y642540D03*
X589360Y611505D03*
X599360Y611505D03*
X578405Y615950D03*
X568405Y615950D03*
X567182Y561895D03*
X567182Y551895D03*
X600710Y572055D03*
X600710Y562055D03*
X581660Y572055D03*
X581660Y562055D03*
X591185Y572055D03*
X591185Y562055D03*
D13*
X591200Y595935D03*
X591200Y586435D03*
X577200Y586435D03*
X577200Y595935D03*
D10*
X610870Y596185D03*
X610870Y586185D03*
X601345Y596185D03*
X601345Y586185D03*
X567055Y587709D03*
X567055Y597709D03*
X577770Y752475D03*
X567770Y752475D03*
X567770Y742950D03*
X577770Y742950D03*
X575945Y689690D03*
X575945Y699690D03*
X585470Y689690D03*
X585470Y699690D03*
D14*
X575310Y717423D03*
X575310Y708787D03*
D10*
X593725Y713820D03*
X593725Y723820D03*
X603250Y713820D03*
X603250Y723820D03*
X588090Y733425D03*
X598090Y733425D03*
X588090Y742950D03*
X598090Y742950D03*
X588090Y752475D03*
X598090Y752475D03*
X584200Y713820D03*
X584200Y723820D03*
X621030Y572055D03*
X621030Y562055D03*
X640080Y572055D03*
X640080Y562055D03*
X630555Y572055D03*
X630555Y562055D03*
X646510Y433070D03*
X656510Y433070D03*
D15*
X640105Y725471D03*
X649605Y725471D03*
X659105Y725471D03*
X659105Y699469D03*
X640105Y699469D03*
D10*
X577135Y462280D03*
X567135Y462280D03*
X589280Y483950D03*
X589280Y493950D03*
X659130Y739855D03*
X659130Y749855D03*
D16*
X652060Y544710D03*
X652060Y539710D03*
X652060Y534710D03*
X652060Y529710D03*
X625560Y529710D03*
X625560Y534710D03*
X625560Y539710D03*
X625560Y544710D03*
D10*
X647620Y509270D03*
X637620Y509270D03*
X647620Y518795D03*
X637620Y518795D03*
D17*
X659640Y785425D03*
D18*
X649640Y810425D03*
X644640Y810425D03*
D17*
X564640Y785425D03*
D18*
X639640Y810425D03*
X634640Y810425D03*
X629640Y810425D03*
X624640Y810425D03*
X619640Y810425D03*
X614640Y810425D03*
X609640Y810425D03*
X604640Y810425D03*
X599640Y810425D03*
X594640Y810425D03*
X589640Y810425D03*
X584640Y810425D03*
X579640Y810425D03*
X574640Y810425D03*
D19*
X634640Y452980D03*
X634640Y446480D03*
X634640Y439980D03*
X634640Y433480D03*
X589640Y433480D03*
X589640Y439980D03*
X589640Y446480D03*
X589640Y452980D03*
D10*
X589995Y466725D03*
X599995Y466725D03*
X679530Y509905D03*
X689530Y509905D03*
D11*
X691030Y501010D03*
X678030Y501010D03*
D12*
X691261Y484505D03*
X684530Y484505D03*
X677799Y484505D03*
D10*
X688895Y471805D03*
X678895Y471805D03*
X689530Y433070D03*
X679530Y433070D03*
X751125Y611505D03*
X741125Y611505D03*
X761365Y617935D03*
X761365Y627935D03*
X744220Y621745D03*
X744220Y631745D03*
X756920Y596185D03*
X756920Y586185D03*
X737870Y596185D03*
X737870Y586185D03*
X747395Y596185D03*
X747395Y586185D03*
X706675Y530860D03*
X696675Y530860D03*
X696675Y521335D03*
X706675Y521335D03*
X688340Y632540D03*
X688340Y642540D03*
X701120Y611505D03*
X711120Y611505D03*
X690165Y615950D03*
X680165Y615950D03*
X678942Y561895D03*
X678942Y551895D03*
X712470Y572055D03*
X712470Y562055D03*
X693420Y572055D03*
X693420Y562055D03*
X702945Y572055D03*
X702945Y562055D03*
D13*
X702960Y595935D03*
X702960Y586435D03*
X688960Y586435D03*
X688960Y595935D03*
D10*
X722630Y596185D03*
X722630Y586185D03*
X713105Y596185D03*
X713105Y586185D03*
X678815Y587709D03*
X678815Y597709D03*
X689530Y752475D03*
X679530Y752475D03*
X679530Y742950D03*
X689530Y742950D03*
X687705Y689690D03*
X687705Y699690D03*
X697230Y689690D03*
X697230Y699690D03*
D14*
X687070Y717423D03*
X687070Y708787D03*
D10*
X705485Y713820D03*
X705485Y723820D03*
X715010Y713820D03*
X715010Y723820D03*
X699850Y733425D03*
X709850Y733425D03*
X699850Y742950D03*
X709850Y742950D03*
X699850Y752475D03*
X709850Y752475D03*
X695960Y713820D03*
X695960Y723820D03*
X732790Y572055D03*
X732790Y562055D03*
X751840Y572055D03*
X751840Y562055D03*
X742315Y572055D03*
X742315Y562055D03*
X758270Y433070D03*
X768270Y433070D03*
D15*
X751865Y725471D03*
X761365Y725471D03*
X770865Y725471D03*
X770865Y699469D03*
X751865Y699469D03*
D10*
X688895Y462280D03*
X678895Y462280D03*
X701040Y483950D03*
X701040Y493950D03*
X770890Y739855D03*
X770890Y749855D03*
D16*
X763820Y544710D03*
X763820Y539710D03*
X763820Y534710D03*
X763820Y529710D03*
X737320Y529710D03*
X737320Y534710D03*
X737320Y539710D03*
X737320Y544710D03*
D10*
X759380Y509270D03*
X749380Y509270D03*
X759380Y518795D03*
X749380Y518795D03*
D17*
X771400Y785425D03*
D18*
X761400Y810425D03*
X756400Y810425D03*
D17*
X676400Y785425D03*
D18*
X751400Y810425D03*
X746400Y810425D03*
X741400Y810425D03*
X736400Y810425D03*
X731400Y810425D03*
X726400Y810425D03*
X721400Y810425D03*
X716400Y810425D03*
X711400Y810425D03*
X706400Y810425D03*
X701400Y810425D03*
X696400Y810425D03*
X691400Y810425D03*
X686400Y810425D03*
D19*
X746400Y452980D03*
X746400Y446480D03*
X746400Y439980D03*
X746400Y433480D03*
X701400Y433480D03*
X701400Y439980D03*
X701400Y446480D03*
X701400Y452980D03*
D10*
X701755Y466725D03*
X711755Y466725D03*
X791290Y509905D03*
X801290Y509905D03*
D11*
X802790Y501010D03*
X789790Y501010D03*
D12*
X803021Y484505D03*
X796290Y484505D03*
X789559Y484505D03*
D10*
X800655Y471805D03*
X790655Y471805D03*
X801290Y433070D03*
X791290Y433070D03*
X862885Y611505D03*
X852885Y611505D03*
X873125Y617935D03*
X873125Y627935D03*
X855980Y621745D03*
X855980Y631745D03*
X868680Y596185D03*
X868680Y586185D03*
X849630Y596185D03*
X849630Y586185D03*
X859155Y596185D03*
X859155Y586185D03*
X818435Y530860D03*
X808435Y530860D03*
X808435Y521335D03*
X818435Y521335D03*
X800100Y632540D03*
X800100Y642540D03*
X812880Y611505D03*
X822880Y611505D03*
X801925Y615950D03*
X791925Y615950D03*
X790702Y561895D03*
X790702Y551895D03*
X824230Y572055D03*
X824230Y562055D03*
X805180Y572055D03*
X805180Y562055D03*
X814705Y572055D03*
X814705Y562055D03*
D13*
X814720Y595935D03*
X814720Y586435D03*
X800720Y586435D03*
X800720Y595935D03*
D10*
X834390Y596185D03*
X834390Y586185D03*
X824865Y596185D03*
X824865Y586185D03*
X790575Y587709D03*
X790575Y597709D03*
X801290Y752475D03*
X791290Y752475D03*
X791290Y742950D03*
X801290Y742950D03*
X799465Y689690D03*
X799465Y699690D03*
X808990Y689690D03*
X808990Y699690D03*
D14*
X798830Y717423D03*
X798830Y708787D03*
D10*
X817245Y713820D03*
X817245Y723820D03*
X826770Y713820D03*
X826770Y723820D03*
X811610Y733425D03*
X821610Y733425D03*
X811610Y742950D03*
X821610Y742950D03*
X811610Y752475D03*
X821610Y752475D03*
X807720Y713820D03*
X807720Y723820D03*
X844550Y572055D03*
X844550Y562055D03*
X863600Y572055D03*
X863600Y562055D03*
X854075Y572055D03*
X854075Y562055D03*
X870030Y433070D03*
X880030Y433070D03*
D15*
X863625Y725471D03*
X873125Y725471D03*
X882625Y725471D03*
X882625Y699469D03*
X863625Y699469D03*
D10*
X800655Y462280D03*
X790655Y462280D03*
X812800Y483950D03*
X812800Y493950D03*
X882650Y739855D03*
X882650Y749855D03*
D16*
X875580Y544710D03*
X875580Y539710D03*
X875580Y534710D03*
X875580Y529710D03*
X849080Y529710D03*
X849080Y534710D03*
X849080Y539710D03*
X849080Y544710D03*
D10*
X871140Y509270D03*
X861140Y509270D03*
X871140Y518795D03*
X861140Y518795D03*
D17*
X883160Y785425D03*
D18*
X873160Y810425D03*
X868160Y810425D03*
D17*
X788160Y785425D03*
D18*
X863160Y810425D03*
X858160Y810425D03*
X853160Y810425D03*
X848160Y810425D03*
X843160Y810425D03*
X838160Y810425D03*
X833160Y810425D03*
X828160Y810425D03*
X823160Y810425D03*
X818160Y810425D03*
X813160Y810425D03*
X808160Y810425D03*
X803160Y810425D03*
X798160Y810425D03*
D19*
X858160Y452980D03*
X858160Y446480D03*
X858160Y439980D03*
X858160Y433480D03*
X813160Y433480D03*
X813160Y439980D03*
X813160Y446480D03*
X813160Y452980D03*
D10*
X813515Y466725D03*
X823515Y466725D03*
X903050Y509905D03*
X913050Y509905D03*
D11*
X914550Y501010D03*
X901550Y501010D03*
D12*
X914781Y484505D03*
X908050Y484505D03*
X901319Y484505D03*
D10*
X912415Y471805D03*
X902415Y471805D03*
X913050Y433070D03*
X903050Y433070D03*
X974645Y611505D03*
X964645Y611505D03*
X984885Y617935D03*
X984885Y627935D03*
X967740Y621745D03*
X967740Y631745D03*
X980440Y596185D03*
X980440Y586185D03*
X961390Y596185D03*
X961390Y586185D03*
X970915Y596185D03*
X970915Y586185D03*
X930195Y530860D03*
X920195Y530860D03*
X920195Y521335D03*
X930195Y521335D03*
X911860Y632540D03*
X911860Y642540D03*
X924640Y611505D03*
X934640Y611505D03*
X913685Y615950D03*
X903685Y615950D03*
X902462Y561895D03*
X902462Y551895D03*
X935990Y572055D03*
X935990Y562055D03*
X916940Y572055D03*
X916940Y562055D03*
X926465Y572055D03*
X926465Y562055D03*
D13*
X926480Y595935D03*
X926480Y586435D03*
X912480Y586435D03*
X912480Y595935D03*
D10*
X946150Y596185D03*
X946150Y586185D03*
X936625Y596185D03*
X936625Y586185D03*
X902335Y587709D03*
X902335Y597709D03*
X913050Y752475D03*
X903050Y752475D03*
X903050Y742950D03*
X913050Y742950D03*
X911225Y689690D03*
X911225Y699690D03*
X920750Y689690D03*
X920750Y699690D03*
D14*
X910590Y717423D03*
X910590Y708787D03*
D10*
X929005Y713820D03*
X929005Y723820D03*
X938530Y713820D03*
X938530Y723820D03*
X923370Y733425D03*
X933370Y733425D03*
X923370Y742950D03*
X933370Y742950D03*
X923370Y752475D03*
X933370Y752475D03*
X919480Y713820D03*
X919480Y723820D03*
X956310Y572055D03*
X956310Y562055D03*
X975360Y572055D03*
X975360Y562055D03*
X965835Y572055D03*
X965835Y562055D03*
X981790Y433070D03*
X991790Y433070D03*
D15*
X975385Y725471D03*
X984885Y725471D03*
X994385Y725471D03*
X994385Y699469D03*
X975385Y699469D03*
D10*
X912415Y462280D03*
X902415Y462280D03*
X924560Y483950D03*
X924560Y493950D03*
X994410Y739855D03*
X994410Y749855D03*
D16*
X987340Y544710D03*
X987340Y539710D03*
X987340Y534710D03*
X987340Y529710D03*
X960840Y529710D03*
X960840Y534710D03*
X960840Y539710D03*
X960840Y544710D03*
D10*
X982900Y509270D03*
X972900Y509270D03*
X982900Y518795D03*
X972900Y518795D03*
D17*
X994920Y785425D03*
D18*
X984920Y810425D03*
X979920Y810425D03*
D17*
X899920Y785425D03*
D18*
X974920Y810425D03*
X969920Y810425D03*
X964920Y810425D03*
X959920Y810425D03*
X954920Y810425D03*
X949920Y810425D03*
X944920Y810425D03*
X939920Y810425D03*
X934920Y810425D03*
X929920Y810425D03*
X924920Y810425D03*
X919920Y810425D03*
X914920Y810425D03*
X909920Y810425D03*
D19*
X969920Y452980D03*
X969920Y446480D03*
X969920Y439980D03*
X969920Y433480D03*
X924920Y433480D03*
X924920Y439980D03*
X924920Y446480D03*
X924920Y452980D03*
D10*
X925275Y466725D03*
X935275Y466725D03*
X1014810Y509905D03*
X1024810Y509905D03*
D11*
X1026310Y501010D03*
X1013310Y501010D03*
D12*
X1026541Y484505D03*
X1019810Y484505D03*
X1013079Y484505D03*
D10*
X1024175Y471805D03*
X1014175Y471805D03*
X1024810Y433070D03*
X1014810Y433070D03*
X1086405Y611505D03*
X1076405Y611505D03*
X1096645Y617935D03*
X1096645Y627935D03*
X1079500Y621745D03*
X1079500Y631745D03*
X1092200Y596185D03*
X1092200Y586185D03*
X1073150Y596185D03*
X1073150Y586185D03*
X1082675Y596185D03*
X1082675Y586185D03*
X1041955Y530860D03*
X1031955Y530860D03*
X1031955Y521335D03*
X1041955Y521335D03*
X1023620Y632540D03*
X1023620Y642540D03*
X1036400Y611505D03*
X1046400Y611505D03*
X1025445Y615950D03*
X1015445Y615950D03*
X1014222Y561895D03*
X1014222Y551895D03*
X1047750Y572055D03*
X1047750Y562055D03*
X1028700Y572055D03*
X1028700Y562055D03*
X1038225Y572055D03*
X1038225Y562055D03*
D13*
X1038240Y595935D03*
X1038240Y586435D03*
X1024240Y586435D03*
X1024240Y595935D03*
D10*
X1057910Y596185D03*
X1057910Y586185D03*
X1048385Y596185D03*
X1048385Y586185D03*
X1014095Y587709D03*
X1014095Y597709D03*
X1024810Y752475D03*
X1014810Y752475D03*
X1014810Y742950D03*
X1024810Y742950D03*
X1022985Y689690D03*
X1022985Y699690D03*
X1032510Y689690D03*
X1032510Y699690D03*
D14*
X1022350Y717423D03*
X1022350Y708787D03*
D10*
X1040765Y713820D03*
X1040765Y723820D03*
X1050290Y713820D03*
X1050290Y723820D03*
X1035130Y733425D03*
X1045130Y733425D03*
X1035130Y742950D03*
X1045130Y742950D03*
X1035130Y752475D03*
X1045130Y752475D03*
X1031240Y713820D03*
X1031240Y723820D03*
X1068070Y572055D03*
X1068070Y562055D03*
X1087120Y572055D03*
X1087120Y562055D03*
X1077595Y572055D03*
X1077595Y562055D03*
X1093550Y433070D03*
X1103550Y433070D03*
D15*
X1087145Y725471D03*
X1096645Y725471D03*
X1106145Y725471D03*
X1106145Y699469D03*
X1087145Y699469D03*
D10*
X1024175Y462280D03*
X1014175Y462280D03*
X1036320Y483950D03*
X1036320Y493950D03*
X1106170Y739855D03*
X1106170Y749855D03*
D16*
X1099100Y544710D03*
X1099100Y539710D03*
X1099100Y534710D03*
X1099100Y529710D03*
X1072600Y529710D03*
X1072600Y534710D03*
X1072600Y539710D03*
X1072600Y544710D03*
D10*
X1094660Y509270D03*
X1084660Y509270D03*
X1094660Y518795D03*
X1084660Y518795D03*
D17*
X1106680Y785425D03*
D18*
X1096680Y810425D03*
X1091680Y810425D03*
D17*
X1011680Y785425D03*
D18*
X1086680Y810425D03*
X1081680Y810425D03*
X1076680Y810425D03*
X1071680Y810425D03*
X1066680Y810425D03*
X1061680Y810425D03*
X1056680Y810425D03*
X1051680Y810425D03*
X1046680Y810425D03*
X1041680Y810425D03*
X1036680Y810425D03*
X1031680Y810425D03*
X1026680Y810425D03*
X1021680Y810425D03*
D19*
X1081680Y452980D03*
X1081680Y446480D03*
X1081680Y439980D03*
X1081680Y433480D03*
X1036680Y433480D03*
X1036680Y439980D03*
X1036680Y446480D03*
X1036680Y452980D03*
D10*
X1037035Y466725D03*
X1047035Y466725D03*
X1126570Y509905D03*
X1136570Y509905D03*
D11*
X1138070Y501010D03*
X1125070Y501010D03*
D12*
X1138301Y484505D03*
X1131570Y484505D03*
X1124839Y484505D03*
D10*
X1135935Y471805D03*
X1125935Y471805D03*
X1136570Y433070D03*
X1126570Y433070D03*
X1198165Y611505D03*
X1188165Y611505D03*
X1208405Y617935D03*
X1208405Y627935D03*
X1191260Y621745D03*
X1191260Y631745D03*
X1203960Y596185D03*
X1203960Y586185D03*
X1184910Y596185D03*
X1184910Y586185D03*
X1194435Y596185D03*
X1194435Y586185D03*
X1153715Y530860D03*
X1143715Y530860D03*
X1143715Y521335D03*
X1153715Y521335D03*
X1135380Y632540D03*
X1135380Y642540D03*
X1148160Y611505D03*
X1158160Y611505D03*
X1137205Y615950D03*
X1127205Y615950D03*
X1125982Y561895D03*
X1125982Y551895D03*
X1159510Y572055D03*
X1159510Y562055D03*
X1140460Y572055D03*
X1140460Y562055D03*
X1149985Y572055D03*
X1149985Y562055D03*
D13*
X1150000Y595935D03*
X1150000Y586435D03*
X1136000Y586435D03*
X1136000Y595935D03*
D10*
X1169670Y596185D03*
X1169670Y586185D03*
X1160145Y596185D03*
X1160145Y586185D03*
X1125855Y587709D03*
X1125855Y597709D03*
X1136570Y752475D03*
X1126570Y752475D03*
X1126570Y742950D03*
X1136570Y742950D03*
X1134745Y689690D03*
X1134745Y699690D03*
X1144270Y689690D03*
X1144270Y699690D03*
D14*
X1134110Y717423D03*
X1134110Y708787D03*
D10*
X1152525Y713820D03*
X1152525Y723820D03*
X1162050Y713820D03*
X1162050Y723820D03*
X1146890Y733425D03*
X1156890Y733425D03*
X1146890Y742950D03*
X1156890Y742950D03*
X1146890Y752475D03*
X1156890Y752475D03*
X1143000Y713820D03*
X1143000Y723820D03*
X1179830Y572055D03*
X1179830Y562055D03*
X1198880Y572055D03*
X1198880Y562055D03*
X1189355Y572055D03*
X1189355Y562055D03*
X1205310Y433070D03*
X1215310Y433070D03*
D15*
X1198905Y725471D03*
X1208405Y725471D03*
X1217905Y725471D03*
X1217905Y699469D03*
X1198905Y699469D03*
D10*
X1135935Y462280D03*
X1125935Y462280D03*
X1148080Y483950D03*
X1148080Y493950D03*
X1217930Y739855D03*
X1217930Y749855D03*
D16*
X1210860Y544710D03*
X1210860Y539710D03*
X1210860Y534710D03*
X1210860Y529710D03*
X1184360Y529710D03*
X1184360Y534710D03*
X1184360Y539710D03*
X1184360Y544710D03*
D10*
X1206420Y509270D03*
X1196420Y509270D03*
X1206420Y518795D03*
X1196420Y518795D03*
D17*
X1218440Y785425D03*
D18*
X1208440Y810425D03*
X1203440Y810425D03*
D17*
X1123440Y785425D03*
D18*
X1198440Y810425D03*
X1193440Y810425D03*
X1188440Y810425D03*
X1183440Y810425D03*
X1178440Y810425D03*
X1173440Y810425D03*
X1168440Y810425D03*
X1163440Y810425D03*
X1158440Y810425D03*
X1153440Y810425D03*
X1148440Y810425D03*
X1143440Y810425D03*
X1138440Y810425D03*
X1133440Y810425D03*
D19*
X1193440Y452980D03*
X1193440Y446480D03*
X1193440Y439980D03*
X1193440Y433480D03*
X1148440Y433480D03*
X1148440Y439980D03*
X1148440Y446480D03*
X1148440Y452980D03*
D10*
X1148795Y466725D03*
X1158795Y466725D03*
X1238330Y509905D03*
X1248330Y509905D03*
D11*
X1249830Y501010D03*
X1236830Y501010D03*
D12*
X1250061Y484505D03*
X1243330Y484505D03*
X1236599Y484505D03*
D10*
X1247695Y471805D03*
X1237695Y471805D03*
X1248330Y433070D03*
X1238330Y433070D03*
X1309925Y611505D03*
X1299925Y611505D03*
X1320165Y617935D03*
X1320165Y627935D03*
X1303020Y621745D03*
X1303020Y631745D03*
X1315720Y596185D03*
X1315720Y586185D03*
X1296670Y596185D03*
X1296670Y586185D03*
X1306195Y596185D03*
X1306195Y586185D03*
X1265475Y530860D03*
X1255475Y530860D03*
X1255475Y521335D03*
X1265475Y521335D03*
X1247140Y632540D03*
X1247140Y642540D03*
X1259920Y611505D03*
X1269920Y611505D03*
X1248965Y615950D03*
X1238965Y615950D03*
X1237742Y561895D03*
X1237742Y551895D03*
X1271270Y572055D03*
X1271270Y562055D03*
X1252220Y572055D03*
X1252220Y562055D03*
X1261745Y572055D03*
X1261745Y562055D03*
D13*
X1261760Y595935D03*
X1261760Y586435D03*
X1247760Y586435D03*
X1247760Y595935D03*
D10*
X1281430Y596185D03*
X1281430Y586185D03*
X1271905Y596185D03*
X1271905Y586185D03*
X1237615Y587709D03*
X1237615Y597709D03*
X1248330Y752475D03*
X1238330Y752475D03*
X1238330Y742950D03*
X1248330Y742950D03*
X1246505Y689690D03*
X1246505Y699690D03*
X1256030Y689690D03*
X1256030Y699690D03*
D14*
X1245870Y717423D03*
X1245870Y708787D03*
D10*
X1264285Y713820D03*
X1264285Y723820D03*
X1273810Y713820D03*
X1273810Y723820D03*
X1258650Y733425D03*
X1268650Y733425D03*
X1258650Y742950D03*
X1268650Y742950D03*
X1258650Y752475D03*
X1268650Y752475D03*
X1254760Y713820D03*
X1254760Y723820D03*
X1291590Y572055D03*
X1291590Y562055D03*
X1310640Y572055D03*
X1310640Y562055D03*
X1301115Y572055D03*
X1301115Y562055D03*
X1317070Y433070D03*
X1327070Y433070D03*
D15*
X1310665Y725471D03*
X1320165Y725471D03*
X1329665Y725471D03*
X1329665Y699469D03*
X1310665Y699469D03*
D10*
X1247695Y462280D03*
X1237695Y462280D03*
X1259840Y483950D03*
X1259840Y493950D03*
X1329690Y739855D03*
X1329690Y749855D03*
D16*
X1322620Y544710D03*
X1322620Y539710D03*
X1322620Y534710D03*
X1322620Y529710D03*
X1296120Y529710D03*
X1296120Y534710D03*
X1296120Y539710D03*
X1296120Y544710D03*
D10*
X1318180Y509270D03*
X1308180Y509270D03*
X1318180Y518795D03*
X1308180Y518795D03*
D17*
X1330200Y785425D03*
D18*
X1320200Y810425D03*
X1315200Y810425D03*
D17*
X1235200Y785425D03*
D18*
X1310200Y810425D03*
X1305200Y810425D03*
X1300200Y810425D03*
X1295200Y810425D03*
X1290200Y810425D03*
X1285200Y810425D03*
X1280200Y810425D03*
X1275200Y810425D03*
X1270200Y810425D03*
X1265200Y810425D03*
X1260200Y810425D03*
X1255200Y810425D03*
X1250200Y810425D03*
X1245200Y810425D03*
D19*
X1305200Y452980D03*
X1305200Y446480D03*
X1305200Y439980D03*
X1305200Y433480D03*
X1260200Y433480D03*
X1260200Y439980D03*
X1260200Y446480D03*
X1260200Y452980D03*
D10*
X1260555Y466725D03*
X1270555Y466725D03*
X1350090Y509905D03*
X1360090Y509905D03*
D11*
X1361590Y501010D03*
X1348590Y501010D03*
D12*
X1361821Y484505D03*
X1355090Y484505D03*
X1348359Y484505D03*
D10*
X1359455Y471805D03*
X1349455Y471805D03*
X1360090Y433070D03*
X1350090Y433070D03*
X1421685Y611505D03*
X1411685Y611505D03*
X1431925Y617935D03*
X1431925Y627935D03*
X1414780Y621745D03*
X1414780Y631745D03*
X1427480Y596185D03*
X1427480Y586185D03*
X1408430Y596185D03*
X1408430Y586185D03*
X1417955Y596185D03*
X1417955Y586185D03*
X1377235Y530860D03*
X1367235Y530860D03*
X1367235Y521335D03*
X1377235Y521335D03*
X1358900Y632540D03*
X1358900Y642540D03*
X1371680Y611505D03*
X1381680Y611505D03*
X1360725Y615950D03*
X1350725Y615950D03*
X1349502Y561895D03*
X1349502Y551895D03*
X1383030Y572055D03*
X1383030Y562055D03*
X1363980Y572055D03*
X1363980Y562055D03*
X1373505Y572055D03*
X1373505Y562055D03*
D13*
X1373520Y595935D03*
X1373520Y586435D03*
X1359520Y586435D03*
X1359520Y595935D03*
D10*
X1393190Y596185D03*
X1393190Y586185D03*
X1383665Y596185D03*
X1383665Y586185D03*
X1349375Y587709D03*
X1349375Y597709D03*
X1360090Y752475D03*
X1350090Y752475D03*
X1350090Y742950D03*
X1360090Y742950D03*
X1358265Y689690D03*
X1358265Y699690D03*
X1367790Y689690D03*
X1367790Y699690D03*
D14*
X1357630Y717423D03*
X1357630Y708787D03*
D10*
X1376045Y713820D03*
X1376045Y723820D03*
X1385570Y713820D03*
X1385570Y723820D03*
X1370410Y733425D03*
X1380410Y733425D03*
X1370410Y742950D03*
X1380410Y742950D03*
X1370410Y752475D03*
X1380410Y752475D03*
X1366520Y713820D03*
X1366520Y723820D03*
X1403350Y572055D03*
X1403350Y562055D03*
X1422400Y572055D03*
X1422400Y562055D03*
X1412875Y572055D03*
X1412875Y562055D03*
X1428830Y433070D03*
X1438830Y433070D03*
D15*
X1422425Y725471D03*
X1431925Y725471D03*
X1441425Y725471D03*
X1441425Y699469D03*
X1422425Y699469D03*
D10*
X1359455Y462280D03*
X1349455Y462280D03*
X1371600Y483950D03*
X1371600Y493950D03*
X1441450Y739855D03*
X1441450Y749855D03*
D16*
X1434380Y544710D03*
X1434380Y539710D03*
X1434380Y534710D03*
X1434380Y529710D03*
X1407880Y529710D03*
X1407880Y534710D03*
X1407880Y539710D03*
X1407880Y544710D03*
D10*
X1429940Y509270D03*
X1419940Y509270D03*
X1429940Y518795D03*
X1419940Y518795D03*
D17*
X1441960Y785425D03*
D18*
X1431960Y810425D03*
X1426960Y810425D03*
D17*
X1346960Y785425D03*
D18*
X1421960Y810425D03*
X1416960Y810425D03*
X1411960Y810425D03*
X1406960Y810425D03*
X1401960Y810425D03*
X1396960Y810425D03*
X1391960Y810425D03*
X1386960Y810425D03*
X1381960Y810425D03*
X1376960Y810425D03*
X1371960Y810425D03*
X1366960Y810425D03*
X1361960Y810425D03*
X1356960Y810425D03*
D19*
X1416960Y452980D03*
X1416960Y446480D03*
X1416960Y439980D03*
X1416960Y433480D03*
X1371960Y433480D03*
X1371960Y439980D03*
X1371960Y446480D03*
X1371960Y452980D03*
D10*
X1372315Y466725D03*
X1382315Y466725D03*
X1461850Y509905D03*
X1471850Y509905D03*
D11*
X1473350Y501010D03*
X1460350Y501010D03*
D12*
X1473581Y484505D03*
X1466850Y484505D03*
X1460119Y484505D03*
D10*
X1471215Y471805D03*
X1461215Y471805D03*
X1471850Y433070D03*
X1461850Y433070D03*
X1533445Y611505D03*
X1523445Y611505D03*
X1543685Y617935D03*
X1543685Y627935D03*
X1526540Y621745D03*
X1526540Y631745D03*
X1539240Y596185D03*
X1539240Y586185D03*
X1520190Y596185D03*
X1520190Y586185D03*
X1529715Y596185D03*
X1529715Y586185D03*
X1488995Y530860D03*
X1478995Y530860D03*
X1478995Y521335D03*
X1488995Y521335D03*
X1470660Y632540D03*
X1470660Y642540D03*
X1483440Y611505D03*
X1493440Y611505D03*
X1472485Y615950D03*
X1462485Y615950D03*
X1461262Y561895D03*
X1461262Y551895D03*
X1494790Y572055D03*
X1494790Y562055D03*
X1475740Y572055D03*
X1475740Y562055D03*
X1485265Y572055D03*
X1485265Y562055D03*
D13*
X1485280Y595935D03*
X1485280Y586435D03*
X1471280Y586435D03*
X1471280Y595935D03*
D10*
X1504950Y596185D03*
X1504950Y586185D03*
X1495425Y596185D03*
X1495425Y586185D03*
X1461135Y587709D03*
X1461135Y597709D03*
X1471850Y752475D03*
X1461850Y752475D03*
X1461850Y742950D03*
X1471850Y742950D03*
X1470025Y689690D03*
X1470025Y699690D03*
X1479550Y689690D03*
X1479550Y699690D03*
D14*
X1469390Y717423D03*
X1469390Y708787D03*
D10*
X1487805Y713820D03*
X1487805Y723820D03*
X1497330Y713820D03*
X1497330Y723820D03*
X1482170Y733425D03*
X1492170Y733425D03*
X1482170Y742950D03*
X1492170Y742950D03*
X1482170Y752475D03*
X1492170Y752475D03*
X1478280Y713820D03*
X1478280Y723820D03*
X1515110Y572055D03*
X1515110Y562055D03*
X1534160Y572055D03*
X1534160Y562055D03*
X1524635Y572055D03*
X1524635Y562055D03*
X1540590Y433070D03*
X1550590Y433070D03*
D15*
X1534185Y725471D03*
X1543685Y725471D03*
X1553185Y725471D03*
X1553185Y699469D03*
X1534185Y699469D03*
D10*
X1471215Y462280D03*
X1461215Y462280D03*
X1483360Y483950D03*
X1483360Y493950D03*
X1553210Y739855D03*
X1553210Y749855D03*
D16*
X1546140Y544710D03*
X1546140Y539710D03*
X1546140Y534710D03*
X1546140Y529710D03*
X1519640Y529710D03*
X1519640Y534710D03*
X1519640Y539710D03*
X1519640Y544710D03*
D10*
X1541700Y509270D03*
X1531700Y509270D03*
X1541700Y518795D03*
X1531700Y518795D03*
D17*
X1553720Y785425D03*
D18*
X1543720Y810425D03*
X1538720Y810425D03*
D17*
X1458720Y785425D03*
D18*
X1533720Y810425D03*
X1528720Y810425D03*
X1523720Y810425D03*
X1518720Y810425D03*
X1513720Y810425D03*
X1508720Y810425D03*
X1503720Y810425D03*
X1498720Y810425D03*
X1493720Y810425D03*
X1488720Y810425D03*
X1483720Y810425D03*
X1478720Y810425D03*
X1473720Y810425D03*
X1468720Y810425D03*
D19*
X1528720Y452980D03*
X1528720Y446480D03*
X1528720Y439980D03*
X1528720Y433480D03*
X1483720Y433480D03*
X1483720Y439980D03*
X1483720Y446480D03*
X1483720Y452980D03*
D10*
X1484075Y466725D03*
X1494075Y466725D03*
X1573610Y509905D03*
X1583610Y509905D03*
D11*
X1585110Y501010D03*
X1572110Y501010D03*
D12*
X1585341Y484505D03*
X1578610Y484505D03*
X1571879Y484505D03*
D10*
X1582975Y471805D03*
X1572975Y471805D03*
X1583610Y433070D03*
X1573610Y433070D03*
X1645205Y611505D03*
X1635205Y611505D03*
X1655445Y617935D03*
X1655445Y627935D03*
X1638300Y621745D03*
X1638300Y631745D03*
X1651000Y596185D03*
X1651000Y586185D03*
X1631950Y596185D03*
X1631950Y586185D03*
X1641475Y596185D03*
X1641475Y586185D03*
X1600755Y530860D03*
X1590755Y530860D03*
X1590755Y521335D03*
X1600755Y521335D03*
X1582420Y632540D03*
X1582420Y642540D03*
X1595200Y611505D03*
X1605200Y611505D03*
X1584245Y615950D03*
X1574245Y615950D03*
X1573022Y561895D03*
X1573022Y551895D03*
X1606550Y572055D03*
X1606550Y562055D03*
X1587500Y572055D03*
X1587500Y562055D03*
X1597025Y572055D03*
X1597025Y562055D03*
D13*
X1597040Y595935D03*
X1597040Y586435D03*
X1583040Y586435D03*
X1583040Y595935D03*
D10*
X1616710Y596185D03*
X1616710Y586185D03*
X1607185Y596185D03*
X1607185Y586185D03*
X1572895Y587709D03*
X1572895Y597709D03*
X1583610Y752475D03*
X1573610Y752475D03*
X1573610Y742950D03*
X1583610Y742950D03*
X1581785Y689690D03*
X1581785Y699690D03*
X1591310Y689690D03*
X1591310Y699690D03*
D14*
X1581150Y717423D03*
X1581150Y708787D03*
D10*
X1599565Y713820D03*
X1599565Y723820D03*
X1609090Y713820D03*
X1609090Y723820D03*
X1593930Y733425D03*
X1603930Y733425D03*
X1593930Y742950D03*
X1603930Y742950D03*
X1593930Y752475D03*
X1603930Y752475D03*
X1590040Y713820D03*
X1590040Y723820D03*
X1626870Y572055D03*
X1626870Y562055D03*
X1645920Y572055D03*
X1645920Y562055D03*
X1636395Y572055D03*
X1636395Y562055D03*
X1652350Y433070D03*
X1662350Y433070D03*
D15*
X1645945Y725471D03*
X1655445Y725471D03*
X1664945Y725471D03*
X1664945Y699469D03*
X1645945Y699469D03*
D10*
X1582975Y462280D03*
X1572975Y462280D03*
X1595120Y483950D03*
X1595120Y493950D03*
X1664970Y739855D03*
X1664970Y749855D03*
D16*
X1657900Y544710D03*
X1657900Y539710D03*
X1657900Y534710D03*
X1657900Y529710D03*
X1631400Y529710D03*
X1631400Y534710D03*
X1631400Y539710D03*
X1631400Y544710D03*
D10*
X1653460Y509270D03*
X1643460Y509270D03*
X1653460Y518795D03*
X1643460Y518795D03*
D17*
X1665480Y785425D03*
D18*
X1655480Y810425D03*
X1650480Y810425D03*
D17*
X1570480Y785425D03*
D18*
X1645480Y810425D03*
X1640480Y810425D03*
X1635480Y810425D03*
X1630480Y810425D03*
X1625480Y810425D03*
X1620480Y810425D03*
X1615480Y810425D03*
X1610480Y810425D03*
X1605480Y810425D03*
X1600480Y810425D03*
X1595480Y810425D03*
X1590480Y810425D03*
X1585480Y810425D03*
X1580480Y810425D03*
D19*
X1640480Y452980D03*
X1640480Y446480D03*
X1640480Y439980D03*
X1640480Y433480D03*
X1595480Y433480D03*
X1595480Y439980D03*
X1595480Y446480D03*
X1595480Y452980D03*
D10*
X1595835Y466725D03*
X1605835Y466725D03*
X1685370Y509905D03*
X1695370Y509905D03*
D11*
X1696870Y501010D03*
X1683870Y501010D03*
D12*
X1697101Y484505D03*
X1690370Y484505D03*
X1683639Y484505D03*
D10*
X1694735Y471805D03*
X1684735Y471805D03*
X1695370Y433070D03*
X1685370Y433070D03*
X1756965Y611505D03*
X1746965Y611505D03*
X1767205Y617935D03*
X1767205Y627935D03*
X1750060Y621745D03*
X1750060Y631745D03*
X1762760Y596185D03*
X1762760Y586185D03*
X1743710Y596185D03*
X1743710Y586185D03*
X1753235Y596185D03*
X1753235Y586185D03*
X1712515Y530860D03*
X1702515Y530860D03*
X1702515Y521335D03*
X1712515Y521335D03*
X1694180Y632540D03*
X1694180Y642540D03*
X1706960Y611505D03*
X1716960Y611505D03*
X1696005Y615950D03*
X1686005Y615950D03*
X1684782Y561895D03*
X1684782Y551895D03*
X1718310Y572055D03*
X1718310Y562055D03*
X1699260Y572055D03*
X1699260Y562055D03*
X1708785Y572055D03*
X1708785Y562055D03*
D13*
X1708800Y595935D03*
X1708800Y586435D03*
X1694800Y586435D03*
X1694800Y595935D03*
D10*
X1728470Y596185D03*
X1728470Y586185D03*
X1718945Y596185D03*
X1718945Y586185D03*
X1684655Y587709D03*
X1684655Y597709D03*
X1695370Y752475D03*
X1685370Y752475D03*
X1685370Y742950D03*
X1695370Y742950D03*
X1693545Y689690D03*
X1693545Y699690D03*
X1703070Y689690D03*
X1703070Y699690D03*
D14*
X1692910Y717423D03*
X1692910Y708787D03*
D10*
X1711325Y713820D03*
X1711325Y723820D03*
X1720850Y713820D03*
X1720850Y723820D03*
X1705690Y733425D03*
X1715690Y733425D03*
X1705690Y742950D03*
X1715690Y742950D03*
X1705690Y752475D03*
X1715690Y752475D03*
X1701800Y713820D03*
X1701800Y723820D03*
X1738630Y572055D03*
X1738630Y562055D03*
X1757680Y572055D03*
X1757680Y562055D03*
X1748155Y572055D03*
X1748155Y562055D03*
X1764110Y433070D03*
X1774110Y433070D03*
D15*
X1757705Y725471D03*
X1767205Y725471D03*
X1776705Y725471D03*
X1776705Y699469D03*
X1757705Y699469D03*
D10*
X1694735Y462280D03*
X1684735Y462280D03*
X1706880Y483950D03*
X1706880Y493950D03*
X1776730Y739855D03*
X1776730Y749855D03*
D16*
X1769660Y544710D03*
X1769660Y539710D03*
X1769660Y534710D03*
X1769660Y529710D03*
X1743160Y529710D03*
X1743160Y534710D03*
X1743160Y539710D03*
X1743160Y544710D03*
D10*
X1765220Y509270D03*
X1755220Y509270D03*
X1765220Y518795D03*
X1755220Y518795D03*
D17*
X1777240Y785425D03*
D18*
X1767240Y810425D03*
X1762240Y810425D03*
D17*
X1682240Y785425D03*
D18*
X1757240Y810425D03*
X1752240Y810425D03*
X1747240Y810425D03*
X1742240Y810425D03*
X1737240Y810425D03*
X1732240Y810425D03*
X1727240Y810425D03*
X1722240Y810425D03*
X1717240Y810425D03*
X1712240Y810425D03*
X1707240Y810425D03*
X1702240Y810425D03*
X1697240Y810425D03*
X1692240Y810425D03*
D19*
X1752240Y452980D03*
X1752240Y446480D03*
X1752240Y439980D03*
X1752240Y433480D03*
X1707240Y433480D03*
X1707240Y439980D03*
X1707240Y446480D03*
X1707240Y452980D03*
D10*
X1707595Y466725D03*
X1717595Y466725D03*
X8970Y921385D03*
X18970Y921385D03*
D11*
X20470Y912490D03*
X7470Y912490D03*
D12*
X20701Y895985D03*
X13970Y895985D03*
X7239Y895985D03*
D10*
X18335Y883285D03*
X8335Y883285D03*
X18970Y844550D03*
X8970Y844550D03*
X80565Y1022985D03*
X70565Y1022985D03*
X90805Y1029415D03*
X90805Y1039415D03*
X73660Y1033225D03*
X73660Y1043225D03*
X86360Y1007665D03*
X86360Y997665D03*
X67310Y1007665D03*
X67310Y997665D03*
X76835Y1007665D03*
X76835Y997665D03*
X36115Y942340D03*
X26115Y942340D03*
X26115Y932815D03*
X36115Y932815D03*
X17780Y1044020D03*
X17780Y1054020D03*
X30560Y1022985D03*
X40560Y1022985D03*
X19605Y1027430D03*
X9605Y1027430D03*
X8382Y973375D03*
X8382Y963375D03*
X41910Y983535D03*
X41910Y973535D03*
X22860Y983535D03*
X22860Y973535D03*
X32385Y983535D03*
X32385Y973535D03*
D13*
X32400Y1007415D03*
X32400Y997915D03*
X18400Y997915D03*
X18400Y1007415D03*
D10*
X52070Y1007665D03*
X52070Y997665D03*
X42545Y1007665D03*
X42545Y997665D03*
X8255Y999189D03*
X8255Y1009189D03*
X18970Y1163955D03*
X8970Y1163955D03*
X8970Y1154430D03*
X18970Y1154430D03*
X17145Y1101170D03*
X17145Y1111170D03*
X26670Y1101170D03*
X26670Y1111170D03*
D14*
X16510Y1128903D03*
X16510Y1120267D03*
D10*
X34925Y1125300D03*
X34925Y1135300D03*
X44450Y1125300D03*
X44450Y1135300D03*
X29290Y1144905D03*
X39290Y1144905D03*
X29290Y1154430D03*
X39290Y1154430D03*
X29290Y1163955D03*
X39290Y1163955D03*
X25400Y1125300D03*
X25400Y1135300D03*
X62230Y983535D03*
X62230Y973535D03*
X81280Y983535D03*
X81280Y973535D03*
X71755Y983535D03*
X71755Y973535D03*
X87710Y844550D03*
X97710Y844550D03*
D15*
X81305Y1136951D03*
X90805Y1136951D03*
X100305Y1136951D03*
X100305Y1110949D03*
X81305Y1110949D03*
D10*
X18335Y873760D03*
X8335Y873760D03*
X30480Y895430D03*
X30480Y905430D03*
X100330Y1151335D03*
X100330Y1161335D03*
D16*
X93260Y956190D03*
X93260Y951190D03*
X93260Y946190D03*
X93260Y941190D03*
X66760Y941190D03*
X66760Y946190D03*
X66760Y951190D03*
X66760Y956190D03*
D10*
X88820Y920750D03*
X78820Y920750D03*
X88820Y930275D03*
X78820Y930275D03*
D17*
X100840Y1196905D03*
D18*
X90840Y1221905D03*
X85840Y1221905D03*
D17*
X5840Y1196905D03*
D18*
X80840Y1221905D03*
X75840Y1221905D03*
X70840Y1221905D03*
X65840Y1221905D03*
X60840Y1221905D03*
X55840Y1221905D03*
X50840Y1221905D03*
X45840Y1221905D03*
X40840Y1221905D03*
X35840Y1221905D03*
X30840Y1221905D03*
X25840Y1221905D03*
X20840Y1221905D03*
X15840Y1221905D03*
D19*
X75840Y864460D03*
X75840Y857960D03*
X75840Y851460D03*
X75840Y844960D03*
X30840Y844960D03*
X30840Y851460D03*
X30840Y857960D03*
X30840Y864460D03*
D10*
X31195Y878205D03*
X41195Y878205D03*
X120730Y921385D03*
X130730Y921385D03*
D11*
X132230Y912490D03*
X119230Y912490D03*
D12*
X132461Y895985D03*
X125730Y895985D03*
X118999Y895985D03*
D10*
X130095Y883285D03*
X120095Y883285D03*
X130730Y844550D03*
X120730Y844550D03*
X192325Y1022985D03*
X182325Y1022985D03*
X202565Y1029415D03*
X202565Y1039415D03*
X185420Y1033225D03*
X185420Y1043225D03*
X198120Y1007665D03*
X198120Y997665D03*
X179070Y1007665D03*
X179070Y997665D03*
X188595Y1007665D03*
X188595Y997665D03*
X147875Y942340D03*
X137875Y942340D03*
X137875Y932815D03*
X147875Y932815D03*
X129540Y1044020D03*
X129540Y1054020D03*
X142320Y1022985D03*
X152320Y1022985D03*
X131365Y1027430D03*
X121365Y1027430D03*
X120142Y973375D03*
X120142Y963375D03*
X153670Y983535D03*
X153670Y973535D03*
X134620Y983535D03*
X134620Y973535D03*
X144145Y983535D03*
X144145Y973535D03*
D13*
X144160Y1007415D03*
X144160Y997915D03*
X130160Y997915D03*
X130160Y1007415D03*
D10*
X163830Y1007665D03*
X163830Y997665D03*
X154305Y1007665D03*
X154305Y997665D03*
X120015Y999189D03*
X120015Y1009189D03*
X130730Y1163955D03*
X120730Y1163955D03*
X120730Y1154430D03*
X130730Y1154430D03*
X128905Y1101170D03*
X128905Y1111170D03*
X138430Y1101170D03*
X138430Y1111170D03*
D14*
X128270Y1128903D03*
X128270Y1120267D03*
D10*
X146685Y1125300D03*
X146685Y1135300D03*
X156210Y1125300D03*
X156210Y1135300D03*
X141050Y1144905D03*
X151050Y1144905D03*
X141050Y1154430D03*
X151050Y1154430D03*
X141050Y1163955D03*
X151050Y1163955D03*
X137160Y1125300D03*
X137160Y1135300D03*
X173990Y983535D03*
X173990Y973535D03*
X193040Y983535D03*
X193040Y973535D03*
X183515Y983535D03*
X183515Y973535D03*
X199470Y844550D03*
X209470Y844550D03*
D15*
X193065Y1136951D03*
X202565Y1136951D03*
X212065Y1136951D03*
X212065Y1110949D03*
X193065Y1110949D03*
D10*
X130095Y873760D03*
X120095Y873760D03*
X142240Y895430D03*
X142240Y905430D03*
X212090Y1151335D03*
X212090Y1161335D03*
D16*
X205020Y956190D03*
X205020Y951190D03*
X205020Y946190D03*
X205020Y941190D03*
X178520Y941190D03*
X178520Y946190D03*
X178520Y951190D03*
X178520Y956190D03*
D10*
X200580Y920750D03*
X190580Y920750D03*
X200580Y930275D03*
X190580Y930275D03*
D17*
X212600Y1196905D03*
D18*
X202600Y1221905D03*
X197600Y1221905D03*
D17*
X117600Y1196905D03*
D18*
X192600Y1221905D03*
X187600Y1221905D03*
X182600Y1221905D03*
X177600Y1221905D03*
X172600Y1221905D03*
X167600Y1221905D03*
X162600Y1221905D03*
X157600Y1221905D03*
X152600Y1221905D03*
X147600Y1221905D03*
X142600Y1221905D03*
X137600Y1221905D03*
X132600Y1221905D03*
X127600Y1221905D03*
D19*
X187600Y864460D03*
X187600Y857960D03*
X187600Y851460D03*
X187600Y844960D03*
X142600Y844960D03*
X142600Y851460D03*
X142600Y857960D03*
X142600Y864460D03*
D10*
X142955Y878205D03*
X152955Y878205D03*
X232490Y921385D03*
X242490Y921385D03*
D11*
X243990Y912490D03*
X230990Y912490D03*
D12*
X244221Y895985D03*
X237490Y895985D03*
X230759Y895985D03*
D10*
X241855Y883285D03*
X231855Y883285D03*
X242490Y844550D03*
X232490Y844550D03*
X304085Y1022985D03*
X294085Y1022985D03*
X314325Y1029415D03*
X314325Y1039415D03*
X297180Y1033225D03*
X297180Y1043225D03*
X309880Y1007665D03*
X309880Y997665D03*
X290830Y1007665D03*
X290830Y997665D03*
X300355Y1007665D03*
X300355Y997665D03*
X259635Y942340D03*
X249635Y942340D03*
X249635Y932815D03*
X259635Y932815D03*
X241300Y1044020D03*
X241300Y1054020D03*
X254080Y1022985D03*
X264080Y1022985D03*
X243125Y1027430D03*
X233125Y1027430D03*
X231902Y973375D03*
X231902Y963375D03*
X265430Y983535D03*
X265430Y973535D03*
X246380Y983535D03*
X246380Y973535D03*
X255905Y983535D03*
X255905Y973535D03*
D13*
X255920Y1007415D03*
X255920Y997915D03*
X241920Y997915D03*
X241920Y1007415D03*
D10*
X275590Y1007665D03*
X275590Y997665D03*
X266065Y1007665D03*
X266065Y997665D03*
X231775Y999189D03*
X231775Y1009189D03*
X242490Y1163955D03*
X232490Y1163955D03*
X232490Y1154430D03*
X242490Y1154430D03*
X240665Y1101170D03*
X240665Y1111170D03*
X250190Y1101170D03*
X250190Y1111170D03*
D14*
X240030Y1128903D03*
X240030Y1120267D03*
D10*
X258445Y1125300D03*
X258445Y1135300D03*
X267970Y1125300D03*
X267970Y1135300D03*
X252810Y1144905D03*
X262810Y1144905D03*
X252810Y1154430D03*
X262810Y1154430D03*
X252810Y1163955D03*
X262810Y1163955D03*
X248920Y1125300D03*
X248920Y1135300D03*
X285750Y983535D03*
X285750Y973535D03*
X304800Y983535D03*
X304800Y973535D03*
X295275Y983535D03*
X295275Y973535D03*
X311230Y844550D03*
X321230Y844550D03*
D15*
X304825Y1136951D03*
X314325Y1136951D03*
X323825Y1136951D03*
X323825Y1110949D03*
X304825Y1110949D03*
D10*
X241855Y873760D03*
X231855Y873760D03*
X254000Y895430D03*
X254000Y905430D03*
X323850Y1151335D03*
X323850Y1161335D03*
D16*
X316780Y956190D03*
X316780Y951190D03*
X316780Y946190D03*
X316780Y941190D03*
X290280Y941190D03*
X290280Y946190D03*
X290280Y951190D03*
X290280Y956190D03*
D10*
X312340Y920750D03*
X302340Y920750D03*
X312340Y930275D03*
X302340Y930275D03*
D17*
X324360Y1196905D03*
D18*
X314360Y1221905D03*
X309360Y1221905D03*
D17*
X229360Y1196905D03*
D18*
X304360Y1221905D03*
X299360Y1221905D03*
X294360Y1221905D03*
X289360Y1221905D03*
X284360Y1221905D03*
X279360Y1221905D03*
X274360Y1221905D03*
X269360Y1221905D03*
X264360Y1221905D03*
X259360Y1221905D03*
X254360Y1221905D03*
X249360Y1221905D03*
X244360Y1221905D03*
X239360Y1221905D03*
D19*
X299360Y864460D03*
X299360Y857960D03*
X299360Y851460D03*
X299360Y844960D03*
X254360Y844960D03*
X254360Y851460D03*
X254360Y857960D03*
X254360Y864460D03*
D10*
X254715Y878205D03*
X264715Y878205D03*
X344250Y921385D03*
X354250Y921385D03*
D11*
X355750Y912490D03*
X342750Y912490D03*
D12*
X355981Y895985D03*
X349250Y895985D03*
X342519Y895985D03*
D10*
X353615Y883285D03*
X343615Y883285D03*
X354250Y844550D03*
X344250Y844550D03*
X415845Y1022985D03*
X405845Y1022985D03*
X426085Y1029415D03*
X426085Y1039415D03*
X408940Y1033225D03*
X408940Y1043225D03*
X421640Y1007665D03*
X421640Y997665D03*
X402590Y1007665D03*
X402590Y997665D03*
X412115Y1007665D03*
X412115Y997665D03*
X371395Y942340D03*
X361395Y942340D03*
X361395Y932815D03*
X371395Y932815D03*
X353060Y1044020D03*
X353060Y1054020D03*
X365840Y1022985D03*
X375840Y1022985D03*
X354885Y1027430D03*
X344885Y1027430D03*
X343662Y973375D03*
X343662Y963375D03*
X377190Y983535D03*
X377190Y973535D03*
X358140Y983535D03*
X358140Y973535D03*
X367665Y983535D03*
X367665Y973535D03*
D13*
X367680Y1007415D03*
X367680Y997915D03*
X353680Y997915D03*
X353680Y1007415D03*
D10*
X387350Y1007665D03*
X387350Y997665D03*
X377825Y1007665D03*
X377825Y997665D03*
X343535Y999189D03*
X343535Y1009189D03*
X354250Y1163955D03*
X344250Y1163955D03*
X344250Y1154430D03*
X354250Y1154430D03*
X352425Y1101170D03*
X352425Y1111170D03*
X361950Y1101170D03*
X361950Y1111170D03*
D14*
X351790Y1128903D03*
X351790Y1120267D03*
D10*
X370205Y1125300D03*
X370205Y1135300D03*
X379730Y1125300D03*
X379730Y1135300D03*
X364570Y1144905D03*
X374570Y1144905D03*
X364570Y1154430D03*
X374570Y1154430D03*
X364570Y1163955D03*
X374570Y1163955D03*
X360680Y1125300D03*
X360680Y1135300D03*
X397510Y983535D03*
X397510Y973535D03*
X416560Y983535D03*
X416560Y973535D03*
X407035Y983535D03*
X407035Y973535D03*
X422990Y844550D03*
X432990Y844550D03*
D15*
X416585Y1136951D03*
X426085Y1136951D03*
X435585Y1136951D03*
X435585Y1110949D03*
X416585Y1110949D03*
D10*
X353615Y873760D03*
X343615Y873760D03*
X365760Y895430D03*
X365760Y905430D03*
X435610Y1151335D03*
X435610Y1161335D03*
D16*
X428540Y956190D03*
X428540Y951190D03*
X428540Y946190D03*
X428540Y941190D03*
X402040Y941190D03*
X402040Y946190D03*
X402040Y951190D03*
X402040Y956190D03*
D10*
X424100Y920750D03*
X414100Y920750D03*
X424100Y930275D03*
X414100Y930275D03*
D17*
X436120Y1196905D03*
D18*
X426120Y1221905D03*
X421120Y1221905D03*
D17*
X341120Y1196905D03*
D18*
X416120Y1221905D03*
X411120Y1221905D03*
X406120Y1221905D03*
X401120Y1221905D03*
X396120Y1221905D03*
X391120Y1221905D03*
X386120Y1221905D03*
X381120Y1221905D03*
X376120Y1221905D03*
X371120Y1221905D03*
X366120Y1221905D03*
X361120Y1221905D03*
X356120Y1221905D03*
X351120Y1221905D03*
D19*
X411120Y864460D03*
X411120Y857960D03*
X411120Y851460D03*
X411120Y844960D03*
X366120Y844960D03*
X366120Y851460D03*
X366120Y857960D03*
X366120Y864460D03*
D10*
X366475Y878205D03*
X376475Y878205D03*
X456010Y921385D03*
X466010Y921385D03*
D11*
X467510Y912490D03*
X454510Y912490D03*
D12*
X467741Y895985D03*
X461010Y895985D03*
X454279Y895985D03*
D10*
X465375Y883285D03*
X455375Y883285D03*
X466010Y844550D03*
X456010Y844550D03*
X527605Y1022985D03*
X517605Y1022985D03*
X537845Y1029415D03*
X537845Y1039415D03*
X520700Y1033225D03*
X520700Y1043225D03*
X533400Y1007665D03*
X533400Y997665D03*
X514350Y1007665D03*
X514350Y997665D03*
X523875Y1007665D03*
X523875Y997665D03*
X483155Y942340D03*
X473155Y942340D03*
X473155Y932815D03*
X483155Y932815D03*
X464820Y1044020D03*
X464820Y1054020D03*
X477600Y1022985D03*
X487600Y1022985D03*
X466645Y1027430D03*
X456645Y1027430D03*
X455422Y973375D03*
X455422Y963375D03*
X488950Y983535D03*
X488950Y973535D03*
X469900Y983535D03*
X469900Y973535D03*
X479425Y983535D03*
X479425Y973535D03*
D13*
X479440Y1007415D03*
X479440Y997915D03*
X465440Y997915D03*
X465440Y1007415D03*
D10*
X499110Y1007665D03*
X499110Y997665D03*
X489585Y1007665D03*
X489585Y997665D03*
X455295Y999189D03*
X455295Y1009189D03*
X466010Y1163955D03*
X456010Y1163955D03*
X456010Y1154430D03*
X466010Y1154430D03*
X464185Y1101170D03*
X464185Y1111170D03*
X473710Y1101170D03*
X473710Y1111170D03*
D14*
X463550Y1128903D03*
X463550Y1120267D03*
D10*
X481965Y1125300D03*
X481965Y1135300D03*
X491490Y1125300D03*
X491490Y1135300D03*
X476330Y1144905D03*
X486330Y1144905D03*
X476330Y1154430D03*
X486330Y1154430D03*
X476330Y1163955D03*
X486330Y1163955D03*
X472440Y1125300D03*
X472440Y1135300D03*
X509270Y983535D03*
X509270Y973535D03*
X528320Y983535D03*
X528320Y973535D03*
X518795Y983535D03*
X518795Y973535D03*
X534750Y844550D03*
X544750Y844550D03*
D15*
X528345Y1136951D03*
X537845Y1136951D03*
X547345Y1136951D03*
X547345Y1110949D03*
X528345Y1110949D03*
D10*
X465375Y873760D03*
X455375Y873760D03*
X477520Y895430D03*
X477520Y905430D03*
X547370Y1151335D03*
X547370Y1161335D03*
D16*
X540300Y956190D03*
X540300Y951190D03*
X540300Y946190D03*
X540300Y941190D03*
X513800Y941190D03*
X513800Y946190D03*
X513800Y951190D03*
X513800Y956190D03*
D10*
X535860Y920750D03*
X525860Y920750D03*
X535860Y930275D03*
X525860Y930275D03*
D17*
X547880Y1196905D03*
D18*
X537880Y1221905D03*
X532880Y1221905D03*
D17*
X452880Y1196905D03*
D18*
X527880Y1221905D03*
X522880Y1221905D03*
X517880Y1221905D03*
X512880Y1221905D03*
X507880Y1221905D03*
X502880Y1221905D03*
X497880Y1221905D03*
X492880Y1221905D03*
X487880Y1221905D03*
X482880Y1221905D03*
X477880Y1221905D03*
X472880Y1221905D03*
X467880Y1221905D03*
X462880Y1221905D03*
D19*
X522880Y864460D03*
X522880Y857960D03*
X522880Y851460D03*
X522880Y844960D03*
X477880Y844960D03*
X477880Y851460D03*
X477880Y857960D03*
X477880Y864460D03*
D10*
X478235Y878205D03*
X488235Y878205D03*
X567770Y921385D03*
X577770Y921385D03*
D11*
X579270Y912490D03*
X566270Y912490D03*
D12*
X579501Y895985D03*
X572770Y895985D03*
X566039Y895985D03*
D10*
X577135Y883285D03*
X567135Y883285D03*
X577770Y844550D03*
X567770Y844550D03*
X639365Y1022985D03*
X629365Y1022985D03*
X649605Y1029415D03*
X649605Y1039415D03*
X632460Y1033225D03*
X632460Y1043225D03*
X645160Y1007665D03*
X645160Y997665D03*
X626110Y1007665D03*
X626110Y997665D03*
X635635Y1007665D03*
X635635Y997665D03*
X594915Y942340D03*
X584915Y942340D03*
X584915Y932815D03*
X594915Y932815D03*
X576580Y1044020D03*
X576580Y1054020D03*
X589360Y1022985D03*
X599360Y1022985D03*
X578405Y1027430D03*
X568405Y1027430D03*
X567182Y973375D03*
X567182Y963375D03*
X600710Y983535D03*
X600710Y973535D03*
X581660Y983535D03*
X581660Y973535D03*
X591185Y983535D03*
X591185Y973535D03*
D13*
X591200Y1007415D03*
X591200Y997915D03*
X577200Y997915D03*
X577200Y1007415D03*
D10*
X610870Y1007665D03*
X610870Y997665D03*
X601345Y1007665D03*
X601345Y997665D03*
X567055Y999189D03*
X567055Y1009189D03*
X577770Y1163955D03*
X567770Y1163955D03*
X567770Y1154430D03*
X577770Y1154430D03*
X575945Y1101170D03*
X575945Y1111170D03*
X585470Y1101170D03*
X585470Y1111170D03*
D14*
X575310Y1128903D03*
X575310Y1120267D03*
D10*
X593725Y1125300D03*
X593725Y1135300D03*
X603250Y1125300D03*
X603250Y1135300D03*
X588090Y1144905D03*
X598090Y1144905D03*
X588090Y1154430D03*
X598090Y1154430D03*
X588090Y1163955D03*
X598090Y1163955D03*
X584200Y1125300D03*
X584200Y1135300D03*
X621030Y983535D03*
X621030Y973535D03*
X640080Y983535D03*
X640080Y973535D03*
X630555Y983535D03*
X630555Y973535D03*
X646510Y844550D03*
X656510Y844550D03*
D15*
X640105Y1136951D03*
X649605Y1136951D03*
X659105Y1136951D03*
X659105Y1110949D03*
X640105Y1110949D03*
D10*
X577135Y873760D03*
X567135Y873760D03*
X589280Y895430D03*
X589280Y905430D03*
X659130Y1151335D03*
X659130Y1161335D03*
D16*
X652060Y956190D03*
X652060Y951190D03*
X652060Y946190D03*
X652060Y941190D03*
X625560Y941190D03*
X625560Y946190D03*
X625560Y951190D03*
X625560Y956190D03*
D10*
X647620Y920750D03*
X637620Y920750D03*
X647620Y930275D03*
X637620Y930275D03*
D17*
X659640Y1196905D03*
D18*
X649640Y1221905D03*
X644640Y1221905D03*
D17*
X564640Y1196905D03*
D18*
X639640Y1221905D03*
X634640Y1221905D03*
X629640Y1221905D03*
X624640Y1221905D03*
X619640Y1221905D03*
X614640Y1221905D03*
X609640Y1221905D03*
X604640Y1221905D03*
X599640Y1221905D03*
X594640Y1221905D03*
X589640Y1221905D03*
X584640Y1221905D03*
X579640Y1221905D03*
X574640Y1221905D03*
D19*
X634640Y864460D03*
X634640Y857960D03*
X634640Y851460D03*
X634640Y844960D03*
X589640Y844960D03*
X589640Y851460D03*
X589640Y857960D03*
X589640Y864460D03*
D10*
X589995Y878205D03*
X599995Y878205D03*
X679530Y921385D03*
X689530Y921385D03*
D11*
X691030Y912490D03*
X678030Y912490D03*
D12*
X691261Y895985D03*
X684530Y895985D03*
X677799Y895985D03*
D10*
X688895Y883285D03*
X678895Y883285D03*
X689530Y844550D03*
X679530Y844550D03*
X751125Y1022985D03*
X741125Y1022985D03*
X761365Y1029415D03*
X761365Y1039415D03*
X744220Y1033225D03*
X744220Y1043225D03*
X756920Y1007665D03*
X756920Y997665D03*
X737870Y1007665D03*
X737870Y997665D03*
X747395Y1007665D03*
X747395Y997665D03*
X706675Y942340D03*
X696675Y942340D03*
X696675Y932815D03*
X706675Y932815D03*
X688340Y1044020D03*
X688340Y1054020D03*
X701120Y1022985D03*
X711120Y1022985D03*
X690165Y1027430D03*
X680165Y1027430D03*
X678942Y973375D03*
X678942Y963375D03*
X712470Y983535D03*
X712470Y973535D03*
X693420Y983535D03*
X693420Y973535D03*
X702945Y983535D03*
X702945Y973535D03*
D13*
X702960Y1007415D03*
X702960Y997915D03*
X688960Y997915D03*
X688960Y1007415D03*
D10*
X722630Y1007665D03*
X722630Y997665D03*
X713105Y1007665D03*
X713105Y997665D03*
X678815Y999189D03*
X678815Y1009189D03*
X689530Y1163955D03*
X679530Y1163955D03*
X679530Y1154430D03*
X689530Y1154430D03*
X687705Y1101170D03*
X687705Y1111170D03*
X697230Y1101170D03*
X697230Y1111170D03*
D14*
X687070Y1128903D03*
X687070Y1120267D03*
D10*
X705485Y1125300D03*
X705485Y1135300D03*
X715010Y1125300D03*
X715010Y1135300D03*
X699850Y1144905D03*
X709850Y1144905D03*
X699850Y1154430D03*
X709850Y1154430D03*
X699850Y1163955D03*
X709850Y1163955D03*
X695960Y1125300D03*
X695960Y1135300D03*
X732790Y983535D03*
X732790Y973535D03*
X751840Y983535D03*
X751840Y973535D03*
X742315Y983535D03*
X742315Y973535D03*
X758270Y844550D03*
X768270Y844550D03*
D15*
X751865Y1136951D03*
X761365Y1136951D03*
X770865Y1136951D03*
X770865Y1110949D03*
X751865Y1110949D03*
D10*
X688895Y873760D03*
X678895Y873760D03*
X701040Y895430D03*
X701040Y905430D03*
X770890Y1151335D03*
X770890Y1161335D03*
D16*
X763820Y956190D03*
X763820Y951190D03*
X763820Y946190D03*
X763820Y941190D03*
X737320Y941190D03*
X737320Y946190D03*
X737320Y951190D03*
X737320Y956190D03*
D10*
X759380Y920750D03*
X749380Y920750D03*
X759380Y930275D03*
X749380Y930275D03*
D17*
X771400Y1196905D03*
D18*
X761400Y1221905D03*
X756400Y1221905D03*
D17*
X676400Y1196905D03*
D18*
X751400Y1221905D03*
X746400Y1221905D03*
X741400Y1221905D03*
X736400Y1221905D03*
X731400Y1221905D03*
X726400Y1221905D03*
X721400Y1221905D03*
X716400Y1221905D03*
X711400Y1221905D03*
X706400Y1221905D03*
X701400Y1221905D03*
X696400Y1221905D03*
X691400Y1221905D03*
X686400Y1221905D03*
D19*
X746400Y864460D03*
X746400Y857960D03*
X746400Y851460D03*
X746400Y844960D03*
X701400Y844960D03*
X701400Y851460D03*
X701400Y857960D03*
X701400Y864460D03*
D10*
X701755Y878205D03*
X711755Y878205D03*
X791290Y921385D03*
X801290Y921385D03*
D11*
X802790Y912490D03*
X789790Y912490D03*
D12*
X803021Y895985D03*
X796290Y895985D03*
X789559Y895985D03*
D10*
X800655Y883285D03*
X790655Y883285D03*
X801290Y844550D03*
X791290Y844550D03*
X862885Y1022985D03*
X852885Y1022985D03*
X873125Y1029415D03*
X873125Y1039415D03*
X855980Y1033225D03*
X855980Y1043225D03*
X868680Y1007665D03*
X868680Y997665D03*
X849630Y1007665D03*
X849630Y997665D03*
X859155Y1007665D03*
X859155Y997665D03*
X818435Y942340D03*
X808435Y942340D03*
X808435Y932815D03*
X818435Y932815D03*
X800100Y1044020D03*
X800100Y1054020D03*
X812880Y1022985D03*
X822880Y1022985D03*
X801925Y1027430D03*
X791925Y1027430D03*
X790702Y973375D03*
X790702Y963375D03*
X824230Y983535D03*
X824230Y973535D03*
X805180Y983535D03*
X805180Y973535D03*
X814705Y983535D03*
X814705Y973535D03*
D13*
X814720Y1007415D03*
X814720Y997915D03*
X800720Y997915D03*
X800720Y1007415D03*
D10*
X834390Y1007665D03*
X834390Y997665D03*
X824865Y1007665D03*
X824865Y997665D03*
X790575Y999189D03*
X790575Y1009189D03*
X801290Y1163955D03*
X791290Y1163955D03*
X791290Y1154430D03*
X801290Y1154430D03*
X799465Y1101170D03*
X799465Y1111170D03*
X808990Y1101170D03*
X808990Y1111170D03*
D14*
X798830Y1128903D03*
X798830Y1120267D03*
D10*
X817245Y1125300D03*
X817245Y1135300D03*
X826770Y1125300D03*
X826770Y1135300D03*
X811610Y1144905D03*
X821610Y1144905D03*
X811610Y1154430D03*
X821610Y1154430D03*
X811610Y1163955D03*
X821610Y1163955D03*
X807720Y1125300D03*
X807720Y1135300D03*
X844550Y983535D03*
X844550Y973535D03*
X863600Y983535D03*
X863600Y973535D03*
X854075Y983535D03*
X854075Y973535D03*
X870030Y844550D03*
X880030Y844550D03*
D15*
X863625Y1136951D03*
X873125Y1136951D03*
X882625Y1136951D03*
X882625Y1110949D03*
X863625Y1110949D03*
D10*
X800655Y873760D03*
X790655Y873760D03*
X812800Y895430D03*
X812800Y905430D03*
X882650Y1151335D03*
X882650Y1161335D03*
D16*
X875580Y956190D03*
X875580Y951190D03*
X875580Y946190D03*
X875580Y941190D03*
X849080Y941190D03*
X849080Y946190D03*
X849080Y951190D03*
X849080Y956190D03*
D10*
X871140Y920750D03*
X861140Y920750D03*
X871140Y930275D03*
X861140Y930275D03*
D17*
X883160Y1196905D03*
D18*
X873160Y1221905D03*
X868160Y1221905D03*
D17*
X788160Y1196905D03*
D18*
X863160Y1221905D03*
X858160Y1221905D03*
X853160Y1221905D03*
X848160Y1221905D03*
X843160Y1221905D03*
X838160Y1221905D03*
X833160Y1221905D03*
X828160Y1221905D03*
X823160Y1221905D03*
X818160Y1221905D03*
X813160Y1221905D03*
X808160Y1221905D03*
X803160Y1221905D03*
X798160Y1221905D03*
D19*
X858160Y864460D03*
X858160Y857960D03*
X858160Y851460D03*
X858160Y844960D03*
X813160Y844960D03*
X813160Y851460D03*
X813160Y857960D03*
X813160Y864460D03*
D10*
X813515Y878205D03*
X823515Y878205D03*
X903050Y921385D03*
X913050Y921385D03*
D11*
X914550Y912490D03*
X901550Y912490D03*
D12*
X914781Y895985D03*
X908050Y895985D03*
X901319Y895985D03*
D10*
X912415Y883285D03*
X902415Y883285D03*
X913050Y844550D03*
X903050Y844550D03*
X974645Y1022985D03*
X964645Y1022985D03*
X984885Y1029415D03*
X984885Y1039415D03*
X967740Y1033225D03*
X967740Y1043225D03*
X980440Y1007665D03*
X980440Y997665D03*
X961390Y1007665D03*
X961390Y997665D03*
X970915Y1007665D03*
X970915Y997665D03*
X930195Y942340D03*
X920195Y942340D03*
X920195Y932815D03*
X930195Y932815D03*
X911860Y1044020D03*
X911860Y1054020D03*
X924640Y1022985D03*
X934640Y1022985D03*
X913685Y1027430D03*
X903685Y1027430D03*
X902462Y973375D03*
X902462Y963375D03*
X935990Y983535D03*
X935990Y973535D03*
X916940Y983535D03*
X916940Y973535D03*
X926465Y983535D03*
X926465Y973535D03*
D13*
X926480Y1007415D03*
X926480Y997915D03*
X912480Y997915D03*
X912480Y1007415D03*
D10*
X946150Y1007665D03*
X946150Y997665D03*
X936625Y1007665D03*
X936625Y997665D03*
X902335Y999189D03*
X902335Y1009189D03*
X913050Y1163955D03*
X903050Y1163955D03*
X903050Y1154430D03*
X913050Y1154430D03*
X911225Y1101170D03*
X911225Y1111170D03*
X920750Y1101170D03*
X920750Y1111170D03*
D14*
X910590Y1128903D03*
X910590Y1120267D03*
D10*
X929005Y1125300D03*
X929005Y1135300D03*
X938530Y1125300D03*
X938530Y1135300D03*
X923370Y1144905D03*
X933370Y1144905D03*
X923370Y1154430D03*
X933370Y1154430D03*
X923370Y1163955D03*
X933370Y1163955D03*
X919480Y1125300D03*
X919480Y1135300D03*
X956310Y983535D03*
X956310Y973535D03*
X975360Y983535D03*
X975360Y973535D03*
X965835Y983535D03*
X965835Y973535D03*
X981790Y844550D03*
X991790Y844550D03*
D15*
X975385Y1136951D03*
X984885Y1136951D03*
X994385Y1136951D03*
X994385Y1110949D03*
X975385Y1110949D03*
D10*
X912415Y873760D03*
X902415Y873760D03*
X924560Y895430D03*
X924560Y905430D03*
X994410Y1151335D03*
X994410Y1161335D03*
D16*
X987340Y956190D03*
X987340Y951190D03*
X987340Y946190D03*
X987340Y941190D03*
X960840Y941190D03*
X960840Y946190D03*
X960840Y951190D03*
X960840Y956190D03*
D10*
X982900Y920750D03*
X972900Y920750D03*
X982900Y930275D03*
X972900Y930275D03*
D17*
X994920Y1196905D03*
D18*
X984920Y1221905D03*
X979920Y1221905D03*
D17*
X899920Y1196905D03*
D18*
X974920Y1221905D03*
X969920Y1221905D03*
X964920Y1221905D03*
X959920Y1221905D03*
X954920Y1221905D03*
X949920Y1221905D03*
X944920Y1221905D03*
X939920Y1221905D03*
X934920Y1221905D03*
X929920Y1221905D03*
X924920Y1221905D03*
X919920Y1221905D03*
X914920Y1221905D03*
X909920Y1221905D03*
D19*
X969920Y864460D03*
X969920Y857960D03*
X969920Y851460D03*
X969920Y844960D03*
X924920Y844960D03*
X924920Y851460D03*
X924920Y857960D03*
X924920Y864460D03*
D10*
X925275Y878205D03*
X935275Y878205D03*
X1014810Y921385D03*
X1024810Y921385D03*
D11*
X1026310Y912490D03*
X1013310Y912490D03*
D12*
X1026541Y895985D03*
X1019810Y895985D03*
X1013079Y895985D03*
D10*
X1024175Y883285D03*
X1014175Y883285D03*
X1024810Y844550D03*
X1014810Y844550D03*
X1086405Y1022985D03*
X1076405Y1022985D03*
X1096645Y1029415D03*
X1096645Y1039415D03*
X1079500Y1033225D03*
X1079500Y1043225D03*
X1092200Y1007665D03*
X1092200Y997665D03*
X1073150Y1007665D03*
X1073150Y997665D03*
X1082675Y1007665D03*
X1082675Y997665D03*
X1041955Y942340D03*
X1031955Y942340D03*
X1031955Y932815D03*
X1041955Y932815D03*
X1023620Y1044020D03*
X1023620Y1054020D03*
X1036400Y1022985D03*
X1046400Y1022985D03*
X1025445Y1027430D03*
X1015445Y1027430D03*
X1014222Y973375D03*
X1014222Y963375D03*
X1047750Y983535D03*
X1047750Y973535D03*
X1028700Y983535D03*
X1028700Y973535D03*
X1038225Y983535D03*
X1038225Y973535D03*
D13*
X1038240Y1007415D03*
X1038240Y997915D03*
X1024240Y997915D03*
X1024240Y1007415D03*
D10*
X1057910Y1007665D03*
X1057910Y997665D03*
X1048385Y1007665D03*
X1048385Y997665D03*
X1014095Y999189D03*
X1014095Y1009189D03*
X1024810Y1163955D03*
X1014810Y1163955D03*
X1014810Y1154430D03*
X1024810Y1154430D03*
X1022985Y1101170D03*
X1022985Y1111170D03*
X1032510Y1101170D03*
X1032510Y1111170D03*
D14*
X1022350Y1128903D03*
X1022350Y1120267D03*
D10*
X1040765Y1125300D03*
X1040765Y1135300D03*
X1050290Y1125300D03*
X1050290Y1135300D03*
X1035130Y1144905D03*
X1045130Y1144905D03*
X1035130Y1154430D03*
X1045130Y1154430D03*
X1035130Y1163955D03*
X1045130Y1163955D03*
X1031240Y1125300D03*
X1031240Y1135300D03*
X1068070Y983535D03*
X1068070Y973535D03*
X1087120Y983535D03*
X1087120Y973535D03*
X1077595Y983535D03*
X1077595Y973535D03*
X1093550Y844550D03*
X1103550Y844550D03*
D15*
X1087145Y1136951D03*
X1096645Y1136951D03*
X1106145Y1136951D03*
X1106145Y1110949D03*
X1087145Y1110949D03*
D10*
X1024175Y873760D03*
X1014175Y873760D03*
X1036320Y895430D03*
X1036320Y905430D03*
X1106170Y1151335D03*
X1106170Y1161335D03*
D16*
X1099100Y956190D03*
X1099100Y951190D03*
X1099100Y946190D03*
X1099100Y941190D03*
X1072600Y941190D03*
X1072600Y946190D03*
X1072600Y951190D03*
X1072600Y956190D03*
D10*
X1094660Y920750D03*
X1084660Y920750D03*
X1094660Y930275D03*
X1084660Y930275D03*
D17*
X1106680Y1196905D03*
D18*
X1096680Y1221905D03*
X1091680Y1221905D03*
D17*
X1011680Y1196905D03*
D18*
X1086680Y1221905D03*
X1081680Y1221905D03*
X1076680Y1221905D03*
X1071680Y1221905D03*
X1066680Y1221905D03*
X1061680Y1221905D03*
X1056680Y1221905D03*
X1051680Y1221905D03*
X1046680Y1221905D03*
X1041680Y1221905D03*
X1036680Y1221905D03*
X1031680Y1221905D03*
X1026680Y1221905D03*
X1021680Y1221905D03*
D19*
X1081680Y864460D03*
X1081680Y857960D03*
X1081680Y851460D03*
X1081680Y844960D03*
X1036680Y844960D03*
X1036680Y851460D03*
X1036680Y857960D03*
X1036680Y864460D03*
D10*
X1037035Y878205D03*
X1047035Y878205D03*
X1126570Y921385D03*
X1136570Y921385D03*
D11*
X1138070Y912490D03*
X1125070Y912490D03*
D12*
X1138301Y895985D03*
X1131570Y895985D03*
X1124839Y895985D03*
D10*
X1135935Y883285D03*
X1125935Y883285D03*
X1136570Y844550D03*
X1126570Y844550D03*
X1198165Y1022985D03*
X1188165Y1022985D03*
X1208405Y1029415D03*
X1208405Y1039415D03*
X1191260Y1033225D03*
X1191260Y1043225D03*
X1203960Y1007665D03*
X1203960Y997665D03*
X1184910Y1007665D03*
X1184910Y997665D03*
X1194435Y1007665D03*
X1194435Y997665D03*
X1153715Y942340D03*
X1143715Y942340D03*
X1143715Y932815D03*
X1153715Y932815D03*
X1135380Y1044020D03*
X1135380Y1054020D03*
X1148160Y1022985D03*
X1158160Y1022985D03*
X1137205Y1027430D03*
X1127205Y1027430D03*
X1125982Y973375D03*
X1125982Y963375D03*
X1159510Y983535D03*
X1159510Y973535D03*
X1140460Y983535D03*
X1140460Y973535D03*
X1149985Y983535D03*
X1149985Y973535D03*
D13*
X1150000Y1007415D03*
X1150000Y997915D03*
X1136000Y997915D03*
X1136000Y1007415D03*
D10*
X1169670Y1007665D03*
X1169670Y997665D03*
X1160145Y1007665D03*
X1160145Y997665D03*
X1125855Y999189D03*
X1125855Y1009189D03*
X1136570Y1163955D03*
X1126570Y1163955D03*
X1126570Y1154430D03*
X1136570Y1154430D03*
X1134745Y1101170D03*
X1134745Y1111170D03*
X1144270Y1101170D03*
X1144270Y1111170D03*
D14*
X1134110Y1128903D03*
X1134110Y1120267D03*
D10*
X1152525Y1125300D03*
X1152525Y1135300D03*
X1162050Y1125300D03*
X1162050Y1135300D03*
X1146890Y1144905D03*
X1156890Y1144905D03*
X1146890Y1154430D03*
X1156890Y1154430D03*
X1146890Y1163955D03*
X1156890Y1163955D03*
X1143000Y1125300D03*
X1143000Y1135300D03*
X1179830Y983535D03*
X1179830Y973535D03*
X1198880Y983535D03*
X1198880Y973535D03*
X1189355Y983535D03*
X1189355Y973535D03*
X1205310Y844550D03*
X1215310Y844550D03*
D15*
X1198905Y1136951D03*
X1208405Y1136951D03*
X1217905Y1136951D03*
X1217905Y1110949D03*
X1198905Y1110949D03*
D10*
X1135935Y873760D03*
X1125935Y873760D03*
X1148080Y895430D03*
X1148080Y905430D03*
X1217930Y1151335D03*
X1217930Y1161335D03*
D16*
X1210860Y956190D03*
X1210860Y951190D03*
X1210860Y946190D03*
X1210860Y941190D03*
X1184360Y941190D03*
X1184360Y946190D03*
X1184360Y951190D03*
X1184360Y956190D03*
D10*
X1206420Y920750D03*
X1196420Y920750D03*
X1206420Y930275D03*
X1196420Y930275D03*
D17*
X1218440Y1196905D03*
D18*
X1208440Y1221905D03*
X1203440Y1221905D03*
D17*
X1123440Y1196905D03*
D18*
X1198440Y1221905D03*
X1193440Y1221905D03*
X1188440Y1221905D03*
X1183440Y1221905D03*
X1178440Y1221905D03*
X1173440Y1221905D03*
X1168440Y1221905D03*
X1163440Y1221905D03*
X1158440Y1221905D03*
X1153440Y1221905D03*
X1148440Y1221905D03*
X1143440Y1221905D03*
X1138440Y1221905D03*
X1133440Y1221905D03*
D19*
X1193440Y864460D03*
X1193440Y857960D03*
X1193440Y851460D03*
X1193440Y844960D03*
X1148440Y844960D03*
X1148440Y851460D03*
X1148440Y857960D03*
X1148440Y864460D03*
D10*
X1148795Y878205D03*
X1158795Y878205D03*
X1238330Y921385D03*
X1248330Y921385D03*
D11*
X1249830Y912490D03*
X1236830Y912490D03*
D12*
X1250061Y895985D03*
X1243330Y895985D03*
X1236599Y895985D03*
D10*
X1247695Y883285D03*
X1237695Y883285D03*
X1248330Y844550D03*
X1238330Y844550D03*
X1309925Y1022985D03*
X1299925Y1022985D03*
X1320165Y1029415D03*
X1320165Y1039415D03*
X1303020Y1033225D03*
X1303020Y1043225D03*
X1315720Y1007665D03*
X1315720Y997665D03*
X1296670Y1007665D03*
X1296670Y997665D03*
X1306195Y1007665D03*
X1306195Y997665D03*
X1265475Y942340D03*
X1255475Y942340D03*
X1255475Y932815D03*
X1265475Y932815D03*
X1247140Y1044020D03*
X1247140Y1054020D03*
X1259920Y1022985D03*
X1269920Y1022985D03*
X1248965Y1027430D03*
X1238965Y1027430D03*
X1237742Y973375D03*
X1237742Y963375D03*
X1271270Y983535D03*
X1271270Y973535D03*
X1252220Y983535D03*
X1252220Y973535D03*
X1261745Y983535D03*
X1261745Y973535D03*
D13*
X1261760Y1007415D03*
X1261760Y997915D03*
X1247760Y997915D03*
X1247760Y1007415D03*
D10*
X1281430Y1007665D03*
X1281430Y997665D03*
X1271905Y1007665D03*
X1271905Y997665D03*
X1237615Y999189D03*
X1237615Y1009189D03*
X1248330Y1163955D03*
X1238330Y1163955D03*
X1238330Y1154430D03*
X1248330Y1154430D03*
X1246505Y1101170D03*
X1246505Y1111170D03*
X1256030Y1101170D03*
X1256030Y1111170D03*
D14*
X1245870Y1128903D03*
X1245870Y1120267D03*
D10*
X1264285Y1125300D03*
X1264285Y1135300D03*
X1273810Y1125300D03*
X1273810Y1135300D03*
X1258650Y1144905D03*
X1268650Y1144905D03*
X1258650Y1154430D03*
X1268650Y1154430D03*
X1258650Y1163955D03*
X1268650Y1163955D03*
X1254760Y1125300D03*
X1254760Y1135300D03*
X1291590Y983535D03*
X1291590Y973535D03*
X1310640Y983535D03*
X1310640Y973535D03*
X1301115Y983535D03*
X1301115Y973535D03*
X1317070Y844550D03*
X1327070Y844550D03*
D15*
X1310665Y1136951D03*
X1320165Y1136951D03*
X1329665Y1136951D03*
X1329665Y1110949D03*
X1310665Y1110949D03*
D10*
X1247695Y873760D03*
X1237695Y873760D03*
X1259840Y895430D03*
X1259840Y905430D03*
X1329690Y1151335D03*
X1329690Y1161335D03*
D16*
X1322620Y956190D03*
X1322620Y951190D03*
X1322620Y946190D03*
X1322620Y941190D03*
X1296120Y941190D03*
X1296120Y946190D03*
X1296120Y951190D03*
X1296120Y956190D03*
D10*
X1318180Y920750D03*
X1308180Y920750D03*
X1318180Y930275D03*
X1308180Y930275D03*
D17*
X1330200Y1196905D03*
D18*
X1320200Y1221905D03*
X1315200Y1221905D03*
D17*
X1235200Y1196905D03*
D18*
X1310200Y1221905D03*
X1305200Y1221905D03*
X1300200Y1221905D03*
X1295200Y1221905D03*
X1290200Y1221905D03*
X1285200Y1221905D03*
X1280200Y1221905D03*
X1275200Y1221905D03*
X1270200Y1221905D03*
X1265200Y1221905D03*
X1260200Y1221905D03*
X1255200Y1221905D03*
X1250200Y1221905D03*
X1245200Y1221905D03*
D19*
X1305200Y864460D03*
X1305200Y857960D03*
X1305200Y851460D03*
X1305200Y844960D03*
X1260200Y844960D03*
X1260200Y851460D03*
X1260200Y857960D03*
X1260200Y864460D03*
D10*
X1260555Y878205D03*
X1270555Y878205D03*
X1350090Y921385D03*
X1360090Y921385D03*
D11*
X1361590Y912490D03*
X1348590Y912490D03*
D12*
X1361821Y895985D03*
X1355090Y895985D03*
X1348359Y895985D03*
D10*
X1359455Y883285D03*
X1349455Y883285D03*
X1360090Y844550D03*
X1350090Y844550D03*
X1421685Y1022985D03*
X1411685Y1022985D03*
X1431925Y1029415D03*
X1431925Y1039415D03*
X1414780Y1033225D03*
X1414780Y1043225D03*
X1427480Y1007665D03*
X1427480Y997665D03*
X1408430Y1007665D03*
X1408430Y997665D03*
X1417955Y1007665D03*
X1417955Y997665D03*
X1377235Y942340D03*
X1367235Y942340D03*
X1367235Y932815D03*
X1377235Y932815D03*
X1358900Y1044020D03*
X1358900Y1054020D03*
X1371680Y1022985D03*
X1381680Y1022985D03*
X1360725Y1027430D03*
X1350725Y1027430D03*
X1349502Y973375D03*
X1349502Y963375D03*
X1383030Y983535D03*
X1383030Y973535D03*
X1363980Y983535D03*
X1363980Y973535D03*
X1373505Y983535D03*
X1373505Y973535D03*
D13*
X1373520Y1007415D03*
X1373520Y997915D03*
X1359520Y997915D03*
X1359520Y1007415D03*
D10*
X1393190Y1007665D03*
X1393190Y997665D03*
X1383665Y1007665D03*
X1383665Y997665D03*
X1349375Y999189D03*
X1349375Y1009189D03*
X1360090Y1163955D03*
X1350090Y1163955D03*
X1350090Y1154430D03*
X1360090Y1154430D03*
X1358265Y1101170D03*
X1358265Y1111170D03*
X1367790Y1101170D03*
X1367790Y1111170D03*
D14*
X1357630Y1128903D03*
X1357630Y1120267D03*
D10*
X1376045Y1125300D03*
X1376045Y1135300D03*
X1385570Y1125300D03*
X1385570Y1135300D03*
X1370410Y1144905D03*
X1380410Y1144905D03*
X1370410Y1154430D03*
X1380410Y1154430D03*
X1370410Y1163955D03*
X1380410Y1163955D03*
X1366520Y1125300D03*
X1366520Y1135300D03*
X1403350Y983535D03*
X1403350Y973535D03*
X1422400Y983535D03*
X1422400Y973535D03*
X1412875Y983535D03*
X1412875Y973535D03*
X1428830Y844550D03*
X1438830Y844550D03*
D15*
X1422425Y1136951D03*
X1431925Y1136951D03*
X1441425Y1136951D03*
X1441425Y1110949D03*
X1422425Y1110949D03*
D10*
X1359455Y873760D03*
X1349455Y873760D03*
X1371600Y895430D03*
X1371600Y905430D03*
X1441450Y1151335D03*
X1441450Y1161335D03*
D16*
X1434380Y956190D03*
X1434380Y951190D03*
X1434380Y946190D03*
X1434380Y941190D03*
X1407880Y941190D03*
X1407880Y946190D03*
X1407880Y951190D03*
X1407880Y956190D03*
D10*
X1429940Y920750D03*
X1419940Y920750D03*
X1429940Y930275D03*
X1419940Y930275D03*
D17*
X1441960Y1196905D03*
D18*
X1431960Y1221905D03*
X1426960Y1221905D03*
D17*
X1346960Y1196905D03*
D18*
X1421960Y1221905D03*
X1416960Y1221905D03*
X1411960Y1221905D03*
X1406960Y1221905D03*
X1401960Y1221905D03*
X1396960Y1221905D03*
X1391960Y1221905D03*
X1386960Y1221905D03*
X1381960Y1221905D03*
X1376960Y1221905D03*
X1371960Y1221905D03*
X1366960Y1221905D03*
X1361960Y1221905D03*
X1356960Y1221905D03*
D19*
X1416960Y864460D03*
X1416960Y857960D03*
X1416960Y851460D03*
X1416960Y844960D03*
X1371960Y844960D03*
X1371960Y851460D03*
X1371960Y857960D03*
X1371960Y864460D03*
D10*
X1372315Y878205D03*
X1382315Y878205D03*
X1461850Y921385D03*
X1471850Y921385D03*
D11*
X1473350Y912490D03*
X1460350Y912490D03*
D12*
X1473581Y895985D03*
X1466850Y895985D03*
X1460119Y895985D03*
D10*
X1471215Y883285D03*
X1461215Y883285D03*
X1471850Y844550D03*
X1461850Y844550D03*
X1533445Y1022985D03*
X1523445Y1022985D03*
X1543685Y1029415D03*
X1543685Y1039415D03*
X1526540Y1033225D03*
X1526540Y1043225D03*
X1539240Y1007665D03*
X1539240Y997665D03*
X1520190Y1007665D03*
X1520190Y997665D03*
X1529715Y1007665D03*
X1529715Y997665D03*
X1488995Y942340D03*
X1478995Y942340D03*
X1478995Y932815D03*
X1488995Y932815D03*
X1470660Y1044020D03*
X1470660Y1054020D03*
X1483440Y1022985D03*
X1493440Y1022985D03*
X1472485Y1027430D03*
X1462485Y1027430D03*
X1461262Y973375D03*
X1461262Y963375D03*
X1494790Y983535D03*
X1494790Y973535D03*
X1475740Y983535D03*
X1475740Y973535D03*
X1485265Y983535D03*
X1485265Y973535D03*
D13*
X1485280Y1007415D03*
X1485280Y997915D03*
X1471280Y997915D03*
X1471280Y1007415D03*
D10*
X1504950Y1007665D03*
X1504950Y997665D03*
X1495425Y1007665D03*
X1495425Y997665D03*
X1461135Y999189D03*
X1461135Y1009189D03*
X1471850Y1163955D03*
X1461850Y1163955D03*
X1461850Y1154430D03*
X1471850Y1154430D03*
X1470025Y1101170D03*
X1470025Y1111170D03*
X1479550Y1101170D03*
X1479550Y1111170D03*
D14*
X1469390Y1128903D03*
X1469390Y1120267D03*
D10*
X1487805Y1125300D03*
X1487805Y1135300D03*
X1497330Y1125300D03*
X1497330Y1135300D03*
X1482170Y1144905D03*
X1492170Y1144905D03*
X1482170Y1154430D03*
X1492170Y1154430D03*
X1482170Y1163955D03*
X1492170Y1163955D03*
X1478280Y1125300D03*
X1478280Y1135300D03*
X1515110Y983535D03*
X1515110Y973535D03*
X1534160Y983535D03*
X1534160Y973535D03*
X1524635Y983535D03*
X1524635Y973535D03*
X1540590Y844550D03*
X1550590Y844550D03*
D15*
X1534185Y1136951D03*
X1543685Y1136951D03*
X1553185Y1136951D03*
X1553185Y1110949D03*
X1534185Y1110949D03*
D10*
X1471215Y873760D03*
X1461215Y873760D03*
X1483360Y895430D03*
X1483360Y905430D03*
X1553210Y1151335D03*
X1553210Y1161335D03*
D16*
X1546140Y956190D03*
X1546140Y951190D03*
X1546140Y946190D03*
X1546140Y941190D03*
X1519640Y941190D03*
X1519640Y946190D03*
X1519640Y951190D03*
X1519640Y956190D03*
D10*
X1541700Y920750D03*
X1531700Y920750D03*
X1541700Y930275D03*
X1531700Y930275D03*
D17*
X1553720Y1196905D03*
D18*
X1543720Y1221905D03*
X1538720Y1221905D03*
D17*
X1458720Y1196905D03*
D18*
X1533720Y1221905D03*
X1528720Y1221905D03*
X1523720Y1221905D03*
X1518720Y1221905D03*
X1513720Y1221905D03*
X1508720Y1221905D03*
X1503720Y1221905D03*
X1498720Y1221905D03*
X1493720Y1221905D03*
X1488720Y1221905D03*
X1483720Y1221905D03*
X1478720Y1221905D03*
X1473720Y1221905D03*
X1468720Y1221905D03*
D19*
X1528720Y864460D03*
X1528720Y857960D03*
X1528720Y851460D03*
X1528720Y844960D03*
X1483720Y844960D03*
X1483720Y851460D03*
X1483720Y857960D03*
X1483720Y864460D03*
D10*
X1484075Y878205D03*
X1494075Y878205D03*
X1573610Y921385D03*
X1583610Y921385D03*
D11*
X1585110Y912490D03*
X1572110Y912490D03*
D12*
X1585341Y895985D03*
X1578610Y895985D03*
X1571879Y895985D03*
D10*
X1582975Y883285D03*
X1572975Y883285D03*
X1583610Y844550D03*
X1573610Y844550D03*
X1645205Y1022985D03*
X1635205Y1022985D03*
X1655445Y1029415D03*
X1655445Y1039415D03*
X1638300Y1033225D03*
X1638300Y1043225D03*
X1651000Y1007665D03*
X1651000Y997665D03*
X1631950Y1007665D03*
X1631950Y997665D03*
X1641475Y1007665D03*
X1641475Y997665D03*
X1600755Y942340D03*
X1590755Y942340D03*
X1590755Y932815D03*
X1600755Y932815D03*
X1582420Y1044020D03*
X1582420Y1054020D03*
X1595200Y1022985D03*
X1605200Y1022985D03*
X1584245Y1027430D03*
X1574245Y1027430D03*
X1573022Y973375D03*
X1573022Y963375D03*
X1606550Y983535D03*
X1606550Y973535D03*
X1587500Y983535D03*
X1587500Y973535D03*
X1597025Y983535D03*
X1597025Y973535D03*
D13*
X1597040Y1007415D03*
X1597040Y997915D03*
X1583040Y997915D03*
X1583040Y1007415D03*
D10*
X1616710Y1007665D03*
X1616710Y997665D03*
X1607185Y1007665D03*
X1607185Y997665D03*
X1572895Y999189D03*
X1572895Y1009189D03*
X1583610Y1163955D03*
X1573610Y1163955D03*
X1573610Y1154430D03*
X1583610Y1154430D03*
X1581785Y1101170D03*
X1581785Y1111170D03*
X1591310Y1101170D03*
X1591310Y1111170D03*
D14*
X1581150Y1128903D03*
X1581150Y1120267D03*
D10*
X1599565Y1125300D03*
X1599565Y1135300D03*
X1609090Y1125300D03*
X1609090Y1135300D03*
X1593930Y1144905D03*
X1603930Y1144905D03*
X1593930Y1154430D03*
X1603930Y1154430D03*
X1593930Y1163955D03*
X1603930Y1163955D03*
X1590040Y1125300D03*
X1590040Y1135300D03*
X1626870Y983535D03*
X1626870Y973535D03*
X1645920Y983535D03*
X1645920Y973535D03*
X1636395Y983535D03*
X1636395Y973535D03*
X1652350Y844550D03*
X1662350Y844550D03*
D15*
X1645945Y1136951D03*
X1655445Y1136951D03*
X1664945Y1136951D03*
X1664945Y1110949D03*
X1645945Y1110949D03*
D10*
X1582975Y873760D03*
X1572975Y873760D03*
X1595120Y895430D03*
X1595120Y905430D03*
X1664970Y1151335D03*
X1664970Y1161335D03*
D16*
X1657900Y956190D03*
X1657900Y951190D03*
X1657900Y946190D03*
X1657900Y941190D03*
X1631400Y941190D03*
X1631400Y946190D03*
X1631400Y951190D03*
X1631400Y956190D03*
D10*
X1653460Y920750D03*
X1643460Y920750D03*
X1653460Y930275D03*
X1643460Y930275D03*
D17*
X1665480Y1196905D03*
D18*
X1655480Y1221905D03*
X1650480Y1221905D03*
D17*
X1570480Y1196905D03*
D18*
X1645480Y1221905D03*
X1640480Y1221905D03*
X1635480Y1221905D03*
X1630480Y1221905D03*
X1625480Y1221905D03*
X1620480Y1221905D03*
X1615480Y1221905D03*
X1610480Y1221905D03*
X1605480Y1221905D03*
X1600480Y1221905D03*
X1595480Y1221905D03*
X1590480Y1221905D03*
X1585480Y1221905D03*
X1580480Y1221905D03*
D19*
X1640480Y864460D03*
X1640480Y857960D03*
X1640480Y851460D03*
X1640480Y844960D03*
X1595480Y844960D03*
X1595480Y851460D03*
X1595480Y857960D03*
X1595480Y864460D03*
D10*
X1595835Y878205D03*
X1605835Y878205D03*
X1685370Y921385D03*
X1695370Y921385D03*
D11*
X1696870Y912490D03*
X1683870Y912490D03*
D12*
X1697101Y895985D03*
X1690370Y895985D03*
X1683639Y895985D03*
D10*
X1694735Y883285D03*
X1684735Y883285D03*
X1695370Y844550D03*
X1685370Y844550D03*
X1756965Y1022985D03*
X1746965Y1022985D03*
X1767205Y1029415D03*
X1767205Y1039415D03*
X1750060Y1033225D03*
X1750060Y1043225D03*
X1762760Y1007665D03*
X1762760Y997665D03*
X1743710Y1007665D03*
X1743710Y997665D03*
X1753235Y1007665D03*
X1753235Y997665D03*
X1712515Y942340D03*
X1702515Y942340D03*
X1702515Y932815D03*
X1712515Y932815D03*
X1694180Y1044020D03*
X1694180Y1054020D03*
X1706960Y1022985D03*
X1716960Y1022985D03*
X1696005Y1027430D03*
X1686005Y1027430D03*
X1684782Y973375D03*
X1684782Y963375D03*
X1718310Y983535D03*
X1718310Y973535D03*
X1699260Y983535D03*
X1699260Y973535D03*
X1708785Y983535D03*
X1708785Y973535D03*
D13*
X1708800Y1007415D03*
X1708800Y997915D03*
X1694800Y997915D03*
X1694800Y1007415D03*
D10*
X1728470Y1007665D03*
X1728470Y997665D03*
X1718945Y1007665D03*
X1718945Y997665D03*
X1684655Y999189D03*
X1684655Y1009189D03*
X1695370Y1163955D03*
X1685370Y1163955D03*
X1685370Y1154430D03*
X1695370Y1154430D03*
X1693545Y1101170D03*
X1693545Y1111170D03*
X1703070Y1101170D03*
X1703070Y1111170D03*
D14*
X1692910Y1128903D03*
X1692910Y1120267D03*
D10*
X1711325Y1125300D03*
X1711325Y1135300D03*
X1720850Y1125300D03*
X1720850Y1135300D03*
X1705690Y1144905D03*
X1715690Y1144905D03*
X1705690Y1154430D03*
X1715690Y1154430D03*
X1705690Y1163955D03*
X1715690Y1163955D03*
X1701800Y1125300D03*
X1701800Y1135300D03*
X1738630Y983535D03*
X1738630Y973535D03*
X1757680Y983535D03*
X1757680Y973535D03*
X1748155Y983535D03*
X1748155Y973535D03*
X1764110Y844550D03*
X1774110Y844550D03*
D15*
X1757705Y1136951D03*
X1767205Y1136951D03*
X1776705Y1136951D03*
X1776705Y1110949D03*
X1757705Y1110949D03*
D10*
X1694735Y873760D03*
X1684735Y873760D03*
X1706880Y895430D03*
X1706880Y905430D03*
X1776730Y1151335D03*
X1776730Y1161335D03*
D16*
X1769660Y956190D03*
X1769660Y951190D03*
X1769660Y946190D03*
X1769660Y941190D03*
X1743160Y941190D03*
X1743160Y946190D03*
X1743160Y951190D03*
X1743160Y956190D03*
D10*
X1765220Y920750D03*
X1755220Y920750D03*
X1765220Y930275D03*
X1755220Y930275D03*
D17*
X1777240Y1196905D03*
D18*
X1767240Y1221905D03*
X1762240Y1221905D03*
D17*
X1682240Y1196905D03*
D18*
X1757240Y1221905D03*
X1752240Y1221905D03*
X1747240Y1221905D03*
X1742240Y1221905D03*
X1737240Y1221905D03*
X1732240Y1221905D03*
X1727240Y1221905D03*
X1722240Y1221905D03*
X1717240Y1221905D03*
X1712240Y1221905D03*
X1707240Y1221905D03*
X1702240Y1221905D03*
X1697240Y1221905D03*
X1692240Y1221905D03*
D19*
X1752240Y864460D03*
X1752240Y857960D03*
X1752240Y851460D03*
X1752240Y844960D03*
X1707240Y844960D03*
X1707240Y851460D03*
X1707240Y857960D03*
X1707240Y864460D03*
D10*
X1707595Y878205D03*
X1717595Y878205D03*
M02*
