M48
;GenerationSoftware,Autodesk,EAGLE,9.6.2*%
;CreationDate,2021-11-11T11:28:57Z*%
FMAT,2
ICI,OFF
METRIC,TZ,000.000
T1C0.300
%
G90
M71
T1
X8128Y2159
X2604Y1587
X3265Y38545
X7403Y38545
X1270Y5080
X9843Y38799
X762Y38735
X9446Y2223
X8875Y5080
X6350Y29210
X6350Y31750
X3810Y29210
X3810Y31750
X2540Y15240
X6350Y15240
X3810Y8890
X2540Y25400
X1255Y6858
X810Y762
X5446Y3746
X8875Y6794
X1524Y34925
X1524Y35941
X5446Y5398
X2223Y3746
X7584Y1587
X7112Y2096
X6604Y1587
X6096Y2096
X5604Y1587
X5144Y2540
X4604Y1587
X4064Y2159
X3604Y1587
X7470Y34608
X7597Y12700
X3048Y2159
X6556Y34608
X7318Y11557
X8578Y1582
X1841Y2159
X3519Y37846
X7085Y37846
X4064Y12128
X1207Y1651
X1175Y2635
X9525Y1397
X4064Y12827
X4064Y11430
X19304Y2159
X13779Y1587
X14441Y38545
X18579Y38545
X12446Y5080
X21019Y38799
X11938Y38735
X20622Y2223
X20051Y5080
X17526Y29210
X17526Y31750
X14986Y29210
X14986Y31750
X13716Y15240
X17526Y15240
X14986Y8890
X13716Y25400
X12431Y6858
X11986Y762
X16622Y3746
X20051Y6794
X12700Y34925
X12700Y35941
X16622Y5398
X13398Y3746
X18760Y1587
X18288Y2096
X17780Y1587
X17272Y2096
X16780Y1587
X16319Y2540
X15780Y1587
X15240Y2159
X14780Y1587
X18646Y34608
X18773Y12700
X14224Y2159
X17732Y34608
X18494Y11557
X19754Y1582
X13017Y2159
X14695Y37846
X18262Y37846
X15240Y12128
X12382Y1651
X12351Y2635
X20701Y1397
X15240Y12827
X15240Y11430
X30480Y2159
X24955Y1587
X25617Y38545
X29755Y38545
X23622Y5080
X32194Y38799
X23114Y38735
X31798Y2223
X31227Y5080
X28702Y29210
X28702Y31750
X26162Y29210
X26162Y31750
X24892Y15240
X28702Y15240
X26162Y8890
X24892Y25400
X23607Y6858
X23162Y762
X27798Y3746
X31227Y6794
X23876Y34925
X23876Y35941
X27798Y5398
X24574Y3746
X29936Y1587
X29464Y2096
X28956Y1587
X28448Y2096
X27956Y1587
X27495Y2540
X26956Y1587
X26416Y2159
X25956Y1587
X29822Y34608
X29949Y12700
X25400Y2159
X28908Y34608
X29670Y11557
X30930Y1582
X24193Y2159
X25871Y37846
X29437Y37846
X26416Y12128
X23558Y1651
X23527Y2635
X31877Y1397
X26416Y12827
X26416Y11430
X41656Y2159
X36132Y1587
X36793Y38545
X40931Y38545
X34798Y5080
X43371Y38799
X34290Y38735
X42974Y2223
X42403Y5080
X39878Y29210
X39878Y31750
X37338Y29210
X37338Y31750
X36068Y15240
X39878Y15240
X37338Y8890
X36068Y25400
X34783Y6858
X34338Y762
X38974Y3746
X42403Y6794
X35052Y34925
X35052Y35941
X38974Y5398
X35751Y3746
X41112Y1587
X40640Y2096
X40132Y1587
X39624Y2096
X39132Y1587
X38672Y2540
X38132Y1587
X37592Y2159
X37132Y1587
X40998Y34608
X41125Y12700
X36576Y2159
X40084Y34608
X40846Y11557
X42106Y1582
X35370Y2159
X37047Y37846
X40614Y37846
X37592Y12128
X34735Y1651
X34703Y2635
X43053Y1397
X37592Y12827
X37592Y11430
X52832Y2159
X47307Y1587
X47969Y38545
X52107Y38545
X45974Y5080
X54546Y38799
X45466Y38735
X54150Y2223
X53579Y5080
X51054Y29210
X51054Y31750
X48514Y29210
X48514Y31750
X47244Y15240
X51054Y15240
X48514Y8890
X47244Y25400
X45959Y6858
X45514Y762
X50150Y3746
X53579Y6794
X46228Y34925
X46228Y35941
X50150Y5398
X46926Y3746
X52288Y1587
X51816Y2096
X51308Y1587
X50800Y2096
X50308Y1587
X49847Y2540
X49308Y1587
X48768Y2159
X48308Y1587
X52174Y34608
X52301Y12700
X47752Y2159
X51260Y34608
X52022Y11557
X53282Y1582
X46545Y2159
X48223Y37846
X51789Y37846
X48768Y12128
X45910Y1651
X45879Y2635
X54229Y1397
X48768Y12827
X48768Y11430
X64008Y2159
X58483Y1587
X59145Y38545
X63283Y38545
X57150Y5080
X65723Y38799
X56642Y38735
X65326Y2223
X64755Y5080
X62230Y29210
X62230Y31750
X59690Y29210
X59690Y31750
X58420Y15240
X62230Y15240
X59690Y8890
X58420Y25400
X57135Y6858
X56690Y762
X61326Y3746
X64755Y6794
X57404Y34925
X57404Y35941
X61326Y5398
X58102Y3746
X63464Y1587
X62992Y2096
X62484Y1587
X61976Y2096
X61484Y1587
X61023Y2540
X60484Y1587
X59944Y2159
X59484Y1587
X63350Y34608
X63477Y12700
X58928Y2159
X62436Y34608
X63198Y11557
X64458Y1582
X57721Y2159
X59399Y37846
X62965Y37846
X59944Y12128
X57086Y1651
X57055Y2635
X65405Y1397
X59944Y12827
X59944Y11430
X75184Y2159
X69660Y1587
X70321Y38545
X74459Y38545
X68326Y5080
X76899Y38799
X67818Y38735
X76502Y2223
X75931Y5080
X73406Y29210
X73406Y31750
X70866Y29210
X70866Y31750
X69596Y15240
X73406Y15240
X70866Y8890
X69596Y25400
X68311Y6858
X67866Y762
X72502Y3746
X75931Y6794
X68580Y34925
X68580Y35941
X72502Y5398
X69279Y3746
X74640Y1587
X74168Y2096
X73660Y1587
X73152Y2096
X72660Y1587
X72200Y2540
X71660Y1587
X71120Y2159
X70660Y1587
X74526Y34608
X74653Y12700
X70104Y2159
X73612Y34608
X74374Y11557
X75634Y1582
X68898Y2159
X70575Y37846
X74142Y37846
X71120Y12128
X68263Y1651
X68231Y2635
X76581Y1397
X71120Y12827
X71120Y11430
X86360Y2159
X80836Y1587
X81497Y38545
X85635Y38545
X79502Y5080
X88074Y38799
X78994Y38735
X87678Y2223
X87107Y5080
X84582Y29210
X84582Y31750
X82042Y29210
X82042Y31750
X80772Y15240
X84582Y15240
X82042Y8890
X80772Y25400
X79487Y6858
X79042Y762
X83678Y3746
X87107Y6794
X79756Y34925
X79756Y35941
X83678Y5398
X80455Y3746
X85816Y1587
X85344Y2096
X84836Y1587
X84328Y2096
X83836Y1587
X83376Y2540
X82836Y1587
X82296Y2159
X81836Y1587
X85702Y34608
X85829Y12700
X81280Y2159
X84788Y34608
X85550Y11557
X86810Y1582
X80074Y2159
X81751Y37846
X85318Y37846
X82296Y12128
X79439Y1651
X79407Y2635
X87757Y1397
X82296Y12827
X82296Y11430
X97536Y2159
X92011Y1587
X92673Y38545
X96811Y38545
X90678Y5080
X99250Y38799
X90170Y38735
X98854Y2223
X98283Y5080
X95758Y29210
X95758Y31750
X93218Y29210
X93218Y31750
X91948Y15240
X95758Y15240
X93218Y8890
X91948Y25400
X90663Y6858
X90218Y762
X94854Y3746
X98283Y6794
X90932Y34925
X90932Y35941
X94854Y5398
X91630Y3746
X96992Y1587
X96520Y2096
X96012Y1587
X95504Y2096
X95012Y1587
X94551Y2540
X94012Y1587
X93472Y2159
X93012Y1587
X96878Y34608
X97005Y12700
X92456Y2159
X95964Y34608
X96726Y11557
X97986Y1582
X91249Y2159
X92927Y37846
X96493Y37846
X93472Y12128
X90614Y1651
X90583Y2635
X98933Y1397
X93472Y12827
X93472Y11430
X108712Y2159
X103187Y1587
X103849Y38545
X107987Y38545
X101854Y5080
X110426Y38799
X101346Y38735
X110030Y2223
X109459Y5080
X106934Y29210
X106934Y31750
X104394Y29210
X104394Y31750
X103124Y15240
X106934Y15240
X104394Y8890
X103124Y25400
X101839Y6858
X101394Y762
X106030Y3746
X109459Y6794
X102108Y34925
X102108Y35941
X106030Y5398
X102806Y3746
X108168Y1587
X107696Y2096
X107188Y1587
X106680Y2096
X106188Y1587
X105727Y2540
X105188Y1587
X104648Y2159
X104188Y1587
X108054Y34608
X108181Y12700
X103632Y2159
X107140Y34608
X107902Y11557
X109162Y1582
X102425Y2159
X104103Y37846
X107669Y37846
X104648Y12128
X101790Y1651
X101759Y2635
X110109Y1397
X104648Y12827
X104648Y11430
X119888Y2159
X114363Y1587
X115025Y38545
X119163Y38545
X113030Y5080
X121602Y38799
X112522Y38735
X121206Y2223
X120635Y5080
X118110Y29210
X118110Y31750
X115570Y29210
X115570Y31750
X114300Y15240
X118110Y15240
X115570Y8890
X114300Y25400
X113015Y6858
X112570Y762
X117206Y3746
X120635Y6794
X113284Y34925
X113284Y35941
X117206Y5398
X113982Y3746
X119344Y1587
X118872Y2096
X118364Y1587
X117856Y2096
X117364Y1587
X116903Y2540
X116364Y1587
X115824Y2159
X115364Y1587
X119230Y34608
X119357Y12700
X114808Y2159
X118316Y34608
X119078Y11557
X120338Y1582
X113601Y2159
X115279Y37846
X118845Y37846
X115824Y12128
X112966Y1651
X112935Y2635
X121285Y1397
X115824Y12827
X115824Y11430
X131064Y2159
X125539Y1587
X126201Y38545
X130339Y38545
X124206Y5080
X132779Y38799
X123698Y38735
X132382Y2223
X131811Y5080
X129286Y29210
X129286Y31750
X126746Y29210
X126746Y31750
X125476Y15240
X129286Y15240
X126746Y8890
X125476Y25400
X124191Y6858
X123746Y762
X128382Y3746
X131811Y6794
X124460Y34925
X124460Y35941
X128382Y5398
X125158Y3746
X130520Y1587
X130048Y2096
X129540Y1587
X129032Y2096
X128540Y1587
X128079Y2540
X127540Y1587
X127000Y2159
X126540Y1587
X130406Y34608
X130533Y12700
X125984Y2159
X129492Y34608
X130254Y11557
X131514Y1582
X124777Y2159
X126455Y37846
X130021Y37846
X127000Y12128
X124142Y1651
X124111Y2635
X132461Y1397
X127000Y12827
X127000Y11430
X142240Y2159
X136716Y1587
X137377Y38545
X141515Y38545
X135382Y5080
X143955Y38799
X134874Y38735
X143558Y2223
X142987Y5080
X140462Y29210
X140462Y31750
X137922Y29210
X137922Y31750
X136652Y15240
X140462Y15240
X137922Y8890
X136652Y25400
X135367Y6858
X134922Y762
X139558Y3746
X142987Y6794
X135636Y34925
X135636Y35941
X139558Y5398
X136335Y3746
X141696Y1587
X141224Y2096
X140716Y1587
X140208Y2096
X139716Y1587
X139256Y2540
X138716Y1587
X138176Y2159
X137716Y1587
X141582Y34608
X141709Y12700
X137160Y2159
X140668Y34608
X141430Y11557
X142690Y1582
X135954Y2159
X137631Y37846
X141198Y37846
X138176Y12128
X135319Y1651
X135287Y2635
X143637Y1397
X138176Y12827
X138176Y11430
X153416Y2159
X147892Y1587
X148553Y38545
X152691Y38545
X146558Y5080
X155131Y38799
X146050Y38735
X154734Y2223
X154163Y5080
X151638Y29210
X151638Y31750
X149098Y29210
X149098Y31750
X147828Y15240
X151638Y15240
X149098Y8890
X147828Y25400
X146543Y6858
X146098Y762
X150734Y3746
X154163Y6794
X146812Y34925
X146812Y35941
X150734Y5398
X147511Y3746
X152872Y1587
X152400Y2096
X151892Y1587
X151384Y2096
X150892Y1587
X150432Y2540
X149892Y1587
X149352Y2159
X148892Y1587
X152758Y34608
X152885Y12700
X148336Y2159
X151844Y34608
X152606Y11557
X153866Y1582
X147130Y2159
X148807Y37846
X152374Y37846
X149352Y12128
X146495Y1651
X146463Y2635
X154813Y1397
X149352Y12827
X149352Y11430
X164592Y2159
X159068Y1587
X159729Y38545
X163867Y38545
X157734Y5080
X166307Y38799
X157226Y38735
X165910Y2223
X165339Y5080
X162814Y29210
X162814Y31750
X160274Y29210
X160274Y31750
X159004Y15240
X162814Y15240
X160274Y8890
X159004Y25400
X157719Y6858
X157274Y762
X161910Y3746
X165339Y6794
X157988Y34925
X157988Y35941
X161910Y5398
X158687Y3746
X164048Y1587
X163576Y2096
X163068Y1587
X162560Y2096
X162068Y1587
X161608Y2540
X161068Y1587
X160528Y2159
X160068Y1587
X163934Y34608
X164061Y12700
X159512Y2159
X163020Y34608
X163782Y11557
X165042Y1582
X158306Y2159
X159983Y37846
X163550Y37846
X160528Y12128
X157671Y1651
X157639Y2635
X165989Y1397
X160528Y12827
X160528Y11430
X175768Y2159
X170244Y1587
X170905Y38545
X175043Y38545
X168910Y5080
X177482Y38799
X168402Y38735
X177086Y2223
X176515Y5080
X173990Y29210
X173990Y31750
X171450Y29210
X171450Y31750
X170180Y15240
X173990Y15240
X171450Y8890
X170180Y25400
X168895Y6858
X168450Y762
X173086Y3746
X176515Y6794
X169164Y34925
X169164Y35941
X173086Y5398
X169863Y3746
X175224Y1587
X174752Y2096
X174244Y1587
X173736Y2096
X173244Y1587
X172784Y2540
X172244Y1587
X171704Y2159
X171244Y1587
X175110Y34608
X175237Y12700
X170688Y2159
X174196Y34608
X174958Y11557
X176218Y1582
X169482Y2159
X171159Y37846
X174726Y37846
X171704Y12128
X168847Y1651
X168815Y2635
X177165Y1397
X171704Y12827
X171704Y11430
X8128Y43307
X2604Y42736
X3265Y79693
X7403Y79693
X1270Y46228
X9843Y79947
X762Y79883
X9446Y43371
X8875Y46228
X6350Y70358
X6350Y72898
X3810Y70358
X3810Y72898
X2540Y56388
X6350Y56388
X3810Y50038
X2540Y66548
X1255Y48006
X810Y41910
X5446Y44894
X8875Y47942
X1524Y76073
X1524Y77089
X5446Y46545
X2223Y44894
X7584Y42736
X7112Y43244
X6604Y42736
X6096Y43244
X5604Y42736
X5144Y43688
X4604Y42736
X4064Y43307
X3604Y42736
X7470Y75756
X7597Y53848
X3048Y43307
X6556Y75756
X7318Y52705
X8578Y42730
X1841Y43307
X3519Y78994
X7085Y78994
X4064Y53276
X1207Y42799
X1175Y43783
X9525Y42545
X4064Y53975
X4064Y52578
X19304Y43307
X13779Y42736
X14441Y79693
X18579Y79693
X12446Y46228
X21019Y79947
X11938Y79883
X20622Y43371
X20051Y46228
X17526Y70358
X17526Y72898
X14986Y70358
X14986Y72898
X13716Y56388
X17526Y56388
X14986Y50038
X13716Y66548
X12431Y48006
X11986Y41910
X16622Y44894
X20051Y47942
X12700Y76073
X12700Y77089
X16622Y46545
X13398Y44894
X18760Y42736
X18288Y43244
X17780Y42736
X17272Y43244
X16780Y42736
X16319Y43688
X15780Y42736
X15240Y43307
X14780Y42736
X18646Y75756
X18773Y53848
X14224Y43307
X17732Y75756
X18494Y52705
X19754Y42730
X13017Y43307
X14695Y78994
X18262Y78994
X15240Y53276
X12382Y42799
X12351Y43783
X20701Y42545
X15240Y53975
X15240Y52578
X30480Y43307
X24955Y42736
X25617Y79693
X29755Y79693
X23622Y46228
X32194Y79947
X23114Y79883
X31798Y43371
X31227Y46228
X28702Y70358
X28702Y72898
X26162Y70358
X26162Y72898
X24892Y56388
X28702Y56388
X26162Y50038
X24892Y66548
X23607Y48006
X23162Y41910
X27798Y44894
X31227Y47942
X23876Y76073
X23876Y77089
X27798Y46545
X24574Y44894
X29936Y42736
X29464Y43244
X28956Y42736
X28448Y43244
X27956Y42736
X27495Y43688
X26956Y42736
X26416Y43307
X25956Y42736
X29822Y75756
X29949Y53848
X25400Y43307
X28908Y75756
X29670Y52705
X30930Y42730
X24193Y43307
X25871Y78994
X29437Y78994
X26416Y53276
X23558Y42799
X23527Y43783
X31877Y42545
X26416Y53975
X26416Y52578
X41656Y43307
X36132Y42736
X36793Y79693
X40931Y79693
X34798Y46228
X43371Y79947
X34290Y79883
X42974Y43371
X42403Y46228
X39878Y70358
X39878Y72898
X37338Y70358
X37338Y72898
X36068Y56388
X39878Y56388
X37338Y50038
X36068Y66548
X34783Y48006
X34338Y41910
X38974Y44894
X42403Y47942
X35052Y76073
X35052Y77089
X38974Y46545
X35751Y44894
X41112Y42736
X40640Y43244
X40132Y42736
X39624Y43244
X39132Y42736
X38672Y43688
X38132Y42736
X37592Y43307
X37132Y42736
X40998Y75756
X41125Y53848
X36576Y43307
X40084Y75756
X40846Y52705
X42106Y42730
X35370Y43307
X37047Y78994
X40614Y78994
X37592Y53276
X34735Y42799
X34703Y43783
X43053Y42545
X37592Y53975
X37592Y52578
X52832Y43307
X47307Y42736
X47969Y79693
X52107Y79693
X45974Y46228
X54546Y79947
X45466Y79883
X54150Y43371
X53579Y46228
X51054Y70358
X51054Y72898
X48514Y70358
X48514Y72898
X47244Y56388
X51054Y56388
X48514Y50038
X47244Y66548
X45959Y48006
X45514Y41910
X50150Y44894
X53579Y47942
X46228Y76073
X46228Y77089
X50150Y46545
X46926Y44894
X52288Y42736
X51816Y43244
X51308Y42736
X50800Y43244
X50308Y42736
X49847Y43688
X49308Y42736
X48768Y43307
X48308Y42736
X52174Y75756
X52301Y53848
X47752Y43307
X51260Y75756
X52022Y52705
X53282Y42730
X46545Y43307
X48223Y78994
X51789Y78994
X48768Y53276
X45910Y42799
X45879Y43783
X54229Y42545
X48768Y53975
X48768Y52578
X64008Y43307
X58483Y42736
X59145Y79693
X63283Y79693
X57150Y46228
X65723Y79947
X56642Y79883
X65326Y43371
X64755Y46228
X62230Y70358
X62230Y72898
X59690Y70358
X59690Y72898
X58420Y56388
X62230Y56388
X59690Y50038
X58420Y66548
X57135Y48006
X56690Y41910
X61326Y44894
X64755Y47942
X57404Y76073
X57404Y77089
X61326Y46545
X58102Y44894
X63464Y42736
X62992Y43244
X62484Y42736
X61976Y43244
X61484Y42736
X61023Y43688
X60484Y42736
X59944Y43307
X59484Y42736
X63350Y75756
X63477Y53848
X58928Y43307
X62436Y75756
X63198Y52705
X64458Y42730
X57721Y43307
X59399Y78994
X62965Y78994
X59944Y53276
X57086Y42799
X57055Y43783
X65405Y42545
X59944Y53975
X59944Y52578
X75184Y43307
X69660Y42736
X70321Y79693
X74459Y79693
X68326Y46228
X76899Y79947
X67818Y79883
X76502Y43371
X75931Y46228
X73406Y70358
X73406Y72898
X70866Y70358
X70866Y72898
X69596Y56388
X73406Y56388
X70866Y50038
X69596Y66548
X68311Y48006
X67866Y41910
X72502Y44894
X75931Y47942
X68580Y76073
X68580Y77089
X72502Y46545
X69279Y44894
X74640Y42736
X74168Y43244
X73660Y42736
X73152Y43244
X72660Y42736
X72200Y43688
X71660Y42736
X71120Y43307
X70660Y42736
X74526Y75756
X74653Y53848
X70104Y43307
X73612Y75756
X74374Y52705
X75634Y42730
X68898Y43307
X70575Y78994
X74142Y78994
X71120Y53276
X68263Y42799
X68231Y43783
X76581Y42545
X71120Y53975
X71120Y52578
X86360Y43307
X80836Y42736
X81497Y79693
X85635Y79693
X79502Y46228
X88074Y79947
X78994Y79883
X87678Y43371
X87107Y46228
X84582Y70358
X84582Y72898
X82042Y70358
X82042Y72898
X80772Y56388
X84582Y56388
X82042Y50038
X80772Y66548
X79487Y48006
X79042Y41910
X83678Y44894
X87107Y47942
X79756Y76073
X79756Y77089
X83678Y46545
X80455Y44894
X85816Y42736
X85344Y43244
X84836Y42736
X84328Y43244
X83836Y42736
X83376Y43688
X82836Y42736
X82296Y43307
X81836Y42736
X85702Y75756
X85829Y53848
X81280Y43307
X84788Y75756
X85550Y52705
X86810Y42730
X80074Y43307
X81751Y78994
X85318Y78994
X82296Y53276
X79439Y42799
X79407Y43783
X87757Y42545
X82296Y53975
X82296Y52578
X97536Y43307
X92011Y42736
X92673Y79693
X96811Y79693
X90678Y46228
X99250Y79947
X90170Y79883
X98854Y43371
X98283Y46228
X95758Y70358
X95758Y72898
X93218Y70358
X93218Y72898
X91948Y56388
X95758Y56388
X93218Y50038
X91948Y66548
X90663Y48006
X90218Y41910
X94854Y44894
X98283Y47942
X90932Y76073
X90932Y77089
X94854Y46545
X91630Y44894
X96992Y42736
X96520Y43244
X96012Y42736
X95504Y43244
X95012Y42736
X94551Y43688
X94012Y42736
X93472Y43307
X93012Y42736
X96878Y75756
X97005Y53848
X92456Y43307
X95964Y75756
X96726Y52705
X97986Y42730
X91249Y43307
X92927Y78994
X96493Y78994
X93472Y53276
X90614Y42799
X90583Y43783
X98933Y42545
X93472Y53975
X93472Y52578
X108712Y43307
X103187Y42736
X103849Y79693
X107987Y79693
X101854Y46228
X110426Y79947
X101346Y79883
X110030Y43371
X109459Y46228
X106934Y70358
X106934Y72898
X104394Y70358
X104394Y72898
X103124Y56388
X106934Y56388
X104394Y50038
X103124Y66548
X101839Y48006
X101394Y41910
X106030Y44894
X109459Y47942
X102108Y76073
X102108Y77089
X106030Y46545
X102806Y44894
X108168Y42736
X107696Y43244
X107188Y42736
X106680Y43244
X106188Y42736
X105727Y43688
X105188Y42736
X104648Y43307
X104188Y42736
X108054Y75756
X108181Y53848
X103632Y43307
X107140Y75756
X107902Y52705
X109162Y42730
X102425Y43307
X104103Y78994
X107669Y78994
X104648Y53276
X101790Y42799
X101759Y43783
X110109Y42545
X104648Y53975
X104648Y52578
X119888Y43307
X114363Y42736
X115025Y79693
X119163Y79693
X113030Y46228
X121602Y79947
X112522Y79883
X121206Y43371
X120635Y46228
X118110Y70358
X118110Y72898
X115570Y70358
X115570Y72898
X114300Y56388
X118110Y56388
X115570Y50038
X114300Y66548
X113015Y48006
X112570Y41910
X117206Y44894
X120635Y47942
X113284Y76073
X113284Y77089
X117206Y46545
X113982Y44894
X119344Y42736
X118872Y43244
X118364Y42736
X117856Y43244
X117364Y42736
X116903Y43688
X116364Y42736
X115824Y43307
X115364Y42736
X119230Y75756
X119357Y53848
X114808Y43307
X118316Y75756
X119078Y52705
X120338Y42730
X113601Y43307
X115279Y78994
X118845Y78994
X115824Y53276
X112966Y42799
X112935Y43783
X121285Y42545
X115824Y53975
X115824Y52578
X131064Y43307
X125539Y42736
X126201Y79693
X130339Y79693
X124206Y46228
X132779Y79947
X123698Y79883
X132382Y43371
X131811Y46228
X129286Y70358
X129286Y72898
X126746Y70358
X126746Y72898
X125476Y56388
X129286Y56388
X126746Y50038
X125476Y66548
X124191Y48006
X123746Y41910
X128382Y44894
X131811Y47942
X124460Y76073
X124460Y77089
X128382Y46545
X125158Y44894
X130520Y42736
X130048Y43244
X129540Y42736
X129032Y43244
X128540Y42736
X128079Y43688
X127540Y42736
X127000Y43307
X126540Y42736
X130406Y75756
X130533Y53848
X125984Y43307
X129492Y75756
X130254Y52705
X131514Y42730
X124777Y43307
X126455Y78994
X130021Y78994
X127000Y53276
X124142Y42799
X124111Y43783
X132461Y42545
X127000Y53975
X127000Y52578
X142240Y43307
X136716Y42736
X137377Y79693
X141515Y79693
X135382Y46228
X143955Y79947
X134874Y79883
X143558Y43371
X142987Y46228
X140462Y70358
X140462Y72898
X137922Y70358
X137922Y72898
X136652Y56388
X140462Y56388
X137922Y50038
X136652Y66548
X135367Y48006
X134922Y41910
X139558Y44894
X142987Y47942
X135636Y76073
X135636Y77089
X139558Y46545
X136335Y44894
X141696Y42736
X141224Y43244
X140716Y42736
X140208Y43244
X139716Y42736
X139256Y43688
X138716Y42736
X138176Y43307
X137716Y42736
X141582Y75756
X141709Y53848
X137160Y43307
X140668Y75756
X141430Y52705
X142690Y42730
X135954Y43307
X137631Y78994
X141198Y78994
X138176Y53276
X135319Y42799
X135287Y43783
X143637Y42545
X138176Y53975
X138176Y52578
X153416Y43307
X147892Y42736
X148553Y79693
X152691Y79693
X146558Y46228
X155131Y79947
X146050Y79883
X154734Y43371
X154163Y46228
X151638Y70358
X151638Y72898
X149098Y70358
X149098Y72898
X147828Y56388
X151638Y56388
X149098Y50038
X147828Y66548
X146543Y48006
X146098Y41910
X150734Y44894
X154163Y47942
X146812Y76073
X146812Y77089
X150734Y46545
X147511Y44894
X152872Y42736
X152400Y43244
X151892Y42736
X151384Y43244
X150892Y42736
X150432Y43688
X149892Y42736
X149352Y43307
X148892Y42736
X152758Y75756
X152885Y53848
X148336Y43307
X151844Y75756
X152606Y52705
X153866Y42730
X147130Y43307
X148807Y78994
X152374Y78994
X149352Y53276
X146495Y42799
X146463Y43783
X154813Y42545
X149352Y53975
X149352Y52578
X164592Y43307
X159068Y42736
X159729Y79693
X163867Y79693
X157734Y46228
X166307Y79947
X157226Y79883
X165910Y43371
X165339Y46228
X162814Y70358
X162814Y72898
X160274Y70358
X160274Y72898
X159004Y56388
X162814Y56388
X160274Y50038
X159004Y66548
X157719Y48006
X157274Y41910
X161910Y44894
X165339Y47942
X157988Y76073
X157988Y77089
X161910Y46545
X158687Y44894
X164048Y42736
X163576Y43244
X163068Y42736
X162560Y43244
X162068Y42736
X161608Y43688
X161068Y42736
X160528Y43307
X160068Y42736
X163934Y75756
X164061Y53848
X159512Y43307
X163020Y75756
X163782Y52705
X165042Y42730
X158306Y43307
X159983Y78994
X163550Y78994
X160528Y53276
X157671Y42799
X157639Y43783
X165989Y42545
X160528Y53975
X160528Y52578
X175768Y43307
X170244Y42736
X170905Y79693
X175043Y79693
X168910Y46228
X177482Y79947
X168402Y79883
X177086Y43371
X176515Y46228
X173990Y70358
X173990Y72898
X171450Y70358
X171450Y72898
X170180Y56388
X173990Y56388
X171450Y50038
X170180Y66548
X168895Y48006
X168450Y41910
X173086Y44894
X176515Y47942
X169164Y76073
X169164Y77089
X173086Y46545
X169863Y44894
X175224Y42736
X174752Y43244
X174244Y42736
X173736Y43244
X173244Y42736
X172784Y43688
X172244Y42736
X171704Y43307
X171244Y42736
X175110Y75756
X175237Y53848
X170688Y43307
X174196Y75756
X174958Y52705
X176218Y42730
X169482Y43307
X171159Y78994
X174726Y78994
X171704Y53276
X168847Y42799
X168815Y43783
X177165Y42545
X171704Y53975
X171704Y52578
X8128Y84455
X2604Y83884
X3265Y120840
X7403Y120840
X1270Y87376
X9843Y121094
X762Y121031
X9446Y84519
X8875Y87376
X6350Y111506
X6350Y114046
X3810Y111506
X3810Y114046
X2540Y97536
X6350Y97536
X3810Y91186
X2540Y107696
X1255Y89154
X810Y83058
X5446Y86043
X8875Y89090
X1524Y117221
X1524Y118237
X5446Y87693
X2223Y86043
X7584Y83884
X7112Y84392
X6604Y83884
X6096Y84392
X5604Y83884
X5144Y84836
X4604Y83884
X4064Y84455
X3604Y83884
X7470Y116903
X7597Y94996
X3048Y84455
X6556Y116903
X7318Y93853
X8578Y83878
X1841Y84455
X3519Y120142
X7085Y120142
X4064Y94424
X1207Y83947
X1175Y84931
X9525Y83693
X4064Y95123
X4064Y93726
X19304Y84455
X13779Y83884
X14441Y120840
X18579Y120840
X12446Y87376
X21019Y121094
X11938Y121031
X20622Y84519
X20051Y87376
X17526Y111506
X17526Y114046
X14986Y111506
X14986Y114046
X13716Y97536
X17526Y97536
X14986Y91186
X13716Y107696
X12431Y89154
X11986Y83058
X16622Y86043
X20051Y89090
X12700Y117221
X12700Y118237
X16622Y87693
X13398Y86043
X18760Y83884
X18288Y84392
X17780Y83884
X17272Y84392
X16780Y83884
X16319Y84836
X15780Y83884
X15240Y84455
X14780Y83884
X18646Y116903
X18773Y94996
X14224Y84455
X17732Y116903
X18494Y93853
X19754Y83878
X13017Y84455
X14695Y120142
X18262Y120142
X15240Y94424
X12382Y83947
X12351Y84931
X20701Y83693
X15240Y95123
X15240Y93726
X30480Y84455
X24955Y83884
X25617Y120840
X29755Y120840
X23622Y87376
X32194Y121094
X23114Y121031
X31798Y84519
X31227Y87376
X28702Y111506
X28702Y114046
X26162Y111506
X26162Y114046
X24892Y97536
X28702Y97536
X26162Y91186
X24892Y107696
X23607Y89154
X23162Y83058
X27798Y86043
X31227Y89090
X23876Y117221
X23876Y118237
X27798Y87693
X24574Y86043
X29936Y83884
X29464Y84392
X28956Y83884
X28448Y84392
X27956Y83884
X27495Y84836
X26956Y83884
X26416Y84455
X25956Y83884
X29822Y116903
X29949Y94996
X25400Y84455
X28908Y116903
X29670Y93853
X30930Y83878
X24193Y84455
X25871Y120142
X29437Y120142
X26416Y94424
X23558Y83947
X23527Y84931
X31877Y83693
X26416Y95123
X26416Y93726
X41656Y84455
X36132Y83884
X36793Y120840
X40931Y120840
X34798Y87376
X43371Y121094
X34290Y121031
X42974Y84519
X42403Y87376
X39878Y111506
X39878Y114046
X37338Y111506
X37338Y114046
X36068Y97536
X39878Y97536
X37338Y91186
X36068Y107696
X34783Y89154
X34338Y83058
X38974Y86043
X42403Y89090
X35052Y117221
X35052Y118237
X38974Y87693
X35751Y86043
X41112Y83884
X40640Y84392
X40132Y83884
X39624Y84392
X39132Y83884
X38672Y84836
X38132Y83884
X37592Y84455
X37132Y83884
X40998Y116903
X41125Y94996
X36576Y84455
X40084Y116903
X40846Y93853
X42106Y83878
X35370Y84455
X37047Y120142
X40614Y120142
X37592Y94424
X34735Y83947
X34703Y84931
X43053Y83693
X37592Y95123
X37592Y93726
X52832Y84455
X47307Y83884
X47969Y120840
X52107Y120840
X45974Y87376
X54546Y121094
X45466Y121031
X54150Y84519
X53579Y87376
X51054Y111506
X51054Y114046
X48514Y111506
X48514Y114046
X47244Y97536
X51054Y97536
X48514Y91186
X47244Y107696
X45959Y89154
X45514Y83058
X50150Y86043
X53579Y89090
X46228Y117221
X46228Y118237
X50150Y87693
X46926Y86043
X52288Y83884
X51816Y84392
X51308Y83884
X50800Y84392
X50308Y83884
X49847Y84836
X49308Y83884
X48768Y84455
X48308Y83884
X52174Y116903
X52301Y94996
X47752Y84455
X51260Y116903
X52022Y93853
X53282Y83878
X46545Y84455
X48223Y120142
X51789Y120142
X48768Y94424
X45910Y83947
X45879Y84931
X54229Y83693
X48768Y95123
X48768Y93726
X64008Y84455
X58483Y83884
X59145Y120840
X63283Y120840
X57150Y87376
X65723Y121094
X56642Y121031
X65326Y84519
X64755Y87376
X62230Y111506
X62230Y114046
X59690Y111506
X59690Y114046
X58420Y97536
X62230Y97536
X59690Y91186
X58420Y107696
X57135Y89154
X56690Y83058
X61326Y86043
X64755Y89090
X57404Y117221
X57404Y118237
X61326Y87693
X58102Y86043
X63464Y83884
X62992Y84392
X62484Y83884
X61976Y84392
X61484Y83884
X61023Y84836
X60484Y83884
X59944Y84455
X59484Y83884
X63350Y116903
X63477Y94996
X58928Y84455
X62436Y116903
X63198Y93853
X64458Y83878
X57721Y84455
X59399Y120142
X62965Y120142
X59944Y94424
X57086Y83947
X57055Y84931
X65405Y83693
X59944Y95123
X59944Y93726
X75184Y84455
X69660Y83884
X70321Y120840
X74459Y120840
X68326Y87376
X76899Y121094
X67818Y121031
X76502Y84519
X75931Y87376
X73406Y111506
X73406Y114046
X70866Y111506
X70866Y114046
X69596Y97536
X73406Y97536
X70866Y91186
X69596Y107696
X68311Y89154
X67866Y83058
X72502Y86043
X75931Y89090
X68580Y117221
X68580Y118237
X72502Y87693
X69279Y86043
X74640Y83884
X74168Y84392
X73660Y83884
X73152Y84392
X72660Y83884
X72200Y84836
X71660Y83884
X71120Y84455
X70660Y83884
X74526Y116903
X74653Y94996
X70104Y84455
X73612Y116903
X74374Y93853
X75634Y83878
X68898Y84455
X70575Y120142
X74142Y120142
X71120Y94424
X68263Y83947
X68231Y84931
X76581Y83693
X71120Y95123
X71120Y93726
X86360Y84455
X80836Y83884
X81497Y120840
X85635Y120840
X79502Y87376
X88074Y121094
X78994Y121031
X87678Y84519
X87107Y87376
X84582Y111506
X84582Y114046
X82042Y111506
X82042Y114046
X80772Y97536
X84582Y97536
X82042Y91186
X80772Y107696
X79487Y89154
X79042Y83058
X83678Y86043
X87107Y89090
X79756Y117221
X79756Y118237
X83678Y87693
X80455Y86043
X85816Y83884
X85344Y84392
X84836Y83884
X84328Y84392
X83836Y83884
X83376Y84836
X82836Y83884
X82296Y84455
X81836Y83884
X85702Y116903
X85829Y94996
X81280Y84455
X84788Y116903
X85550Y93853
X86810Y83878
X80074Y84455
X81751Y120142
X85318Y120142
X82296Y94424
X79439Y83947
X79407Y84931
X87757Y83693
X82296Y95123
X82296Y93726
X97536Y84455
X92011Y83884
X92673Y120840
X96811Y120840
X90678Y87376
X99250Y121094
X90170Y121031
X98854Y84519
X98283Y87376
X95758Y111506
X95758Y114046
X93218Y111506
X93218Y114046
X91948Y97536
X95758Y97536
X93218Y91186
X91948Y107696
X90663Y89154
X90218Y83058
X94854Y86043
X98283Y89090
X90932Y117221
X90932Y118237
X94854Y87693
X91630Y86043
X96992Y83884
X96520Y84392
X96012Y83884
X95504Y84392
X95012Y83884
X94551Y84836
X94012Y83884
X93472Y84455
X93012Y83884
X96878Y116903
X97005Y94996
X92456Y84455
X95964Y116903
X96726Y93853
X97986Y83878
X91249Y84455
X92927Y120142
X96493Y120142
X93472Y94424
X90614Y83947
X90583Y84931
X98933Y83693
X93472Y95123
X93472Y93726
X108712Y84455
X103187Y83884
X103849Y120840
X107987Y120840
X101854Y87376
X110426Y121094
X101346Y121031
X110030Y84519
X109459Y87376
X106934Y111506
X106934Y114046
X104394Y111506
X104394Y114046
X103124Y97536
X106934Y97536
X104394Y91186
X103124Y107696
X101839Y89154
X101394Y83058
X106030Y86043
X109459Y89090
X102108Y117221
X102108Y118237
X106030Y87693
X102806Y86043
X108168Y83884
X107696Y84392
X107188Y83884
X106680Y84392
X106188Y83884
X105727Y84836
X105188Y83884
X104648Y84455
X104188Y83884
X108054Y116903
X108181Y94996
X103632Y84455
X107140Y116903
X107902Y93853
X109162Y83878
X102425Y84455
X104103Y120142
X107669Y120142
X104648Y94424
X101790Y83947
X101759Y84931
X110109Y83693
X104648Y95123
X104648Y93726
X119888Y84455
X114363Y83884
X115025Y120840
X119163Y120840
X113030Y87376
X121602Y121094
X112522Y121031
X121206Y84519
X120635Y87376
X118110Y111506
X118110Y114046
X115570Y111506
X115570Y114046
X114300Y97536
X118110Y97536
X115570Y91186
X114300Y107696
X113015Y89154
X112570Y83058
X117206Y86043
X120635Y89090
X113284Y117221
X113284Y118237
X117206Y87693
X113982Y86043
X119344Y83884
X118872Y84392
X118364Y83884
X117856Y84392
X117364Y83884
X116903Y84836
X116364Y83884
X115824Y84455
X115364Y83884
X119230Y116903
X119357Y94996
X114808Y84455
X118316Y116903
X119078Y93853
X120338Y83878
X113601Y84455
X115279Y120142
X118845Y120142
X115824Y94424
X112966Y83947
X112935Y84931
X121285Y83693
X115824Y95123
X115824Y93726
X131064Y84455
X125539Y83884
X126201Y120840
X130339Y120840
X124206Y87376
X132779Y121094
X123698Y121031
X132382Y84519
X131811Y87376
X129286Y111506
X129286Y114046
X126746Y111506
X126746Y114046
X125476Y97536
X129286Y97536
X126746Y91186
X125476Y107696
X124191Y89154
X123746Y83058
X128382Y86043
X131811Y89090
X124460Y117221
X124460Y118237
X128382Y87693
X125158Y86043
X130520Y83884
X130048Y84392
X129540Y83884
X129032Y84392
X128540Y83884
X128079Y84836
X127540Y83884
X127000Y84455
X126540Y83884
X130406Y116903
X130533Y94996
X125984Y84455
X129492Y116903
X130254Y93853
X131514Y83878
X124777Y84455
X126455Y120142
X130021Y120142
X127000Y94424
X124142Y83947
X124111Y84931
X132461Y83693
X127000Y95123
X127000Y93726
X142240Y84455
X136716Y83884
X137377Y120840
X141515Y120840
X135382Y87376
X143955Y121094
X134874Y121031
X143558Y84519
X142987Y87376
X140462Y111506
X140462Y114046
X137922Y111506
X137922Y114046
X136652Y97536
X140462Y97536
X137922Y91186
X136652Y107696
X135367Y89154
X134922Y83058
X139558Y86043
X142987Y89090
X135636Y117221
X135636Y118237
X139558Y87693
X136335Y86043
X141696Y83884
X141224Y84392
X140716Y83884
X140208Y84392
X139716Y83884
X139256Y84836
X138716Y83884
X138176Y84455
X137716Y83884
X141582Y116903
X141709Y94996
X137160Y84455
X140668Y116903
X141430Y93853
X142690Y83878
X135954Y84455
X137631Y120142
X141198Y120142
X138176Y94424
X135319Y83947
X135287Y84931
X143637Y83693
X138176Y95123
X138176Y93726
X153416Y84455
X147892Y83884
X148553Y120840
X152691Y120840
X146558Y87376
X155131Y121094
X146050Y121031
X154734Y84519
X154163Y87376
X151638Y111506
X151638Y114046
X149098Y111506
X149098Y114046
X147828Y97536
X151638Y97536
X149098Y91186
X147828Y107696
X146543Y89154
X146098Y83058
X150734Y86043
X154163Y89090
X146812Y117221
X146812Y118237
X150734Y87693
X147511Y86043
X152872Y83884
X152400Y84392
X151892Y83884
X151384Y84392
X150892Y83884
X150432Y84836
X149892Y83884
X149352Y84455
X148892Y83884
X152758Y116903
X152885Y94996
X148336Y84455
X151844Y116903
X152606Y93853
X153866Y83878
X147130Y84455
X148807Y120142
X152374Y120142
X149352Y94424
X146495Y83947
X146463Y84931
X154813Y83693
X149352Y95123
X149352Y93726
X164592Y84455
X159068Y83884
X159729Y120840
X163867Y120840
X157734Y87376
X166307Y121094
X157226Y121031
X165910Y84519
X165339Y87376
X162814Y111506
X162814Y114046
X160274Y111506
X160274Y114046
X159004Y97536
X162814Y97536
X160274Y91186
X159004Y107696
X157719Y89154
X157274Y83058
X161910Y86043
X165339Y89090
X157988Y117221
X157988Y118237
X161910Y87693
X158687Y86043
X164048Y83884
X163576Y84392
X163068Y83884
X162560Y84392
X162068Y83884
X161608Y84836
X161068Y83884
X160528Y84455
X160068Y83884
X163934Y116903
X164061Y94996
X159512Y84455
X163020Y116903
X163782Y93853
X165042Y83878
X158306Y84455
X159983Y120142
X163550Y120142
X160528Y94424
X157671Y83947
X157639Y84931
X165989Y83693
X160528Y95123
X160528Y93726
X175768Y84455
X170244Y83884
X170905Y120840
X175043Y120840
X168910Y87376
X177482Y121094
X168402Y121031
X177086Y84519
X176515Y87376
X173990Y111506
X173990Y114046
X171450Y111506
X171450Y114046
X170180Y97536
X173990Y97536
X171450Y91186
X170180Y107696
X168895Y89154
X168450Y83058
X173086Y86043
X176515Y89090
X169164Y117221
X169164Y118237
X173086Y87693
X169863Y86043
X175224Y83884
X174752Y84392
X174244Y83884
X173736Y84392
X173244Y83884
X172784Y84836
X172244Y83884
X171704Y84455
X171244Y83884
X175110Y116903
X175237Y94996
X170688Y84455
X174196Y116903
X174958Y93853
X176218Y83878
X169482Y84455
X171159Y120142
X174726Y120142
X171704Y94424
X168847Y83947
X168815Y84931
X177165Y83693
X171704Y95123
X171704Y93726
M30