G04 EAGLE Gerber RS-274X export*
G75*
%MOMM*%
%FSLAX34Y34*%
%LPD*%
%INInner Layer 2*%
%IPPOS*%
%AMOC8*
5,1,8,0,0,1.08239X$1,22.5*%
G01*
%ADD10C,0.554000*%
%ADD11C,0.406400*%
%ADD12C,0.152400*%


D10*
X81280Y21590D03*
X26035Y15875D03*
X32650Y385445D03*
X74030Y385445D03*
X12700Y50800D03*
X98425Y387985D03*
X7620Y387350D03*
X94464Y22225D03*
X88749Y50800D03*
X63500Y292100D03*
X63500Y317500D03*
X38100Y292100D03*
X38100Y317500D03*
X25400Y152400D03*
X63500Y152400D03*
X38100Y88900D03*
X25400Y254000D03*
X12549Y68580D03*
X8104Y7620D03*
X54459Y37465D03*
X88749Y67945D03*
X15240Y349250D03*
X15240Y359410D03*
X54459Y53975D03*
X22225Y37465D03*
X75843Y15875D03*
X71120Y20955D03*
X66038Y15875D03*
X60960Y20955D03*
X56038Y15875D03*
X51435Y25400D03*
X46038Y15875D03*
X40640Y21590D03*
X36038Y15875D03*
X74700Y346075D03*
X75970Y127000D03*
X30480Y21590D03*
X65556Y346075D03*
X73176Y115570D03*
X85778Y15822D03*
X18415Y21590D03*
X35190Y378460D03*
X70855Y378460D03*
D11*
X18415Y31115D02*
X18415Y21590D01*
X85778Y15822D02*
X87630Y17674D01*
X18415Y31115D02*
X13970Y35560D01*
X13970Y40640D01*
X17780Y44450D01*
X72390Y44450D01*
X83820Y33020D01*
X87630Y29210D01*
X87630Y17674D01*
X70855Y378460D02*
X35190Y378460D01*
X70855Y378460D02*
X101600Y347715D01*
X101600Y50800D02*
X83820Y33020D01*
X101600Y121285D02*
X101600Y347715D01*
X101600Y121285D02*
X101600Y50800D01*
D10*
X40640Y121285D03*
D12*
X101600Y121285D01*
D10*
X12065Y16510D03*
X11748Y26353D03*
X95250Y13970D03*
X40640Y128270D03*
X40640Y114300D03*
X193040Y21590D03*
X137795Y15875D03*
X144410Y385445D03*
X185790Y385445D03*
X124460Y50800D03*
X210185Y387985D03*
X119380Y387350D03*
X206224Y22225D03*
X200509Y50800D03*
X175260Y292100D03*
X175260Y317500D03*
X149860Y292100D03*
X149860Y317500D03*
X137160Y152400D03*
X175260Y152400D03*
X149860Y88900D03*
X137160Y254000D03*
X124309Y68580D03*
X119864Y7620D03*
X166219Y37465D03*
X200509Y67945D03*
X127000Y349250D03*
X127000Y359410D03*
X166219Y53975D03*
X133985Y37465D03*
X187603Y15875D03*
X182880Y20955D03*
X177798Y15875D03*
X172720Y20955D03*
X167798Y15875D03*
X163195Y25400D03*
X157798Y15875D03*
X152400Y21590D03*
X147798Y15875D03*
X186460Y346075D03*
X187730Y127000D03*
X142240Y21590D03*
X177316Y346075D03*
X184936Y115570D03*
X197538Y15822D03*
X130175Y21590D03*
X146950Y378460D03*
X182615Y378460D03*
D11*
X130175Y31115D02*
X130175Y21590D01*
X197538Y15822D02*
X199390Y17674D01*
X130175Y31115D02*
X125730Y35560D01*
X125730Y40640D01*
X129540Y44450D01*
X184150Y44450D01*
X195580Y33020D01*
X199390Y29210D01*
X199390Y17674D01*
X182615Y378460D02*
X146950Y378460D01*
X182615Y378460D02*
X213360Y347715D01*
X213360Y50800D02*
X195580Y33020D01*
X213360Y121285D02*
X213360Y347715D01*
X213360Y121285D02*
X213360Y50800D01*
D10*
X152400Y121285D03*
D12*
X213360Y121285D01*
D10*
X123825Y16510D03*
X123508Y26353D03*
X207010Y13970D03*
X152400Y128270D03*
X152400Y114300D03*
X304800Y21590D03*
X249555Y15875D03*
X256170Y385445D03*
X297550Y385445D03*
X236220Y50800D03*
X321945Y387985D03*
X231140Y387350D03*
X317984Y22225D03*
X312269Y50800D03*
X287020Y292100D03*
X287020Y317500D03*
X261620Y292100D03*
X261620Y317500D03*
X248920Y152400D03*
X287020Y152400D03*
X261620Y88900D03*
X248920Y254000D03*
X236069Y68580D03*
X231624Y7620D03*
X277979Y37465D03*
X312269Y67945D03*
X238760Y349250D03*
X238760Y359410D03*
X277979Y53975D03*
X245745Y37465D03*
X299363Y15875D03*
X294640Y20955D03*
X289558Y15875D03*
X284480Y20955D03*
X279558Y15875D03*
X274955Y25400D03*
X269558Y15875D03*
X264160Y21590D03*
X259558Y15875D03*
X298220Y346075D03*
X299490Y127000D03*
X254000Y21590D03*
X289076Y346075D03*
X296696Y115570D03*
X309298Y15822D03*
X241935Y21590D03*
X258710Y378460D03*
X294375Y378460D03*
D11*
X241935Y31115D02*
X241935Y21590D01*
X309298Y15822D02*
X311150Y17674D01*
X241935Y31115D02*
X237490Y35560D01*
X237490Y40640D01*
X241300Y44450D01*
X295910Y44450D01*
X307340Y33020D01*
X311150Y29210D01*
X311150Y17674D01*
X294375Y378460D02*
X258710Y378460D01*
X294375Y378460D02*
X325120Y347715D01*
X325120Y50800D02*
X307340Y33020D01*
X325120Y121285D02*
X325120Y347715D01*
X325120Y121285D02*
X325120Y50800D01*
D10*
X264160Y121285D03*
D12*
X325120Y121285D01*
D10*
X235585Y16510D03*
X235268Y26353D03*
X318770Y13970D03*
X264160Y128270D03*
X264160Y114300D03*
X416560Y21590D03*
X361315Y15875D03*
X367930Y385445D03*
X409310Y385445D03*
X347980Y50800D03*
X433705Y387985D03*
X342900Y387350D03*
X429744Y22225D03*
X424029Y50800D03*
X398780Y292100D03*
X398780Y317500D03*
X373380Y292100D03*
X373380Y317500D03*
X360680Y152400D03*
X398780Y152400D03*
X373380Y88900D03*
X360680Y254000D03*
X347829Y68580D03*
X343384Y7620D03*
X389739Y37465D03*
X424029Y67945D03*
X350520Y349250D03*
X350520Y359410D03*
X389739Y53975D03*
X357505Y37465D03*
X411123Y15875D03*
X406400Y20955D03*
X401318Y15875D03*
X396240Y20955D03*
X391318Y15875D03*
X386715Y25400D03*
X381318Y15875D03*
X375920Y21590D03*
X371318Y15875D03*
X409980Y346075D03*
X411250Y127000D03*
X365760Y21590D03*
X400836Y346075D03*
X408456Y115570D03*
X421058Y15822D03*
X353695Y21590D03*
X370470Y378460D03*
X406135Y378460D03*
D11*
X353695Y31115D02*
X353695Y21590D01*
X421058Y15822D02*
X422910Y17674D01*
X353695Y31115D02*
X349250Y35560D01*
X349250Y40640D01*
X353060Y44450D01*
X407670Y44450D01*
X419100Y33020D01*
X422910Y29210D01*
X422910Y17674D01*
X406135Y378460D02*
X370470Y378460D01*
X406135Y378460D02*
X436880Y347715D01*
X436880Y50800D02*
X419100Y33020D01*
X436880Y121285D02*
X436880Y347715D01*
X436880Y121285D02*
X436880Y50800D01*
D10*
X375920Y121285D03*
D12*
X436880Y121285D01*
D10*
X347345Y16510D03*
X347028Y26353D03*
X430530Y13970D03*
X375920Y128270D03*
X375920Y114300D03*
X528320Y21590D03*
X473075Y15875D03*
X479690Y385445D03*
X521070Y385445D03*
X459740Y50800D03*
X545465Y387985D03*
X454660Y387350D03*
X541504Y22225D03*
X535789Y50800D03*
X510540Y292100D03*
X510540Y317500D03*
X485140Y292100D03*
X485140Y317500D03*
X472440Y152400D03*
X510540Y152400D03*
X485140Y88900D03*
X472440Y254000D03*
X459589Y68580D03*
X455144Y7620D03*
X501499Y37465D03*
X535789Y67945D03*
X462280Y349250D03*
X462280Y359410D03*
X501499Y53975D03*
X469265Y37465D03*
X522883Y15875D03*
X518160Y20955D03*
X513078Y15875D03*
X508000Y20955D03*
X503078Y15875D03*
X498475Y25400D03*
X493078Y15875D03*
X487680Y21590D03*
X483078Y15875D03*
X521740Y346075D03*
X523010Y127000D03*
X477520Y21590D03*
X512596Y346075D03*
X520216Y115570D03*
X532818Y15822D03*
X465455Y21590D03*
X482230Y378460D03*
X517895Y378460D03*
D11*
X465455Y31115D02*
X465455Y21590D01*
X532818Y15822D02*
X534670Y17674D01*
X465455Y31115D02*
X461010Y35560D01*
X461010Y40640D01*
X464820Y44450D01*
X519430Y44450D01*
X530860Y33020D01*
X534670Y29210D01*
X534670Y17674D01*
X517895Y378460D02*
X482230Y378460D01*
X517895Y378460D02*
X548640Y347715D01*
X548640Y50800D02*
X530860Y33020D01*
X548640Y121285D02*
X548640Y347715D01*
X548640Y121285D02*
X548640Y50800D01*
D10*
X487680Y121285D03*
D12*
X548640Y121285D01*
D10*
X459105Y16510D03*
X458788Y26353D03*
X542290Y13970D03*
X487680Y128270D03*
X487680Y114300D03*
X640080Y21590D03*
X584835Y15875D03*
X591450Y385445D03*
X632830Y385445D03*
X571500Y50800D03*
X657225Y387985D03*
X566420Y387350D03*
X653264Y22225D03*
X647549Y50800D03*
X622300Y292100D03*
X622300Y317500D03*
X596900Y292100D03*
X596900Y317500D03*
X584200Y152400D03*
X622300Y152400D03*
X596900Y88900D03*
X584200Y254000D03*
X571349Y68580D03*
X566904Y7620D03*
X613259Y37465D03*
X647549Y67945D03*
X574040Y349250D03*
X574040Y359410D03*
X613259Y53975D03*
X581025Y37465D03*
X634643Y15875D03*
X629920Y20955D03*
X624838Y15875D03*
X619760Y20955D03*
X614838Y15875D03*
X610235Y25400D03*
X604838Y15875D03*
X599440Y21590D03*
X594838Y15875D03*
X633500Y346075D03*
X634770Y127000D03*
X589280Y21590D03*
X624356Y346075D03*
X631976Y115570D03*
X644578Y15822D03*
X577215Y21590D03*
X593990Y378460D03*
X629655Y378460D03*
D11*
X577215Y31115D02*
X577215Y21590D01*
X644578Y15822D02*
X646430Y17674D01*
X577215Y31115D02*
X572770Y35560D01*
X572770Y40640D01*
X576580Y44450D01*
X631190Y44450D01*
X642620Y33020D01*
X646430Y29210D01*
X646430Y17674D01*
X629655Y378460D02*
X593990Y378460D01*
X629655Y378460D02*
X660400Y347715D01*
X660400Y50800D02*
X642620Y33020D01*
X660400Y121285D02*
X660400Y347715D01*
X660400Y121285D02*
X660400Y50800D01*
D10*
X599440Y121285D03*
D12*
X660400Y121285D01*
D10*
X570865Y16510D03*
X570548Y26353D03*
X654050Y13970D03*
X599440Y128270D03*
X599440Y114300D03*
X751840Y21590D03*
X696595Y15875D03*
X703210Y385445D03*
X744590Y385445D03*
X683260Y50800D03*
X768985Y387985D03*
X678180Y387350D03*
X765024Y22225D03*
X759309Y50800D03*
X734060Y292100D03*
X734060Y317500D03*
X708660Y292100D03*
X708660Y317500D03*
X695960Y152400D03*
X734060Y152400D03*
X708660Y88900D03*
X695960Y254000D03*
X683109Y68580D03*
X678664Y7620D03*
X725019Y37465D03*
X759309Y67945D03*
X685800Y349250D03*
X685800Y359410D03*
X725019Y53975D03*
X692785Y37465D03*
X746403Y15875D03*
X741680Y20955D03*
X736598Y15875D03*
X731520Y20955D03*
X726598Y15875D03*
X721995Y25400D03*
X716598Y15875D03*
X711200Y21590D03*
X706598Y15875D03*
X745260Y346075D03*
X746530Y127000D03*
X701040Y21590D03*
X736116Y346075D03*
X743736Y115570D03*
X756338Y15822D03*
X688975Y21590D03*
X705750Y378460D03*
X741415Y378460D03*
D11*
X688975Y31115D02*
X688975Y21590D01*
X756338Y15822D02*
X758190Y17674D01*
X688975Y31115D02*
X684530Y35560D01*
X684530Y40640D01*
X688340Y44450D01*
X742950Y44450D01*
X754380Y33020D01*
X758190Y29210D01*
X758190Y17674D01*
X741415Y378460D02*
X705750Y378460D01*
X741415Y378460D02*
X772160Y347715D01*
X772160Y50800D02*
X754380Y33020D01*
X772160Y121285D02*
X772160Y347715D01*
X772160Y121285D02*
X772160Y50800D01*
D10*
X711200Y121285D03*
D12*
X772160Y121285D01*
D10*
X682625Y16510D03*
X682308Y26353D03*
X765810Y13970D03*
X711200Y128270D03*
X711200Y114300D03*
X863600Y21590D03*
X808355Y15875D03*
X814970Y385445D03*
X856350Y385445D03*
X795020Y50800D03*
X880745Y387985D03*
X789940Y387350D03*
X876784Y22225D03*
X871069Y50800D03*
X845820Y292100D03*
X845820Y317500D03*
X820420Y292100D03*
X820420Y317500D03*
X807720Y152400D03*
X845820Y152400D03*
X820420Y88900D03*
X807720Y254000D03*
X794869Y68580D03*
X790424Y7620D03*
X836779Y37465D03*
X871069Y67945D03*
X797560Y349250D03*
X797560Y359410D03*
X836779Y53975D03*
X804545Y37465D03*
X858163Y15875D03*
X853440Y20955D03*
X848358Y15875D03*
X843280Y20955D03*
X838358Y15875D03*
X833755Y25400D03*
X828358Y15875D03*
X822960Y21590D03*
X818358Y15875D03*
X857020Y346075D03*
X858290Y127000D03*
X812800Y21590D03*
X847876Y346075D03*
X855496Y115570D03*
X868098Y15822D03*
X800735Y21590D03*
X817510Y378460D03*
X853175Y378460D03*
D11*
X800735Y31115D02*
X800735Y21590D01*
X868098Y15822D02*
X869950Y17674D01*
X800735Y31115D02*
X796290Y35560D01*
X796290Y40640D01*
X800100Y44450D01*
X854710Y44450D01*
X866140Y33020D01*
X869950Y29210D01*
X869950Y17674D01*
X853175Y378460D02*
X817510Y378460D01*
X853175Y378460D02*
X883920Y347715D01*
X883920Y50800D02*
X866140Y33020D01*
X883920Y121285D02*
X883920Y347715D01*
X883920Y121285D02*
X883920Y50800D01*
D10*
X822960Y121285D03*
D12*
X883920Y121285D01*
D10*
X794385Y16510D03*
X794068Y26353D03*
X877570Y13970D03*
X822960Y128270D03*
X822960Y114300D03*
X975360Y21590D03*
X920115Y15875D03*
X926730Y385445D03*
X968110Y385445D03*
X906780Y50800D03*
X992505Y387985D03*
X901700Y387350D03*
X988544Y22225D03*
X982829Y50800D03*
X957580Y292100D03*
X957580Y317500D03*
X932180Y292100D03*
X932180Y317500D03*
X919480Y152400D03*
X957580Y152400D03*
X932180Y88900D03*
X919480Y254000D03*
X906629Y68580D03*
X902184Y7620D03*
X948539Y37465D03*
X982829Y67945D03*
X909320Y349250D03*
X909320Y359410D03*
X948539Y53975D03*
X916305Y37465D03*
X969923Y15875D03*
X965200Y20955D03*
X960118Y15875D03*
X955040Y20955D03*
X950118Y15875D03*
X945515Y25400D03*
X940118Y15875D03*
X934720Y21590D03*
X930118Y15875D03*
X968780Y346075D03*
X970050Y127000D03*
X924560Y21590D03*
X959636Y346075D03*
X967256Y115570D03*
X979858Y15822D03*
X912495Y21590D03*
X929270Y378460D03*
X964935Y378460D03*
D11*
X912495Y31115D02*
X912495Y21590D01*
X979858Y15822D02*
X981710Y17674D01*
X912495Y31115D02*
X908050Y35560D01*
X908050Y40640D01*
X911860Y44450D01*
X966470Y44450D01*
X977900Y33020D01*
X981710Y29210D01*
X981710Y17674D01*
X964935Y378460D02*
X929270Y378460D01*
X964935Y378460D02*
X995680Y347715D01*
X995680Y50800D02*
X977900Y33020D01*
X995680Y121285D02*
X995680Y347715D01*
X995680Y121285D02*
X995680Y50800D01*
D10*
X934720Y121285D03*
D12*
X995680Y121285D01*
D10*
X906145Y16510D03*
X905828Y26353D03*
X989330Y13970D03*
X934720Y128270D03*
X934720Y114300D03*
X1087120Y21590D03*
X1031875Y15875D03*
X1038490Y385445D03*
X1079870Y385445D03*
X1018540Y50800D03*
X1104265Y387985D03*
X1013460Y387350D03*
X1100304Y22225D03*
X1094589Y50800D03*
X1069340Y292100D03*
X1069340Y317500D03*
X1043940Y292100D03*
X1043940Y317500D03*
X1031240Y152400D03*
X1069340Y152400D03*
X1043940Y88900D03*
X1031240Y254000D03*
X1018389Y68580D03*
X1013944Y7620D03*
X1060299Y37465D03*
X1094589Y67945D03*
X1021080Y349250D03*
X1021080Y359410D03*
X1060299Y53975D03*
X1028065Y37465D03*
X1081683Y15875D03*
X1076960Y20955D03*
X1071878Y15875D03*
X1066800Y20955D03*
X1061878Y15875D03*
X1057275Y25400D03*
X1051878Y15875D03*
X1046480Y21590D03*
X1041878Y15875D03*
X1080540Y346075D03*
X1081810Y127000D03*
X1036320Y21590D03*
X1071396Y346075D03*
X1079016Y115570D03*
X1091618Y15822D03*
X1024255Y21590D03*
X1041030Y378460D03*
X1076695Y378460D03*
D11*
X1024255Y31115D02*
X1024255Y21590D01*
X1091618Y15822D02*
X1093470Y17674D01*
X1024255Y31115D02*
X1019810Y35560D01*
X1019810Y40640D01*
X1023620Y44450D01*
X1078230Y44450D01*
X1089660Y33020D01*
X1093470Y29210D01*
X1093470Y17674D01*
X1076695Y378460D02*
X1041030Y378460D01*
X1076695Y378460D02*
X1107440Y347715D01*
X1107440Y50800D02*
X1089660Y33020D01*
X1107440Y121285D02*
X1107440Y347715D01*
X1107440Y121285D02*
X1107440Y50800D01*
D10*
X1046480Y121285D03*
D12*
X1107440Y121285D01*
D10*
X1017905Y16510D03*
X1017588Y26353D03*
X1101090Y13970D03*
X1046480Y128270D03*
X1046480Y114300D03*
X1198880Y21590D03*
X1143635Y15875D03*
X1150250Y385445D03*
X1191630Y385445D03*
X1130300Y50800D03*
X1216025Y387985D03*
X1125220Y387350D03*
X1212064Y22225D03*
X1206349Y50800D03*
X1181100Y292100D03*
X1181100Y317500D03*
X1155700Y292100D03*
X1155700Y317500D03*
X1143000Y152400D03*
X1181100Y152400D03*
X1155700Y88900D03*
X1143000Y254000D03*
X1130149Y68580D03*
X1125704Y7620D03*
X1172059Y37465D03*
X1206349Y67945D03*
X1132840Y349250D03*
X1132840Y359410D03*
X1172059Y53975D03*
X1139825Y37465D03*
X1193443Y15875D03*
X1188720Y20955D03*
X1183638Y15875D03*
X1178560Y20955D03*
X1173638Y15875D03*
X1169035Y25400D03*
X1163638Y15875D03*
X1158240Y21590D03*
X1153638Y15875D03*
X1192300Y346075D03*
X1193570Y127000D03*
X1148080Y21590D03*
X1183156Y346075D03*
X1190776Y115570D03*
X1203378Y15822D03*
X1136015Y21590D03*
X1152790Y378460D03*
X1188455Y378460D03*
D11*
X1136015Y31115D02*
X1136015Y21590D01*
X1203378Y15822D02*
X1205230Y17674D01*
X1136015Y31115D02*
X1131570Y35560D01*
X1131570Y40640D01*
X1135380Y44450D01*
X1189990Y44450D01*
X1201420Y33020D01*
X1205230Y29210D01*
X1205230Y17674D01*
X1188455Y378460D02*
X1152790Y378460D01*
X1188455Y378460D02*
X1219200Y347715D01*
X1219200Y50800D02*
X1201420Y33020D01*
X1219200Y121285D02*
X1219200Y347715D01*
X1219200Y121285D02*
X1219200Y50800D01*
D10*
X1158240Y121285D03*
D12*
X1219200Y121285D01*
D10*
X1129665Y16510D03*
X1129348Y26353D03*
X1212850Y13970D03*
X1158240Y128270D03*
X1158240Y114300D03*
X1310640Y21590D03*
X1255395Y15875D03*
X1262010Y385445D03*
X1303390Y385445D03*
X1242060Y50800D03*
X1327785Y387985D03*
X1236980Y387350D03*
X1323824Y22225D03*
X1318109Y50800D03*
X1292860Y292100D03*
X1292860Y317500D03*
X1267460Y292100D03*
X1267460Y317500D03*
X1254760Y152400D03*
X1292860Y152400D03*
X1267460Y88900D03*
X1254760Y254000D03*
X1241909Y68580D03*
X1237464Y7620D03*
X1283819Y37465D03*
X1318109Y67945D03*
X1244600Y349250D03*
X1244600Y359410D03*
X1283819Y53975D03*
X1251585Y37465D03*
X1305203Y15875D03*
X1300480Y20955D03*
X1295398Y15875D03*
X1290320Y20955D03*
X1285398Y15875D03*
X1280795Y25400D03*
X1275398Y15875D03*
X1270000Y21590D03*
X1265398Y15875D03*
X1304060Y346075D03*
X1305330Y127000D03*
X1259840Y21590D03*
X1294916Y346075D03*
X1302536Y115570D03*
X1315138Y15822D03*
X1247775Y21590D03*
X1264550Y378460D03*
X1300215Y378460D03*
D11*
X1247775Y31115D02*
X1247775Y21590D01*
X1315138Y15822D02*
X1316990Y17674D01*
X1247775Y31115D02*
X1243330Y35560D01*
X1243330Y40640D01*
X1247140Y44450D01*
X1301750Y44450D01*
X1313180Y33020D01*
X1316990Y29210D01*
X1316990Y17674D01*
X1300215Y378460D02*
X1264550Y378460D01*
X1300215Y378460D02*
X1330960Y347715D01*
X1330960Y50800D02*
X1313180Y33020D01*
X1330960Y121285D02*
X1330960Y347715D01*
X1330960Y121285D02*
X1330960Y50800D01*
D10*
X1270000Y121285D03*
D12*
X1330960Y121285D01*
D10*
X1241425Y16510D03*
X1241108Y26353D03*
X1324610Y13970D03*
X1270000Y128270D03*
X1270000Y114300D03*
X1422400Y21590D03*
X1367155Y15875D03*
X1373770Y385445D03*
X1415150Y385445D03*
X1353820Y50800D03*
X1439545Y387985D03*
X1348740Y387350D03*
X1435584Y22225D03*
X1429869Y50800D03*
X1404620Y292100D03*
X1404620Y317500D03*
X1379220Y292100D03*
X1379220Y317500D03*
X1366520Y152400D03*
X1404620Y152400D03*
X1379220Y88900D03*
X1366520Y254000D03*
X1353669Y68580D03*
X1349224Y7620D03*
X1395579Y37465D03*
X1429869Y67945D03*
X1356360Y349250D03*
X1356360Y359410D03*
X1395579Y53975D03*
X1363345Y37465D03*
X1416963Y15875D03*
X1412240Y20955D03*
X1407158Y15875D03*
X1402080Y20955D03*
X1397158Y15875D03*
X1392555Y25400D03*
X1387158Y15875D03*
X1381760Y21590D03*
X1377158Y15875D03*
X1415820Y346075D03*
X1417090Y127000D03*
X1371600Y21590D03*
X1406676Y346075D03*
X1414296Y115570D03*
X1426898Y15822D03*
X1359535Y21590D03*
X1376310Y378460D03*
X1411975Y378460D03*
D11*
X1359535Y31115D02*
X1359535Y21590D01*
X1426898Y15822D02*
X1428750Y17674D01*
X1359535Y31115D02*
X1355090Y35560D01*
X1355090Y40640D01*
X1358900Y44450D01*
X1413510Y44450D01*
X1424940Y33020D01*
X1428750Y29210D01*
X1428750Y17674D01*
X1411975Y378460D02*
X1376310Y378460D01*
X1411975Y378460D02*
X1442720Y347715D01*
X1442720Y50800D02*
X1424940Y33020D01*
X1442720Y121285D02*
X1442720Y347715D01*
X1442720Y121285D02*
X1442720Y50800D01*
D10*
X1381760Y121285D03*
D12*
X1442720Y121285D01*
D10*
X1353185Y16510D03*
X1352868Y26353D03*
X1436370Y13970D03*
X1381760Y128270D03*
X1381760Y114300D03*
X1534160Y21590D03*
X1478915Y15875D03*
X1485530Y385445D03*
X1526910Y385445D03*
X1465580Y50800D03*
X1551305Y387985D03*
X1460500Y387350D03*
X1547344Y22225D03*
X1541629Y50800D03*
X1516380Y292100D03*
X1516380Y317500D03*
X1490980Y292100D03*
X1490980Y317500D03*
X1478280Y152400D03*
X1516380Y152400D03*
X1490980Y88900D03*
X1478280Y254000D03*
X1465429Y68580D03*
X1460984Y7620D03*
X1507339Y37465D03*
X1541629Y67945D03*
X1468120Y349250D03*
X1468120Y359410D03*
X1507339Y53975D03*
X1475105Y37465D03*
X1528723Y15875D03*
X1524000Y20955D03*
X1518918Y15875D03*
X1513840Y20955D03*
X1508918Y15875D03*
X1504315Y25400D03*
X1498918Y15875D03*
X1493520Y21590D03*
X1488918Y15875D03*
X1527580Y346075D03*
X1528850Y127000D03*
X1483360Y21590D03*
X1518436Y346075D03*
X1526056Y115570D03*
X1538658Y15822D03*
X1471295Y21590D03*
X1488070Y378460D03*
X1523735Y378460D03*
D11*
X1471295Y31115D02*
X1471295Y21590D01*
X1538658Y15822D02*
X1540510Y17674D01*
X1471295Y31115D02*
X1466850Y35560D01*
X1466850Y40640D01*
X1470660Y44450D01*
X1525270Y44450D01*
X1536700Y33020D01*
X1540510Y29210D01*
X1540510Y17674D01*
X1523735Y378460D02*
X1488070Y378460D01*
X1523735Y378460D02*
X1554480Y347715D01*
X1554480Y50800D02*
X1536700Y33020D01*
X1554480Y121285D02*
X1554480Y347715D01*
X1554480Y121285D02*
X1554480Y50800D01*
D10*
X1493520Y121285D03*
D12*
X1554480Y121285D01*
D10*
X1464945Y16510D03*
X1464628Y26353D03*
X1548130Y13970D03*
X1493520Y128270D03*
X1493520Y114300D03*
X1645920Y21590D03*
X1590675Y15875D03*
X1597290Y385445D03*
X1638670Y385445D03*
X1577340Y50800D03*
X1663065Y387985D03*
X1572260Y387350D03*
X1659104Y22225D03*
X1653389Y50800D03*
X1628140Y292100D03*
X1628140Y317500D03*
X1602740Y292100D03*
X1602740Y317500D03*
X1590040Y152400D03*
X1628140Y152400D03*
X1602740Y88900D03*
X1590040Y254000D03*
X1577189Y68580D03*
X1572744Y7620D03*
X1619099Y37465D03*
X1653389Y67945D03*
X1579880Y349250D03*
X1579880Y359410D03*
X1619099Y53975D03*
X1586865Y37465D03*
X1640483Y15875D03*
X1635760Y20955D03*
X1630678Y15875D03*
X1625600Y20955D03*
X1620678Y15875D03*
X1616075Y25400D03*
X1610678Y15875D03*
X1605280Y21590D03*
X1600678Y15875D03*
X1639340Y346075D03*
X1640610Y127000D03*
X1595120Y21590D03*
X1630196Y346075D03*
X1637816Y115570D03*
X1650418Y15822D03*
X1583055Y21590D03*
X1599830Y378460D03*
X1635495Y378460D03*
D11*
X1583055Y31115D02*
X1583055Y21590D01*
X1650418Y15822D02*
X1652270Y17674D01*
X1583055Y31115D02*
X1578610Y35560D01*
X1578610Y40640D01*
X1582420Y44450D01*
X1637030Y44450D01*
X1648460Y33020D01*
X1652270Y29210D01*
X1652270Y17674D01*
X1635495Y378460D02*
X1599830Y378460D01*
X1635495Y378460D02*
X1666240Y347715D01*
X1666240Y50800D02*
X1648460Y33020D01*
X1666240Y121285D02*
X1666240Y347715D01*
X1666240Y121285D02*
X1666240Y50800D01*
D10*
X1605280Y121285D03*
D12*
X1666240Y121285D01*
D10*
X1576705Y16510D03*
X1576388Y26353D03*
X1659890Y13970D03*
X1605280Y128270D03*
X1605280Y114300D03*
X1757680Y21590D03*
X1702435Y15875D03*
X1709050Y385445D03*
X1750430Y385445D03*
X1689100Y50800D03*
X1774825Y387985D03*
X1684020Y387350D03*
X1770864Y22225D03*
X1765149Y50800D03*
X1739900Y292100D03*
X1739900Y317500D03*
X1714500Y292100D03*
X1714500Y317500D03*
X1701800Y152400D03*
X1739900Y152400D03*
X1714500Y88900D03*
X1701800Y254000D03*
X1688949Y68580D03*
X1684504Y7620D03*
X1730859Y37465D03*
X1765149Y67945D03*
X1691640Y349250D03*
X1691640Y359410D03*
X1730859Y53975D03*
X1698625Y37465D03*
X1752243Y15875D03*
X1747520Y20955D03*
X1742438Y15875D03*
X1737360Y20955D03*
X1732438Y15875D03*
X1727835Y25400D03*
X1722438Y15875D03*
X1717040Y21590D03*
X1712438Y15875D03*
X1751100Y346075D03*
X1752370Y127000D03*
X1706880Y21590D03*
X1741956Y346075D03*
X1749576Y115570D03*
X1762178Y15822D03*
X1694815Y21590D03*
X1711590Y378460D03*
X1747255Y378460D03*
D11*
X1694815Y31115D02*
X1694815Y21590D01*
X1762178Y15822D02*
X1764030Y17674D01*
X1694815Y31115D02*
X1690370Y35560D01*
X1690370Y40640D01*
X1694180Y44450D01*
X1748790Y44450D01*
X1760220Y33020D01*
X1764030Y29210D01*
X1764030Y17674D01*
X1747255Y378460D02*
X1711590Y378460D01*
X1747255Y378460D02*
X1778000Y347715D01*
X1778000Y50800D02*
X1760220Y33020D01*
X1778000Y121285D02*
X1778000Y347715D01*
X1778000Y121285D02*
X1778000Y50800D01*
D10*
X1717040Y121285D03*
D12*
X1778000Y121285D01*
D10*
X1688465Y16510D03*
X1688148Y26353D03*
X1771650Y13970D03*
X1717040Y128270D03*
X1717040Y114300D03*
X81280Y433070D03*
X26035Y427355D03*
X32650Y796925D03*
X74030Y796925D03*
X12700Y462280D03*
X98425Y799465D03*
X7620Y798830D03*
X94464Y433705D03*
X88749Y462280D03*
X63500Y703580D03*
X63500Y728980D03*
X38100Y703580D03*
X38100Y728980D03*
X25400Y563880D03*
X63500Y563880D03*
X38100Y500380D03*
X25400Y665480D03*
X12549Y480060D03*
X8104Y419100D03*
X54459Y448945D03*
X88749Y479425D03*
X15240Y760730D03*
X15240Y770890D03*
X54459Y465455D03*
X22225Y448945D03*
X75843Y427355D03*
X71120Y432435D03*
X66038Y427355D03*
X60960Y432435D03*
X56038Y427355D03*
X51435Y436880D03*
X46038Y427355D03*
X40640Y433070D03*
X36038Y427355D03*
X74700Y757555D03*
X75970Y538480D03*
X30480Y433070D03*
X65556Y757555D03*
X73176Y527050D03*
X85778Y427302D03*
X18415Y433070D03*
X35190Y789940D03*
X70855Y789940D03*
D11*
X18415Y442595D02*
X18415Y433070D01*
X85778Y427302D02*
X87630Y429154D01*
X18415Y442595D02*
X13970Y447040D01*
X13970Y452120D01*
X17780Y455930D01*
X72390Y455930D01*
X83820Y444500D01*
X87630Y440690D01*
X87630Y429154D01*
X70855Y789940D02*
X35190Y789940D01*
X70855Y789940D02*
X101600Y759195D01*
X101600Y462280D02*
X83820Y444500D01*
X101600Y532765D02*
X101600Y759195D01*
X101600Y532765D02*
X101600Y462280D01*
D10*
X40640Y532765D03*
D12*
X101600Y532765D01*
D10*
X12065Y427990D03*
X11748Y437833D03*
X95250Y425450D03*
X40640Y539750D03*
X40640Y525780D03*
X193040Y433070D03*
X137795Y427355D03*
X144410Y796925D03*
X185790Y796925D03*
X124460Y462280D03*
X210185Y799465D03*
X119380Y798830D03*
X206224Y433705D03*
X200509Y462280D03*
X175260Y703580D03*
X175260Y728980D03*
X149860Y703580D03*
X149860Y728980D03*
X137160Y563880D03*
X175260Y563880D03*
X149860Y500380D03*
X137160Y665480D03*
X124309Y480060D03*
X119864Y419100D03*
X166219Y448945D03*
X200509Y479425D03*
X127000Y760730D03*
X127000Y770890D03*
X166219Y465455D03*
X133985Y448945D03*
X187603Y427355D03*
X182880Y432435D03*
X177798Y427355D03*
X172720Y432435D03*
X167798Y427355D03*
X163195Y436880D03*
X157798Y427355D03*
X152400Y433070D03*
X147798Y427355D03*
X186460Y757555D03*
X187730Y538480D03*
X142240Y433070D03*
X177316Y757555D03*
X184936Y527050D03*
X197538Y427302D03*
X130175Y433070D03*
X146950Y789940D03*
X182615Y789940D03*
D11*
X130175Y442595D02*
X130175Y433070D01*
X197538Y427302D02*
X199390Y429154D01*
X130175Y442595D02*
X125730Y447040D01*
X125730Y452120D01*
X129540Y455930D01*
X184150Y455930D01*
X195580Y444500D01*
X199390Y440690D01*
X199390Y429154D01*
X182615Y789940D02*
X146950Y789940D01*
X182615Y789940D02*
X213360Y759195D01*
X213360Y462280D02*
X195580Y444500D01*
X213360Y532765D02*
X213360Y759195D01*
X213360Y532765D02*
X213360Y462280D01*
D10*
X152400Y532765D03*
D12*
X213360Y532765D01*
D10*
X123825Y427990D03*
X123508Y437833D03*
X207010Y425450D03*
X152400Y539750D03*
X152400Y525780D03*
X304800Y433070D03*
X249555Y427355D03*
X256170Y796925D03*
X297550Y796925D03*
X236220Y462280D03*
X321945Y799465D03*
X231140Y798830D03*
X317984Y433705D03*
X312269Y462280D03*
X287020Y703580D03*
X287020Y728980D03*
X261620Y703580D03*
X261620Y728980D03*
X248920Y563880D03*
X287020Y563880D03*
X261620Y500380D03*
X248920Y665480D03*
X236069Y480060D03*
X231624Y419100D03*
X277979Y448945D03*
X312269Y479425D03*
X238760Y760730D03*
X238760Y770890D03*
X277979Y465455D03*
X245745Y448945D03*
X299363Y427355D03*
X294640Y432435D03*
X289558Y427355D03*
X284480Y432435D03*
X279558Y427355D03*
X274955Y436880D03*
X269558Y427355D03*
X264160Y433070D03*
X259558Y427355D03*
X298220Y757555D03*
X299490Y538480D03*
X254000Y433070D03*
X289076Y757555D03*
X296696Y527050D03*
X309298Y427302D03*
X241935Y433070D03*
X258710Y789940D03*
X294375Y789940D03*
D11*
X241935Y442595D02*
X241935Y433070D01*
X309298Y427302D02*
X311150Y429154D01*
X241935Y442595D02*
X237490Y447040D01*
X237490Y452120D01*
X241300Y455930D01*
X295910Y455930D01*
X307340Y444500D01*
X311150Y440690D01*
X311150Y429154D01*
X294375Y789940D02*
X258710Y789940D01*
X294375Y789940D02*
X325120Y759195D01*
X325120Y462280D02*
X307340Y444500D01*
X325120Y532765D02*
X325120Y759195D01*
X325120Y532765D02*
X325120Y462280D01*
D10*
X264160Y532765D03*
D12*
X325120Y532765D01*
D10*
X235585Y427990D03*
X235268Y437833D03*
X318770Y425450D03*
X264160Y539750D03*
X264160Y525780D03*
X416560Y433070D03*
X361315Y427355D03*
X367930Y796925D03*
X409310Y796925D03*
X347980Y462280D03*
X433705Y799465D03*
X342900Y798830D03*
X429744Y433705D03*
X424029Y462280D03*
X398780Y703580D03*
X398780Y728980D03*
X373380Y703580D03*
X373380Y728980D03*
X360680Y563880D03*
X398780Y563880D03*
X373380Y500380D03*
X360680Y665480D03*
X347829Y480060D03*
X343384Y419100D03*
X389739Y448945D03*
X424029Y479425D03*
X350520Y760730D03*
X350520Y770890D03*
X389739Y465455D03*
X357505Y448945D03*
X411123Y427355D03*
X406400Y432435D03*
X401318Y427355D03*
X396240Y432435D03*
X391318Y427355D03*
X386715Y436880D03*
X381318Y427355D03*
X375920Y433070D03*
X371318Y427355D03*
X409980Y757555D03*
X411250Y538480D03*
X365760Y433070D03*
X400836Y757555D03*
X408456Y527050D03*
X421058Y427302D03*
X353695Y433070D03*
X370470Y789940D03*
X406135Y789940D03*
D11*
X353695Y442595D02*
X353695Y433070D01*
X421058Y427302D02*
X422910Y429154D01*
X353695Y442595D02*
X349250Y447040D01*
X349250Y452120D01*
X353060Y455930D01*
X407670Y455930D01*
X419100Y444500D01*
X422910Y440690D01*
X422910Y429154D01*
X406135Y789940D02*
X370470Y789940D01*
X406135Y789940D02*
X436880Y759195D01*
X436880Y462280D02*
X419100Y444500D01*
X436880Y532765D02*
X436880Y759195D01*
X436880Y532765D02*
X436880Y462280D01*
D10*
X375920Y532765D03*
D12*
X436880Y532765D01*
D10*
X347345Y427990D03*
X347028Y437833D03*
X430530Y425450D03*
X375920Y539750D03*
X375920Y525780D03*
X528320Y433070D03*
X473075Y427355D03*
X479690Y796925D03*
X521070Y796925D03*
X459740Y462280D03*
X545465Y799465D03*
X454660Y798830D03*
X541504Y433705D03*
X535789Y462280D03*
X510540Y703580D03*
X510540Y728980D03*
X485140Y703580D03*
X485140Y728980D03*
X472440Y563880D03*
X510540Y563880D03*
X485140Y500380D03*
X472440Y665480D03*
X459589Y480060D03*
X455144Y419100D03*
X501499Y448945D03*
X535789Y479425D03*
X462280Y760730D03*
X462280Y770890D03*
X501499Y465455D03*
X469265Y448945D03*
X522883Y427355D03*
X518160Y432435D03*
X513078Y427355D03*
X508000Y432435D03*
X503078Y427355D03*
X498475Y436880D03*
X493078Y427355D03*
X487680Y433070D03*
X483078Y427355D03*
X521740Y757555D03*
X523010Y538480D03*
X477520Y433070D03*
X512596Y757555D03*
X520216Y527050D03*
X532818Y427302D03*
X465455Y433070D03*
X482230Y789940D03*
X517895Y789940D03*
D11*
X465455Y442595D02*
X465455Y433070D01*
X532818Y427302D02*
X534670Y429154D01*
X465455Y442595D02*
X461010Y447040D01*
X461010Y452120D01*
X464820Y455930D01*
X519430Y455930D01*
X530860Y444500D01*
X534670Y440690D01*
X534670Y429154D01*
X517895Y789940D02*
X482230Y789940D01*
X517895Y789940D02*
X548640Y759195D01*
X548640Y462280D02*
X530860Y444500D01*
X548640Y532765D02*
X548640Y759195D01*
X548640Y532765D02*
X548640Y462280D01*
D10*
X487680Y532765D03*
D12*
X548640Y532765D01*
D10*
X459105Y427990D03*
X458788Y437833D03*
X542290Y425450D03*
X487680Y539750D03*
X487680Y525780D03*
X640080Y433070D03*
X584835Y427355D03*
X591450Y796925D03*
X632830Y796925D03*
X571500Y462280D03*
X657225Y799465D03*
X566420Y798830D03*
X653264Y433705D03*
X647549Y462280D03*
X622300Y703580D03*
X622300Y728980D03*
X596900Y703580D03*
X596900Y728980D03*
X584200Y563880D03*
X622300Y563880D03*
X596900Y500380D03*
X584200Y665480D03*
X571349Y480060D03*
X566904Y419100D03*
X613259Y448945D03*
X647549Y479425D03*
X574040Y760730D03*
X574040Y770890D03*
X613259Y465455D03*
X581025Y448945D03*
X634643Y427355D03*
X629920Y432435D03*
X624838Y427355D03*
X619760Y432435D03*
X614838Y427355D03*
X610235Y436880D03*
X604838Y427355D03*
X599440Y433070D03*
X594838Y427355D03*
X633500Y757555D03*
X634770Y538480D03*
X589280Y433070D03*
X624356Y757555D03*
X631976Y527050D03*
X644578Y427302D03*
X577215Y433070D03*
X593990Y789940D03*
X629655Y789940D03*
D11*
X577215Y442595D02*
X577215Y433070D01*
X644578Y427302D02*
X646430Y429154D01*
X577215Y442595D02*
X572770Y447040D01*
X572770Y452120D01*
X576580Y455930D01*
X631190Y455930D01*
X642620Y444500D01*
X646430Y440690D01*
X646430Y429154D01*
X629655Y789940D02*
X593990Y789940D01*
X629655Y789940D02*
X660400Y759195D01*
X660400Y462280D02*
X642620Y444500D01*
X660400Y532765D02*
X660400Y759195D01*
X660400Y532765D02*
X660400Y462280D01*
D10*
X599440Y532765D03*
D12*
X660400Y532765D01*
D10*
X570865Y427990D03*
X570548Y437833D03*
X654050Y425450D03*
X599440Y539750D03*
X599440Y525780D03*
X751840Y433070D03*
X696595Y427355D03*
X703210Y796925D03*
X744590Y796925D03*
X683260Y462280D03*
X768985Y799465D03*
X678180Y798830D03*
X765024Y433705D03*
X759309Y462280D03*
X734060Y703580D03*
X734060Y728980D03*
X708660Y703580D03*
X708660Y728980D03*
X695960Y563880D03*
X734060Y563880D03*
X708660Y500380D03*
X695960Y665480D03*
X683109Y480060D03*
X678664Y419100D03*
X725019Y448945D03*
X759309Y479425D03*
X685800Y760730D03*
X685800Y770890D03*
X725019Y465455D03*
X692785Y448945D03*
X746403Y427355D03*
X741680Y432435D03*
X736598Y427355D03*
X731520Y432435D03*
X726598Y427355D03*
X721995Y436880D03*
X716598Y427355D03*
X711200Y433070D03*
X706598Y427355D03*
X745260Y757555D03*
X746530Y538480D03*
X701040Y433070D03*
X736116Y757555D03*
X743736Y527050D03*
X756338Y427302D03*
X688975Y433070D03*
X705750Y789940D03*
X741415Y789940D03*
D11*
X688975Y442595D02*
X688975Y433070D01*
X756338Y427302D02*
X758190Y429154D01*
X688975Y442595D02*
X684530Y447040D01*
X684530Y452120D01*
X688340Y455930D01*
X742950Y455930D01*
X754380Y444500D01*
X758190Y440690D01*
X758190Y429154D01*
X741415Y789940D02*
X705750Y789940D01*
X741415Y789940D02*
X772160Y759195D01*
X772160Y462280D02*
X754380Y444500D01*
X772160Y532765D02*
X772160Y759195D01*
X772160Y532765D02*
X772160Y462280D01*
D10*
X711200Y532765D03*
D12*
X772160Y532765D01*
D10*
X682625Y427990D03*
X682308Y437833D03*
X765810Y425450D03*
X711200Y539750D03*
X711200Y525780D03*
X863600Y433070D03*
X808355Y427355D03*
X814970Y796925D03*
X856350Y796925D03*
X795020Y462280D03*
X880745Y799465D03*
X789940Y798830D03*
X876784Y433705D03*
X871069Y462280D03*
X845820Y703580D03*
X845820Y728980D03*
X820420Y703580D03*
X820420Y728980D03*
X807720Y563880D03*
X845820Y563880D03*
X820420Y500380D03*
X807720Y665480D03*
X794869Y480060D03*
X790424Y419100D03*
X836779Y448945D03*
X871069Y479425D03*
X797560Y760730D03*
X797560Y770890D03*
X836779Y465455D03*
X804545Y448945D03*
X858163Y427355D03*
X853440Y432435D03*
X848358Y427355D03*
X843280Y432435D03*
X838358Y427355D03*
X833755Y436880D03*
X828358Y427355D03*
X822960Y433070D03*
X818358Y427355D03*
X857020Y757555D03*
X858290Y538480D03*
X812800Y433070D03*
X847876Y757555D03*
X855496Y527050D03*
X868098Y427302D03*
X800735Y433070D03*
X817510Y789940D03*
X853175Y789940D03*
D11*
X800735Y442595D02*
X800735Y433070D01*
X868098Y427302D02*
X869950Y429154D01*
X800735Y442595D02*
X796290Y447040D01*
X796290Y452120D01*
X800100Y455930D01*
X854710Y455930D01*
X866140Y444500D01*
X869950Y440690D01*
X869950Y429154D01*
X853175Y789940D02*
X817510Y789940D01*
X853175Y789940D02*
X883920Y759195D01*
X883920Y462280D02*
X866140Y444500D01*
X883920Y532765D02*
X883920Y759195D01*
X883920Y532765D02*
X883920Y462280D01*
D10*
X822960Y532765D03*
D12*
X883920Y532765D01*
D10*
X794385Y427990D03*
X794068Y437833D03*
X877570Y425450D03*
X822960Y539750D03*
X822960Y525780D03*
X975360Y433070D03*
X920115Y427355D03*
X926730Y796925D03*
X968110Y796925D03*
X906780Y462280D03*
X992505Y799465D03*
X901700Y798830D03*
X988544Y433705D03*
X982829Y462280D03*
X957580Y703580D03*
X957580Y728980D03*
X932180Y703580D03*
X932180Y728980D03*
X919480Y563880D03*
X957580Y563880D03*
X932180Y500380D03*
X919480Y665480D03*
X906629Y480060D03*
X902184Y419100D03*
X948539Y448945D03*
X982829Y479425D03*
X909320Y760730D03*
X909320Y770890D03*
X948539Y465455D03*
X916305Y448945D03*
X969923Y427355D03*
X965200Y432435D03*
X960118Y427355D03*
X955040Y432435D03*
X950118Y427355D03*
X945515Y436880D03*
X940118Y427355D03*
X934720Y433070D03*
X930118Y427355D03*
X968780Y757555D03*
X970050Y538480D03*
X924560Y433070D03*
X959636Y757555D03*
X967256Y527050D03*
X979858Y427302D03*
X912495Y433070D03*
X929270Y789940D03*
X964935Y789940D03*
D11*
X912495Y442595D02*
X912495Y433070D01*
X979858Y427302D02*
X981710Y429154D01*
X912495Y442595D02*
X908050Y447040D01*
X908050Y452120D01*
X911860Y455930D01*
X966470Y455930D01*
X977900Y444500D01*
X981710Y440690D01*
X981710Y429154D01*
X964935Y789940D02*
X929270Y789940D01*
X964935Y789940D02*
X995680Y759195D01*
X995680Y462280D02*
X977900Y444500D01*
X995680Y532765D02*
X995680Y759195D01*
X995680Y532765D02*
X995680Y462280D01*
D10*
X934720Y532765D03*
D12*
X995680Y532765D01*
D10*
X906145Y427990D03*
X905828Y437833D03*
X989330Y425450D03*
X934720Y539750D03*
X934720Y525780D03*
X1087120Y433070D03*
X1031875Y427355D03*
X1038490Y796925D03*
X1079870Y796925D03*
X1018540Y462280D03*
X1104265Y799465D03*
X1013460Y798830D03*
X1100304Y433705D03*
X1094589Y462280D03*
X1069340Y703580D03*
X1069340Y728980D03*
X1043940Y703580D03*
X1043940Y728980D03*
X1031240Y563880D03*
X1069340Y563880D03*
X1043940Y500380D03*
X1031240Y665480D03*
X1018389Y480060D03*
X1013944Y419100D03*
X1060299Y448945D03*
X1094589Y479425D03*
X1021080Y760730D03*
X1021080Y770890D03*
X1060299Y465455D03*
X1028065Y448945D03*
X1081683Y427355D03*
X1076960Y432435D03*
X1071878Y427355D03*
X1066800Y432435D03*
X1061878Y427355D03*
X1057275Y436880D03*
X1051878Y427355D03*
X1046480Y433070D03*
X1041878Y427355D03*
X1080540Y757555D03*
X1081810Y538480D03*
X1036320Y433070D03*
X1071396Y757555D03*
X1079016Y527050D03*
X1091618Y427302D03*
X1024255Y433070D03*
X1041030Y789940D03*
X1076695Y789940D03*
D11*
X1024255Y442595D02*
X1024255Y433070D01*
X1091618Y427302D02*
X1093470Y429154D01*
X1024255Y442595D02*
X1019810Y447040D01*
X1019810Y452120D01*
X1023620Y455930D01*
X1078230Y455930D01*
X1089660Y444500D01*
X1093470Y440690D01*
X1093470Y429154D01*
X1076695Y789940D02*
X1041030Y789940D01*
X1076695Y789940D02*
X1107440Y759195D01*
X1107440Y462280D02*
X1089660Y444500D01*
X1107440Y532765D02*
X1107440Y759195D01*
X1107440Y532765D02*
X1107440Y462280D01*
D10*
X1046480Y532765D03*
D12*
X1107440Y532765D01*
D10*
X1017905Y427990D03*
X1017588Y437833D03*
X1101090Y425450D03*
X1046480Y539750D03*
X1046480Y525780D03*
X1198880Y433070D03*
X1143635Y427355D03*
X1150250Y796925D03*
X1191630Y796925D03*
X1130300Y462280D03*
X1216025Y799465D03*
X1125220Y798830D03*
X1212064Y433705D03*
X1206349Y462280D03*
X1181100Y703580D03*
X1181100Y728980D03*
X1155700Y703580D03*
X1155700Y728980D03*
X1143000Y563880D03*
X1181100Y563880D03*
X1155700Y500380D03*
X1143000Y665480D03*
X1130149Y480060D03*
X1125704Y419100D03*
X1172059Y448945D03*
X1206349Y479425D03*
X1132840Y760730D03*
X1132840Y770890D03*
X1172059Y465455D03*
X1139825Y448945D03*
X1193443Y427355D03*
X1188720Y432435D03*
X1183638Y427355D03*
X1178560Y432435D03*
X1173638Y427355D03*
X1169035Y436880D03*
X1163638Y427355D03*
X1158240Y433070D03*
X1153638Y427355D03*
X1192300Y757555D03*
X1193570Y538480D03*
X1148080Y433070D03*
X1183156Y757555D03*
X1190776Y527050D03*
X1203378Y427302D03*
X1136015Y433070D03*
X1152790Y789940D03*
X1188455Y789940D03*
D11*
X1136015Y442595D02*
X1136015Y433070D01*
X1203378Y427302D02*
X1205230Y429154D01*
X1136015Y442595D02*
X1131570Y447040D01*
X1131570Y452120D01*
X1135380Y455930D01*
X1189990Y455930D01*
X1201420Y444500D01*
X1205230Y440690D01*
X1205230Y429154D01*
X1188455Y789940D02*
X1152790Y789940D01*
X1188455Y789940D02*
X1219200Y759195D01*
X1219200Y462280D02*
X1201420Y444500D01*
X1219200Y532765D02*
X1219200Y759195D01*
X1219200Y532765D02*
X1219200Y462280D01*
D10*
X1158240Y532765D03*
D12*
X1219200Y532765D01*
D10*
X1129665Y427990D03*
X1129348Y437833D03*
X1212850Y425450D03*
X1158240Y539750D03*
X1158240Y525780D03*
X1310640Y433070D03*
X1255395Y427355D03*
X1262010Y796925D03*
X1303390Y796925D03*
X1242060Y462280D03*
X1327785Y799465D03*
X1236980Y798830D03*
X1323824Y433705D03*
X1318109Y462280D03*
X1292860Y703580D03*
X1292860Y728980D03*
X1267460Y703580D03*
X1267460Y728980D03*
X1254760Y563880D03*
X1292860Y563880D03*
X1267460Y500380D03*
X1254760Y665480D03*
X1241909Y480060D03*
X1237464Y419100D03*
X1283819Y448945D03*
X1318109Y479425D03*
X1244600Y760730D03*
X1244600Y770890D03*
X1283819Y465455D03*
X1251585Y448945D03*
X1305203Y427355D03*
X1300480Y432435D03*
X1295398Y427355D03*
X1290320Y432435D03*
X1285398Y427355D03*
X1280795Y436880D03*
X1275398Y427355D03*
X1270000Y433070D03*
X1265398Y427355D03*
X1304060Y757555D03*
X1305330Y538480D03*
X1259840Y433070D03*
X1294916Y757555D03*
X1302536Y527050D03*
X1315138Y427302D03*
X1247775Y433070D03*
X1264550Y789940D03*
X1300215Y789940D03*
D11*
X1247775Y442595D02*
X1247775Y433070D01*
X1315138Y427302D02*
X1316990Y429154D01*
X1247775Y442595D02*
X1243330Y447040D01*
X1243330Y452120D01*
X1247140Y455930D01*
X1301750Y455930D01*
X1313180Y444500D01*
X1316990Y440690D01*
X1316990Y429154D01*
X1300215Y789940D02*
X1264550Y789940D01*
X1300215Y789940D02*
X1330960Y759195D01*
X1330960Y462280D02*
X1313180Y444500D01*
X1330960Y532765D02*
X1330960Y759195D01*
X1330960Y532765D02*
X1330960Y462280D01*
D10*
X1270000Y532765D03*
D12*
X1330960Y532765D01*
D10*
X1241425Y427990D03*
X1241108Y437833D03*
X1324610Y425450D03*
X1270000Y539750D03*
X1270000Y525780D03*
X1422400Y433070D03*
X1367155Y427355D03*
X1373770Y796925D03*
X1415150Y796925D03*
X1353820Y462280D03*
X1439545Y799465D03*
X1348740Y798830D03*
X1435584Y433705D03*
X1429869Y462280D03*
X1404620Y703580D03*
X1404620Y728980D03*
X1379220Y703580D03*
X1379220Y728980D03*
X1366520Y563880D03*
X1404620Y563880D03*
X1379220Y500380D03*
X1366520Y665480D03*
X1353669Y480060D03*
X1349224Y419100D03*
X1395579Y448945D03*
X1429869Y479425D03*
X1356360Y760730D03*
X1356360Y770890D03*
X1395579Y465455D03*
X1363345Y448945D03*
X1416963Y427355D03*
X1412240Y432435D03*
X1407158Y427355D03*
X1402080Y432435D03*
X1397158Y427355D03*
X1392555Y436880D03*
X1387158Y427355D03*
X1381760Y433070D03*
X1377158Y427355D03*
X1415820Y757555D03*
X1417090Y538480D03*
X1371600Y433070D03*
X1406676Y757555D03*
X1414296Y527050D03*
X1426898Y427302D03*
X1359535Y433070D03*
X1376310Y789940D03*
X1411975Y789940D03*
D11*
X1359535Y442595D02*
X1359535Y433070D01*
X1426898Y427302D02*
X1428750Y429154D01*
X1359535Y442595D02*
X1355090Y447040D01*
X1355090Y452120D01*
X1358900Y455930D01*
X1413510Y455930D01*
X1424940Y444500D01*
X1428750Y440690D01*
X1428750Y429154D01*
X1411975Y789940D02*
X1376310Y789940D01*
X1411975Y789940D02*
X1442720Y759195D01*
X1442720Y462280D02*
X1424940Y444500D01*
X1442720Y532765D02*
X1442720Y759195D01*
X1442720Y532765D02*
X1442720Y462280D01*
D10*
X1381760Y532765D03*
D12*
X1442720Y532765D01*
D10*
X1353185Y427990D03*
X1352868Y437833D03*
X1436370Y425450D03*
X1381760Y539750D03*
X1381760Y525780D03*
X1534160Y433070D03*
X1478915Y427355D03*
X1485530Y796925D03*
X1526910Y796925D03*
X1465580Y462280D03*
X1551305Y799465D03*
X1460500Y798830D03*
X1547344Y433705D03*
X1541629Y462280D03*
X1516380Y703580D03*
X1516380Y728980D03*
X1490980Y703580D03*
X1490980Y728980D03*
X1478280Y563880D03*
X1516380Y563880D03*
X1490980Y500380D03*
X1478280Y665480D03*
X1465429Y480060D03*
X1460984Y419100D03*
X1507339Y448945D03*
X1541629Y479425D03*
X1468120Y760730D03*
X1468120Y770890D03*
X1507339Y465455D03*
X1475105Y448945D03*
X1528723Y427355D03*
X1524000Y432435D03*
X1518918Y427355D03*
X1513840Y432435D03*
X1508918Y427355D03*
X1504315Y436880D03*
X1498918Y427355D03*
X1493520Y433070D03*
X1488918Y427355D03*
X1527580Y757555D03*
X1528850Y538480D03*
X1483360Y433070D03*
X1518436Y757555D03*
X1526056Y527050D03*
X1538658Y427302D03*
X1471295Y433070D03*
X1488070Y789940D03*
X1523735Y789940D03*
D11*
X1471295Y442595D02*
X1471295Y433070D01*
X1538658Y427302D02*
X1540510Y429154D01*
X1471295Y442595D02*
X1466850Y447040D01*
X1466850Y452120D01*
X1470660Y455930D01*
X1525270Y455930D01*
X1536700Y444500D01*
X1540510Y440690D01*
X1540510Y429154D01*
X1523735Y789940D02*
X1488070Y789940D01*
X1523735Y789940D02*
X1554480Y759195D01*
X1554480Y462280D02*
X1536700Y444500D01*
X1554480Y532765D02*
X1554480Y759195D01*
X1554480Y532765D02*
X1554480Y462280D01*
D10*
X1493520Y532765D03*
D12*
X1554480Y532765D01*
D10*
X1464945Y427990D03*
X1464628Y437833D03*
X1548130Y425450D03*
X1493520Y539750D03*
X1493520Y525780D03*
X1645920Y433070D03*
X1590675Y427355D03*
X1597290Y796925D03*
X1638670Y796925D03*
X1577340Y462280D03*
X1663065Y799465D03*
X1572260Y798830D03*
X1659104Y433705D03*
X1653389Y462280D03*
X1628140Y703580D03*
X1628140Y728980D03*
X1602740Y703580D03*
X1602740Y728980D03*
X1590040Y563880D03*
X1628140Y563880D03*
X1602740Y500380D03*
X1590040Y665480D03*
X1577189Y480060D03*
X1572744Y419100D03*
X1619099Y448945D03*
X1653389Y479425D03*
X1579880Y760730D03*
X1579880Y770890D03*
X1619099Y465455D03*
X1586865Y448945D03*
X1640483Y427355D03*
X1635760Y432435D03*
X1630678Y427355D03*
X1625600Y432435D03*
X1620678Y427355D03*
X1616075Y436880D03*
X1610678Y427355D03*
X1605280Y433070D03*
X1600678Y427355D03*
X1639340Y757555D03*
X1640610Y538480D03*
X1595120Y433070D03*
X1630196Y757555D03*
X1637816Y527050D03*
X1650418Y427302D03*
X1583055Y433070D03*
X1599830Y789940D03*
X1635495Y789940D03*
D11*
X1583055Y442595D02*
X1583055Y433070D01*
X1650418Y427302D02*
X1652270Y429154D01*
X1583055Y442595D02*
X1578610Y447040D01*
X1578610Y452120D01*
X1582420Y455930D01*
X1637030Y455930D01*
X1648460Y444500D01*
X1652270Y440690D01*
X1652270Y429154D01*
X1635495Y789940D02*
X1599830Y789940D01*
X1635495Y789940D02*
X1666240Y759195D01*
X1666240Y462280D02*
X1648460Y444500D01*
X1666240Y532765D02*
X1666240Y759195D01*
X1666240Y532765D02*
X1666240Y462280D01*
D10*
X1605280Y532765D03*
D12*
X1666240Y532765D01*
D10*
X1576705Y427990D03*
X1576388Y437833D03*
X1659890Y425450D03*
X1605280Y539750D03*
X1605280Y525780D03*
X1757680Y433070D03*
X1702435Y427355D03*
X1709050Y796925D03*
X1750430Y796925D03*
X1689100Y462280D03*
X1774825Y799465D03*
X1684020Y798830D03*
X1770864Y433705D03*
X1765149Y462280D03*
X1739900Y703580D03*
X1739900Y728980D03*
X1714500Y703580D03*
X1714500Y728980D03*
X1701800Y563880D03*
X1739900Y563880D03*
X1714500Y500380D03*
X1701800Y665480D03*
X1688949Y480060D03*
X1684504Y419100D03*
X1730859Y448945D03*
X1765149Y479425D03*
X1691640Y760730D03*
X1691640Y770890D03*
X1730859Y465455D03*
X1698625Y448945D03*
X1752243Y427355D03*
X1747520Y432435D03*
X1742438Y427355D03*
X1737360Y432435D03*
X1732438Y427355D03*
X1727835Y436880D03*
X1722438Y427355D03*
X1717040Y433070D03*
X1712438Y427355D03*
X1751100Y757555D03*
X1752370Y538480D03*
X1706880Y433070D03*
X1741956Y757555D03*
X1749576Y527050D03*
X1762178Y427302D03*
X1694815Y433070D03*
X1711590Y789940D03*
X1747255Y789940D03*
D11*
X1694815Y442595D02*
X1694815Y433070D01*
X1762178Y427302D02*
X1764030Y429154D01*
X1694815Y442595D02*
X1690370Y447040D01*
X1690370Y452120D01*
X1694180Y455930D01*
X1748790Y455930D01*
X1760220Y444500D01*
X1764030Y440690D01*
X1764030Y429154D01*
X1747255Y789940D02*
X1711590Y789940D01*
X1747255Y789940D02*
X1778000Y759195D01*
X1778000Y462280D02*
X1760220Y444500D01*
X1778000Y532765D02*
X1778000Y759195D01*
X1778000Y532765D02*
X1778000Y462280D01*
D10*
X1717040Y532765D03*
D12*
X1778000Y532765D01*
D10*
X1688465Y427990D03*
X1688148Y437833D03*
X1771650Y425450D03*
X1717040Y539750D03*
X1717040Y525780D03*
X81280Y844550D03*
X26035Y838835D03*
X32650Y1208405D03*
X74030Y1208405D03*
X12700Y873760D03*
X98425Y1210945D03*
X7620Y1210310D03*
X94464Y845185D03*
X88749Y873760D03*
X63500Y1115060D03*
X63500Y1140460D03*
X38100Y1115060D03*
X38100Y1140460D03*
X25400Y975360D03*
X63500Y975360D03*
X38100Y911860D03*
X25400Y1076960D03*
X12549Y891540D03*
X8104Y830580D03*
X54459Y860425D03*
X88749Y890905D03*
X15240Y1172210D03*
X15240Y1182370D03*
X54459Y876935D03*
X22225Y860425D03*
X75843Y838835D03*
X71120Y843915D03*
X66038Y838835D03*
X60960Y843915D03*
X56038Y838835D03*
X51435Y848360D03*
X46038Y838835D03*
X40640Y844550D03*
X36038Y838835D03*
X74700Y1169035D03*
X75970Y949960D03*
X30480Y844550D03*
X65556Y1169035D03*
X73176Y938530D03*
X85778Y838782D03*
X18415Y844550D03*
X35190Y1201420D03*
X70855Y1201420D03*
D11*
X18415Y854075D02*
X18415Y844550D01*
X85778Y838782D02*
X87630Y840634D01*
X18415Y854075D02*
X13970Y858520D01*
X13970Y863600D01*
X17780Y867410D01*
X72390Y867410D01*
X83820Y855980D01*
X87630Y852170D01*
X87630Y840634D01*
X70855Y1201420D02*
X35190Y1201420D01*
X70855Y1201420D02*
X101600Y1170675D01*
X101600Y873760D02*
X83820Y855980D01*
X101600Y944245D02*
X101600Y1170675D01*
X101600Y944245D02*
X101600Y873760D01*
D10*
X40640Y944245D03*
D12*
X101600Y944245D01*
D10*
X12065Y839470D03*
X11748Y849313D03*
X95250Y836930D03*
X40640Y951230D03*
X40640Y937260D03*
X193040Y844550D03*
X137795Y838835D03*
X144410Y1208405D03*
X185790Y1208405D03*
X124460Y873760D03*
X210185Y1210945D03*
X119380Y1210310D03*
X206224Y845185D03*
X200509Y873760D03*
X175260Y1115060D03*
X175260Y1140460D03*
X149860Y1115060D03*
X149860Y1140460D03*
X137160Y975360D03*
X175260Y975360D03*
X149860Y911860D03*
X137160Y1076960D03*
X124309Y891540D03*
X119864Y830580D03*
X166219Y860425D03*
X200509Y890905D03*
X127000Y1172210D03*
X127000Y1182370D03*
X166219Y876935D03*
X133985Y860425D03*
X187603Y838835D03*
X182880Y843915D03*
X177798Y838835D03*
X172720Y843915D03*
X167798Y838835D03*
X163195Y848360D03*
X157798Y838835D03*
X152400Y844550D03*
X147798Y838835D03*
X186460Y1169035D03*
X187730Y949960D03*
X142240Y844550D03*
X177316Y1169035D03*
X184936Y938530D03*
X197538Y838782D03*
X130175Y844550D03*
X146950Y1201420D03*
X182615Y1201420D03*
D11*
X130175Y854075D02*
X130175Y844550D01*
X197538Y838782D02*
X199390Y840634D01*
X130175Y854075D02*
X125730Y858520D01*
X125730Y863600D01*
X129540Y867410D01*
X184150Y867410D01*
X195580Y855980D01*
X199390Y852170D01*
X199390Y840634D01*
X182615Y1201420D02*
X146950Y1201420D01*
X182615Y1201420D02*
X213360Y1170675D01*
X213360Y873760D02*
X195580Y855980D01*
X213360Y944245D02*
X213360Y1170675D01*
X213360Y944245D02*
X213360Y873760D01*
D10*
X152400Y944245D03*
D12*
X213360Y944245D01*
D10*
X123825Y839470D03*
X123508Y849313D03*
X207010Y836930D03*
X152400Y951230D03*
X152400Y937260D03*
X304800Y844550D03*
X249555Y838835D03*
X256170Y1208405D03*
X297550Y1208405D03*
X236220Y873760D03*
X321945Y1210945D03*
X231140Y1210310D03*
X317984Y845185D03*
X312269Y873760D03*
X287020Y1115060D03*
X287020Y1140460D03*
X261620Y1115060D03*
X261620Y1140460D03*
X248920Y975360D03*
X287020Y975360D03*
X261620Y911860D03*
X248920Y1076960D03*
X236069Y891540D03*
X231624Y830580D03*
X277979Y860425D03*
X312269Y890905D03*
X238760Y1172210D03*
X238760Y1182370D03*
X277979Y876935D03*
X245745Y860425D03*
X299363Y838835D03*
X294640Y843915D03*
X289558Y838835D03*
X284480Y843915D03*
X279558Y838835D03*
X274955Y848360D03*
X269558Y838835D03*
X264160Y844550D03*
X259558Y838835D03*
X298220Y1169035D03*
X299490Y949960D03*
X254000Y844550D03*
X289076Y1169035D03*
X296696Y938530D03*
X309298Y838782D03*
X241935Y844550D03*
X258710Y1201420D03*
X294375Y1201420D03*
D11*
X241935Y854075D02*
X241935Y844550D01*
X309298Y838782D02*
X311150Y840634D01*
X241935Y854075D02*
X237490Y858520D01*
X237490Y863600D01*
X241300Y867410D01*
X295910Y867410D01*
X307340Y855980D01*
X311150Y852170D01*
X311150Y840634D01*
X294375Y1201420D02*
X258710Y1201420D01*
X294375Y1201420D02*
X325120Y1170675D01*
X325120Y873760D02*
X307340Y855980D01*
X325120Y944245D02*
X325120Y1170675D01*
X325120Y944245D02*
X325120Y873760D01*
D10*
X264160Y944245D03*
D12*
X325120Y944245D01*
D10*
X235585Y839470D03*
X235268Y849313D03*
X318770Y836930D03*
X264160Y951230D03*
X264160Y937260D03*
X416560Y844550D03*
X361315Y838835D03*
X367930Y1208405D03*
X409310Y1208405D03*
X347980Y873760D03*
X433705Y1210945D03*
X342900Y1210310D03*
X429744Y845185D03*
X424029Y873760D03*
X398780Y1115060D03*
X398780Y1140460D03*
X373380Y1115060D03*
X373380Y1140460D03*
X360680Y975360D03*
X398780Y975360D03*
X373380Y911860D03*
X360680Y1076960D03*
X347829Y891540D03*
X343384Y830580D03*
X389739Y860425D03*
X424029Y890905D03*
X350520Y1172210D03*
X350520Y1182370D03*
X389739Y876935D03*
X357505Y860425D03*
X411123Y838835D03*
X406400Y843915D03*
X401318Y838835D03*
X396240Y843915D03*
X391318Y838835D03*
X386715Y848360D03*
X381318Y838835D03*
X375920Y844550D03*
X371318Y838835D03*
X409980Y1169035D03*
X411250Y949960D03*
X365760Y844550D03*
X400836Y1169035D03*
X408456Y938530D03*
X421058Y838782D03*
X353695Y844550D03*
X370470Y1201420D03*
X406135Y1201420D03*
D11*
X353695Y854075D02*
X353695Y844550D01*
X421058Y838782D02*
X422910Y840634D01*
X353695Y854075D02*
X349250Y858520D01*
X349250Y863600D01*
X353060Y867410D01*
X407670Y867410D01*
X419100Y855980D01*
X422910Y852170D01*
X422910Y840634D01*
X406135Y1201420D02*
X370470Y1201420D01*
X406135Y1201420D02*
X436880Y1170675D01*
X436880Y873760D02*
X419100Y855980D01*
X436880Y944245D02*
X436880Y1170675D01*
X436880Y944245D02*
X436880Y873760D01*
D10*
X375920Y944245D03*
D12*
X436880Y944245D01*
D10*
X347345Y839470D03*
X347028Y849313D03*
X430530Y836930D03*
X375920Y951230D03*
X375920Y937260D03*
X528320Y844550D03*
X473075Y838835D03*
X479690Y1208405D03*
X521070Y1208405D03*
X459740Y873760D03*
X545465Y1210945D03*
X454660Y1210310D03*
X541504Y845185D03*
X535789Y873760D03*
X510540Y1115060D03*
X510540Y1140460D03*
X485140Y1115060D03*
X485140Y1140460D03*
X472440Y975360D03*
X510540Y975360D03*
X485140Y911860D03*
X472440Y1076960D03*
X459589Y891540D03*
X455144Y830580D03*
X501499Y860425D03*
X535789Y890905D03*
X462280Y1172210D03*
X462280Y1182370D03*
X501499Y876935D03*
X469265Y860425D03*
X522883Y838835D03*
X518160Y843915D03*
X513078Y838835D03*
X508000Y843915D03*
X503078Y838835D03*
X498475Y848360D03*
X493078Y838835D03*
X487680Y844550D03*
X483078Y838835D03*
X521740Y1169035D03*
X523010Y949960D03*
X477520Y844550D03*
X512596Y1169035D03*
X520216Y938530D03*
X532818Y838782D03*
X465455Y844550D03*
X482230Y1201420D03*
X517895Y1201420D03*
D11*
X465455Y854075D02*
X465455Y844550D01*
X532818Y838782D02*
X534670Y840634D01*
X465455Y854075D02*
X461010Y858520D01*
X461010Y863600D01*
X464820Y867410D01*
X519430Y867410D01*
X530860Y855980D01*
X534670Y852170D01*
X534670Y840634D01*
X517895Y1201420D02*
X482230Y1201420D01*
X517895Y1201420D02*
X548640Y1170675D01*
X548640Y873760D02*
X530860Y855980D01*
X548640Y944245D02*
X548640Y1170675D01*
X548640Y944245D02*
X548640Y873760D01*
D10*
X487680Y944245D03*
D12*
X548640Y944245D01*
D10*
X459105Y839470D03*
X458788Y849313D03*
X542290Y836930D03*
X487680Y951230D03*
X487680Y937260D03*
X640080Y844550D03*
X584835Y838835D03*
X591450Y1208405D03*
X632830Y1208405D03*
X571500Y873760D03*
X657225Y1210945D03*
X566420Y1210310D03*
X653264Y845185D03*
X647549Y873760D03*
X622300Y1115060D03*
X622300Y1140460D03*
X596900Y1115060D03*
X596900Y1140460D03*
X584200Y975360D03*
X622300Y975360D03*
X596900Y911860D03*
X584200Y1076960D03*
X571349Y891540D03*
X566904Y830580D03*
X613259Y860425D03*
X647549Y890905D03*
X574040Y1172210D03*
X574040Y1182370D03*
X613259Y876935D03*
X581025Y860425D03*
X634643Y838835D03*
X629920Y843915D03*
X624838Y838835D03*
X619760Y843915D03*
X614838Y838835D03*
X610235Y848360D03*
X604838Y838835D03*
X599440Y844550D03*
X594838Y838835D03*
X633500Y1169035D03*
X634770Y949960D03*
X589280Y844550D03*
X624356Y1169035D03*
X631976Y938530D03*
X644578Y838782D03*
X577215Y844550D03*
X593990Y1201420D03*
X629655Y1201420D03*
D11*
X577215Y854075D02*
X577215Y844550D01*
X644578Y838782D02*
X646430Y840634D01*
X577215Y854075D02*
X572770Y858520D01*
X572770Y863600D01*
X576580Y867410D01*
X631190Y867410D01*
X642620Y855980D01*
X646430Y852170D01*
X646430Y840634D01*
X629655Y1201420D02*
X593990Y1201420D01*
X629655Y1201420D02*
X660400Y1170675D01*
X660400Y873760D02*
X642620Y855980D01*
X660400Y944245D02*
X660400Y1170675D01*
X660400Y944245D02*
X660400Y873760D01*
D10*
X599440Y944245D03*
D12*
X660400Y944245D01*
D10*
X570865Y839470D03*
X570548Y849313D03*
X654050Y836930D03*
X599440Y951230D03*
X599440Y937260D03*
X751840Y844550D03*
X696595Y838835D03*
X703210Y1208405D03*
X744590Y1208405D03*
X683260Y873760D03*
X768985Y1210945D03*
X678180Y1210310D03*
X765024Y845185D03*
X759309Y873760D03*
X734060Y1115060D03*
X734060Y1140460D03*
X708660Y1115060D03*
X708660Y1140460D03*
X695960Y975360D03*
X734060Y975360D03*
X708660Y911860D03*
X695960Y1076960D03*
X683109Y891540D03*
X678664Y830580D03*
X725019Y860425D03*
X759309Y890905D03*
X685800Y1172210D03*
X685800Y1182370D03*
X725019Y876935D03*
X692785Y860425D03*
X746403Y838835D03*
X741680Y843915D03*
X736598Y838835D03*
X731520Y843915D03*
X726598Y838835D03*
X721995Y848360D03*
X716598Y838835D03*
X711200Y844550D03*
X706598Y838835D03*
X745260Y1169035D03*
X746530Y949960D03*
X701040Y844550D03*
X736116Y1169035D03*
X743736Y938530D03*
X756338Y838782D03*
X688975Y844550D03*
X705750Y1201420D03*
X741415Y1201420D03*
D11*
X688975Y854075D02*
X688975Y844550D01*
X756338Y838782D02*
X758190Y840634D01*
X688975Y854075D02*
X684530Y858520D01*
X684530Y863600D01*
X688340Y867410D01*
X742950Y867410D01*
X754380Y855980D01*
X758190Y852170D01*
X758190Y840634D01*
X741415Y1201420D02*
X705750Y1201420D01*
X741415Y1201420D02*
X772160Y1170675D01*
X772160Y873760D02*
X754380Y855980D01*
X772160Y944245D02*
X772160Y1170675D01*
X772160Y944245D02*
X772160Y873760D01*
D10*
X711200Y944245D03*
D12*
X772160Y944245D01*
D10*
X682625Y839470D03*
X682308Y849313D03*
X765810Y836930D03*
X711200Y951230D03*
X711200Y937260D03*
X863600Y844550D03*
X808355Y838835D03*
X814970Y1208405D03*
X856350Y1208405D03*
X795020Y873760D03*
X880745Y1210945D03*
X789940Y1210310D03*
X876784Y845185D03*
X871069Y873760D03*
X845820Y1115060D03*
X845820Y1140460D03*
X820420Y1115060D03*
X820420Y1140460D03*
X807720Y975360D03*
X845820Y975360D03*
X820420Y911860D03*
X807720Y1076960D03*
X794869Y891540D03*
X790424Y830580D03*
X836779Y860425D03*
X871069Y890905D03*
X797560Y1172210D03*
X797560Y1182370D03*
X836779Y876935D03*
X804545Y860425D03*
X858163Y838835D03*
X853440Y843915D03*
X848358Y838835D03*
X843280Y843915D03*
X838358Y838835D03*
X833755Y848360D03*
X828358Y838835D03*
X822960Y844550D03*
X818358Y838835D03*
X857020Y1169035D03*
X858290Y949960D03*
X812800Y844550D03*
X847876Y1169035D03*
X855496Y938530D03*
X868098Y838782D03*
X800735Y844550D03*
X817510Y1201420D03*
X853175Y1201420D03*
D11*
X800735Y854075D02*
X800735Y844550D01*
X868098Y838782D02*
X869950Y840634D01*
X800735Y854075D02*
X796290Y858520D01*
X796290Y863600D01*
X800100Y867410D01*
X854710Y867410D01*
X866140Y855980D01*
X869950Y852170D01*
X869950Y840634D01*
X853175Y1201420D02*
X817510Y1201420D01*
X853175Y1201420D02*
X883920Y1170675D01*
X883920Y873760D02*
X866140Y855980D01*
X883920Y944245D02*
X883920Y1170675D01*
X883920Y944245D02*
X883920Y873760D01*
D10*
X822960Y944245D03*
D12*
X883920Y944245D01*
D10*
X794385Y839470D03*
X794068Y849313D03*
X877570Y836930D03*
X822960Y951230D03*
X822960Y937260D03*
X975360Y844550D03*
X920115Y838835D03*
X926730Y1208405D03*
X968110Y1208405D03*
X906780Y873760D03*
X992505Y1210945D03*
X901700Y1210310D03*
X988544Y845185D03*
X982829Y873760D03*
X957580Y1115060D03*
X957580Y1140460D03*
X932180Y1115060D03*
X932180Y1140460D03*
X919480Y975360D03*
X957580Y975360D03*
X932180Y911860D03*
X919480Y1076960D03*
X906629Y891540D03*
X902184Y830580D03*
X948539Y860425D03*
X982829Y890905D03*
X909320Y1172210D03*
X909320Y1182370D03*
X948539Y876935D03*
X916305Y860425D03*
X969923Y838835D03*
X965200Y843915D03*
X960118Y838835D03*
X955040Y843915D03*
X950118Y838835D03*
X945515Y848360D03*
X940118Y838835D03*
X934720Y844550D03*
X930118Y838835D03*
X968780Y1169035D03*
X970050Y949960D03*
X924560Y844550D03*
X959636Y1169035D03*
X967256Y938530D03*
X979858Y838782D03*
X912495Y844550D03*
X929270Y1201420D03*
X964935Y1201420D03*
D11*
X912495Y854075D02*
X912495Y844550D01*
X979858Y838782D02*
X981710Y840634D01*
X912495Y854075D02*
X908050Y858520D01*
X908050Y863600D01*
X911860Y867410D01*
X966470Y867410D01*
X977900Y855980D01*
X981710Y852170D01*
X981710Y840634D01*
X964935Y1201420D02*
X929270Y1201420D01*
X964935Y1201420D02*
X995680Y1170675D01*
X995680Y873760D02*
X977900Y855980D01*
X995680Y944245D02*
X995680Y1170675D01*
X995680Y944245D02*
X995680Y873760D01*
D10*
X934720Y944245D03*
D12*
X995680Y944245D01*
D10*
X906145Y839470D03*
X905828Y849313D03*
X989330Y836930D03*
X934720Y951230D03*
X934720Y937260D03*
X1087120Y844550D03*
X1031875Y838835D03*
X1038490Y1208405D03*
X1079870Y1208405D03*
X1018540Y873760D03*
X1104265Y1210945D03*
X1013460Y1210310D03*
X1100304Y845185D03*
X1094589Y873760D03*
X1069340Y1115060D03*
X1069340Y1140460D03*
X1043940Y1115060D03*
X1043940Y1140460D03*
X1031240Y975360D03*
X1069340Y975360D03*
X1043940Y911860D03*
X1031240Y1076960D03*
X1018389Y891540D03*
X1013944Y830580D03*
X1060299Y860425D03*
X1094589Y890905D03*
X1021080Y1172210D03*
X1021080Y1182370D03*
X1060299Y876935D03*
X1028065Y860425D03*
X1081683Y838835D03*
X1076960Y843915D03*
X1071878Y838835D03*
X1066800Y843915D03*
X1061878Y838835D03*
X1057275Y848360D03*
X1051878Y838835D03*
X1046480Y844550D03*
X1041878Y838835D03*
X1080540Y1169035D03*
X1081810Y949960D03*
X1036320Y844550D03*
X1071396Y1169035D03*
X1079016Y938530D03*
X1091618Y838782D03*
X1024255Y844550D03*
X1041030Y1201420D03*
X1076695Y1201420D03*
D11*
X1024255Y854075D02*
X1024255Y844550D01*
X1091618Y838782D02*
X1093470Y840634D01*
X1024255Y854075D02*
X1019810Y858520D01*
X1019810Y863600D01*
X1023620Y867410D01*
X1078230Y867410D01*
X1089660Y855980D01*
X1093470Y852170D01*
X1093470Y840634D01*
X1076695Y1201420D02*
X1041030Y1201420D01*
X1076695Y1201420D02*
X1107440Y1170675D01*
X1107440Y873760D02*
X1089660Y855980D01*
X1107440Y944245D02*
X1107440Y1170675D01*
X1107440Y944245D02*
X1107440Y873760D01*
D10*
X1046480Y944245D03*
D12*
X1107440Y944245D01*
D10*
X1017905Y839470D03*
X1017588Y849313D03*
X1101090Y836930D03*
X1046480Y951230D03*
X1046480Y937260D03*
X1198880Y844550D03*
X1143635Y838835D03*
X1150250Y1208405D03*
X1191630Y1208405D03*
X1130300Y873760D03*
X1216025Y1210945D03*
X1125220Y1210310D03*
X1212064Y845185D03*
X1206349Y873760D03*
X1181100Y1115060D03*
X1181100Y1140460D03*
X1155700Y1115060D03*
X1155700Y1140460D03*
X1143000Y975360D03*
X1181100Y975360D03*
X1155700Y911860D03*
X1143000Y1076960D03*
X1130149Y891540D03*
X1125704Y830580D03*
X1172059Y860425D03*
X1206349Y890905D03*
X1132840Y1172210D03*
X1132840Y1182370D03*
X1172059Y876935D03*
X1139825Y860425D03*
X1193443Y838835D03*
X1188720Y843915D03*
X1183638Y838835D03*
X1178560Y843915D03*
X1173638Y838835D03*
X1169035Y848360D03*
X1163638Y838835D03*
X1158240Y844550D03*
X1153638Y838835D03*
X1192300Y1169035D03*
X1193570Y949960D03*
X1148080Y844550D03*
X1183156Y1169035D03*
X1190776Y938530D03*
X1203378Y838782D03*
X1136015Y844550D03*
X1152790Y1201420D03*
X1188455Y1201420D03*
D11*
X1136015Y854075D02*
X1136015Y844550D01*
X1203378Y838782D02*
X1205230Y840634D01*
X1136015Y854075D02*
X1131570Y858520D01*
X1131570Y863600D01*
X1135380Y867410D01*
X1189990Y867410D01*
X1201420Y855980D01*
X1205230Y852170D01*
X1205230Y840634D01*
X1188455Y1201420D02*
X1152790Y1201420D01*
X1188455Y1201420D02*
X1219200Y1170675D01*
X1219200Y873760D02*
X1201420Y855980D01*
X1219200Y944245D02*
X1219200Y1170675D01*
X1219200Y944245D02*
X1219200Y873760D01*
D10*
X1158240Y944245D03*
D12*
X1219200Y944245D01*
D10*
X1129665Y839470D03*
X1129348Y849313D03*
X1212850Y836930D03*
X1158240Y951230D03*
X1158240Y937260D03*
X1310640Y844550D03*
X1255395Y838835D03*
X1262010Y1208405D03*
X1303390Y1208405D03*
X1242060Y873760D03*
X1327785Y1210945D03*
X1236980Y1210310D03*
X1323824Y845185D03*
X1318109Y873760D03*
X1292860Y1115060D03*
X1292860Y1140460D03*
X1267460Y1115060D03*
X1267460Y1140460D03*
X1254760Y975360D03*
X1292860Y975360D03*
X1267460Y911860D03*
X1254760Y1076960D03*
X1241909Y891540D03*
X1237464Y830580D03*
X1283819Y860425D03*
X1318109Y890905D03*
X1244600Y1172210D03*
X1244600Y1182370D03*
X1283819Y876935D03*
X1251585Y860425D03*
X1305203Y838835D03*
X1300480Y843915D03*
X1295398Y838835D03*
X1290320Y843915D03*
X1285398Y838835D03*
X1280795Y848360D03*
X1275398Y838835D03*
X1270000Y844550D03*
X1265398Y838835D03*
X1304060Y1169035D03*
X1305330Y949960D03*
X1259840Y844550D03*
X1294916Y1169035D03*
X1302536Y938530D03*
X1315138Y838782D03*
X1247775Y844550D03*
X1264550Y1201420D03*
X1300215Y1201420D03*
D11*
X1247775Y854075D02*
X1247775Y844550D01*
X1315138Y838782D02*
X1316990Y840634D01*
X1247775Y854075D02*
X1243330Y858520D01*
X1243330Y863600D01*
X1247140Y867410D01*
X1301750Y867410D01*
X1313180Y855980D01*
X1316990Y852170D01*
X1316990Y840634D01*
X1300215Y1201420D02*
X1264550Y1201420D01*
X1300215Y1201420D02*
X1330960Y1170675D01*
X1330960Y873760D02*
X1313180Y855980D01*
X1330960Y944245D02*
X1330960Y1170675D01*
X1330960Y944245D02*
X1330960Y873760D01*
D10*
X1270000Y944245D03*
D12*
X1330960Y944245D01*
D10*
X1241425Y839470D03*
X1241108Y849313D03*
X1324610Y836930D03*
X1270000Y951230D03*
X1270000Y937260D03*
X1422400Y844550D03*
X1367155Y838835D03*
X1373770Y1208405D03*
X1415150Y1208405D03*
X1353820Y873760D03*
X1439545Y1210945D03*
X1348740Y1210310D03*
X1435584Y845185D03*
X1429869Y873760D03*
X1404620Y1115060D03*
X1404620Y1140460D03*
X1379220Y1115060D03*
X1379220Y1140460D03*
X1366520Y975360D03*
X1404620Y975360D03*
X1379220Y911860D03*
X1366520Y1076960D03*
X1353669Y891540D03*
X1349224Y830580D03*
X1395579Y860425D03*
X1429869Y890905D03*
X1356360Y1172210D03*
X1356360Y1182370D03*
X1395579Y876935D03*
X1363345Y860425D03*
X1416963Y838835D03*
X1412240Y843915D03*
X1407158Y838835D03*
X1402080Y843915D03*
X1397158Y838835D03*
X1392555Y848360D03*
X1387158Y838835D03*
X1381760Y844550D03*
X1377158Y838835D03*
X1415820Y1169035D03*
X1417090Y949960D03*
X1371600Y844550D03*
X1406676Y1169035D03*
X1414296Y938530D03*
X1426898Y838782D03*
X1359535Y844550D03*
X1376310Y1201420D03*
X1411975Y1201420D03*
D11*
X1359535Y854075D02*
X1359535Y844550D01*
X1426898Y838782D02*
X1428750Y840634D01*
X1359535Y854075D02*
X1355090Y858520D01*
X1355090Y863600D01*
X1358900Y867410D01*
X1413510Y867410D01*
X1424940Y855980D01*
X1428750Y852170D01*
X1428750Y840634D01*
X1411975Y1201420D02*
X1376310Y1201420D01*
X1411975Y1201420D02*
X1442720Y1170675D01*
X1442720Y873760D02*
X1424940Y855980D01*
X1442720Y944245D02*
X1442720Y1170675D01*
X1442720Y944245D02*
X1442720Y873760D01*
D10*
X1381760Y944245D03*
D12*
X1442720Y944245D01*
D10*
X1353185Y839470D03*
X1352868Y849313D03*
X1436370Y836930D03*
X1381760Y951230D03*
X1381760Y937260D03*
X1534160Y844550D03*
X1478915Y838835D03*
X1485530Y1208405D03*
X1526910Y1208405D03*
X1465580Y873760D03*
X1551305Y1210945D03*
X1460500Y1210310D03*
X1547344Y845185D03*
X1541629Y873760D03*
X1516380Y1115060D03*
X1516380Y1140460D03*
X1490980Y1115060D03*
X1490980Y1140460D03*
X1478280Y975360D03*
X1516380Y975360D03*
X1490980Y911860D03*
X1478280Y1076960D03*
X1465429Y891540D03*
X1460984Y830580D03*
X1507339Y860425D03*
X1541629Y890905D03*
X1468120Y1172210D03*
X1468120Y1182370D03*
X1507339Y876935D03*
X1475105Y860425D03*
X1528723Y838835D03*
X1524000Y843915D03*
X1518918Y838835D03*
X1513840Y843915D03*
X1508918Y838835D03*
X1504315Y848360D03*
X1498918Y838835D03*
X1493520Y844550D03*
X1488918Y838835D03*
X1527580Y1169035D03*
X1528850Y949960D03*
X1483360Y844550D03*
X1518436Y1169035D03*
X1526056Y938530D03*
X1538658Y838782D03*
X1471295Y844550D03*
X1488070Y1201420D03*
X1523735Y1201420D03*
D11*
X1471295Y854075D02*
X1471295Y844550D01*
X1538658Y838782D02*
X1540510Y840634D01*
X1471295Y854075D02*
X1466850Y858520D01*
X1466850Y863600D01*
X1470660Y867410D01*
X1525270Y867410D01*
X1536700Y855980D01*
X1540510Y852170D01*
X1540510Y840634D01*
X1523735Y1201420D02*
X1488070Y1201420D01*
X1523735Y1201420D02*
X1554480Y1170675D01*
X1554480Y873760D02*
X1536700Y855980D01*
X1554480Y944245D02*
X1554480Y1170675D01*
X1554480Y944245D02*
X1554480Y873760D01*
D10*
X1493520Y944245D03*
D12*
X1554480Y944245D01*
D10*
X1464945Y839470D03*
X1464628Y849313D03*
X1548130Y836930D03*
X1493520Y951230D03*
X1493520Y937260D03*
X1645920Y844550D03*
X1590675Y838835D03*
X1597290Y1208405D03*
X1638670Y1208405D03*
X1577340Y873760D03*
X1663065Y1210945D03*
X1572260Y1210310D03*
X1659104Y845185D03*
X1653389Y873760D03*
X1628140Y1115060D03*
X1628140Y1140460D03*
X1602740Y1115060D03*
X1602740Y1140460D03*
X1590040Y975360D03*
X1628140Y975360D03*
X1602740Y911860D03*
X1590040Y1076960D03*
X1577189Y891540D03*
X1572744Y830580D03*
X1619099Y860425D03*
X1653389Y890905D03*
X1579880Y1172210D03*
X1579880Y1182370D03*
X1619099Y876935D03*
X1586865Y860425D03*
X1640483Y838835D03*
X1635760Y843915D03*
X1630678Y838835D03*
X1625600Y843915D03*
X1620678Y838835D03*
X1616075Y848360D03*
X1610678Y838835D03*
X1605280Y844550D03*
X1600678Y838835D03*
X1639340Y1169035D03*
X1640610Y949960D03*
X1595120Y844550D03*
X1630196Y1169035D03*
X1637816Y938530D03*
X1650418Y838782D03*
X1583055Y844550D03*
X1599830Y1201420D03*
X1635495Y1201420D03*
D11*
X1583055Y854075D02*
X1583055Y844550D01*
X1650418Y838782D02*
X1652270Y840634D01*
X1583055Y854075D02*
X1578610Y858520D01*
X1578610Y863600D01*
X1582420Y867410D01*
X1637030Y867410D01*
X1648460Y855980D01*
X1652270Y852170D01*
X1652270Y840634D01*
X1635495Y1201420D02*
X1599830Y1201420D01*
X1635495Y1201420D02*
X1666240Y1170675D01*
X1666240Y873760D02*
X1648460Y855980D01*
X1666240Y944245D02*
X1666240Y1170675D01*
X1666240Y944245D02*
X1666240Y873760D01*
D10*
X1605280Y944245D03*
D12*
X1666240Y944245D01*
D10*
X1576705Y839470D03*
X1576388Y849313D03*
X1659890Y836930D03*
X1605280Y951230D03*
X1605280Y937260D03*
X1757680Y844550D03*
X1702435Y838835D03*
X1709050Y1208405D03*
X1750430Y1208405D03*
X1689100Y873760D03*
X1774825Y1210945D03*
X1684020Y1210310D03*
X1770864Y845185D03*
X1765149Y873760D03*
X1739900Y1115060D03*
X1739900Y1140460D03*
X1714500Y1115060D03*
X1714500Y1140460D03*
X1701800Y975360D03*
X1739900Y975360D03*
X1714500Y911860D03*
X1701800Y1076960D03*
X1688949Y891540D03*
X1684504Y830580D03*
X1730859Y860425D03*
X1765149Y890905D03*
X1691640Y1172210D03*
X1691640Y1182370D03*
X1730859Y876935D03*
X1698625Y860425D03*
X1752243Y838835D03*
X1747520Y843915D03*
X1742438Y838835D03*
X1737360Y843915D03*
X1732438Y838835D03*
X1727835Y848360D03*
X1722438Y838835D03*
X1717040Y844550D03*
X1712438Y838835D03*
X1751100Y1169035D03*
X1752370Y949960D03*
X1706880Y844550D03*
X1741956Y1169035D03*
X1749576Y938530D03*
X1762178Y838782D03*
X1694815Y844550D03*
X1711590Y1201420D03*
X1747255Y1201420D03*
D11*
X1694815Y854075D02*
X1694815Y844550D01*
X1762178Y838782D02*
X1764030Y840634D01*
X1694815Y854075D02*
X1690370Y858520D01*
X1690370Y863600D01*
X1694180Y867410D01*
X1748790Y867410D01*
X1760220Y855980D01*
X1764030Y852170D01*
X1764030Y840634D01*
X1747255Y1201420D02*
X1711590Y1201420D01*
X1747255Y1201420D02*
X1778000Y1170675D01*
X1778000Y873760D02*
X1760220Y855980D01*
X1778000Y944245D02*
X1778000Y1170675D01*
X1778000Y944245D02*
X1778000Y873760D01*
D10*
X1717040Y944245D03*
D12*
X1778000Y944245D01*
D10*
X1688465Y839470D03*
X1688148Y849313D03*
X1771650Y836930D03*
X1717040Y951230D03*
X1717040Y937260D03*
M02*
