M48
;GenerationSoftware,Autodesk,EAGLE,9.6.2*%
;CreationDate,2021-11-09T14:22:37Z*%
FMAT,2
ICI,OFF
METRIC,TZ,000.000
T1C0.300
%
G90
M71
T1
X8128Y2159
X2604Y1587
X3265Y38545
X7403Y38545
X1270Y36259
X1255Y4255
X8700Y35560
X10097Y40069
X635Y39116
X9446Y2223
X8875Y5080
X1953Y30924
X1953Y29908
X5954Y26098
X5954Y28130
X5509Y19050
X5509Y22542
X5509Y13970
X5509Y10160
X2525Y24130
X2525Y8890
X810Y762
X5446Y3746
X8875Y6794
X5700Y31178
X3175Y35560
X5446Y5398
X7584Y1587
X7112Y2096
X6604Y1587
X6096Y2096
X5604Y1587
X5144Y2540
X4604Y1587
X4064Y2159
X3604Y1587
X7597Y31178
X3048Y2159
X7318Y32067
X8578Y1582
X1841Y2159
X3519Y37846
X7085Y37846
X1207Y1651
X1175Y2635
X9525Y1397
X19304Y2159
X13779Y1587
X14441Y38545
X18579Y38545
X12446Y36259
X12431Y4255
X19876Y35560
X21273Y40069
X11811Y39116
X20622Y2223
X20051Y5080
X13129Y30924
X13129Y29908
X17130Y26098
X17130Y28130
X16685Y19050
X16685Y22542
X16685Y13970
X16685Y10160
X13701Y24130
X13701Y8890
X11986Y762
X16622Y3746
X20051Y6794
X16876Y31178
X14351Y35560
X16622Y5398
X18760Y1587
X18288Y2096
X17780Y1587
X17272Y2096
X16780Y1587
X16319Y2540
X15780Y1587
X15240Y2159
X14780Y1587
X18773Y31178
X14224Y2159
X18494Y32067
X19754Y1582
X13017Y2159
X14695Y37846
X18262Y37846
X12382Y1651
X12351Y2635
X20701Y1397
X30480Y2159
X24955Y1587
X25617Y38545
X29755Y38545
X23622Y36259
X23607Y4255
X31051Y35560
X32448Y40069
X22987Y39116
X31798Y2223
X31227Y5080
X24305Y30924
X24305Y29908
X28306Y26098
X28306Y28130
X27861Y19050
X27861Y22542
X27861Y13970
X27861Y10160
X24877Y24130
X24877Y8890
X23162Y762
X27798Y3746
X31227Y6794
X28052Y31178
X25527Y35560
X27798Y5398
X29936Y1587
X29464Y2096
X28956Y1587
X28448Y2096
X27956Y1587
X27495Y2540
X26956Y1587
X26416Y2159
X25956Y1587
X29949Y31178
X25400Y2159
X29670Y32067
X30930Y1582
X24193Y2159
X25871Y37846
X29437Y37846
X23558Y1651
X23527Y2635
X31877Y1397
X41656Y2159
X36132Y1587
X36793Y38545
X40931Y38545
X34798Y36259
X34783Y4255
X42228Y35560
X43625Y40069
X34163Y39116
X42974Y2223
X42403Y5080
X35481Y30924
X35481Y29908
X39482Y26098
X39482Y28130
X39037Y19050
X39037Y22542
X39037Y13970
X39037Y10160
X36053Y24130
X36053Y8890
X34338Y762
X38974Y3746
X42403Y6794
X39228Y31178
X36703Y35560
X38974Y5398
X41112Y1587
X40640Y2096
X40132Y1587
X39624Y2096
X39132Y1587
X38672Y2540
X38132Y1587
X37592Y2159
X37132Y1587
X41125Y31178
X36576Y2159
X40846Y32067
X42106Y1582
X35370Y2159
X37047Y37846
X40614Y37846
X34735Y1651
X34703Y2635
X43053Y1397
X52832Y2159
X47307Y1587
X47969Y38545
X52107Y38545
X45974Y36259
X45959Y4255
X53403Y35560
X54800Y40069
X45339Y39116
X54150Y2223
X53579Y5080
X46657Y30924
X46657Y29908
X50658Y26098
X50658Y28130
X50213Y19050
X50213Y22542
X50213Y13970
X50213Y10160
X47229Y24130
X47229Y8890
X45514Y762
X50150Y3746
X53579Y6794
X50404Y31178
X47879Y35560
X50150Y5398
X52288Y1587
X51816Y2096
X51308Y1587
X50800Y2096
X50308Y1587
X49847Y2540
X49308Y1587
X48768Y2159
X48308Y1587
X52301Y31178
X47752Y2159
X52022Y32067
X53282Y1582
X46545Y2159
X48223Y37846
X51789Y37846
X45910Y1651
X45879Y2635
X54229Y1397
X64008Y2159
X58483Y1587
X59145Y38545
X63283Y38545
X57150Y36259
X57135Y4255
X64579Y35560
X65977Y40069
X56515Y39116
X65326Y2223
X64755Y5080
X57833Y30924
X57833Y29908
X61834Y26098
X61834Y28130
X61389Y19050
X61389Y22542
X61389Y13970
X61389Y10160
X58405Y24130
X58405Y8890
X56690Y762
X61326Y3746
X64755Y6794
X61580Y31178
X59055Y35560
X61326Y5398
X63464Y1587
X62992Y2096
X62484Y1587
X61976Y2096
X61484Y1587
X61023Y2540
X60484Y1587
X59944Y2159
X59484Y1587
X63477Y31178
X58928Y2159
X63198Y32067
X64458Y1582
X57721Y2159
X59399Y37846
X62965Y37846
X57086Y1651
X57055Y2635
X65405Y1397
X75184Y2159
X69660Y1587
X70321Y38545
X74459Y38545
X68326Y36259
X68311Y4255
X75756Y35560
X77153Y40069
X67691Y39116
X76502Y2223
X75931Y5080
X69009Y30924
X69009Y29908
X73010Y26098
X73010Y28130
X72565Y19050
X72565Y22542
X72565Y13970
X72565Y10160
X69581Y24130
X69581Y8890
X67866Y762
X72502Y3746
X75931Y6794
X72756Y31178
X70231Y35560
X72502Y5398
X74640Y1587
X74168Y2096
X73660Y1587
X73152Y2096
X72660Y1587
X72200Y2540
X71660Y1587
X71120Y2159
X70660Y1587
X74653Y31178
X70104Y2159
X74374Y32067
X75634Y1582
X68898Y2159
X70575Y37846
X74142Y37846
X68263Y1651
X68231Y2635
X76581Y1397
X86360Y2159
X80836Y1587
X81497Y38545
X85635Y38545
X79502Y36259
X79487Y4255
X86932Y35560
X88328Y40069
X78867Y39116
X87678Y2223
X87107Y5080
X80185Y30924
X80185Y29908
X84186Y26098
X84186Y28130
X83741Y19050
X83741Y22542
X83741Y13970
X83741Y10160
X80757Y24130
X80757Y8890
X79042Y762
X83678Y3746
X87107Y6794
X83932Y31178
X81407Y35560
X83678Y5398
X85816Y1587
X85344Y2096
X84836Y1587
X84328Y2096
X83836Y1587
X83376Y2540
X82836Y1587
X82296Y2159
X81836Y1587
X85829Y31178
X81280Y2159
X85550Y32067
X86810Y1582
X80074Y2159
X81751Y37846
X85318Y37846
X79439Y1651
X79407Y2635
X87757Y1397
X97536Y2159
X92011Y1587
X92673Y38545
X96811Y38545
X90678Y36259
X90663Y4255
X98107Y35560
X99504Y40069
X90043Y39116
X98854Y2223
X98283Y5080
X91361Y30924
X91361Y29908
X95362Y26098
X95362Y28130
X94917Y19050
X94917Y22542
X94917Y13970
X94917Y10160
X91933Y24130
X91933Y8890
X90218Y762
X94854Y3746
X98283Y6794
X95108Y31178
X92583Y35560
X94854Y5398
X96992Y1587
X96520Y2096
X96012Y1587
X95504Y2096
X95012Y1587
X94551Y2540
X94012Y1587
X93472Y2159
X93012Y1587
X97005Y31178
X92456Y2159
X96726Y32067
X97986Y1582
X91249Y2159
X92927Y37846
X96493Y37846
X90614Y1651
X90583Y2635
X98933Y1397
X108712Y2159
X103187Y1587
X103849Y38545
X107987Y38545
X101854Y36259
X101839Y4255
X109283Y35560
X110680Y40069
X101219Y39116
X110030Y2223
X109459Y5080
X102537Y30924
X102537Y29908
X106538Y26098
X106538Y28130
X106093Y19050
X106093Y22542
X106093Y13970
X106093Y10160
X103109Y24130
X103109Y8890
X101394Y762
X106030Y3746
X109459Y6794
X106284Y31178
X103759Y35560
X106030Y5398
X108168Y1587
X107696Y2096
X107188Y1587
X106680Y2096
X106188Y1587
X105727Y2540
X105188Y1587
X104648Y2159
X104188Y1587
X108181Y31178
X103632Y2159
X107902Y32067
X109162Y1582
X102425Y2159
X104103Y37846
X107669Y37846
X101790Y1651
X101759Y2635
X110109Y1397
X119888Y2159
X114363Y1587
X115025Y38545
X119163Y38545
X113030Y36259
X113015Y4255
X120459Y35560
X121856Y40069
X112395Y39116
X121206Y2223
X120635Y5080
X113713Y30924
X113713Y29908
X117714Y26098
X117714Y28130
X117269Y19050
X117269Y22542
X117269Y13970
X117269Y10160
X114285Y24130
X114285Y8890
X112570Y762
X117206Y3746
X120635Y6794
X117460Y31178
X114935Y35560
X117206Y5398
X119344Y1587
X118872Y2096
X118364Y1587
X117856Y2096
X117364Y1587
X116903Y2540
X116364Y1587
X115824Y2159
X115364Y1587
X119357Y31178
X114808Y2159
X119078Y32067
X120338Y1582
X113601Y2159
X115279Y37846
X118845Y37846
X112966Y1651
X112935Y2635
X121285Y1397
X131064Y2159
X125539Y1587
X126201Y38545
X130339Y38545
X124206Y36259
X124191Y4255
X131636Y35560
X133033Y40069
X123571Y39116
X132382Y2223
X131811Y5080
X124889Y30924
X124889Y29908
X128890Y26098
X128890Y28130
X128445Y19050
X128445Y22542
X128445Y13970
X128445Y10160
X125461Y24130
X125461Y8890
X123746Y762
X128382Y3746
X131811Y6794
X128636Y31178
X126111Y35560
X128382Y5398
X130520Y1587
X130048Y2096
X129540Y1587
X129032Y2096
X128540Y1587
X128079Y2540
X127540Y1587
X127000Y2159
X126540Y1587
X130533Y31178
X125984Y2159
X130254Y32067
X131514Y1582
X124777Y2159
X126455Y37846
X130021Y37846
X124142Y1651
X124111Y2635
X132461Y1397
X142240Y2159
X136716Y1587
X137377Y38545
X141515Y38545
X135382Y36259
X135367Y4255
X142812Y35560
X144209Y40069
X134747Y39116
X143558Y2223
X142987Y5080
X136065Y30924
X136065Y29908
X140066Y26098
X140066Y28130
X139621Y19050
X139621Y22542
X139621Y13970
X139621Y10160
X136637Y24130
X136637Y8890
X134922Y762
X139558Y3746
X142987Y6794
X139812Y31178
X137287Y35560
X139558Y5398
X141696Y1587
X141224Y2096
X140716Y1587
X140208Y2096
X139716Y1587
X139256Y2540
X138716Y1587
X138176Y2159
X137716Y1587
X141709Y31178
X137160Y2159
X141430Y32067
X142690Y1582
X135954Y2159
X137631Y37846
X141198Y37846
X135319Y1651
X135287Y2635
X143637Y1397
X153416Y2159
X147892Y1587
X148553Y38545
X152691Y38545
X146558Y36259
X146543Y4255
X153988Y35560
X155385Y40069
X145923Y39116
X154734Y2223
X154163Y5080
X147241Y30924
X147241Y29908
X151242Y26098
X151242Y28130
X150797Y19050
X150797Y22542
X150797Y13970
X150797Y10160
X147813Y24130
X147813Y8890
X146098Y762
X150734Y3746
X154163Y6794
X150988Y31178
X148463Y35560
X150734Y5398
X152872Y1587
X152400Y2096
X151892Y1587
X151384Y2096
X150892Y1587
X150432Y2540
X149892Y1587
X149352Y2159
X148892Y1587
X152885Y31178
X148336Y2159
X152606Y32067
X153866Y1582
X147130Y2159
X148807Y37846
X152374Y37846
X146495Y1651
X146463Y2635
X154813Y1397
X164592Y2159
X159068Y1587
X159729Y38545
X163867Y38545
X157734Y36259
X157719Y4255
X165164Y35560
X166561Y40069
X157099Y39116
X165910Y2223
X165339Y5080
X158417Y30924
X158417Y29908
X162418Y26098
X162418Y28130
X161973Y19050
X161973Y22542
X161973Y13970
X161973Y10160
X158989Y24130
X158989Y8890
X157274Y762
X161910Y3746
X165339Y6794
X162164Y31178
X159639Y35560
X161910Y5398
X164048Y1587
X163576Y2096
X163068Y1587
X162560Y2096
X162068Y1587
X161608Y2540
X161068Y1587
X160528Y2159
X160068Y1587
X164061Y31178
X159512Y2159
X163782Y32067
X165042Y1582
X158306Y2159
X159983Y37846
X163550Y37846
X157671Y1651
X157639Y2635
X165989Y1397
X175768Y2159
X170244Y1587
X170905Y38545
X175043Y38545
X168910Y36259
X168895Y4255
X176339Y35560
X177736Y40069
X168275Y39116
X177086Y2223
X176515Y5080
X169593Y30924
X169593Y29908
X173594Y26098
X173594Y28130
X173149Y19050
X173149Y22542
X173149Y13970
X173149Y10160
X170165Y24130
X170165Y8890
X168450Y762
X173086Y3746
X176515Y6794
X173340Y31178
X170815Y35560
X173086Y5398
X175224Y1587
X174752Y2096
X174244Y1587
X173736Y2096
X173244Y1587
X172784Y2540
X172244Y1587
X171704Y2159
X171244Y1587
X175237Y31178
X170688Y2159
X174958Y32067
X176218Y1582
X169482Y2159
X171159Y37846
X174726Y37846
X168847Y1651
X168815Y2635
X177165Y1397
X8128Y43307
X2604Y42736
X3265Y79693
X7403Y79693
X1270Y77407
X1255Y45402
X8700Y76708
X10097Y81217
X635Y80264
X9446Y43371
X8875Y46228
X1953Y72073
X1953Y71057
X5954Y67247
X5954Y69279
X5509Y60198
X5509Y63690
X5509Y55118
X5509Y51308
X2525Y65278
X2525Y50038
X810Y41910
X5446Y44894
X8875Y47942
X5700Y72327
X3175Y76708
X5446Y46545
X7584Y42736
X7112Y43244
X6604Y42736
X6096Y43244
X5604Y42736
X5144Y43688
X4604Y42736
X4064Y43307
X3604Y42736
X7597Y72327
X3048Y43307
X7318Y73216
X8578Y42730
X1841Y43307
X3519Y78994
X7085Y78994
X1207Y42799
X1175Y43783
X9525Y42545
X19304Y43307
X13779Y42736
X14441Y79693
X18579Y79693
X12446Y77407
X12431Y45402
X19876Y76708
X21273Y81217
X11811Y80264
X20622Y43371
X20051Y46228
X13129Y72073
X13129Y71057
X17130Y67247
X17130Y69279
X16685Y60198
X16685Y63690
X16685Y55118
X16685Y51308
X13701Y65278
X13701Y50038
X11986Y41910
X16622Y44894
X20051Y47942
X16876Y72327
X14351Y76708
X16622Y46545
X18760Y42736
X18288Y43244
X17780Y42736
X17272Y43244
X16780Y42736
X16319Y43688
X15780Y42736
X15240Y43307
X14780Y42736
X18773Y72327
X14224Y43307
X18494Y73216
X19754Y42730
X13017Y43307
X14695Y78994
X18262Y78994
X12382Y42799
X12351Y43783
X20701Y42545
X30480Y43307
X24955Y42736
X25617Y79693
X29755Y79693
X23622Y77407
X23607Y45402
X31051Y76708
X32448Y81217
X22987Y80264
X31798Y43371
X31227Y46228
X24305Y72073
X24305Y71057
X28306Y67247
X28306Y69279
X27861Y60198
X27861Y63690
X27861Y55118
X27861Y51308
X24877Y65278
X24877Y50038
X23162Y41910
X27798Y44894
X31227Y47942
X28052Y72327
X25527Y76708
X27798Y46545
X29936Y42736
X29464Y43244
X28956Y42736
X28448Y43244
X27956Y42736
X27495Y43688
X26956Y42736
X26416Y43307
X25956Y42736
X29949Y72327
X25400Y43307
X29670Y73216
X30930Y42730
X24193Y43307
X25871Y78994
X29437Y78994
X23558Y42799
X23527Y43783
X31877Y42545
X41656Y43307
X36132Y42736
X36793Y79693
X40931Y79693
X34798Y77407
X34783Y45402
X42228Y76708
X43625Y81217
X34163Y80264
X42974Y43371
X42403Y46228
X35481Y72073
X35481Y71057
X39482Y67247
X39482Y69279
X39037Y60198
X39037Y63690
X39037Y55118
X39037Y51308
X36053Y65278
X36053Y50038
X34338Y41910
X38974Y44894
X42403Y47942
X39228Y72327
X36703Y76708
X38974Y46545
X41112Y42736
X40640Y43244
X40132Y42736
X39624Y43244
X39132Y42736
X38672Y43688
X38132Y42736
X37592Y43307
X37132Y42736
X41125Y72327
X36576Y43307
X40846Y73216
X42106Y42730
X35370Y43307
X37047Y78994
X40614Y78994
X34735Y42799
X34703Y43783
X43053Y42545
X52832Y43307
X47307Y42736
X47969Y79693
X52107Y79693
X45974Y77407
X45959Y45402
X53403Y76708
X54800Y81217
X45339Y80264
X54150Y43371
X53579Y46228
X46657Y72073
X46657Y71057
X50658Y67247
X50658Y69279
X50213Y60198
X50213Y63690
X50213Y55118
X50213Y51308
X47229Y65278
X47229Y50038
X45514Y41910
X50150Y44894
X53579Y47942
X50404Y72327
X47879Y76708
X50150Y46545
X52288Y42736
X51816Y43244
X51308Y42736
X50800Y43244
X50308Y42736
X49847Y43688
X49308Y42736
X48768Y43307
X48308Y42736
X52301Y72327
X47752Y43307
X52022Y73216
X53282Y42730
X46545Y43307
X48223Y78994
X51789Y78994
X45910Y42799
X45879Y43783
X54229Y42545
X64008Y43307
X58483Y42736
X59145Y79693
X63283Y79693
X57150Y77407
X57135Y45402
X64579Y76708
X65977Y81217
X56515Y80264
X65326Y43371
X64755Y46228
X57833Y72073
X57833Y71057
X61834Y67247
X61834Y69279
X61389Y60198
X61389Y63690
X61389Y55118
X61389Y51308
X58405Y65278
X58405Y50038
X56690Y41910
X61326Y44894
X64755Y47942
X61580Y72327
X59055Y76708
X61326Y46545
X63464Y42736
X62992Y43244
X62484Y42736
X61976Y43244
X61484Y42736
X61023Y43688
X60484Y42736
X59944Y43307
X59484Y42736
X63477Y72327
X58928Y43307
X63198Y73216
X64458Y42730
X57721Y43307
X59399Y78994
X62965Y78994
X57086Y42799
X57055Y43783
X65405Y42545
X75184Y43307
X69660Y42736
X70321Y79693
X74459Y79693
X68326Y77407
X68311Y45402
X75756Y76708
X77153Y81217
X67691Y80264
X76502Y43371
X75931Y46228
X69009Y72073
X69009Y71057
X73010Y67247
X73010Y69279
X72565Y60198
X72565Y63690
X72565Y55118
X72565Y51308
X69581Y65278
X69581Y50038
X67866Y41910
X72502Y44894
X75931Y47942
X72756Y72327
X70231Y76708
X72502Y46545
X74640Y42736
X74168Y43244
X73660Y42736
X73152Y43244
X72660Y42736
X72200Y43688
X71660Y42736
X71120Y43307
X70660Y42736
X74653Y72327
X70104Y43307
X74374Y73216
X75634Y42730
X68898Y43307
X70575Y78994
X74142Y78994
X68263Y42799
X68231Y43783
X76581Y42545
X86360Y43307
X80836Y42736
X81497Y79693
X85635Y79693
X79502Y77407
X79487Y45402
X86932Y76708
X88328Y81217
X78867Y80264
X87678Y43371
X87107Y46228
X80185Y72073
X80185Y71057
X84186Y67247
X84186Y69279
X83741Y60198
X83741Y63690
X83741Y55118
X83741Y51308
X80757Y65278
X80757Y50038
X79042Y41910
X83678Y44894
X87107Y47942
X83932Y72327
X81407Y76708
X83678Y46545
X85816Y42736
X85344Y43244
X84836Y42736
X84328Y43244
X83836Y42736
X83376Y43688
X82836Y42736
X82296Y43307
X81836Y42736
X85829Y72327
X81280Y43307
X85550Y73216
X86810Y42730
X80074Y43307
X81751Y78994
X85318Y78994
X79439Y42799
X79407Y43783
X87757Y42545
X97536Y43307
X92011Y42736
X92673Y79693
X96811Y79693
X90678Y77407
X90663Y45402
X98107Y76708
X99504Y81217
X90043Y80264
X98854Y43371
X98283Y46228
X91361Y72073
X91361Y71057
X95362Y67247
X95362Y69279
X94917Y60198
X94917Y63690
X94917Y55118
X94917Y51308
X91933Y65278
X91933Y50038
X90218Y41910
X94854Y44894
X98283Y47942
X95108Y72327
X92583Y76708
X94854Y46545
X96992Y42736
X96520Y43244
X96012Y42736
X95504Y43244
X95012Y42736
X94551Y43688
X94012Y42736
X93472Y43307
X93012Y42736
X97005Y72327
X92456Y43307
X96726Y73216
X97986Y42730
X91249Y43307
X92927Y78994
X96493Y78994
X90614Y42799
X90583Y43783
X98933Y42545
X108712Y43307
X103187Y42736
X103849Y79693
X107987Y79693
X101854Y77407
X101839Y45402
X109283Y76708
X110680Y81217
X101219Y80264
X110030Y43371
X109459Y46228
X102537Y72073
X102537Y71057
X106538Y67247
X106538Y69279
X106093Y60198
X106093Y63690
X106093Y55118
X106093Y51308
X103109Y65278
X103109Y50038
X101394Y41910
X106030Y44894
X109459Y47942
X106284Y72327
X103759Y76708
X106030Y46545
X108168Y42736
X107696Y43244
X107188Y42736
X106680Y43244
X106188Y42736
X105727Y43688
X105188Y42736
X104648Y43307
X104188Y42736
X108181Y72327
X103632Y43307
X107902Y73216
X109162Y42730
X102425Y43307
X104103Y78994
X107669Y78994
X101790Y42799
X101759Y43783
X110109Y42545
X119888Y43307
X114363Y42736
X115025Y79693
X119163Y79693
X113030Y77407
X113015Y45402
X120459Y76708
X121856Y81217
X112395Y80264
X121206Y43371
X120635Y46228
X113713Y72073
X113713Y71057
X117714Y67247
X117714Y69279
X117269Y60198
X117269Y63690
X117269Y55118
X117269Y51308
X114285Y65278
X114285Y50038
X112570Y41910
X117206Y44894
X120635Y47942
X117460Y72327
X114935Y76708
X117206Y46545
X119344Y42736
X118872Y43244
X118364Y42736
X117856Y43244
X117364Y42736
X116903Y43688
X116364Y42736
X115824Y43307
X115364Y42736
X119357Y72327
X114808Y43307
X119078Y73216
X120338Y42730
X113601Y43307
X115279Y78994
X118845Y78994
X112966Y42799
X112935Y43783
X121285Y42545
X131064Y43307
X125539Y42736
X126201Y79693
X130339Y79693
X124206Y77407
X124191Y45402
X131636Y76708
X133033Y81217
X123571Y80264
X132382Y43371
X131811Y46228
X124889Y72073
X124889Y71057
X128890Y67247
X128890Y69279
X128445Y60198
X128445Y63690
X128445Y55118
X128445Y51308
X125461Y65278
X125461Y50038
X123746Y41910
X128382Y44894
X131811Y47942
X128636Y72327
X126111Y76708
X128382Y46545
X130520Y42736
X130048Y43244
X129540Y42736
X129032Y43244
X128540Y42736
X128079Y43688
X127540Y42736
X127000Y43307
X126540Y42736
X130533Y72327
X125984Y43307
X130254Y73216
X131514Y42730
X124777Y43307
X126455Y78994
X130021Y78994
X124142Y42799
X124111Y43783
X132461Y42545
X142240Y43307
X136716Y42736
X137377Y79693
X141515Y79693
X135382Y77407
X135367Y45402
X142812Y76708
X144209Y81217
X134747Y80264
X143558Y43371
X142987Y46228
X136065Y72073
X136065Y71057
X140066Y67247
X140066Y69279
X139621Y60198
X139621Y63690
X139621Y55118
X139621Y51308
X136637Y65278
X136637Y50038
X134922Y41910
X139558Y44894
X142987Y47942
X139812Y72327
X137287Y76708
X139558Y46545
X141696Y42736
X141224Y43244
X140716Y42736
X140208Y43244
X139716Y42736
X139256Y43688
X138716Y42736
X138176Y43307
X137716Y42736
X141709Y72327
X137160Y43307
X141430Y73216
X142690Y42730
X135954Y43307
X137631Y78994
X141198Y78994
X135319Y42799
X135287Y43783
X143637Y42545
X153416Y43307
X147892Y42736
X148553Y79693
X152691Y79693
X146558Y77407
X146543Y45402
X153988Y76708
X155385Y81217
X145923Y80264
X154734Y43371
X154163Y46228
X147241Y72073
X147241Y71057
X151242Y67247
X151242Y69279
X150797Y60198
X150797Y63690
X150797Y55118
X150797Y51308
X147813Y65278
X147813Y50038
X146098Y41910
X150734Y44894
X154163Y47942
X150988Y72327
X148463Y76708
X150734Y46545
X152872Y42736
X152400Y43244
X151892Y42736
X151384Y43244
X150892Y42736
X150432Y43688
X149892Y42736
X149352Y43307
X148892Y42736
X152885Y72327
X148336Y43307
X152606Y73216
X153866Y42730
X147130Y43307
X148807Y78994
X152374Y78994
X146495Y42799
X146463Y43783
X154813Y42545
X164592Y43307
X159068Y42736
X159729Y79693
X163867Y79693
X157734Y77407
X157719Y45402
X165164Y76708
X166561Y81217
X157099Y80264
X165910Y43371
X165339Y46228
X158417Y72073
X158417Y71057
X162418Y67247
X162418Y69279
X161973Y60198
X161973Y63690
X161973Y55118
X161973Y51308
X158989Y65278
X158989Y50038
X157274Y41910
X161910Y44894
X165339Y47942
X162164Y72327
X159639Y76708
X161910Y46545
X164048Y42736
X163576Y43244
X163068Y42736
X162560Y43244
X162068Y42736
X161608Y43688
X161068Y42736
X160528Y43307
X160068Y42736
X164061Y72327
X159512Y43307
X163782Y73216
X165042Y42730
X158306Y43307
X159983Y78994
X163550Y78994
X157671Y42799
X157639Y43783
X165989Y42545
X175768Y43307
X170244Y42736
X170905Y79693
X175043Y79693
X168910Y77407
X168895Y45402
X176339Y76708
X177736Y81217
X168275Y80264
X177086Y43371
X176515Y46228
X169593Y72073
X169593Y71057
X173594Y67247
X173594Y69279
X173149Y60198
X173149Y63690
X173149Y55118
X173149Y51308
X170165Y65278
X170165Y50038
X168450Y41910
X173086Y44894
X176515Y47942
X173340Y72327
X170815Y76708
X173086Y46545
X175224Y42736
X174752Y43244
X174244Y42736
X173736Y43244
X173244Y42736
X172784Y43688
X172244Y42736
X171704Y43307
X171244Y42736
X175237Y72327
X170688Y43307
X174958Y73216
X176218Y42730
X169482Y43307
X171159Y78994
X174726Y78994
X168847Y42799
X168815Y43783
X177165Y42545
X8128Y84455
X2604Y83884
X3265Y120840
X7403Y120840
X1270Y118554
X1255Y86551
X8700Y117856
X10097Y122364
X635Y121412
X9446Y84519
X8875Y87376
X1953Y113220
X1953Y112204
X5954Y108394
X5954Y110426
X5509Y101346
X5509Y104838
X5509Y96266
X5509Y92456
X2525Y106426
X2525Y91186
X810Y83058
X5446Y86043
X8875Y89090
X5700Y113474
X3175Y117856
X5446Y87693
X7584Y83884
X7112Y84392
X6604Y83884
X6096Y84392
X5604Y83884
X5144Y84836
X4604Y83884
X4064Y84455
X3604Y83884
X7597Y113474
X3048Y84455
X7318Y114363
X8578Y83878
X1841Y84455
X3519Y120142
X7085Y120142
X1207Y83947
X1175Y84931
X9525Y83693
X19304Y84455
X13779Y83884
X14441Y120840
X18579Y120840
X12446Y118554
X12431Y86551
X19876Y117856
X21273Y122364
X11811Y121412
X20622Y84519
X20051Y87376
X13129Y113220
X13129Y112204
X17130Y108394
X17130Y110426
X16685Y101346
X16685Y104838
X16685Y96266
X16685Y92456
X13701Y106426
X13701Y91186
X11986Y83058
X16622Y86043
X20051Y89090
X16876Y113474
X14351Y117856
X16622Y87693
X18760Y83884
X18288Y84392
X17780Y83884
X17272Y84392
X16780Y83884
X16319Y84836
X15780Y83884
X15240Y84455
X14780Y83884
X18773Y113474
X14224Y84455
X18494Y114363
X19754Y83878
X13017Y84455
X14695Y120142
X18262Y120142
X12382Y83947
X12351Y84931
X20701Y83693
X30480Y84455
X24955Y83884
X25617Y120840
X29755Y120840
X23622Y118554
X23607Y86551
X31051Y117856
X32448Y122364
X22987Y121412
X31798Y84519
X31227Y87376
X24305Y113220
X24305Y112204
X28306Y108394
X28306Y110426
X27861Y101346
X27861Y104838
X27861Y96266
X27861Y92456
X24877Y106426
X24877Y91186
X23162Y83058
X27798Y86043
X31227Y89090
X28052Y113474
X25527Y117856
X27798Y87693
X29936Y83884
X29464Y84392
X28956Y83884
X28448Y84392
X27956Y83884
X27495Y84836
X26956Y83884
X26416Y84455
X25956Y83884
X29949Y113474
X25400Y84455
X29670Y114363
X30930Y83878
X24193Y84455
X25871Y120142
X29437Y120142
X23558Y83947
X23527Y84931
X31877Y83693
X41656Y84455
X36132Y83884
X36793Y120840
X40931Y120840
X34798Y118554
X34783Y86551
X42228Y117856
X43625Y122364
X34163Y121412
X42974Y84519
X42403Y87376
X35481Y113220
X35481Y112204
X39482Y108394
X39482Y110426
X39037Y101346
X39037Y104838
X39037Y96266
X39037Y92456
X36053Y106426
X36053Y91186
X34338Y83058
X38974Y86043
X42403Y89090
X39228Y113474
X36703Y117856
X38974Y87693
X41112Y83884
X40640Y84392
X40132Y83884
X39624Y84392
X39132Y83884
X38672Y84836
X38132Y83884
X37592Y84455
X37132Y83884
X41125Y113474
X36576Y84455
X40846Y114363
X42106Y83878
X35370Y84455
X37047Y120142
X40614Y120142
X34735Y83947
X34703Y84931
X43053Y83693
X52832Y84455
X47307Y83884
X47969Y120840
X52107Y120840
X45974Y118554
X45959Y86551
X53403Y117856
X54800Y122364
X45339Y121412
X54150Y84519
X53579Y87376
X46657Y113220
X46657Y112204
X50658Y108394
X50658Y110426
X50213Y101346
X50213Y104838
X50213Y96266
X50213Y92456
X47229Y106426
X47229Y91186
X45514Y83058
X50150Y86043
X53579Y89090
X50404Y113474
X47879Y117856
X50150Y87693
X52288Y83884
X51816Y84392
X51308Y83884
X50800Y84392
X50308Y83884
X49847Y84836
X49308Y83884
X48768Y84455
X48308Y83884
X52301Y113474
X47752Y84455
X52022Y114363
X53282Y83878
X46545Y84455
X48223Y120142
X51789Y120142
X45910Y83947
X45879Y84931
X54229Y83693
X64008Y84455
X58483Y83884
X59145Y120840
X63283Y120840
X57150Y118554
X57135Y86551
X64579Y117856
X65977Y122364
X56515Y121412
X65326Y84519
X64755Y87376
X57833Y113220
X57833Y112204
X61834Y108394
X61834Y110426
X61389Y101346
X61389Y104838
X61389Y96266
X61389Y92456
X58405Y106426
X58405Y91186
X56690Y83058
X61326Y86043
X64755Y89090
X61580Y113474
X59055Y117856
X61326Y87693
X63464Y83884
X62992Y84392
X62484Y83884
X61976Y84392
X61484Y83884
X61023Y84836
X60484Y83884
X59944Y84455
X59484Y83884
X63477Y113474
X58928Y84455
X63198Y114363
X64458Y83878
X57721Y84455
X59399Y120142
X62965Y120142
X57086Y83947
X57055Y84931
X65405Y83693
X75184Y84455
X69660Y83884
X70321Y120840
X74459Y120840
X68326Y118554
X68311Y86551
X75756Y117856
X77153Y122364
X67691Y121412
X76502Y84519
X75931Y87376
X69009Y113220
X69009Y112204
X73010Y108394
X73010Y110426
X72565Y101346
X72565Y104838
X72565Y96266
X72565Y92456
X69581Y106426
X69581Y91186
X67866Y83058
X72502Y86043
X75931Y89090
X72756Y113474
X70231Y117856
X72502Y87693
X74640Y83884
X74168Y84392
X73660Y83884
X73152Y84392
X72660Y83884
X72200Y84836
X71660Y83884
X71120Y84455
X70660Y83884
X74653Y113474
X70104Y84455
X74374Y114363
X75634Y83878
X68898Y84455
X70575Y120142
X74142Y120142
X68263Y83947
X68231Y84931
X76581Y83693
X86360Y84455
X80836Y83884
X81497Y120840
X85635Y120840
X79502Y118554
X79487Y86551
X86932Y117856
X88328Y122364
X78867Y121412
X87678Y84519
X87107Y87376
X80185Y113220
X80185Y112204
X84186Y108394
X84186Y110426
X83741Y101346
X83741Y104838
X83741Y96266
X83741Y92456
X80757Y106426
X80757Y91186
X79042Y83058
X83678Y86043
X87107Y89090
X83932Y113474
X81407Y117856
X83678Y87693
X85816Y83884
X85344Y84392
X84836Y83884
X84328Y84392
X83836Y83884
X83376Y84836
X82836Y83884
X82296Y84455
X81836Y83884
X85829Y113474
X81280Y84455
X85550Y114363
X86810Y83878
X80074Y84455
X81751Y120142
X85318Y120142
X79439Y83947
X79407Y84931
X87757Y83693
X97536Y84455
X92011Y83884
X92673Y120840
X96811Y120840
X90678Y118554
X90663Y86551
X98107Y117856
X99504Y122364
X90043Y121412
X98854Y84519
X98283Y87376
X91361Y113220
X91361Y112204
X95362Y108394
X95362Y110426
X94917Y101346
X94917Y104838
X94917Y96266
X94917Y92456
X91933Y106426
X91933Y91186
X90218Y83058
X94854Y86043
X98283Y89090
X95108Y113474
X92583Y117856
X94854Y87693
X96992Y83884
X96520Y84392
X96012Y83884
X95504Y84392
X95012Y83884
X94551Y84836
X94012Y83884
X93472Y84455
X93012Y83884
X97005Y113474
X92456Y84455
X96726Y114363
X97986Y83878
X91249Y84455
X92927Y120142
X96493Y120142
X90614Y83947
X90583Y84931
X98933Y83693
X108712Y84455
X103187Y83884
X103849Y120840
X107987Y120840
X101854Y118554
X101839Y86551
X109283Y117856
X110680Y122364
X101219Y121412
X110030Y84519
X109459Y87376
X102537Y113220
X102537Y112204
X106538Y108394
X106538Y110426
X106093Y101346
X106093Y104838
X106093Y96266
X106093Y92456
X103109Y106426
X103109Y91186
X101394Y83058
X106030Y86043
X109459Y89090
X106284Y113474
X103759Y117856
X106030Y87693
X108168Y83884
X107696Y84392
X107188Y83884
X106680Y84392
X106188Y83884
X105727Y84836
X105188Y83884
X104648Y84455
X104188Y83884
X108181Y113474
X103632Y84455
X107902Y114363
X109162Y83878
X102425Y84455
X104103Y120142
X107669Y120142
X101790Y83947
X101759Y84931
X110109Y83693
X119888Y84455
X114363Y83884
X115025Y120840
X119163Y120840
X113030Y118554
X113015Y86551
X120459Y117856
X121856Y122364
X112395Y121412
X121206Y84519
X120635Y87376
X113713Y113220
X113713Y112204
X117714Y108394
X117714Y110426
X117269Y101346
X117269Y104838
X117269Y96266
X117269Y92456
X114285Y106426
X114285Y91186
X112570Y83058
X117206Y86043
X120635Y89090
X117460Y113474
X114935Y117856
X117206Y87693
X119344Y83884
X118872Y84392
X118364Y83884
X117856Y84392
X117364Y83884
X116903Y84836
X116364Y83884
X115824Y84455
X115364Y83884
X119357Y113474
X114808Y84455
X119078Y114363
X120338Y83878
X113601Y84455
X115279Y120142
X118845Y120142
X112966Y83947
X112935Y84931
X121285Y83693
X131064Y84455
X125539Y83884
X126201Y120840
X130339Y120840
X124206Y118554
X124191Y86551
X131636Y117856
X133033Y122364
X123571Y121412
X132382Y84519
X131811Y87376
X124889Y113220
X124889Y112204
X128890Y108394
X128890Y110426
X128445Y101346
X128445Y104838
X128445Y96266
X128445Y92456
X125461Y106426
X125461Y91186
X123746Y83058
X128382Y86043
X131811Y89090
X128636Y113474
X126111Y117856
X128382Y87693
X130520Y83884
X130048Y84392
X129540Y83884
X129032Y84392
X128540Y83884
X128079Y84836
X127540Y83884
X127000Y84455
X126540Y83884
X130533Y113474
X125984Y84455
X130254Y114363
X131514Y83878
X124777Y84455
X126455Y120142
X130021Y120142
X124142Y83947
X124111Y84931
X132461Y83693
X142240Y84455
X136716Y83884
X137377Y120840
X141515Y120840
X135382Y118554
X135367Y86551
X142812Y117856
X144209Y122364
X134747Y121412
X143558Y84519
X142987Y87376
X136065Y113220
X136065Y112204
X140066Y108394
X140066Y110426
X139621Y101346
X139621Y104838
X139621Y96266
X139621Y92456
X136637Y106426
X136637Y91186
X134922Y83058
X139558Y86043
X142987Y89090
X139812Y113474
X137287Y117856
X139558Y87693
X141696Y83884
X141224Y84392
X140716Y83884
X140208Y84392
X139716Y83884
X139256Y84836
X138716Y83884
X138176Y84455
X137716Y83884
X141709Y113474
X137160Y84455
X141430Y114363
X142690Y83878
X135954Y84455
X137631Y120142
X141198Y120142
X135319Y83947
X135287Y84931
X143637Y83693
X153416Y84455
X147892Y83884
X148553Y120840
X152691Y120840
X146558Y118554
X146543Y86551
X153988Y117856
X155385Y122364
X145923Y121412
X154734Y84519
X154163Y87376
X147241Y113220
X147241Y112204
X151242Y108394
X151242Y110426
X150797Y101346
X150797Y104838
X150797Y96266
X150797Y92456
X147813Y106426
X147813Y91186
X146098Y83058
X150734Y86043
X154163Y89090
X150988Y113474
X148463Y117856
X150734Y87693
X152872Y83884
X152400Y84392
X151892Y83884
X151384Y84392
X150892Y83884
X150432Y84836
X149892Y83884
X149352Y84455
X148892Y83884
X152885Y113474
X148336Y84455
X152606Y114363
X153866Y83878
X147130Y84455
X148807Y120142
X152374Y120142
X146495Y83947
X146463Y84931
X154813Y83693
X164592Y84455
X159068Y83884
X159729Y120840
X163867Y120840
X157734Y118554
X157719Y86551
X165164Y117856
X166561Y122364
X157099Y121412
X165910Y84519
X165339Y87376
X158417Y113220
X158417Y112204
X162418Y108394
X162418Y110426
X161973Y101346
X161973Y104838
X161973Y96266
X161973Y92456
X158989Y106426
X158989Y91186
X157274Y83058
X161910Y86043
X165339Y89090
X162164Y113474
X159639Y117856
X161910Y87693
X164048Y83884
X163576Y84392
X163068Y83884
X162560Y84392
X162068Y83884
X161608Y84836
X161068Y83884
X160528Y84455
X160068Y83884
X164061Y113474
X159512Y84455
X163782Y114363
X165042Y83878
X158306Y84455
X159983Y120142
X163550Y120142
X157671Y83947
X157639Y84931
X165989Y83693
X175768Y84455
X170244Y83884
X170905Y120840
X175043Y120840
X168910Y118554
X168895Y86551
X176339Y117856
X177736Y122364
X168275Y121412
X177086Y84519
X176515Y87376
X169593Y113220
X169593Y112204
X173594Y108394
X173594Y110426
X173149Y101346
X173149Y104838
X173149Y96266
X173149Y92456
X170165Y106426
X170165Y91186
X168450Y83058
X173086Y86043
X176515Y89090
X173340Y113474
X170815Y117856
X173086Y87693
X175224Y83884
X174752Y84392
X174244Y83884
X173736Y84392
X173244Y83884
X172784Y84836
X172244Y83884
X171704Y84455
X171244Y83884
X175237Y113474
X170688Y84455
X174958Y114363
X176218Y83878
X169482Y84455
X171159Y120142
X174726Y120142
X168847Y83947
X168815Y84931
X177165Y83693
M30