M48
;GenerationSoftware,Autodesk,EAGLE,9.6.2*%
;CreationDate,2021-09-24T11:16:48Z*%
FMAT,2
ICI,OFF
METRIC,TZ,000.000
T1C0.200
%
G90
M71
T1
X6604Y21336
X6604Y25781
X6604Y24511
X6604Y23241
X6604Y21971
X8319Y22606
X8319Y21336
X8319Y25146
X8319Y26416
X4445Y19177
X4445Y16764
X2857Y16764
X2857Y19177
X2794Y14351
X4445Y14351
X5969Y14351
X7620Y14351
X8319Y23876
X8319Y27686
X6604Y27051
X6604Y28321
X6604Y29591
X4382Y21717
X4382Y22606
X4382Y24511
X4382Y25781
X4382Y27051
X2540Y26987
X2540Y25527
X2540Y24130
X2540Y22733
X2540Y21336
X2794Y29464
X3556Y29464
X2731Y10287
X6286Y11239
X1460Y7874
X1460Y6667
X6604Y31115
X7937Y34036
X2667Y35497
X5842Y31686
X5524Y8001
X5524Y7366
X6477Y32385
X9335Y36767
X2096Y38418
X3365Y37148
X5334Y37275
X4128Y34989
X6477Y34163
X8319Y30099
X8319Y33020
X1460Y31686
X8001Y1651
X9843Y1524
X4890Y5842
X8319Y38481
X8700Y12001
X889Y29210
X889Y38227
X7620Y16764
X5334Y2096
X1841Y3111
X7429Y5715
X7302Y19177
X7366Y36640
X5931Y26759
X1334Y4382
X9335Y18577
X9349Y34925
X9335Y17971
X9335Y35560
X2286Y32067
X5842Y9970
X5207Y9970
X8416Y34354
X8748Y34021
X9362Y16145
X8382Y13017
X9271Y5144
X9335Y13970
X7620Y11811
X9362Y9081
X9335Y14541
X9335Y15113
X3594Y12700
X7620Y39116
X6437Y5167
X4102Y12700
X7179Y38799
X6850Y5723
X4610Y12700
X6610Y38608
X5398Y6286
X2578Y12700
X7556Y4636
X6540Y4318
X1905Y13208
X6477Y3175
X2070Y12700
X9017Y20003
X9335Y19177
X862Y16194
X5969Y12698
X5407Y12700
X5905Y21844
X2667Y20830
X4013Y20830
X6331Y20893
X1433Y21118
X902Y15684
X854Y16701
X1143Y19768
X851Y19352
X889Y29718
X1524Y38238
X9323Y36195
X4445Y2159
X1841Y31305
X2286Y35052
X9335Y17399
X889Y28705
X2223Y35941
X5842Y29210
X5842Y24320
X5778Y6794
X3227Y9843
X3086Y12700
X6604Y38103
X2727Y36169
X6928Y37713
X5905Y1460
X7306Y37319
X5334Y1461
X3384Y36621
X2540Y6350
X1573Y3923
X2731Y37148
X4572Y1460
X2159Y37275
X4445Y3492
X2159Y37846
X4000Y2857
X8001Y9081
X6350Y9081
X8636Y1524
X8636Y2794
X2096Y1460
X2096Y39180
X8576Y39116
X9208Y38673
X8636Y5144
X8128Y5144
X1587Y39180
X1492Y1460
X9779Y38227
X10287Y38227
X17780Y21336
X17780Y25781
X17780Y24511
X17780Y23241
X17780Y21971
X19495Y22606
X19495Y21336
X19495Y25146
X19495Y26416
X15621Y19177
X15621Y16764
X14033Y16764
X14033Y19177
X13970Y14351
X15621Y14351
X17145Y14351
X18796Y14351
X19495Y23876
X19495Y27686
X17780Y27051
X17780Y28321
X17780Y29591
X15557Y21717
X15557Y22606
X15557Y24511
X15557Y25781
X15557Y27051
X13716Y26987
X13716Y25527
X13716Y24130
X13716Y22733
X13716Y21336
X13970Y29464
X14732Y29464
X13906Y10287
X17463Y11239
X12636Y7874
X12636Y6667
X17780Y31115
X19114Y34036
X13843Y35497
X17018Y31686
X16701Y8001
X16701Y7366
X17653Y32385
X20511Y36767
X13271Y38418
X14541Y37148
X16510Y37275
X15303Y34989
X17653Y34163
X19495Y30099
X19495Y33020
X12636Y31686
X19177Y1651
X21019Y1524
X16065Y5842
X19495Y38481
X19876Y12001
X12065Y29210
X12065Y38227
X18796Y16764
X16510Y2096
X13017Y3111
X18606Y5715
X18479Y19177
X18542Y36640
X17107Y26759
X12509Y4382
X20511Y18577
X20525Y34925
X20511Y17971
X20511Y35560
X13462Y32067
X17018Y9970
X16383Y9970
X19592Y34354
X19924Y34021
X20538Y16145
X19558Y13017
X20447Y5144
X20511Y13970
X18796Y11811
X20538Y9081
X20511Y14541
X20511Y15113
X14770Y12700
X18796Y39116
X17613Y5167
X15278Y12700
X18355Y38799
X18026Y5723
X15786Y12700
X17786Y38608
X16574Y6286
X13754Y12700
X18733Y4636
X17717Y4318
X13081Y13208
X17653Y3175
X13246Y12700
X20193Y20003
X20511Y19177
X12038Y16194
X17145Y12698
X16583Y12700
X17082Y21844
X13843Y20830
X15189Y20830
X17507Y20893
X12609Y21118
X12078Y15684
X12030Y16701
X12319Y19768
X12027Y19352
X12065Y29718
X12700Y38238
X20499Y36195
X15621Y2159
X13017Y31305
X13462Y35052
X20511Y17399
X12065Y28705
X13398Y35941
X17018Y29210
X17018Y24320
X16955Y6794
X14403Y9843
X14262Y12700
X17780Y38103
X13903Y36169
X18104Y37713
X17082Y1460
X18482Y37319
X16510Y1461
X14560Y36621
X13716Y6350
X12749Y3923
X13906Y37148
X15748Y1460
X13335Y37275
X15621Y3492
X13335Y37846
X15176Y2857
X19177Y9081
X17526Y9081
X19812Y1524
X19812Y2794
X13271Y1460
X13271Y39180
X19752Y39116
X20384Y38673
X19812Y5144
X19304Y5144
X12763Y39180
X12668Y1460
X20955Y38227
X21463Y38227
X28956Y21336
X28956Y25781
X28956Y24511
X28956Y23241
X28956Y21971
X30670Y22606
X30670Y21336
X30670Y25146
X30670Y26416
X26797Y19177
X26797Y16764
X25209Y16764
X25209Y19177
X25146Y14351
X26797Y14351
X28321Y14351
X29972Y14351
X30670Y23876
X30670Y27686
X28956Y27051
X28956Y28321
X28956Y29591
X26733Y21717
X26733Y22606
X26733Y24511
X26733Y25781
X26733Y27051
X24892Y26987
X24892Y25527
X24892Y24130
X24892Y22733
X24892Y21336
X25146Y29464
X25908Y29464
X25082Y10287
X28638Y11239
X23812Y7874
X23812Y6667
X28956Y31115
X30289Y34036
X25019Y35497
X28194Y31686
X27876Y8001
X27876Y7366
X28829Y32385
X31686Y36767
X24447Y38418
X25717Y37148
X27686Y37275
X26479Y34989
X28829Y34163
X30670Y30099
X30670Y33020
X23812Y31686
X30353Y1651
X32194Y1524
X27241Y5842
X30670Y38481
X31051Y12001
X23241Y29210
X23241Y38227
X29972Y16764
X27686Y2096
X24193Y3111
X29781Y5715
X29654Y19177
X29718Y36640
X28283Y26759
X23685Y4382
X31686Y18577
X31701Y34925
X31686Y17971
X31686Y35560
X24638Y32067
X28194Y9970
X27559Y9970
X30768Y34354
X31100Y34021
X31713Y16145
X30734Y13017
X31623Y5144
X31686Y13970
X29972Y11811
X31713Y9081
X31686Y14541
X31686Y15113
X25946Y12700
X29972Y39116
X28789Y5167
X26454Y12700
X29531Y38799
X29202Y5723
X26962Y12700
X28962Y38608
X27749Y6286
X24930Y12700
X29908Y4636
X28892Y4318
X24257Y13208
X28829Y3175
X24422Y12700
X31369Y20003
X31686Y19177
X23214Y16194
X28321Y12698
X27759Y12700
X28257Y21844
X25019Y20830
X26365Y20830
X28683Y20893
X23785Y21118
X23254Y15684
X23206Y16701
X23495Y19768
X23203Y19352
X23241Y29718
X23876Y38238
X31675Y36195
X26797Y2159
X24193Y31305
X24638Y35052
X31686Y17399
X23241Y28705
X24574Y35941
X28194Y29210
X28194Y24320
X28130Y6794
X25579Y9843
X25438Y12700
X28956Y38103
X25079Y36169
X29280Y37713
X28257Y1460
X29658Y37319
X27686Y1461
X25736Y36621
X24892Y6350
X23925Y3923
X25082Y37148
X26924Y1460
X24511Y37275
X26797Y3492
X24511Y37846
X26352Y2857
X30353Y9081
X28702Y9081
X30988Y1524
X30988Y2794
X24447Y1460
X24447Y39180
X30928Y39116
X31559Y38673
X30988Y5144
X30480Y5144
X23939Y39180
X23844Y1460
X32131Y38227
X32639Y38227
X40132Y21336
X40132Y25781
X40132Y24511
X40132Y23241
X40132Y21971
X41847Y22606
X41847Y21336
X41847Y25146
X41847Y26416
X37973Y19177
X37973Y16764
X36386Y16764
X36386Y19177
X36322Y14351
X37973Y14351
X39497Y14351
X41148Y14351
X41847Y23876
X41847Y27686
X40132Y27051
X40132Y28321
X40132Y29591
X37910Y21717
X37910Y22606
X37910Y24511
X37910Y25781
X37910Y27051
X36068Y26987
X36068Y25527
X36068Y24130
X36068Y22733
X36068Y21336
X36322Y29464
X37084Y29464
X36259Y10287
X39815Y11239
X34989Y7874
X34989Y6667
X40132Y31115
X41466Y34036
X36195Y35497
X39370Y31686
X39053Y8001
X39053Y7366
X40005Y32385
X42863Y36767
X35624Y38418
X36894Y37148
X38862Y37275
X37656Y34989
X40005Y34163
X41847Y30099
X41847Y33020
X34989Y31686
X41529Y1651
X43371Y1524
X38418Y5842
X41847Y38481
X42228Y12001
X34417Y29210
X34417Y38227
X41148Y16764
X38862Y2096
X35370Y3111
X40958Y5715
X40831Y19177
X40894Y36640
X39459Y26759
X34862Y4382
X42863Y18577
X42877Y34925
X42863Y17971
X42863Y35560
X35814Y32067
X39370Y9970
X38735Y9970
X41944Y34354
X42276Y34021
X42890Y16145
X41910Y13017
X42799Y5144
X42863Y13970
X41148Y11811
X42890Y9081
X42863Y14541
X42863Y15113
X37122Y12700
X41148Y39116
X39965Y5167
X37630Y12700
X40707Y38799
X40378Y5723
X38138Y12700
X40138Y38608
X38926Y6286
X36106Y12700
X41085Y4636
X40069Y4318
X35433Y13208
X40005Y3175
X35598Y12700
X42545Y20003
X42863Y19177
X34391Y16194
X39497Y12698
X38935Y12700
X39434Y21844
X36195Y20830
X37541Y20830
X39859Y20893
X34961Y21118
X34430Y15684
X34382Y16701
X34671Y19768
X34379Y19352
X34417Y29718
X35052Y38238
X42851Y36195
X37973Y2159
X35370Y31305
X35814Y35052
X42863Y17399
X34417Y28705
X35751Y35941
X39370Y29210
X39370Y24320
X39307Y6794
X36755Y9843
X36614Y12700
X40132Y38103
X36255Y36169
X40456Y37713
X39434Y1460
X40834Y37319
X38862Y1461
X36913Y36621
X36068Y6350
X35101Y3923
X36259Y37148
X38100Y1460
X35687Y37275
X37973Y3492
X35687Y37846
X37529Y2857
X41529Y9081
X39878Y9081
X42164Y1524
X42164Y2794
X35624Y1460
X35624Y39180
X42104Y39116
X42736Y38673
X42164Y5144
X41656Y5144
X35116Y39180
X35020Y1460
X43307Y38227
X43815Y38227
X51308Y21336
X51308Y25781
X51308Y24511
X51308Y23241
X51308Y21971
X53022Y22606
X53022Y21336
X53022Y25146
X53022Y26416
X49149Y19177
X49149Y16764
X47561Y16764
X47561Y19177
X47498Y14351
X49149Y14351
X50673Y14351
X52324Y14351
X53022Y23876
X53022Y27686
X51308Y27051
X51308Y28321
X51308Y29591
X49085Y21717
X49085Y22606
X49085Y24511
X49085Y25781
X49085Y27051
X47244Y26987
X47244Y25527
X47244Y24130
X47244Y22733
X47244Y21336
X47498Y29464
X48260Y29464
X47434Y10287
X50990Y11239
X46164Y7874
X46164Y6667
X51308Y31115
X52641Y34036
X47371Y35497
X50546Y31686
X50228Y8001
X50228Y7366
X51181Y32385
X54038Y36767
X46799Y38418
X48069Y37148
X50038Y37275
X48831Y34989
X51181Y34163
X53022Y30099
X53022Y33020
X46164Y31686
X52705Y1651
X54546Y1524
X49593Y5842
X53022Y38481
X53403Y12001
X45593Y29210
X45593Y38227
X52324Y16764
X50038Y2096
X46545Y3111
X52133Y5715
X52006Y19177
X52070Y36640
X50635Y26759
X46037Y4382
X54038Y18577
X54053Y34925
X54038Y17971
X54038Y35560
X46990Y32067
X50546Y9970
X49911Y9970
X53120Y34354
X53452Y34021
X54065Y16145
X53086Y13017
X53975Y5144
X54038Y13970
X52324Y11811
X54065Y9081
X54038Y14541
X54038Y15113
X48298Y12700
X52324Y39116
X51141Y5167
X48806Y12700
X51883Y38799
X51554Y5723
X49314Y12700
X51314Y38608
X50101Y6286
X47282Y12700
X52260Y4636
X51244Y4318
X46609Y13208
X51181Y3175
X46774Y12700
X53721Y20003
X54038Y19177
X45566Y16194
X50673Y12698
X50111Y12700
X50609Y21844
X47371Y20830
X48717Y20830
X51035Y20893
X46137Y21118
X45606Y15684
X45558Y16701
X45847Y19768
X45555Y19352
X45593Y29718
X46228Y38238
X54027Y36195
X49149Y2159
X46545Y31305
X46990Y35052
X54038Y17399
X45593Y28705
X46926Y35941
X50546Y29210
X50546Y24320
X50482Y6794
X47931Y9843
X47790Y12700
X51308Y38103
X47431Y36169
X51632Y37713
X50609Y1460
X52010Y37319
X50038Y1461
X48088Y36621
X47244Y6350
X46277Y3923
X47434Y37148
X49276Y1460
X46863Y37275
X49149Y3492
X46863Y37846
X48704Y2857
X52705Y9081
X51054Y9081
X53340Y1524
X53340Y2794
X46799Y1460
X46799Y39180
X53280Y39116
X53911Y38673
X53340Y5144
X52832Y5144
X46291Y39180
X46196Y1460
X54483Y38227
X54991Y38227
X62484Y21336
X62484Y25781
X62484Y24511
X62484Y23241
X62484Y21971
X64198Y22606
X64198Y21336
X64198Y25146
X64198Y26416
X60325Y19177
X60325Y16764
X58737Y16764
X58737Y19177
X58674Y14351
X60325Y14351
X61849Y14351
X63500Y14351
X64198Y23876
X64198Y27686
X62484Y27051
X62484Y28321
X62484Y29591
X60261Y21717
X60261Y22606
X60261Y24511
X60261Y25781
X60261Y27051
X58420Y26987
X58420Y25527
X58420Y24130
X58420Y22733
X58420Y21336
X58674Y29464
X59436Y29464
X58610Y10287
X62166Y11239
X57340Y7874
X57340Y6667
X62484Y31115
X63817Y34036
X58547Y35497
X61722Y31686
X61404Y8001
X61404Y7366
X62357Y32385
X65214Y36767
X57975Y38418
X59245Y37148
X61214Y37275
X60007Y34989
X62357Y34163
X64198Y30099
X64198Y33020
X57340Y31686
X63881Y1651
X65723Y1524
X60769Y5842
X64198Y38481
X64579Y12001
X56769Y29210
X56769Y38227
X63500Y16764
X61214Y2096
X57721Y3111
X63309Y5715
X63182Y19177
X63246Y36640
X61811Y26759
X57213Y4382
X65214Y18577
X65229Y34925
X65214Y17971
X65214Y35560
X58166Y32067
X61722Y9970
X61087Y9970
X64296Y34354
X64628Y34021
X65241Y16145
X64262Y13017
X65151Y5144
X65214Y13970
X63500Y11811
X65241Y9081
X65214Y14541
X65214Y15113
X59474Y12700
X63500Y39116
X62317Y5167
X59982Y12700
X63059Y38799
X62730Y5723
X60490Y12700
X62490Y38608
X61277Y6286
X58458Y12700
X63436Y4636
X62420Y4318
X57785Y13208
X62357Y3175
X57950Y12700
X64897Y20003
X65214Y19177
X56742Y16194
X61849Y12698
X61287Y12700
X61785Y21844
X58547Y20830
X59893Y20830
X62211Y20893
X57313Y21118
X56782Y15684
X56734Y16701
X57023Y19768
X56731Y19352
X56769Y29718
X57404Y38238
X65203Y36195
X60325Y2159
X57721Y31305
X58166Y35052
X65214Y17399
X56769Y28705
X58102Y35941
X61722Y29210
X61722Y24320
X61658Y6794
X59107Y9843
X58966Y12700
X62484Y38103
X58607Y36169
X62808Y37713
X61785Y1460
X63186Y37319
X61214Y1461
X59264Y36621
X58420Y6350
X57453Y3923
X58610Y37148
X60452Y1460
X58039Y37275
X60325Y3492
X58039Y37846
X59880Y2857
X63881Y9081
X62230Y9081
X64516Y1524
X64516Y2794
X57975Y1460
X57975Y39180
X64456Y39116
X65087Y38673
X64516Y5144
X64008Y5144
X57467Y39180
X57372Y1460
X65659Y38227
X66167Y38227
X73660Y21336
X73660Y25781
X73660Y24511
X73660Y23241
X73660Y21971
X75375Y22606
X75375Y21336
X75375Y25146
X75375Y26416
X71501Y19177
X71501Y16764
X69914Y16764
X69914Y19177
X69850Y14351
X71501Y14351
X73025Y14351
X74676Y14351
X75375Y23876
X75375Y27686
X73660Y27051
X73660Y28321
X73660Y29591
X71438Y21717
X71438Y22606
X71438Y24511
X71438Y25781
X71438Y27051
X69596Y26987
X69596Y25527
X69596Y24130
X69596Y22733
X69596Y21336
X69850Y29464
X70612Y29464
X69787Y10287
X73343Y11239
X68517Y7874
X68517Y6667
X73660Y31115
X74994Y34036
X69723Y35497
X72898Y31686
X72581Y8001
X72581Y7366
X73533Y32385
X76391Y36767
X69152Y38418
X70422Y37148
X72390Y37275
X71184Y34989
X73533Y34163
X75375Y30099
X75375Y33020
X68517Y31686
X75057Y1651
X76899Y1524
X71946Y5842
X75375Y38481
X75756Y12001
X67945Y29210
X67945Y38227
X74676Y16764
X72390Y2096
X68898Y3111
X74486Y5715
X74359Y19177
X74422Y36640
X72987Y26759
X68390Y4382
X76391Y18577
X76405Y34925
X76391Y17971
X76391Y35560
X69342Y32067
X72898Y9970
X72263Y9970
X75472Y34354
X75804Y34021
X76418Y16145
X75438Y13017
X76327Y5144
X76391Y13970
X74676Y11811
X76418Y9081
X76391Y14541
X76391Y15113
X70650Y12700
X74676Y39116
X73493Y5167
X71158Y12700
X74235Y38799
X73906Y5723
X71666Y12700
X73666Y38608
X72454Y6286
X69634Y12700
X74613Y4636
X73597Y4318
X68961Y13208
X73533Y3175
X69126Y12700
X76073Y20003
X76391Y19177
X67919Y16194
X73025Y12698
X72463Y12700
X72962Y21844
X69723Y20830
X71069Y20830
X73387Y20893
X68489Y21118
X67958Y15684
X67910Y16701
X68199Y19768
X67907Y19352
X67945Y29718
X68580Y38238
X76379Y36195
X71501Y2159
X68898Y31305
X69342Y35052
X76391Y17399
X67945Y28705
X69279Y35941
X72898Y29210
X72898Y24320
X72835Y6794
X70283Y9843
X70142Y12700
X73660Y38103
X69783Y36169
X73984Y37713
X72962Y1460
X74362Y37319
X72390Y1461
X70441Y36621
X69596Y6350
X68629Y3923
X69787Y37148
X71628Y1460
X69215Y37275
X71501Y3492
X69215Y37846
X71057Y2857
X75057Y9081
X73406Y9081
X75692Y1524
X75692Y2794
X69152Y1460
X69152Y39180
X75632Y39116
X76264Y38673
X75692Y5144
X75184Y5144
X68644Y39180
X68548Y1460
X76835Y38227
X77343Y38227
X84836Y21336
X84836Y25781
X84836Y24511
X84836Y23241
X84836Y21971
X86551Y22606
X86551Y21336
X86551Y25146
X86551Y26416
X82677Y19177
X82677Y16764
X81090Y16764
X81090Y19177
X81026Y14351
X82677Y14351
X84201Y14351
X85852Y14351
X86551Y23876
X86551Y27686
X84836Y27051
X84836Y28321
X84836Y29591
X82614Y21717
X82614Y22606
X82614Y24511
X82614Y25781
X82614Y27051
X80772Y26987
X80772Y25527
X80772Y24130
X80772Y22733
X80772Y21336
X81026Y29464
X81788Y29464
X80963Y10287
X84519Y11239
X79693Y7874
X79693Y6667
X84836Y31115
X86170Y34036
X80899Y35497
X84074Y31686
X83757Y8001
X83757Y7366
X84709Y32385
X87566Y36767
X80328Y38418
X81598Y37148
X83566Y37275
X82360Y34989
X84709Y34163
X86551Y30099
X86551Y33020
X79693Y31686
X86233Y1651
X88074Y1524
X83122Y5842
X86551Y38481
X86932Y12001
X79121Y29210
X79121Y38227
X85852Y16764
X83566Y2096
X80074Y3111
X85662Y5715
X85535Y19177
X85598Y36640
X84163Y26759
X79566Y4382
X87566Y18577
X87581Y34925
X87566Y17971
X87566Y35560
X80518Y32067
X84074Y9970
X83439Y9970
X86648Y34354
X86980Y34021
X87593Y16145
X86614Y13017
X87503Y5144
X87566Y13970
X85852Y11811
X87593Y9081
X87566Y14541
X87566Y15113
X81826Y12700
X85852Y39116
X84669Y5167
X82334Y12700
X85411Y38799
X85082Y5723
X82842Y12700
X84842Y38608
X83630Y6286
X80810Y12700
X85789Y4636
X84773Y4318
X80137Y13208
X84709Y3175
X80302Y12700
X87249Y20003
X87566Y19177
X79095Y16194
X84201Y12698
X83639Y12700
X84138Y21844
X80899Y20830
X82245Y20830
X84563Y20893
X79665Y21118
X79134Y15684
X79086Y16701
X79375Y19768
X79083Y19352
X79121Y29718
X79756Y38238
X87555Y36195
X82677Y2159
X80074Y31305
X80518Y35052
X87566Y17399
X79121Y28705
X80455Y35941
X84074Y29210
X84074Y24320
X84011Y6794
X81459Y9843
X81318Y12700
X84836Y38103
X80959Y36169
X85160Y37713
X84138Y1460
X85538Y37319
X83566Y1461
X81617Y36621
X80772Y6350
X79805Y3923
X80963Y37148
X82804Y1460
X80391Y37275
X82677Y3492
X80391Y37846
X82233Y2857
X86233Y9081
X84582Y9081
X86868Y1524
X86868Y2794
X80328Y1460
X80328Y39180
X86808Y39116
X87439Y38673
X86868Y5144
X86360Y5144
X79820Y39180
X79724Y1460
X88011Y38227
X88519Y38227
X96012Y21336
X96012Y25781
X96012Y24511
X96012Y23241
X96012Y21971
X97726Y22606
X97726Y21336
X97726Y25146
X97726Y26416
X93853Y19177
X93853Y16764
X92265Y16764
X92265Y19177
X92202Y14351
X93853Y14351
X95377Y14351
X97028Y14351
X97726Y23876
X97726Y27686
X96012Y27051
X96012Y28321
X96012Y29591
X93789Y21717
X93789Y22606
X93789Y24511
X93789Y25781
X93789Y27051
X91948Y26987
X91948Y25527
X91948Y24130
X91948Y22733
X91948Y21336
X92202Y29464
X92964Y29464
X92138Y10287
X95694Y11239
X90868Y7874
X90868Y6667
X96012Y31115
X97345Y34036
X92075Y35497
X95250Y31686
X94932Y8001
X94932Y7366
X95885Y32385
X98742Y36767
X91503Y38418
X92773Y37148
X94742Y37275
X93535Y34989
X95885Y34163
X97726Y30099
X97726Y33020
X90868Y31686
X97409Y1651
X99250Y1524
X94297Y5842
X97726Y38481
X98107Y12001
X90297Y29210
X90297Y38227
X97028Y16764
X94742Y2096
X91249Y3111
X96837Y5715
X96710Y19177
X96774Y36640
X95339Y26759
X90741Y4382
X98742Y18577
X98757Y34925
X98742Y17971
X98742Y35560
X91694Y32067
X95250Y9970
X94615Y9970
X97824Y34354
X98156Y34021
X98769Y16145
X97790Y13017
X98679Y5144
X98742Y13970
X97028Y11811
X98769Y9081
X98742Y14541
X98742Y15113
X93002Y12700
X97028Y39116
X95845Y5167
X93510Y12700
X96587Y38799
X96258Y5723
X94018Y12700
X96018Y38608
X94805Y6286
X91986Y12700
X96964Y4636
X95948Y4318
X91313Y13208
X95885Y3175
X91478Y12700
X98425Y20003
X98742Y19177
X90270Y16194
X95377Y12698
X94815Y12700
X95313Y21844
X92075Y20830
X93421Y20830
X95739Y20893
X90841Y21118
X90310Y15684
X90262Y16701
X90551Y19768
X90259Y19352
X90297Y29718
X90932Y38238
X98731Y36195
X93853Y2159
X91249Y31305
X91694Y35052
X98742Y17399
X90297Y28705
X91630Y35941
X95250Y29210
X95250Y24320
X95186Y6794
X92635Y9843
X92494Y12700
X96012Y38103
X92135Y36169
X96336Y37713
X95313Y1460
X96714Y37319
X94742Y1461
X92792Y36621
X91948Y6350
X90981Y3923
X92138Y37148
X93980Y1460
X91567Y37275
X93853Y3492
X91567Y37846
X93408Y2857
X97409Y9081
X95758Y9081
X98044Y1524
X98044Y2794
X91503Y1460
X91503Y39180
X97984Y39116
X98615Y38673
X98044Y5144
X97536Y5144
X90995Y39180
X90900Y1460
X99187Y38227
X99695Y38227
X107188Y21336
X107188Y25781
X107188Y24511
X107188Y23241
X107188Y21971
X108902Y22606
X108902Y21336
X108902Y25146
X108902Y26416
X105029Y19177
X105029Y16764
X103441Y16764
X103441Y19177
X103378Y14351
X105029Y14351
X106553Y14351
X108204Y14351
X108902Y23876
X108902Y27686
X107188Y27051
X107188Y28321
X107188Y29591
X104965Y21717
X104965Y22606
X104965Y24511
X104965Y25781
X104965Y27051
X103124Y26987
X103124Y25527
X103124Y24130
X103124Y22733
X103124Y21336
X103378Y29464
X104140Y29464
X103314Y10287
X106870Y11239
X102044Y7874
X102044Y6667
X107188Y31115
X108521Y34036
X103251Y35497
X106426Y31686
X106108Y8001
X106108Y7366
X107061Y32385
X109918Y36767
X102679Y38418
X103949Y37148
X105918Y37275
X104711Y34989
X107061Y34163
X108902Y30099
X108902Y33020
X102044Y31686
X108585Y1651
X110426Y1524
X105473Y5842
X108902Y38481
X109283Y12001
X101473Y29210
X101473Y38227
X108204Y16764
X105918Y2096
X102425Y3111
X108013Y5715
X107886Y19177
X107950Y36640
X106515Y26759
X101917Y4382
X109918Y18577
X109933Y34925
X109918Y17971
X109918Y35560
X102870Y32067
X106426Y9970
X105791Y9970
X109000Y34354
X109332Y34021
X109945Y16145
X108966Y13017
X109855Y5144
X109918Y13970
X108204Y11811
X109945Y9081
X109918Y14541
X109918Y15113
X104178Y12700
X108204Y39116
X107021Y5167
X104686Y12700
X107763Y38799
X107434Y5723
X105194Y12700
X107194Y38608
X105981Y6286
X103162Y12700
X108140Y4636
X107124Y4318
X102489Y13208
X107061Y3175
X102654Y12700
X109601Y20003
X109918Y19177
X101446Y16194
X106553Y12698
X105991Y12700
X106489Y21844
X103251Y20830
X104597Y20830
X106915Y20893
X102017Y21118
X101486Y15684
X101438Y16701
X101727Y19768
X101435Y19352
X101473Y29718
X102108Y38238
X109907Y36195
X105029Y2159
X102425Y31305
X102870Y35052
X109918Y17399
X101473Y28705
X102806Y35941
X106426Y29210
X106426Y24320
X106362Y6794
X103811Y9843
X103670Y12700
X107188Y38103
X103311Y36169
X107512Y37713
X106489Y1460
X107890Y37319
X105918Y1461
X103968Y36621
X103124Y6350
X102157Y3923
X103314Y37148
X105156Y1460
X102743Y37275
X105029Y3492
X102743Y37846
X104584Y2857
X108585Y9081
X106934Y9081
X109220Y1524
X109220Y2794
X102679Y1460
X102679Y39180
X109160Y39116
X109791Y38673
X109220Y5144
X108712Y5144
X102171Y39180
X102076Y1460
X110363Y38227
X110871Y38227
X118364Y21336
X118364Y25781
X118364Y24511
X118364Y23241
X118364Y21971
X120078Y22606
X120078Y21336
X120078Y25146
X120078Y26416
X116205Y19177
X116205Y16764
X114617Y16764
X114617Y19177
X114554Y14351
X116205Y14351
X117729Y14351
X119380Y14351
X120078Y23876
X120078Y27686
X118364Y27051
X118364Y28321
X118364Y29591
X116141Y21717
X116141Y22606
X116141Y24511
X116141Y25781
X116141Y27051
X114300Y26987
X114300Y25527
X114300Y24130
X114300Y22733
X114300Y21336
X114554Y29464
X115316Y29464
X114490Y10287
X118046Y11239
X113220Y7874
X113220Y6667
X118364Y31115
X119697Y34036
X114427Y35497
X117602Y31686
X117284Y8001
X117284Y7366
X118237Y32385
X121094Y36767
X113855Y38418
X115125Y37148
X117094Y37275
X115887Y34989
X118237Y34163
X120078Y30099
X120078Y33020
X113220Y31686
X119761Y1651
X121602Y1524
X116649Y5842
X120078Y38481
X120459Y12001
X112649Y29210
X112649Y38227
X119380Y16764
X117094Y2096
X113601Y3111
X119189Y5715
X119062Y19177
X119126Y36640
X117691Y26759
X113093Y4382
X121094Y18577
X121109Y34925
X121094Y17971
X121094Y35560
X114046Y32067
X117602Y9970
X116967Y9970
X120176Y34354
X120508Y34021
X121121Y16145
X120142Y13017
X121031Y5144
X121094Y13970
X119380Y11811
X121121Y9081
X121094Y14541
X121094Y15113
X115354Y12700
X119380Y39116
X118197Y5167
X115862Y12700
X118939Y38799
X118610Y5723
X116370Y12700
X118370Y38608
X117157Y6286
X114338Y12700
X119316Y4636
X118300Y4318
X113665Y13208
X118237Y3175
X113830Y12700
X120777Y20003
X121094Y19177
X112622Y16194
X117729Y12698
X117167Y12700
X117665Y21844
X114427Y20830
X115773Y20830
X118091Y20893
X113193Y21118
X112662Y15684
X112614Y16701
X112903Y19768
X112611Y19352
X112649Y29718
X113284Y38238
X121083Y36195
X116205Y2159
X113601Y31305
X114046Y35052
X121094Y17399
X112649Y28705
X113982Y35941
X117602Y29210
X117602Y24320
X117538Y6794
X114987Y9843
X114846Y12700
X118364Y38103
X114487Y36169
X118688Y37713
X117665Y1460
X119066Y37319
X117094Y1461
X115144Y36621
X114300Y6350
X113333Y3923
X114490Y37148
X116332Y1460
X113919Y37275
X116205Y3492
X113919Y37846
X115760Y2857
X119761Y9081
X118110Y9081
X120396Y1524
X120396Y2794
X113855Y1460
X113855Y39180
X120336Y39116
X120967Y38673
X120396Y5144
X119888Y5144
X113347Y39180
X113252Y1460
X121539Y38227
X122047Y38227
X129540Y21336
X129540Y25781
X129540Y24511
X129540Y23241
X129540Y21971
X131255Y22606
X131255Y21336
X131255Y25146
X131255Y26416
X127381Y19177
X127381Y16764
X125793Y16764
X125793Y19177
X125730Y14351
X127381Y14351
X128905Y14351
X130556Y14351
X131255Y23876
X131255Y27686
X129540Y27051
X129540Y28321
X129540Y29591
X127317Y21717
X127317Y22606
X127317Y24511
X127317Y25781
X127317Y27051
X125476Y26987
X125476Y25527
X125476Y24130
X125476Y22733
X125476Y21336
X125730Y29464
X126492Y29464
X125666Y10287
X129222Y11239
X124396Y7874
X124396Y6667
X129540Y31115
X130873Y34036
X125603Y35497
X128778Y31686
X128460Y8001
X128460Y7366
X129413Y32385
X132271Y36767
X125031Y38418
X126301Y37148
X128270Y37275
X127063Y34989
X129413Y34163
X131255Y30099
X131255Y33020
X124396Y31686
X130937Y1651
X132779Y1524
X127825Y5842
X131255Y38481
X131636Y12001
X123825Y29210
X123825Y38227
X130556Y16764
X128270Y2096
X124777Y3111
X130365Y5715
X130238Y19177
X130302Y36640
X128867Y26759
X124269Y4382
X132271Y18577
X132285Y34925
X132271Y17971
X132271Y35560
X125222Y32067
X128778Y9970
X128143Y9970
X131352Y34354
X131684Y34021
X132298Y16145
X131318Y13017
X132207Y5144
X132271Y13970
X130556Y11811
X132298Y9081
X132271Y14541
X132271Y15113
X126530Y12700
X130556Y39116
X129373Y5167
X127038Y12700
X130115Y38799
X129786Y5723
X127546Y12700
X129546Y38608
X128333Y6286
X125514Y12700
X130492Y4636
X129476Y4318
X124841Y13208
X129413Y3175
X125006Y12700
X131953Y20003
X132271Y19177
X123798Y16194
X128905Y12698
X128343Y12700
X128841Y21844
X125603Y20830
X126949Y20830
X129267Y20893
X124369Y21118
X123838Y15684
X123790Y16701
X124079Y19768
X123787Y19352
X123825Y29718
X124460Y38238
X132259Y36195
X127381Y2159
X124777Y31305
X125222Y35052
X132271Y17399
X123825Y28705
X125158Y35941
X128778Y29210
X128778Y24320
X128714Y6794
X126163Y9843
X126022Y12700
X129540Y38103
X125663Y36169
X129864Y37713
X128841Y1460
X130242Y37319
X128270Y1461
X126320Y36621
X125476Y6350
X124509Y3923
X125666Y37148
X127508Y1460
X125095Y37275
X127381Y3492
X125095Y37846
X126936Y2857
X130937Y9081
X129286Y9081
X131572Y1524
X131572Y2794
X125031Y1460
X125031Y39180
X131512Y39116
X132144Y38673
X131572Y5144
X131064Y5144
X124523Y39180
X124428Y1460
X132715Y38227
X133223Y38227
X140716Y21336
X140716Y25781
X140716Y24511
X140716Y23241
X140716Y21971
X142431Y22606
X142431Y21336
X142431Y25146
X142431Y26416
X138557Y19177
X138557Y16764
X136970Y16764
X136970Y19177
X136906Y14351
X138557Y14351
X140081Y14351
X141732Y14351
X142431Y23876
X142431Y27686
X140716Y27051
X140716Y28321
X140716Y29591
X138494Y21717
X138494Y22606
X138494Y24511
X138494Y25781
X138494Y27051
X136652Y26987
X136652Y25527
X136652Y24130
X136652Y22733
X136652Y21336
X136906Y29464
X137668Y29464
X136843Y10287
X140399Y11239
X135573Y7874
X135573Y6667
X140716Y31115
X142050Y34036
X136779Y35497
X139954Y31686
X139637Y8001
X139637Y7366
X140589Y32385
X143447Y36767
X136208Y38418
X137478Y37148
X139446Y37275
X138240Y34989
X140589Y34163
X142431Y30099
X142431Y33020
X135573Y31686
X142113Y1651
X143955Y1524
X139002Y5842
X142431Y38481
X142812Y12001
X135001Y29210
X135001Y38227
X141732Y16764
X139446Y2096
X135954Y3111
X141542Y5715
X141415Y19177
X141478Y36640
X140043Y26759
X135446Y4382
X143447Y18577
X143461Y34925
X143447Y17971
X143447Y35560
X136398Y32067
X139954Y9970
X139319Y9970
X142528Y34354
X142860Y34021
X143474Y16145
X142494Y13017
X143383Y5144
X143447Y13970
X141732Y11811
X143474Y9081
X143447Y14541
X143447Y15113
X137706Y12700
X141732Y39116
X140549Y5167
X138214Y12700
X141291Y38799
X140962Y5723
X138722Y12700
X140722Y38608
X139510Y6286
X136690Y12700
X141669Y4636
X140653Y4318
X136017Y13208
X140589Y3175
X136182Y12700
X143129Y20003
X143447Y19177
X134975Y16194
X140081Y12698
X139519Y12700
X140018Y21844
X136779Y20830
X138125Y20830
X140443Y20893
X135545Y21118
X135014Y15684
X134966Y16701
X135255Y19768
X134963Y19352
X135001Y29718
X135636Y38238
X143435Y36195
X138557Y2159
X135954Y31305
X136398Y35052
X143447Y17399
X135001Y28705
X136335Y35941
X139954Y29210
X139954Y24320
X139891Y6794
X137339Y9843
X137198Y12700
X140716Y38103
X136839Y36169
X141040Y37713
X140018Y1460
X141418Y37319
X139446Y1461
X137497Y36621
X136652Y6350
X135685Y3923
X136843Y37148
X138684Y1460
X136271Y37275
X138557Y3492
X136271Y37846
X138113Y2857
X142113Y9081
X140462Y9081
X142748Y1524
X142748Y2794
X136208Y1460
X136208Y39180
X142688Y39116
X143320Y38673
X142748Y5144
X142240Y5144
X135700Y39180
X135604Y1460
X143891Y38227
X144399Y38227
X151892Y21336
X151892Y25781
X151892Y24511
X151892Y23241
X151892Y21971
X153607Y22606
X153607Y21336
X153607Y25146
X153607Y26416
X149733Y19177
X149733Y16764
X148146Y16764
X148146Y19177
X148082Y14351
X149733Y14351
X151257Y14351
X152908Y14351
X153607Y23876
X153607Y27686
X151892Y27051
X151892Y28321
X151892Y29591
X149670Y21717
X149670Y22606
X149670Y24511
X149670Y25781
X149670Y27051
X147828Y26987
X147828Y25527
X147828Y24130
X147828Y22733
X147828Y21336
X148082Y29464
X148844Y29464
X148019Y10287
X151575Y11239
X146749Y7874
X146749Y6667
X151892Y31115
X153226Y34036
X147955Y35497
X151130Y31686
X150813Y8001
X150813Y7366
X151765Y32385
X154623Y36767
X147384Y38418
X148654Y37148
X150622Y37275
X149416Y34989
X151765Y34163
X153607Y30099
X153607Y33020
X146749Y31686
X153289Y1651
X155131Y1524
X150178Y5842
X153607Y38481
X153988Y12001
X146177Y29210
X146177Y38227
X152908Y16764
X150622Y2096
X147130Y3111
X152718Y5715
X152591Y19177
X152654Y36640
X151219Y26759
X146622Y4382
X154623Y18577
X154637Y34925
X154623Y17971
X154623Y35560
X147574Y32067
X151130Y9970
X150495Y9970
X153704Y34354
X154036Y34021
X154650Y16145
X153670Y13017
X154559Y5144
X154623Y13970
X152908Y11811
X154650Y9081
X154623Y14541
X154623Y15113
X148882Y12700
X152908Y39116
X151725Y5167
X149390Y12700
X152467Y38799
X152138Y5723
X149898Y12700
X151898Y38608
X150686Y6286
X147866Y12700
X152845Y4636
X151829Y4318
X147193Y13208
X151765Y3175
X147358Y12700
X154305Y20003
X154623Y19177
X146151Y16194
X151257Y12698
X150695Y12700
X151194Y21844
X147955Y20830
X149301Y20830
X151619Y20893
X146721Y21118
X146190Y15684
X146142Y16701
X146431Y19768
X146139Y19352
X146177Y29718
X146812Y38238
X154611Y36195
X149733Y2159
X147130Y31305
X147574Y35052
X154623Y17399
X146177Y28705
X147511Y35941
X151130Y29210
X151130Y24320
X151067Y6794
X148515Y9843
X148374Y12700
X151892Y38103
X148015Y36169
X152216Y37713
X151194Y1460
X152594Y37319
X150622Y1461
X148673Y36621
X147828Y6350
X146861Y3923
X148019Y37148
X149860Y1460
X147447Y37275
X149733Y3492
X147447Y37846
X149289Y2857
X153289Y9081
X151638Y9081
X153924Y1524
X153924Y2794
X147384Y1460
X147384Y39180
X153864Y39116
X154496Y38673
X153924Y5144
X153416Y5144
X146876Y39180
X146780Y1460
X155067Y38227
X155575Y38227
X163068Y21336
X163068Y25781
X163068Y24511
X163068Y23241
X163068Y21971
X164783Y22606
X164783Y21336
X164783Y25146
X164783Y26416
X160909Y19177
X160909Y16764
X159322Y16764
X159322Y19177
X159258Y14351
X160909Y14351
X162433Y14351
X164084Y14351
X164783Y23876
X164783Y27686
X163068Y27051
X163068Y28321
X163068Y29591
X160846Y21717
X160846Y22606
X160846Y24511
X160846Y25781
X160846Y27051
X159004Y26987
X159004Y25527
X159004Y24130
X159004Y22733
X159004Y21336
X159258Y29464
X160020Y29464
X159195Y10287
X162751Y11239
X157925Y7874
X157925Y6667
X163068Y31115
X164402Y34036
X159131Y35497
X162306Y31686
X161989Y8001
X161989Y7366
X162941Y32385
X165799Y36767
X158560Y38418
X159830Y37148
X161798Y37275
X160592Y34989
X162941Y34163
X164783Y30099
X164783Y33020
X157925Y31686
X164465Y1651
X166307Y1524
X161354Y5842
X164783Y38481
X165164Y12001
X157353Y29210
X157353Y38227
X164084Y16764
X161798Y2096
X158306Y3111
X163894Y5715
X163767Y19177
X163830Y36640
X162395Y26759
X157798Y4382
X165799Y18577
X165813Y34925
X165799Y17971
X165799Y35560
X158750Y32067
X162306Y9970
X161671Y9970
X164880Y34354
X165212Y34021
X165826Y16145
X164846Y13017
X165735Y5144
X165799Y13970
X164084Y11811
X165826Y9081
X165799Y14541
X165799Y15113
X160058Y12700
X164084Y39116
X162901Y5167
X160566Y12700
X163643Y38799
X163314Y5723
X161074Y12700
X163074Y38608
X161862Y6286
X159042Y12700
X164021Y4636
X163005Y4318
X158369Y13208
X162941Y3175
X158534Y12700
X165481Y20003
X165799Y19177
X157327Y16194
X162433Y12698
X161871Y12700
X162370Y21844
X159131Y20830
X160477Y20830
X162795Y20893
X157897Y21118
X157366Y15684
X157318Y16701
X157607Y19768
X157315Y19352
X157353Y29718
X157988Y38238
X165787Y36195
X160909Y2159
X158306Y31305
X158750Y35052
X165799Y17399
X157353Y28705
X158687Y35941
X162306Y29210
X162306Y24320
X162243Y6794
X159691Y9843
X159550Y12700
X163068Y38103
X159191Y36169
X163392Y37713
X162370Y1460
X163770Y37319
X161798Y1461
X159849Y36621
X159004Y6350
X158037Y3923
X159195Y37148
X161036Y1460
X158623Y37275
X160909Y3492
X158623Y37846
X160465Y2857
X164465Y9081
X162814Y9081
X165100Y1524
X165100Y2794
X158560Y1460
X158560Y39180
X165040Y39116
X165672Y38673
X165100Y5144
X164592Y5144
X158052Y39180
X157956Y1460
X166243Y38227
X166751Y38227
X174244Y21336
X174244Y25781
X174244Y24511
X174244Y23241
X174244Y21971
X175958Y22606
X175958Y21336
X175958Y25146
X175958Y26416
X172085Y19177
X172085Y16764
X170498Y16764
X170498Y19177
X170434Y14351
X172085Y14351
X173609Y14351
X175260Y14351
X175958Y23876
X175958Y27686
X174244Y27051
X174244Y28321
X174244Y29591
X172022Y21717
X172022Y22606
X172022Y24511
X172022Y25781
X172022Y27051
X170180Y26987
X170180Y25527
X170180Y24130
X170180Y22733
X170180Y21336
X170434Y29464
X171196Y29464
X170371Y10287
X173927Y11239
X169101Y7874
X169101Y6667
X174244Y31115
X175577Y34036
X170307Y35497
X173482Y31686
X173165Y8001
X173165Y7366
X174117Y32385
X176974Y36767
X169736Y38418
X171006Y37148
X172974Y37275
X171768Y34989
X174117Y34163
X175958Y30099
X175958Y33020
X169101Y31686
X175641Y1651
X177482Y1524
X172530Y5842
X175958Y38481
X176339Y12001
X168529Y29210
X168529Y38227
X175260Y16764
X172974Y2096
X169482Y3111
X175069Y5715
X174942Y19177
X175006Y36640
X173571Y26759
X168974Y4382
X176974Y18577
X176989Y34925
X176974Y17971
X176974Y35560
X169926Y32067
X173482Y9970
X172847Y9970
X176056Y34354
X176388Y34021
X177001Y16145
X176022Y13017
X176911Y5144
X176974Y13970
X175260Y11811
X177001Y9081
X176974Y14541
X176974Y15113
X171234Y12700
X175260Y39116
X174077Y5167
X171742Y12700
X174819Y38799
X174490Y5723
X172250Y12700
X174250Y38608
X173038Y6286
X170218Y12700
X175196Y4636
X174181Y4318
X169545Y13208
X174117Y3175
X169710Y12700
X176657Y20003
X176974Y19177
X168503Y16194
X173609Y12698
X173047Y12700
X173546Y21844
X170307Y20830
X171653Y20830
X173971Y20893
X169073Y21118
X168542Y15684
X168494Y16701
X168783Y19768
X168491Y19352
X168529Y29718
X169164Y38238
X176963Y36195
X172085Y2159
X169482Y31305
X169926Y35052
X176974Y17399
X168529Y28705
X169863Y35941
X173482Y29210
X173482Y24320
X173419Y6794
X170867Y9843
X170726Y12700
X174244Y38103
X170367Y36169
X174568Y37713
X173546Y1460
X174946Y37319
X172974Y1461
X171025Y36621
X170180Y6350
X169213Y3923
X170371Y37148
X172212Y1460
X169799Y37275
X172085Y3492
X169799Y37846
X171641Y2857
X175641Y9081
X173990Y9081
X176276Y1524
X176276Y2794
X169736Y1460
X169736Y39180
X176216Y39116
X176847Y38673
X176276Y5144
X175768Y5144
X169228Y39180
X169132Y1460
X177419Y38227
X177927Y38227
X6604Y62484
X6604Y66929
X6604Y65659
X6604Y64389
X6604Y63119
X8319Y63754
X8319Y62484
X8319Y66294
X8319Y67564
X4445Y60325
X4445Y57912
X2857Y57912
X2857Y60325
X2794Y55499
X4445Y55499
X5969Y55499
X7620Y55499
X8319Y65024
X8319Y68834
X6604Y68199
X6604Y69469
X6604Y70739
X4382Y62865
X4382Y63754
X4382Y65659
X4382Y66929
X4382Y68199
X2540Y68136
X2540Y66675
X2540Y65278
X2540Y63881
X2540Y62484
X2794Y70612
X3556Y70612
X2731Y51435
X6286Y52387
X1460Y49022
X1460Y47815
X6604Y72263
X7937Y75184
X2667Y76645
X5842Y72835
X5524Y49149
X5524Y48514
X6477Y73533
X9335Y77915
X2096Y79566
X3365Y78296
X5334Y78423
X4128Y76137
X6477Y75311
X8319Y71247
X8319Y74168
X1460Y72835
X8001Y42799
X9843Y42672
X4890Y46990
X8319Y79629
X8700Y53149
X889Y70358
X889Y79375
X7620Y57912
X5334Y43244
X1841Y44259
X7429Y46863
X7302Y60325
X7366Y77788
X5931Y67907
X1334Y45529
X9335Y59725
X9349Y76073
X9335Y59118
X9335Y76708
X2286Y73216
X5842Y51117
X5207Y51117
X8416Y75502
X8748Y75169
X9362Y57293
X8382Y54165
X9271Y46291
X9335Y55118
X7620Y52959
X9362Y50228
X9335Y55689
X9335Y56261
X3594Y53848
X7620Y80264
X6437Y46315
X4102Y53848
X7179Y79947
X6850Y46871
X4610Y53848
X6610Y79756
X5398Y47434
X2578Y53848
X7556Y45783
X6540Y45466
X1905Y54356
X6477Y44323
X2070Y53848
X9017Y61150
X9335Y60325
X862Y57342
X5969Y53846
X5407Y53848
X5905Y62992
X2667Y61978
X4013Y61978
X6331Y62041
X1433Y62266
X902Y56832
X854Y57848
X1143Y60916
X851Y60500
X889Y70866
X1524Y79386
X9323Y77343
X4445Y43307
X1841Y72454
X2286Y76200
X9335Y58547
X889Y69853
X2223Y77089
X5842Y70358
X5842Y65468
X5778Y47942
X3227Y50990
X3086Y53848
X6604Y79251
X2727Y77317
X6928Y78861
X5905Y42609
X7306Y78467
X5334Y42609
X3384Y77769
X2540Y47498
X1573Y45071
X2731Y78296
X4572Y42609
X2159Y78423
X4445Y44640
X2159Y78994
X4000Y44005
X8001Y50228
X6350Y50228
X8636Y42672
X8636Y43942
X2096Y42609
X2096Y80328
X8576Y80264
X9208Y79821
X8636Y46291
X8128Y46291
X1587Y80328
X1492Y42609
X9779Y79375
X10287Y79375
X17780Y62484
X17780Y66929
X17780Y65659
X17780Y64389
X17780Y63119
X19495Y63754
X19495Y62484
X19495Y66294
X19495Y67564
X15621Y60325
X15621Y57912
X14033Y57912
X14033Y60325
X13970Y55499
X15621Y55499
X17145Y55499
X18796Y55499
X19495Y65024
X19495Y68834
X17780Y68199
X17780Y69469
X17780Y70739
X15557Y62865
X15557Y63754
X15557Y65659
X15557Y66929
X15557Y68199
X13716Y68136
X13716Y66675
X13716Y65278
X13716Y63881
X13716Y62484
X13970Y70612
X14732Y70612
X13906Y51435
X17463Y52387
X12636Y49022
X12636Y47815
X17780Y72263
X19114Y75184
X13843Y76645
X17018Y72835
X16701Y49149
X16701Y48514
X17653Y73533
X20511Y77915
X13271Y79566
X14541Y78296
X16510Y78423
X15303Y76137
X17653Y75311
X19495Y71247
X19495Y74168
X12636Y72835
X19177Y42799
X21019Y42672
X16065Y46990
X19495Y79629
X19876Y53149
X12065Y70358
X12065Y79375
X18796Y57912
X16510Y43244
X13017Y44259
X18606Y46863
X18479Y60325
X18542Y77788
X17107Y67907
X12509Y45529
X20511Y59725
X20525Y76073
X20511Y59118
X20511Y76708
X13462Y73216
X17018Y51117
X16383Y51117
X19592Y75502
X19924Y75169
X20538Y57293
X19558Y54165
X20447Y46291
X20511Y55118
X18796Y52959
X20538Y50228
X20511Y55689
X20511Y56261
X14770Y53848
X18796Y80264
X17613Y46315
X15278Y53848
X18355Y79947
X18026Y46871
X15786Y53848
X17786Y79756
X16574Y47434
X13754Y53848
X18733Y45783
X17717Y45466
X13081Y54356
X17653Y44323
X13246Y53848
X20193Y61150
X20511Y60325
X12038Y57342
X17145Y53846
X16583Y53848
X17082Y62992
X13843Y61978
X15189Y61978
X17507Y62041
X12609Y62266
X12078Y56832
X12030Y57848
X12319Y60916
X12027Y60500
X12065Y70866
X12700Y79386
X20499Y77343
X15621Y43307
X13017Y72454
X13462Y76200
X20511Y58547
X12065Y69853
X13398Y77089
X17018Y70358
X17018Y65468
X16955Y47942
X14403Y50990
X14262Y53848
X17780Y79251
X13903Y77317
X18104Y78861
X17082Y42609
X18482Y78467
X16510Y42609
X14560Y77769
X13716Y47498
X12749Y45071
X13906Y78296
X15748Y42609
X13335Y78423
X15621Y44640
X13335Y78994
X15176Y44005
X19177Y50228
X17526Y50228
X19812Y42672
X19812Y43942
X13271Y42609
X13271Y80328
X19752Y80264
X20384Y79821
X19812Y46291
X19304Y46291
X12763Y80328
X12668Y42609
X20955Y79375
X21463Y79375
X28956Y62484
X28956Y66929
X28956Y65659
X28956Y64389
X28956Y63119
X30670Y63754
X30670Y62484
X30670Y66294
X30670Y67564
X26797Y60325
X26797Y57912
X25209Y57912
X25209Y60325
X25146Y55499
X26797Y55499
X28321Y55499
X29972Y55499
X30670Y65024
X30670Y68834
X28956Y68199
X28956Y69469
X28956Y70739
X26733Y62865
X26733Y63754
X26733Y65659
X26733Y66929
X26733Y68199
X24892Y68136
X24892Y66675
X24892Y65278
X24892Y63881
X24892Y62484
X25146Y70612
X25908Y70612
X25082Y51435
X28638Y52387
X23812Y49022
X23812Y47815
X28956Y72263
X30289Y75184
X25019Y76645
X28194Y72835
X27876Y49149
X27876Y48514
X28829Y73533
X31686Y77915
X24447Y79566
X25717Y78296
X27686Y78423
X26479Y76137
X28829Y75311
X30670Y71247
X30670Y74168
X23812Y72835
X30353Y42799
X32194Y42672
X27241Y46990
X30670Y79629
X31051Y53149
X23241Y70358
X23241Y79375
X29972Y57912
X27686Y43244
X24193Y44259
X29781Y46863
X29654Y60325
X29718Y77788
X28283Y67907
X23685Y45529
X31686Y59725
X31701Y76073
X31686Y59118
X31686Y76708
X24638Y73216
X28194Y51117
X27559Y51117
X30768Y75502
X31100Y75169
X31713Y57293
X30734Y54165
X31623Y46291
X31686Y55118
X29972Y52959
X31713Y50228
X31686Y55689
X31686Y56261
X25946Y53848
X29972Y80264
X28789Y46315
X26454Y53848
X29531Y79947
X29202Y46871
X26962Y53848
X28962Y79756
X27749Y47434
X24930Y53848
X29908Y45783
X28892Y45466
X24257Y54356
X28829Y44323
X24422Y53848
X31369Y61150
X31686Y60325
X23214Y57342
X28321Y53846
X27759Y53848
X28257Y62992
X25019Y61978
X26365Y61978
X28683Y62041
X23785Y62266
X23254Y56832
X23206Y57848
X23495Y60916
X23203Y60500
X23241Y70866
X23876Y79386
X31675Y77343
X26797Y43307
X24193Y72454
X24638Y76200
X31686Y58547
X23241Y69853
X24574Y77089
X28194Y70358
X28194Y65468
X28130Y47942
X25579Y50990
X25438Y53848
X28956Y79251
X25079Y77317
X29280Y78861
X28257Y42609
X29658Y78467
X27686Y42609
X25736Y77769
X24892Y47498
X23925Y45071
X25082Y78296
X26924Y42609
X24511Y78423
X26797Y44640
X24511Y78994
X26352Y44005
X30353Y50228
X28702Y50228
X30988Y42672
X30988Y43942
X24447Y42609
X24447Y80328
X30928Y80264
X31559Y79821
X30988Y46291
X30480Y46291
X23939Y80328
X23844Y42609
X32131Y79375
X32639Y79375
X40132Y62484
X40132Y66929
X40132Y65659
X40132Y64389
X40132Y63119
X41847Y63754
X41847Y62484
X41847Y66294
X41847Y67564
X37973Y60325
X37973Y57912
X36386Y57912
X36386Y60325
X36322Y55499
X37973Y55499
X39497Y55499
X41148Y55499
X41847Y65024
X41847Y68834
X40132Y68199
X40132Y69469
X40132Y70739
X37910Y62865
X37910Y63754
X37910Y65659
X37910Y66929
X37910Y68199
X36068Y68136
X36068Y66675
X36068Y65278
X36068Y63881
X36068Y62484
X36322Y70612
X37084Y70612
X36259Y51435
X39815Y52387
X34989Y49022
X34989Y47815
X40132Y72263
X41466Y75184
X36195Y76645
X39370Y72835
X39053Y49149
X39053Y48514
X40005Y73533
X42863Y77915
X35624Y79566
X36894Y78296
X38862Y78423
X37656Y76137
X40005Y75311
X41847Y71247
X41847Y74168
X34989Y72835
X41529Y42799
X43371Y42672
X38418Y46990
X41847Y79629
X42228Y53149
X34417Y70358
X34417Y79375
X41148Y57912
X38862Y43244
X35370Y44259
X40958Y46863
X40831Y60325
X40894Y77788
X39459Y67907
X34862Y45529
X42863Y59725
X42877Y76073
X42863Y59118
X42863Y76708
X35814Y73216
X39370Y51117
X38735Y51117
X41944Y75502
X42276Y75169
X42890Y57293
X41910Y54165
X42799Y46291
X42863Y55118
X41148Y52959
X42890Y50228
X42863Y55689
X42863Y56261
X37122Y53848
X41148Y80264
X39965Y46315
X37630Y53848
X40707Y79947
X40378Y46871
X38138Y53848
X40138Y79756
X38926Y47434
X36106Y53848
X41085Y45783
X40069Y45466
X35433Y54356
X40005Y44323
X35598Y53848
X42545Y61150
X42863Y60325
X34391Y57342
X39497Y53846
X38935Y53848
X39434Y62992
X36195Y61978
X37541Y61978
X39859Y62041
X34961Y62266
X34430Y56832
X34382Y57848
X34671Y60916
X34379Y60500
X34417Y70866
X35052Y79386
X42851Y77343
X37973Y43307
X35370Y72454
X35814Y76200
X42863Y58547
X34417Y69853
X35751Y77089
X39370Y70358
X39370Y65468
X39307Y47942
X36755Y50990
X36614Y53848
X40132Y79251
X36255Y77317
X40456Y78861
X39434Y42609
X40834Y78467
X38862Y42609
X36913Y77769
X36068Y47498
X35101Y45071
X36259Y78296
X38100Y42609
X35687Y78423
X37973Y44640
X35687Y78994
X37529Y44005
X41529Y50228
X39878Y50228
X42164Y42672
X42164Y43942
X35624Y42609
X35624Y80328
X42104Y80264
X42736Y79821
X42164Y46291
X41656Y46291
X35116Y80328
X35020Y42609
X43307Y79375
X43815Y79375
X51308Y62484
X51308Y66929
X51308Y65659
X51308Y64389
X51308Y63119
X53022Y63754
X53022Y62484
X53022Y66294
X53022Y67564
X49149Y60325
X49149Y57912
X47561Y57912
X47561Y60325
X47498Y55499
X49149Y55499
X50673Y55499
X52324Y55499
X53022Y65024
X53022Y68834
X51308Y68199
X51308Y69469
X51308Y70739
X49085Y62865
X49085Y63754
X49085Y65659
X49085Y66929
X49085Y68199
X47244Y68136
X47244Y66675
X47244Y65278
X47244Y63881
X47244Y62484
X47498Y70612
X48260Y70612
X47434Y51435
X50990Y52387
X46164Y49022
X46164Y47815
X51308Y72263
X52641Y75184
X47371Y76645
X50546Y72835
X50228Y49149
X50228Y48514
X51181Y73533
X54038Y77915
X46799Y79566
X48069Y78296
X50038Y78423
X48831Y76137
X51181Y75311
X53022Y71247
X53022Y74168
X46164Y72835
X52705Y42799
X54546Y42672
X49593Y46990
X53022Y79629
X53403Y53149
X45593Y70358
X45593Y79375
X52324Y57912
X50038Y43244
X46545Y44259
X52133Y46863
X52006Y60325
X52070Y77788
X50635Y67907
X46037Y45529
X54038Y59725
X54053Y76073
X54038Y59118
X54038Y76708
X46990Y73216
X50546Y51117
X49911Y51117
X53120Y75502
X53452Y75169
X54065Y57293
X53086Y54165
X53975Y46291
X54038Y55118
X52324Y52959
X54065Y50228
X54038Y55689
X54038Y56261
X48298Y53848
X52324Y80264
X51141Y46315
X48806Y53848
X51883Y79947
X51554Y46871
X49314Y53848
X51314Y79756
X50101Y47434
X47282Y53848
X52260Y45783
X51244Y45466
X46609Y54356
X51181Y44323
X46774Y53848
X53721Y61150
X54038Y60325
X45566Y57342
X50673Y53846
X50111Y53848
X50609Y62992
X47371Y61978
X48717Y61978
X51035Y62041
X46137Y62266
X45606Y56832
X45558Y57848
X45847Y60916
X45555Y60500
X45593Y70866
X46228Y79386
X54027Y77343
X49149Y43307
X46545Y72454
X46990Y76200
X54038Y58547
X45593Y69853
X46926Y77089
X50546Y70358
X50546Y65468
X50482Y47942
X47931Y50990
X47790Y53848
X51308Y79251
X47431Y77317
X51632Y78861
X50609Y42609
X52010Y78467
X50038Y42609
X48088Y77769
X47244Y47498
X46277Y45071
X47434Y78296
X49276Y42609
X46863Y78423
X49149Y44640
X46863Y78994
X48704Y44005
X52705Y50228
X51054Y50228
X53340Y42672
X53340Y43942
X46799Y42609
X46799Y80328
X53280Y80264
X53911Y79821
X53340Y46291
X52832Y46291
X46291Y80328
X46196Y42609
X54483Y79375
X54991Y79375
X62484Y62484
X62484Y66929
X62484Y65659
X62484Y64389
X62484Y63119
X64198Y63754
X64198Y62484
X64198Y66294
X64198Y67564
X60325Y60325
X60325Y57912
X58737Y57912
X58737Y60325
X58674Y55499
X60325Y55499
X61849Y55499
X63500Y55499
X64198Y65024
X64198Y68834
X62484Y68199
X62484Y69469
X62484Y70739
X60261Y62865
X60261Y63754
X60261Y65659
X60261Y66929
X60261Y68199
X58420Y68136
X58420Y66675
X58420Y65278
X58420Y63881
X58420Y62484
X58674Y70612
X59436Y70612
X58610Y51435
X62166Y52387
X57340Y49022
X57340Y47815
X62484Y72263
X63817Y75184
X58547Y76645
X61722Y72835
X61404Y49149
X61404Y48514
X62357Y73533
X65214Y77915
X57975Y79566
X59245Y78296
X61214Y78423
X60007Y76137
X62357Y75311
X64198Y71247
X64198Y74168
X57340Y72835
X63881Y42799
X65723Y42672
X60769Y46990
X64198Y79629
X64579Y53149
X56769Y70358
X56769Y79375
X63500Y57912
X61214Y43244
X57721Y44259
X63309Y46863
X63182Y60325
X63246Y77788
X61811Y67907
X57213Y45529
X65214Y59725
X65229Y76073
X65214Y59118
X65214Y76708
X58166Y73216
X61722Y51117
X61087Y51117
X64296Y75502
X64628Y75169
X65241Y57293
X64262Y54165
X65151Y46291
X65214Y55118
X63500Y52959
X65241Y50228
X65214Y55689
X65214Y56261
X59474Y53848
X63500Y80264
X62317Y46315
X59982Y53848
X63059Y79947
X62730Y46871
X60490Y53848
X62490Y79756
X61277Y47434
X58458Y53848
X63436Y45783
X62420Y45466
X57785Y54356
X62357Y44323
X57950Y53848
X64897Y61150
X65214Y60325
X56742Y57342
X61849Y53846
X61287Y53848
X61785Y62992
X58547Y61978
X59893Y61978
X62211Y62041
X57313Y62266
X56782Y56832
X56734Y57848
X57023Y60916
X56731Y60500
X56769Y70866
X57404Y79386
X65203Y77343
X60325Y43307
X57721Y72454
X58166Y76200
X65214Y58547
X56769Y69853
X58102Y77089
X61722Y70358
X61722Y65468
X61658Y47942
X59107Y50990
X58966Y53848
X62484Y79251
X58607Y77317
X62808Y78861
X61785Y42609
X63186Y78467
X61214Y42609
X59264Y77769
X58420Y47498
X57453Y45071
X58610Y78296
X60452Y42609
X58039Y78423
X60325Y44640
X58039Y78994
X59880Y44005
X63881Y50228
X62230Y50228
X64516Y42672
X64516Y43942
X57975Y42609
X57975Y80328
X64456Y80264
X65087Y79821
X64516Y46291
X64008Y46291
X57467Y80328
X57372Y42609
X65659Y79375
X66167Y79375
X73660Y62484
X73660Y66929
X73660Y65659
X73660Y64389
X73660Y63119
X75375Y63754
X75375Y62484
X75375Y66294
X75375Y67564
X71501Y60325
X71501Y57912
X69914Y57912
X69914Y60325
X69850Y55499
X71501Y55499
X73025Y55499
X74676Y55499
X75375Y65024
X75375Y68834
X73660Y68199
X73660Y69469
X73660Y70739
X71438Y62865
X71438Y63754
X71438Y65659
X71438Y66929
X71438Y68199
X69596Y68136
X69596Y66675
X69596Y65278
X69596Y63881
X69596Y62484
X69850Y70612
X70612Y70612
X69787Y51435
X73343Y52387
X68517Y49022
X68517Y47815
X73660Y72263
X74994Y75184
X69723Y76645
X72898Y72835
X72581Y49149
X72581Y48514
X73533Y73533
X76391Y77915
X69152Y79566
X70422Y78296
X72390Y78423
X71184Y76137
X73533Y75311
X75375Y71247
X75375Y74168
X68517Y72835
X75057Y42799
X76899Y42672
X71946Y46990
X75375Y79629
X75756Y53149
X67945Y70358
X67945Y79375
X74676Y57912
X72390Y43244
X68898Y44259
X74486Y46863
X74359Y60325
X74422Y77788
X72987Y67907
X68390Y45529
X76391Y59725
X76405Y76073
X76391Y59118
X76391Y76708
X69342Y73216
X72898Y51117
X72263Y51117
X75472Y75502
X75804Y75169
X76418Y57293
X75438Y54165
X76327Y46291
X76391Y55118
X74676Y52959
X76418Y50228
X76391Y55689
X76391Y56261
X70650Y53848
X74676Y80264
X73493Y46315
X71158Y53848
X74235Y79947
X73906Y46871
X71666Y53848
X73666Y79756
X72454Y47434
X69634Y53848
X74613Y45783
X73597Y45466
X68961Y54356
X73533Y44323
X69126Y53848
X76073Y61150
X76391Y60325
X67919Y57342
X73025Y53846
X72463Y53848
X72962Y62992
X69723Y61978
X71069Y61978
X73387Y62041
X68489Y62266
X67958Y56832
X67910Y57848
X68199Y60916
X67907Y60500
X67945Y70866
X68580Y79386
X76379Y77343
X71501Y43307
X68898Y72454
X69342Y76200
X76391Y58547
X67945Y69853
X69279Y77089
X72898Y70358
X72898Y65468
X72835Y47942
X70283Y50990
X70142Y53848
X73660Y79251
X69783Y77317
X73984Y78861
X72962Y42609
X74362Y78467
X72390Y42609
X70441Y77769
X69596Y47498
X68629Y45071
X69787Y78296
X71628Y42609
X69215Y78423
X71501Y44640
X69215Y78994
X71057Y44005
X75057Y50228
X73406Y50228
X75692Y42672
X75692Y43942
X69152Y42609
X69152Y80328
X75632Y80264
X76264Y79821
X75692Y46291
X75184Y46291
X68644Y80328
X68548Y42609
X76835Y79375
X77343Y79375
X84836Y62484
X84836Y66929
X84836Y65659
X84836Y64389
X84836Y63119
X86551Y63754
X86551Y62484
X86551Y66294
X86551Y67564
X82677Y60325
X82677Y57912
X81090Y57912
X81090Y60325
X81026Y55499
X82677Y55499
X84201Y55499
X85852Y55499
X86551Y65024
X86551Y68834
X84836Y68199
X84836Y69469
X84836Y70739
X82614Y62865
X82614Y63754
X82614Y65659
X82614Y66929
X82614Y68199
X80772Y68136
X80772Y66675
X80772Y65278
X80772Y63881
X80772Y62484
X81026Y70612
X81788Y70612
X80963Y51435
X84519Y52387
X79693Y49022
X79693Y47815
X84836Y72263
X86170Y75184
X80899Y76645
X84074Y72835
X83757Y49149
X83757Y48514
X84709Y73533
X87566Y77915
X80328Y79566
X81598Y78296
X83566Y78423
X82360Y76137
X84709Y75311
X86551Y71247
X86551Y74168
X79693Y72835
X86233Y42799
X88074Y42672
X83122Y46990
X86551Y79629
X86932Y53149
X79121Y70358
X79121Y79375
X85852Y57912
X83566Y43244
X80074Y44259
X85662Y46863
X85535Y60325
X85598Y77788
X84163Y67907
X79566Y45529
X87566Y59725
X87581Y76073
X87566Y59118
X87566Y76708
X80518Y73216
X84074Y51117
X83439Y51117
X86648Y75502
X86980Y75169
X87593Y57293
X86614Y54165
X87503Y46291
X87566Y55118
X85852Y52959
X87593Y50228
X87566Y55689
X87566Y56261
X81826Y53848
X85852Y80264
X84669Y46315
X82334Y53848
X85411Y79947
X85082Y46871
X82842Y53848
X84842Y79756
X83630Y47434
X80810Y53848
X85789Y45783
X84773Y45466
X80137Y54356
X84709Y44323
X80302Y53848
X87249Y61150
X87566Y60325
X79095Y57342
X84201Y53846
X83639Y53848
X84138Y62992
X80899Y61978
X82245Y61978
X84563Y62041
X79665Y62266
X79134Y56832
X79086Y57848
X79375Y60916
X79083Y60500
X79121Y70866
X79756Y79386
X87555Y77343
X82677Y43307
X80074Y72454
X80518Y76200
X87566Y58547
X79121Y69853
X80455Y77089
X84074Y70358
X84074Y65468
X84011Y47942
X81459Y50990
X81318Y53848
X84836Y79251
X80959Y77317
X85160Y78861
X84138Y42609
X85538Y78467
X83566Y42609
X81617Y77769
X80772Y47498
X79805Y45071
X80963Y78296
X82804Y42609
X80391Y78423
X82677Y44640
X80391Y78994
X82233Y44005
X86233Y50228
X84582Y50228
X86868Y42672
X86868Y43942
X80328Y42609
X80328Y80328
X86808Y80264
X87439Y79821
X86868Y46291
X86360Y46291
X79820Y80328
X79724Y42609
X88011Y79375
X88519Y79375
X96012Y62484
X96012Y66929
X96012Y65659
X96012Y64389
X96012Y63119
X97726Y63754
X97726Y62484
X97726Y66294
X97726Y67564
X93853Y60325
X93853Y57912
X92265Y57912
X92265Y60325
X92202Y55499
X93853Y55499
X95377Y55499
X97028Y55499
X97726Y65024
X97726Y68834
X96012Y68199
X96012Y69469
X96012Y70739
X93789Y62865
X93789Y63754
X93789Y65659
X93789Y66929
X93789Y68199
X91948Y68136
X91948Y66675
X91948Y65278
X91948Y63881
X91948Y62484
X92202Y70612
X92964Y70612
X92138Y51435
X95694Y52387
X90868Y49022
X90868Y47815
X96012Y72263
X97345Y75184
X92075Y76645
X95250Y72835
X94932Y49149
X94932Y48514
X95885Y73533
X98742Y77915
X91503Y79566
X92773Y78296
X94742Y78423
X93535Y76137
X95885Y75311
X97726Y71247
X97726Y74168
X90868Y72835
X97409Y42799
X99250Y42672
X94297Y46990
X97726Y79629
X98107Y53149
X90297Y70358
X90297Y79375
X97028Y57912
X94742Y43244
X91249Y44259
X96837Y46863
X96710Y60325
X96774Y77788
X95339Y67907
X90741Y45529
X98742Y59725
X98757Y76073
X98742Y59118
X98742Y76708
X91694Y73216
X95250Y51117
X94615Y51117
X97824Y75502
X98156Y75169
X98769Y57293
X97790Y54165
X98679Y46291
X98742Y55118
X97028Y52959
X98769Y50228
X98742Y55689
X98742Y56261
X93002Y53848
X97028Y80264
X95845Y46315
X93510Y53848
X96587Y79947
X96258Y46871
X94018Y53848
X96018Y79756
X94805Y47434
X91986Y53848
X96964Y45783
X95948Y45466
X91313Y54356
X95885Y44323
X91478Y53848
X98425Y61150
X98742Y60325
X90270Y57342
X95377Y53846
X94815Y53848
X95313Y62992
X92075Y61978
X93421Y61978
X95739Y62041
X90841Y62266
X90310Y56832
X90262Y57848
X90551Y60916
X90259Y60500
X90297Y70866
X90932Y79386
X98731Y77343
X93853Y43307
X91249Y72454
X91694Y76200
X98742Y58547
X90297Y69853
X91630Y77089
X95250Y70358
X95250Y65468
X95186Y47942
X92635Y50990
X92494Y53848
X96012Y79251
X92135Y77317
X96336Y78861
X95313Y42609
X96714Y78467
X94742Y42609
X92792Y77769
X91948Y47498
X90981Y45071
X92138Y78296
X93980Y42609
X91567Y78423
X93853Y44640
X91567Y78994
X93408Y44005
X97409Y50228
X95758Y50228
X98044Y42672
X98044Y43942
X91503Y42609
X91503Y80328
X97984Y80264
X98615Y79821
X98044Y46291
X97536Y46291
X90995Y80328
X90900Y42609
X99187Y79375
X99695Y79375
X107188Y62484
X107188Y66929
X107188Y65659
X107188Y64389
X107188Y63119
X108902Y63754
X108902Y62484
X108902Y66294
X108902Y67564
X105029Y60325
X105029Y57912
X103441Y57912
X103441Y60325
X103378Y55499
X105029Y55499
X106553Y55499
X108204Y55499
X108902Y65024
X108902Y68834
X107188Y68199
X107188Y69469
X107188Y70739
X104965Y62865
X104965Y63754
X104965Y65659
X104965Y66929
X104965Y68199
X103124Y68136
X103124Y66675
X103124Y65278
X103124Y63881
X103124Y62484
X103378Y70612
X104140Y70612
X103314Y51435
X106870Y52387
X102044Y49022
X102044Y47815
X107188Y72263
X108521Y75184
X103251Y76645
X106426Y72835
X106108Y49149
X106108Y48514
X107061Y73533
X109918Y77915
X102679Y79566
X103949Y78296
X105918Y78423
X104711Y76137
X107061Y75311
X108902Y71247
X108902Y74168
X102044Y72835
X108585Y42799
X110426Y42672
X105473Y46990
X108902Y79629
X109283Y53149
X101473Y70358
X101473Y79375
X108204Y57912
X105918Y43244
X102425Y44259
X108013Y46863
X107886Y60325
X107950Y77788
X106515Y67907
X101917Y45529
X109918Y59725
X109933Y76073
X109918Y59118
X109918Y76708
X102870Y73216
X106426Y51117
X105791Y51117
X109000Y75502
X109332Y75169
X109945Y57293
X108966Y54165
X109855Y46291
X109918Y55118
X108204Y52959
X109945Y50228
X109918Y55689
X109918Y56261
X104178Y53848
X108204Y80264
X107021Y46315
X104686Y53848
X107763Y79947
X107434Y46871
X105194Y53848
X107194Y79756
X105981Y47434
X103162Y53848
X108140Y45783
X107124Y45466
X102489Y54356
X107061Y44323
X102654Y53848
X109601Y61150
X109918Y60325
X101446Y57342
X106553Y53846
X105991Y53848
X106489Y62992
X103251Y61978
X104597Y61978
X106915Y62041
X102017Y62266
X101486Y56832
X101438Y57848
X101727Y60916
X101435Y60500
X101473Y70866
X102108Y79386
X109907Y77343
X105029Y43307
X102425Y72454
X102870Y76200
X109918Y58547
X101473Y69853
X102806Y77089
X106426Y70358
X106426Y65468
X106362Y47942
X103811Y50990
X103670Y53848
X107188Y79251
X103311Y77317
X107512Y78861
X106489Y42609
X107890Y78467
X105918Y42609
X103968Y77769
X103124Y47498
X102157Y45071
X103314Y78296
X105156Y42609
X102743Y78423
X105029Y44640
X102743Y78994
X104584Y44005
X108585Y50228
X106934Y50228
X109220Y42672
X109220Y43942
X102679Y42609
X102679Y80328
X109160Y80264
X109791Y79821
X109220Y46291
X108712Y46291
X102171Y80328
X102076Y42609
X110363Y79375
X110871Y79375
X118364Y62484
X118364Y66929
X118364Y65659
X118364Y64389
X118364Y63119
X120078Y63754
X120078Y62484
X120078Y66294
X120078Y67564
X116205Y60325
X116205Y57912
X114617Y57912
X114617Y60325
X114554Y55499
X116205Y55499
X117729Y55499
X119380Y55499
X120078Y65024
X120078Y68834
X118364Y68199
X118364Y69469
X118364Y70739
X116141Y62865
X116141Y63754
X116141Y65659
X116141Y66929
X116141Y68199
X114300Y68136
X114300Y66675
X114300Y65278
X114300Y63881
X114300Y62484
X114554Y70612
X115316Y70612
X114490Y51435
X118046Y52387
X113220Y49022
X113220Y47815
X118364Y72263
X119697Y75184
X114427Y76645
X117602Y72835
X117284Y49149
X117284Y48514
X118237Y73533
X121094Y77915
X113855Y79566
X115125Y78296
X117094Y78423
X115887Y76137
X118237Y75311
X120078Y71247
X120078Y74168
X113220Y72835
X119761Y42799
X121602Y42672
X116649Y46990
X120078Y79629
X120459Y53149
X112649Y70358
X112649Y79375
X119380Y57912
X117094Y43244
X113601Y44259
X119189Y46863
X119062Y60325
X119126Y77788
X117691Y67907
X113093Y45529
X121094Y59725
X121109Y76073
X121094Y59118
X121094Y76708
X114046Y73216
X117602Y51117
X116967Y51117
X120176Y75502
X120508Y75169
X121121Y57293
X120142Y54165
X121031Y46291
X121094Y55118
X119380Y52959
X121121Y50228
X121094Y55689
X121094Y56261
X115354Y53848
X119380Y80264
X118197Y46315
X115862Y53848
X118939Y79947
X118610Y46871
X116370Y53848
X118370Y79756
X117157Y47434
X114338Y53848
X119316Y45783
X118300Y45466
X113665Y54356
X118237Y44323
X113830Y53848
X120777Y61150
X121094Y60325
X112622Y57342
X117729Y53846
X117167Y53848
X117665Y62992
X114427Y61978
X115773Y61978
X118091Y62041
X113193Y62266
X112662Y56832
X112614Y57848
X112903Y60916
X112611Y60500
X112649Y70866
X113284Y79386
X121083Y77343
X116205Y43307
X113601Y72454
X114046Y76200
X121094Y58547
X112649Y69853
X113982Y77089
X117602Y70358
X117602Y65468
X117538Y47942
X114987Y50990
X114846Y53848
X118364Y79251
X114487Y77317
X118688Y78861
X117665Y42609
X119066Y78467
X117094Y42609
X115144Y77769
X114300Y47498
X113333Y45071
X114490Y78296
X116332Y42609
X113919Y78423
X116205Y44640
X113919Y78994
X115760Y44005
X119761Y50228
X118110Y50228
X120396Y42672
X120396Y43942
X113855Y42609
X113855Y80328
X120336Y80264
X120967Y79821
X120396Y46291
X119888Y46291
X113347Y80328
X113252Y42609
X121539Y79375
X122047Y79375
X129540Y62484
X129540Y66929
X129540Y65659
X129540Y64389
X129540Y63119
X131255Y63754
X131255Y62484
X131255Y66294
X131255Y67564
X127381Y60325
X127381Y57912
X125793Y57912
X125793Y60325
X125730Y55499
X127381Y55499
X128905Y55499
X130556Y55499
X131255Y65024
X131255Y68834
X129540Y68199
X129540Y69469
X129540Y70739
X127317Y62865
X127317Y63754
X127317Y65659
X127317Y66929
X127317Y68199
X125476Y68136
X125476Y66675
X125476Y65278
X125476Y63881
X125476Y62484
X125730Y70612
X126492Y70612
X125666Y51435
X129222Y52387
X124396Y49022
X124396Y47815
X129540Y72263
X130873Y75184
X125603Y76645
X128778Y72835
X128460Y49149
X128460Y48514
X129413Y73533
X132271Y77915
X125031Y79566
X126301Y78296
X128270Y78423
X127063Y76137
X129413Y75311
X131255Y71247
X131255Y74168
X124396Y72835
X130937Y42799
X132779Y42672
X127825Y46990
X131255Y79629
X131636Y53149
X123825Y70358
X123825Y79375
X130556Y57912
X128270Y43244
X124777Y44259
X130365Y46863
X130238Y60325
X130302Y77788
X128867Y67907
X124269Y45529
X132271Y59725
X132285Y76073
X132271Y59118
X132271Y76708
X125222Y73216
X128778Y51117
X128143Y51117
X131352Y75502
X131684Y75169
X132298Y57293
X131318Y54165
X132207Y46291
X132271Y55118
X130556Y52959
X132298Y50228
X132271Y55689
X132271Y56261
X126530Y53848
X130556Y80264
X129373Y46315
X127038Y53848
X130115Y79947
X129786Y46871
X127546Y53848
X129546Y79756
X128333Y47434
X125514Y53848
X130492Y45783
X129476Y45466
X124841Y54356
X129413Y44323
X125006Y53848
X131953Y61150
X132271Y60325
X123798Y57342
X128905Y53846
X128343Y53848
X128841Y62992
X125603Y61978
X126949Y61978
X129267Y62041
X124369Y62266
X123838Y56832
X123790Y57848
X124079Y60916
X123787Y60500
X123825Y70866
X124460Y79386
X132259Y77343
X127381Y43307
X124777Y72454
X125222Y76200
X132271Y58547
X123825Y69853
X125158Y77089
X128778Y70358
X128778Y65468
X128714Y47942
X126163Y50990
X126022Y53848
X129540Y79251
X125663Y77317
X129864Y78861
X128841Y42609
X130242Y78467
X128270Y42609
X126320Y77769
X125476Y47498
X124509Y45071
X125666Y78296
X127508Y42609
X125095Y78423
X127381Y44640
X125095Y78994
X126936Y44005
X130937Y50228
X129286Y50228
X131572Y42672
X131572Y43942
X125031Y42609
X125031Y80328
X131512Y80264
X132144Y79821
X131572Y46291
X131064Y46291
X124523Y80328
X124428Y42609
X132715Y79375
X133223Y79375
X140716Y62484
X140716Y66929
X140716Y65659
X140716Y64389
X140716Y63119
X142431Y63754
X142431Y62484
X142431Y66294
X142431Y67564
X138557Y60325
X138557Y57912
X136970Y57912
X136970Y60325
X136906Y55499
X138557Y55499
X140081Y55499
X141732Y55499
X142431Y65024
X142431Y68834
X140716Y68199
X140716Y69469
X140716Y70739
X138494Y62865
X138494Y63754
X138494Y65659
X138494Y66929
X138494Y68199
X136652Y68136
X136652Y66675
X136652Y65278
X136652Y63881
X136652Y62484
X136906Y70612
X137668Y70612
X136843Y51435
X140399Y52387
X135573Y49022
X135573Y47815
X140716Y72263
X142050Y75184
X136779Y76645
X139954Y72835
X139637Y49149
X139637Y48514
X140589Y73533
X143447Y77915
X136208Y79566
X137478Y78296
X139446Y78423
X138240Y76137
X140589Y75311
X142431Y71247
X142431Y74168
X135573Y72835
X142113Y42799
X143955Y42672
X139002Y46990
X142431Y79629
X142812Y53149
X135001Y70358
X135001Y79375
X141732Y57912
X139446Y43244
X135954Y44259
X141542Y46863
X141415Y60325
X141478Y77788
X140043Y67907
X135446Y45529
X143447Y59725
X143461Y76073
X143447Y59118
X143447Y76708
X136398Y73216
X139954Y51117
X139319Y51117
X142528Y75502
X142860Y75169
X143474Y57293
X142494Y54165
X143383Y46291
X143447Y55118
X141732Y52959
X143474Y50228
X143447Y55689
X143447Y56261
X137706Y53848
X141732Y80264
X140549Y46315
X138214Y53848
X141291Y79947
X140962Y46871
X138722Y53848
X140722Y79756
X139510Y47434
X136690Y53848
X141669Y45783
X140653Y45466
X136017Y54356
X140589Y44323
X136182Y53848
X143129Y61150
X143447Y60325
X134975Y57342
X140081Y53846
X139519Y53848
X140018Y62992
X136779Y61978
X138125Y61978
X140443Y62041
X135545Y62266
X135014Y56832
X134966Y57848
X135255Y60916
X134963Y60500
X135001Y70866
X135636Y79386
X143435Y77343
X138557Y43307
X135954Y72454
X136398Y76200
X143447Y58547
X135001Y69853
X136335Y77089
X139954Y70358
X139954Y65468
X139891Y47942
X137339Y50990
X137198Y53848
X140716Y79251
X136839Y77317
X141040Y78861
X140018Y42609
X141418Y78467
X139446Y42609
X137497Y77769
X136652Y47498
X135685Y45071
X136843Y78296
X138684Y42609
X136271Y78423
X138557Y44640
X136271Y78994
X138113Y44005
X142113Y50228
X140462Y50228
X142748Y42672
X142748Y43942
X136208Y42609
X136208Y80328
X142688Y80264
X143320Y79821
X142748Y46291
X142240Y46291
X135700Y80328
X135604Y42609
X143891Y79375
X144399Y79375
X151892Y62484
X151892Y66929
X151892Y65659
X151892Y64389
X151892Y63119
X153607Y63754
X153607Y62484
X153607Y66294
X153607Y67564
X149733Y60325
X149733Y57912
X148146Y57912
X148146Y60325
X148082Y55499
X149733Y55499
X151257Y55499
X152908Y55499
X153607Y65024
X153607Y68834
X151892Y68199
X151892Y69469
X151892Y70739
X149670Y62865
X149670Y63754
X149670Y65659
X149670Y66929
X149670Y68199
X147828Y68136
X147828Y66675
X147828Y65278
X147828Y63881
X147828Y62484
X148082Y70612
X148844Y70612
X148019Y51435
X151575Y52387
X146749Y49022
X146749Y47815
X151892Y72263
X153226Y75184
X147955Y76645
X151130Y72835
X150813Y49149
X150813Y48514
X151765Y73533
X154623Y77915
X147384Y79566
X148654Y78296
X150622Y78423
X149416Y76137
X151765Y75311
X153607Y71247
X153607Y74168
X146749Y72835
X153289Y42799
X155131Y42672
X150178Y46990
X153607Y79629
X153988Y53149
X146177Y70358
X146177Y79375
X152908Y57912
X150622Y43244
X147130Y44259
X152718Y46863
X152591Y60325
X152654Y77788
X151219Y67907
X146622Y45529
X154623Y59725
X154637Y76073
X154623Y59118
X154623Y76708
X147574Y73216
X151130Y51117
X150495Y51117
X153704Y75502
X154036Y75169
X154650Y57293
X153670Y54165
X154559Y46291
X154623Y55118
X152908Y52959
X154650Y50228
X154623Y55689
X154623Y56261
X148882Y53848
X152908Y80264
X151725Y46315
X149390Y53848
X152467Y79947
X152138Y46871
X149898Y53848
X151898Y79756
X150686Y47434
X147866Y53848
X152845Y45783
X151829Y45466
X147193Y54356
X151765Y44323
X147358Y53848
X154305Y61150
X154623Y60325
X146151Y57342
X151257Y53846
X150695Y53848
X151194Y62992
X147955Y61978
X149301Y61978
X151619Y62041
X146721Y62266
X146190Y56832
X146142Y57848
X146431Y60916
X146139Y60500
X146177Y70866
X146812Y79386
X154611Y77343
X149733Y43307
X147130Y72454
X147574Y76200
X154623Y58547
X146177Y69853
X147511Y77089
X151130Y70358
X151130Y65468
X151067Y47942
X148515Y50990
X148374Y53848
X151892Y79251
X148015Y77317
X152216Y78861
X151194Y42609
X152594Y78467
X150622Y42609
X148673Y77769
X147828Y47498
X146861Y45071
X148019Y78296
X149860Y42609
X147447Y78423
X149733Y44640
X147447Y78994
X149289Y44005
X153289Y50228
X151638Y50228
X153924Y42672
X153924Y43942
X147384Y42609
X147384Y80328
X153864Y80264
X154496Y79821
X153924Y46291
X153416Y46291
X146876Y80328
X146780Y42609
X155067Y79375
X155575Y79375
X163068Y62484
X163068Y66929
X163068Y65659
X163068Y64389
X163068Y63119
X164783Y63754
X164783Y62484
X164783Y66294
X164783Y67564
X160909Y60325
X160909Y57912
X159322Y57912
X159322Y60325
X159258Y55499
X160909Y55499
X162433Y55499
X164084Y55499
X164783Y65024
X164783Y68834
X163068Y68199
X163068Y69469
X163068Y70739
X160846Y62865
X160846Y63754
X160846Y65659
X160846Y66929
X160846Y68199
X159004Y68136
X159004Y66675
X159004Y65278
X159004Y63881
X159004Y62484
X159258Y70612
X160020Y70612
X159195Y51435
X162751Y52387
X157925Y49022
X157925Y47815
X163068Y72263
X164402Y75184
X159131Y76645
X162306Y72835
X161989Y49149
X161989Y48514
X162941Y73533
X165799Y77915
X158560Y79566
X159830Y78296
X161798Y78423
X160592Y76137
X162941Y75311
X164783Y71247
X164783Y74168
X157925Y72835
X164465Y42799
X166307Y42672
X161354Y46990
X164783Y79629
X165164Y53149
X157353Y70358
X157353Y79375
X164084Y57912
X161798Y43244
X158306Y44259
X163894Y46863
X163767Y60325
X163830Y77788
X162395Y67907
X157798Y45529
X165799Y59725
X165813Y76073
X165799Y59118
X165799Y76708
X158750Y73216
X162306Y51117
X161671Y51117
X164880Y75502
X165212Y75169
X165826Y57293
X164846Y54165
X165735Y46291
X165799Y55118
X164084Y52959
X165826Y50228
X165799Y55689
X165799Y56261
X160058Y53848
X164084Y80264
X162901Y46315
X160566Y53848
X163643Y79947
X163314Y46871
X161074Y53848
X163074Y79756
X161862Y47434
X159042Y53848
X164021Y45783
X163005Y45466
X158369Y54356
X162941Y44323
X158534Y53848
X165481Y61150
X165799Y60325
X157327Y57342
X162433Y53846
X161871Y53848
X162370Y62992
X159131Y61978
X160477Y61978
X162795Y62041
X157897Y62266
X157366Y56832
X157318Y57848
X157607Y60916
X157315Y60500
X157353Y70866
X157988Y79386
X165787Y77343
X160909Y43307
X158306Y72454
X158750Y76200
X165799Y58547
X157353Y69853
X158687Y77089
X162306Y70358
X162306Y65468
X162243Y47942
X159691Y50990
X159550Y53848
X163068Y79251
X159191Y77317
X163392Y78861
X162370Y42609
X163770Y78467
X161798Y42609
X159849Y77769
X159004Y47498
X158037Y45071
X159195Y78296
X161036Y42609
X158623Y78423
X160909Y44640
X158623Y78994
X160465Y44005
X164465Y50228
X162814Y50228
X165100Y42672
X165100Y43942
X158560Y42609
X158560Y80328
X165040Y80264
X165672Y79821
X165100Y46291
X164592Y46291
X158052Y80328
X157956Y42609
X166243Y79375
X166751Y79375
X174244Y62484
X174244Y66929
X174244Y65659
X174244Y64389
X174244Y63119
X175958Y63754
X175958Y62484
X175958Y66294
X175958Y67564
X172085Y60325
X172085Y57912
X170498Y57912
X170498Y60325
X170434Y55499
X172085Y55499
X173609Y55499
X175260Y55499
X175958Y65024
X175958Y68834
X174244Y68199
X174244Y69469
X174244Y70739
X172022Y62865
X172022Y63754
X172022Y65659
X172022Y66929
X172022Y68199
X170180Y68136
X170180Y66675
X170180Y65278
X170180Y63881
X170180Y62484
X170434Y70612
X171196Y70612
X170371Y51435
X173927Y52387
X169101Y49022
X169101Y47815
X174244Y72263
X175577Y75184
X170307Y76645
X173482Y72835
X173165Y49149
X173165Y48514
X174117Y73533
X176974Y77915
X169736Y79566
X171006Y78296
X172974Y78423
X171768Y76137
X174117Y75311
X175958Y71247
X175958Y74168
X169101Y72835
X175641Y42799
X177482Y42672
X172530Y46990
X175958Y79629
X176339Y53149
X168529Y70358
X168529Y79375
X175260Y57912
X172974Y43244
X169482Y44259
X175069Y46863
X174942Y60325
X175006Y77788
X173571Y67907
X168974Y45529
X176974Y59725
X176989Y76073
X176974Y59118
X176974Y76708
X169926Y73216
X173482Y51117
X172847Y51117
X176056Y75502
X176388Y75169
X177001Y57293
X176022Y54165
X176911Y46291
X176974Y55118
X175260Y52959
X177001Y50228
X176974Y55689
X176974Y56261
X171234Y53848
X175260Y80264
X174077Y46315
X171742Y53848
X174819Y79947
X174490Y46871
X172250Y53848
X174250Y79756
X173038Y47434
X170218Y53848
X175196Y45783
X174181Y45466
X169545Y54356
X174117Y44323
X169710Y53848
X176657Y61150
X176974Y60325
X168503Y57342
X173609Y53846
X173047Y53848
X173546Y62992
X170307Y61978
X171653Y61978
X173971Y62041
X169073Y62266
X168542Y56832
X168494Y57848
X168783Y60916
X168491Y60500
X168529Y70866
X169164Y79386
X176963Y77343
X172085Y43307
X169482Y72454
X169926Y76200
X176974Y58547
X168529Y69853
X169863Y77089
X173482Y70358
X173482Y65468
X173419Y47942
X170867Y50990
X170726Y53848
X174244Y79251
X170367Y77317
X174568Y78861
X173546Y42609
X174946Y78467
X172974Y42609
X171025Y77769
X170180Y47498
X169213Y45071
X170371Y78296
X172212Y42609
X169799Y78423
X172085Y44640
X169799Y78994
X171641Y44005
X175641Y50228
X173990Y50228
X176276Y42672
X176276Y43942
X169736Y42609
X169736Y80328
X176216Y80264
X176847Y79821
X176276Y46291
X175768Y46291
X169228Y80328
X169132Y42609
X177419Y79375
X177927Y79375
X6604Y103632
X6604Y108077
X6604Y106807
X6604Y105537
X6604Y104267
X8319Y104902
X8319Y103632
X8319Y107442
X8319Y108712
X4445Y101473
X4445Y99060
X2857Y99060
X2857Y101473
X2794Y96647
X4445Y96647
X5969Y96647
X7620Y96647
X8319Y106172
X8319Y109982
X6604Y109347
X6604Y110617
X6604Y111887
X4382Y104013
X4382Y104902
X4382Y106807
X4382Y108077
X4382Y109347
X2540Y109283
X2540Y107823
X2540Y106426
X2540Y105029
X2540Y103632
X2794Y111760
X3556Y111760
X2731Y92583
X6286Y93535
X1460Y90170
X1460Y88963
X6604Y113411
X7937Y116332
X2667Y117792
X5842Y113982
X5524Y90297
X5524Y89662
X6477Y114681
X9335Y119062
X2096Y120713
X3365Y119443
X5334Y119570
X4128Y117284
X6477Y116459
X8319Y112395
X8319Y115316
X1460Y113982
X8001Y83947
X9843Y83820
X4890Y88138
X8319Y120777
X8700Y94297
X889Y111506
X889Y120523
X7620Y99060
X5334Y84392
X1841Y85408
X7429Y88011
X7302Y101473
X7366Y118935
X5931Y109055
X1334Y86678
X9335Y100873
X9349Y117221
X9335Y100266
X9335Y117856
X2286Y114363
X5842Y92265
X5207Y92265
X8416Y116649
X8748Y116317
X9362Y98441
X8382Y95313
X9271Y87439
X9335Y96266
X7620Y94107
X9362Y91376
X9335Y96837
X9335Y97409
X3594Y94996
X7620Y121412
X6437Y87463
X4102Y94996
X7179Y121094
X6850Y88019
X4610Y94996
X6610Y120904
X5398Y88582
X2578Y94996
X7556Y86932
X6540Y86614
X1905Y95504
X6477Y85471
X2070Y94996
X9017Y102298
X9335Y101473
X862Y98490
X5969Y94994
X5407Y94996
X5905Y104140
X2667Y103126
X4013Y103126
X6331Y103189
X1433Y103414
X902Y97980
X854Y98996
X1143Y102064
X851Y101648
X889Y112014
X1524Y120534
X9323Y118491
X4445Y84455
X1841Y113601
X2286Y117348
X9335Y99695
X889Y111001
X2223Y118237
X5842Y111506
X5842Y106616
X5778Y89090
X3227Y92138
X3086Y94996
X6604Y120399
X2727Y118465
X6928Y120009
X5905Y83757
X7306Y119615
X5334Y83757
X3384Y118916
X2540Y88646
X1573Y86219
X2731Y119443
X4572Y83757
X2159Y119570
X4445Y85789
X2159Y120142
X4000Y85154
X8001Y91376
X6350Y91376
X8636Y83820
X8636Y85090
X2096Y83757
X2096Y121475
X8576Y121412
X9208Y120969
X8636Y87439
X8128Y87439
X1587Y121475
X1492Y83757
X9779Y120523
X10287Y120523
X17780Y103632
X17780Y108077
X17780Y106807
X17780Y105537
X17780Y104267
X19495Y104902
X19495Y103632
X19495Y107442
X19495Y108712
X15621Y101473
X15621Y99060
X14033Y99060
X14033Y101473
X13970Y96647
X15621Y96647
X17145Y96647
X18796Y96647
X19495Y106172
X19495Y109982
X17780Y109347
X17780Y110617
X17780Y111887
X15557Y104013
X15557Y104902
X15557Y106807
X15557Y108077
X15557Y109347
X13716Y109283
X13716Y107823
X13716Y106426
X13716Y105029
X13716Y103632
X13970Y111760
X14732Y111760
X13906Y92583
X17463Y93535
X12636Y90170
X12636Y88963
X17780Y113411
X19114Y116332
X13843Y117792
X17018Y113982
X16701Y90297
X16701Y89662
X17653Y114681
X20511Y119062
X13271Y120713
X14541Y119443
X16510Y119570
X15303Y117284
X17653Y116459
X19495Y112395
X19495Y115316
X12636Y113982
X19177Y83947
X21019Y83820
X16065Y88138
X19495Y120777
X19876Y94297
X12065Y111506
X12065Y120523
X18796Y99060
X16510Y84392
X13017Y85408
X18606Y88011
X18479Y101473
X18542Y118935
X17107Y109055
X12509Y86678
X20511Y100873
X20525Y117221
X20511Y100266
X20511Y117856
X13462Y114363
X17018Y92265
X16383Y92265
X19592Y116649
X19924Y116317
X20538Y98441
X19558Y95313
X20447Y87439
X20511Y96266
X18796Y94107
X20538Y91376
X20511Y96837
X20511Y97409
X14770Y94996
X18796Y121412
X17613Y87463
X15278Y94996
X18355Y121094
X18026Y88019
X15786Y94996
X17786Y120904
X16574Y88582
X13754Y94996
X18733Y86932
X17717Y86614
X13081Y95504
X17653Y85471
X13246Y94996
X20193Y102298
X20511Y101473
X12038Y98490
X17145Y94994
X16583Y94996
X17082Y104140
X13843Y103126
X15189Y103126
X17507Y103189
X12609Y103414
X12078Y97980
X12030Y98996
X12319Y102064
X12027Y101648
X12065Y112014
X12700Y120534
X20499Y118491
X15621Y84455
X13017Y113601
X13462Y117348
X20511Y99695
X12065Y111001
X13398Y118237
X17018Y111506
X17018Y106616
X16955Y89090
X14403Y92138
X14262Y94996
X17780Y120399
X13903Y118465
X18104Y120009
X17082Y83757
X18482Y119615
X16510Y83757
X14560Y118916
X13716Y88646
X12749Y86219
X13906Y119443
X15748Y83757
X13335Y119570
X15621Y85789
X13335Y120142
X15176Y85154
X19177Y91376
X17526Y91376
X19812Y83820
X19812Y85090
X13271Y83757
X13271Y121475
X19752Y121412
X20384Y120969
X19812Y87439
X19304Y87439
X12763Y121475
X12668Y83757
X20955Y120523
X21463Y120523
X28956Y103632
X28956Y108077
X28956Y106807
X28956Y105537
X28956Y104267
X30670Y104902
X30670Y103632
X30670Y107442
X30670Y108712
X26797Y101473
X26797Y99060
X25209Y99060
X25209Y101473
X25146Y96647
X26797Y96647
X28321Y96647
X29972Y96647
X30670Y106172
X30670Y109982
X28956Y109347
X28956Y110617
X28956Y111887
X26733Y104013
X26733Y104902
X26733Y106807
X26733Y108077
X26733Y109347
X24892Y109283
X24892Y107823
X24892Y106426
X24892Y105029
X24892Y103632
X25146Y111760
X25908Y111760
X25082Y92583
X28638Y93535
X23812Y90170
X23812Y88963
X28956Y113411
X30289Y116332
X25019Y117792
X28194Y113982
X27876Y90297
X27876Y89662
X28829Y114681
X31686Y119062
X24447Y120713
X25717Y119443
X27686Y119570
X26479Y117284
X28829Y116459
X30670Y112395
X30670Y115316
X23812Y113982
X30353Y83947
X32194Y83820
X27241Y88138
X30670Y120777
X31051Y94297
X23241Y111506
X23241Y120523
X29972Y99060
X27686Y84392
X24193Y85408
X29781Y88011
X29654Y101473
X29718Y118935
X28283Y109055
X23685Y86678
X31686Y100873
X31701Y117221
X31686Y100266
X31686Y117856
X24638Y114363
X28194Y92265
X27559Y92265
X30768Y116649
X31100Y116317
X31713Y98441
X30734Y95313
X31623Y87439
X31686Y96266
X29972Y94107
X31713Y91376
X31686Y96837
X31686Y97409
X25946Y94996
X29972Y121412
X28789Y87463
X26454Y94996
X29531Y121094
X29202Y88019
X26962Y94996
X28962Y120904
X27749Y88582
X24930Y94996
X29908Y86932
X28892Y86614
X24257Y95504
X28829Y85471
X24422Y94996
X31369Y102298
X31686Y101473
X23214Y98490
X28321Y94994
X27759Y94996
X28257Y104140
X25019Y103126
X26365Y103126
X28683Y103189
X23785Y103414
X23254Y97980
X23206Y98996
X23495Y102064
X23203Y101648
X23241Y112014
X23876Y120534
X31675Y118491
X26797Y84455
X24193Y113601
X24638Y117348
X31686Y99695
X23241Y111001
X24574Y118237
X28194Y111506
X28194Y106616
X28130Y89090
X25579Y92138
X25438Y94996
X28956Y120399
X25079Y118465
X29280Y120009
X28257Y83757
X29658Y119615
X27686Y83757
X25736Y118916
X24892Y88646
X23925Y86219
X25082Y119443
X26924Y83757
X24511Y119570
X26797Y85789
X24511Y120142
X26352Y85154
X30353Y91376
X28702Y91376
X30988Y83820
X30988Y85090
X24447Y83757
X24447Y121475
X30928Y121412
X31559Y120969
X30988Y87439
X30480Y87439
X23939Y121475
X23844Y83757
X32131Y120523
X32639Y120523
X40132Y103632
X40132Y108077
X40132Y106807
X40132Y105537
X40132Y104267
X41847Y104902
X41847Y103632
X41847Y107442
X41847Y108712
X37973Y101473
X37973Y99060
X36386Y99060
X36386Y101473
X36322Y96647
X37973Y96647
X39497Y96647
X41148Y96647
X41847Y106172
X41847Y109982
X40132Y109347
X40132Y110617
X40132Y111887
X37910Y104013
X37910Y104902
X37910Y106807
X37910Y108077
X37910Y109347
X36068Y109283
X36068Y107823
X36068Y106426
X36068Y105029
X36068Y103632
X36322Y111760
X37084Y111760
X36259Y92583
X39815Y93535
X34989Y90170
X34989Y88963
X40132Y113411
X41466Y116332
X36195Y117792
X39370Y113982
X39053Y90297
X39053Y89662
X40005Y114681
X42863Y119062
X35624Y120713
X36894Y119443
X38862Y119570
X37656Y117284
X40005Y116459
X41847Y112395
X41847Y115316
X34989Y113982
X41529Y83947
X43371Y83820
X38418Y88138
X41847Y120777
X42228Y94297
X34417Y111506
X34417Y120523
X41148Y99060
X38862Y84392
X35370Y85408
X40958Y88011
X40831Y101473
X40894Y118935
X39459Y109055
X34862Y86678
X42863Y100873
X42877Y117221
X42863Y100266
X42863Y117856
X35814Y114363
X39370Y92265
X38735Y92265
X41944Y116649
X42276Y116317
X42890Y98441
X41910Y95313
X42799Y87439
X42863Y96266
X41148Y94107
X42890Y91376
X42863Y96837
X42863Y97409
X37122Y94996
X41148Y121412
X39965Y87463
X37630Y94996
X40707Y121094
X40378Y88019
X38138Y94996
X40138Y120904
X38926Y88582
X36106Y94996
X41085Y86932
X40069Y86614
X35433Y95504
X40005Y85471
X35598Y94996
X42545Y102298
X42863Y101473
X34391Y98490
X39497Y94994
X38935Y94996
X39434Y104140
X36195Y103126
X37541Y103126
X39859Y103189
X34961Y103414
X34430Y97980
X34382Y98996
X34671Y102064
X34379Y101648
X34417Y112014
X35052Y120534
X42851Y118491
X37973Y84455
X35370Y113601
X35814Y117348
X42863Y99695
X34417Y111001
X35751Y118237
X39370Y111506
X39370Y106616
X39307Y89090
X36755Y92138
X36614Y94996
X40132Y120399
X36255Y118465
X40456Y120009
X39434Y83757
X40834Y119615
X38862Y83757
X36913Y118916
X36068Y88646
X35101Y86219
X36259Y119443
X38100Y83757
X35687Y119570
X37973Y85789
X35687Y120142
X37529Y85154
X41529Y91376
X39878Y91376
X42164Y83820
X42164Y85090
X35624Y83757
X35624Y121475
X42104Y121412
X42736Y120969
X42164Y87439
X41656Y87439
X35116Y121475
X35020Y83757
X43307Y120523
X43815Y120523
X51308Y103632
X51308Y108077
X51308Y106807
X51308Y105537
X51308Y104267
X53022Y104902
X53022Y103632
X53022Y107442
X53022Y108712
X49149Y101473
X49149Y99060
X47561Y99060
X47561Y101473
X47498Y96647
X49149Y96647
X50673Y96647
X52324Y96647
X53022Y106172
X53022Y109982
X51308Y109347
X51308Y110617
X51308Y111887
X49085Y104013
X49085Y104902
X49085Y106807
X49085Y108077
X49085Y109347
X47244Y109283
X47244Y107823
X47244Y106426
X47244Y105029
X47244Y103632
X47498Y111760
X48260Y111760
X47434Y92583
X50990Y93535
X46164Y90170
X46164Y88963
X51308Y113411
X52641Y116332
X47371Y117792
X50546Y113982
X50228Y90297
X50228Y89662
X51181Y114681
X54038Y119062
X46799Y120713
X48069Y119443
X50038Y119570
X48831Y117284
X51181Y116459
X53022Y112395
X53022Y115316
X46164Y113982
X52705Y83947
X54546Y83820
X49593Y88138
X53022Y120777
X53403Y94297
X45593Y111506
X45593Y120523
X52324Y99060
X50038Y84392
X46545Y85408
X52133Y88011
X52006Y101473
X52070Y118935
X50635Y109055
X46037Y86678
X54038Y100873
X54053Y117221
X54038Y100266
X54038Y117856
X46990Y114363
X50546Y92265
X49911Y92265
X53120Y116649
X53452Y116317
X54065Y98441
X53086Y95313
X53975Y87439
X54038Y96266
X52324Y94107
X54065Y91376
X54038Y96837
X54038Y97409
X48298Y94996
X52324Y121412
X51141Y87463
X48806Y94996
X51883Y121094
X51554Y88019
X49314Y94996
X51314Y120904
X50101Y88582
X47282Y94996
X52260Y86932
X51244Y86614
X46609Y95504
X51181Y85471
X46774Y94996
X53721Y102298
X54038Y101473
X45566Y98490
X50673Y94994
X50111Y94996
X50609Y104140
X47371Y103126
X48717Y103126
X51035Y103189
X46137Y103414
X45606Y97980
X45558Y98996
X45847Y102064
X45555Y101648
X45593Y112014
X46228Y120534
X54027Y118491
X49149Y84455
X46545Y113601
X46990Y117348
X54038Y99695
X45593Y111001
X46926Y118237
X50546Y111506
X50546Y106616
X50482Y89090
X47931Y92138
X47790Y94996
X51308Y120399
X47431Y118465
X51632Y120009
X50609Y83757
X52010Y119615
X50038Y83757
X48088Y118916
X47244Y88646
X46277Y86219
X47434Y119443
X49276Y83757
X46863Y119570
X49149Y85789
X46863Y120142
X48704Y85154
X52705Y91376
X51054Y91376
X53340Y83820
X53340Y85090
X46799Y83757
X46799Y121475
X53280Y121412
X53911Y120969
X53340Y87439
X52832Y87439
X46291Y121475
X46196Y83757
X54483Y120523
X54991Y120523
X62484Y103632
X62484Y108077
X62484Y106807
X62484Y105537
X62484Y104267
X64198Y104902
X64198Y103632
X64198Y107442
X64198Y108712
X60325Y101473
X60325Y99060
X58737Y99060
X58737Y101473
X58674Y96647
X60325Y96647
X61849Y96647
X63500Y96647
X64198Y106172
X64198Y109982
X62484Y109347
X62484Y110617
X62484Y111887
X60261Y104013
X60261Y104902
X60261Y106807
X60261Y108077
X60261Y109347
X58420Y109283
X58420Y107823
X58420Y106426
X58420Y105029
X58420Y103632
X58674Y111760
X59436Y111760
X58610Y92583
X62166Y93535
X57340Y90170
X57340Y88963
X62484Y113411
X63817Y116332
X58547Y117792
X61722Y113982
X61404Y90297
X61404Y89662
X62357Y114681
X65214Y119062
X57975Y120713
X59245Y119443
X61214Y119570
X60007Y117284
X62357Y116459
X64198Y112395
X64198Y115316
X57340Y113982
X63881Y83947
X65723Y83820
X60769Y88138
X64198Y120777
X64579Y94297
X56769Y111506
X56769Y120523
X63500Y99060
X61214Y84392
X57721Y85408
X63309Y88011
X63182Y101473
X63246Y118935
X61811Y109055
X57213Y86678
X65214Y100873
X65229Y117221
X65214Y100266
X65214Y117856
X58166Y114363
X61722Y92265
X61087Y92265
X64296Y116649
X64628Y116317
X65241Y98441
X64262Y95313
X65151Y87439
X65214Y96266
X63500Y94107
X65241Y91376
X65214Y96837
X65214Y97409
X59474Y94996
X63500Y121412
X62317Y87463
X59982Y94996
X63059Y121094
X62730Y88019
X60490Y94996
X62490Y120904
X61277Y88582
X58458Y94996
X63436Y86932
X62420Y86614
X57785Y95504
X62357Y85471
X57950Y94996
X64897Y102298
X65214Y101473
X56742Y98490
X61849Y94994
X61287Y94996
X61785Y104140
X58547Y103126
X59893Y103126
X62211Y103189
X57313Y103414
X56782Y97980
X56734Y98996
X57023Y102064
X56731Y101648
X56769Y112014
X57404Y120534
X65203Y118491
X60325Y84455
X57721Y113601
X58166Y117348
X65214Y99695
X56769Y111001
X58102Y118237
X61722Y111506
X61722Y106616
X61658Y89090
X59107Y92138
X58966Y94996
X62484Y120399
X58607Y118465
X62808Y120009
X61785Y83757
X63186Y119615
X61214Y83757
X59264Y118916
X58420Y88646
X57453Y86219
X58610Y119443
X60452Y83757
X58039Y119570
X60325Y85789
X58039Y120142
X59880Y85154
X63881Y91376
X62230Y91376
X64516Y83820
X64516Y85090
X57975Y83757
X57975Y121475
X64456Y121412
X65087Y120969
X64516Y87439
X64008Y87439
X57467Y121475
X57372Y83757
X65659Y120523
X66167Y120523
X73660Y103632
X73660Y108077
X73660Y106807
X73660Y105537
X73660Y104267
X75375Y104902
X75375Y103632
X75375Y107442
X75375Y108712
X71501Y101473
X71501Y99060
X69914Y99060
X69914Y101473
X69850Y96647
X71501Y96647
X73025Y96647
X74676Y96647
X75375Y106172
X75375Y109982
X73660Y109347
X73660Y110617
X73660Y111887
X71438Y104013
X71438Y104902
X71438Y106807
X71438Y108077
X71438Y109347
X69596Y109283
X69596Y107823
X69596Y106426
X69596Y105029
X69596Y103632
X69850Y111760
X70612Y111760
X69787Y92583
X73343Y93535
X68517Y90170
X68517Y88963
X73660Y113411
X74994Y116332
X69723Y117792
X72898Y113982
X72581Y90297
X72581Y89662
X73533Y114681
X76391Y119062
X69152Y120713
X70422Y119443
X72390Y119570
X71184Y117284
X73533Y116459
X75375Y112395
X75375Y115316
X68517Y113982
X75057Y83947
X76899Y83820
X71946Y88138
X75375Y120777
X75756Y94297
X67945Y111506
X67945Y120523
X74676Y99060
X72390Y84392
X68898Y85408
X74486Y88011
X74359Y101473
X74422Y118935
X72987Y109055
X68390Y86678
X76391Y100873
X76405Y117221
X76391Y100266
X76391Y117856
X69342Y114363
X72898Y92265
X72263Y92265
X75472Y116649
X75804Y116317
X76418Y98441
X75438Y95313
X76327Y87439
X76391Y96266
X74676Y94107
X76418Y91376
X76391Y96837
X76391Y97409
X70650Y94996
X74676Y121412
X73493Y87463
X71158Y94996
X74235Y121094
X73906Y88019
X71666Y94996
X73666Y120904
X72454Y88582
X69634Y94996
X74613Y86932
X73597Y86614
X68961Y95504
X73533Y85471
X69126Y94996
X76073Y102298
X76391Y101473
X67919Y98490
X73025Y94994
X72463Y94996
X72962Y104140
X69723Y103126
X71069Y103126
X73387Y103189
X68489Y103414
X67958Y97980
X67910Y98996
X68199Y102064
X67907Y101648
X67945Y112014
X68580Y120534
X76379Y118491
X71501Y84455
X68898Y113601
X69342Y117348
X76391Y99695
X67945Y111001
X69279Y118237
X72898Y111506
X72898Y106616
X72835Y89090
X70283Y92138
X70142Y94996
X73660Y120399
X69783Y118465
X73984Y120009
X72962Y83757
X74362Y119615
X72390Y83757
X70441Y118916
X69596Y88646
X68629Y86219
X69787Y119443
X71628Y83757
X69215Y119570
X71501Y85789
X69215Y120142
X71057Y85154
X75057Y91376
X73406Y91376
X75692Y83820
X75692Y85090
X69152Y83757
X69152Y121475
X75632Y121412
X76264Y120969
X75692Y87439
X75184Y87439
X68644Y121475
X68548Y83757
X76835Y120523
X77343Y120523
X84836Y103632
X84836Y108077
X84836Y106807
X84836Y105537
X84836Y104267
X86551Y104902
X86551Y103632
X86551Y107442
X86551Y108712
X82677Y101473
X82677Y99060
X81090Y99060
X81090Y101473
X81026Y96647
X82677Y96647
X84201Y96647
X85852Y96647
X86551Y106172
X86551Y109982
X84836Y109347
X84836Y110617
X84836Y111887
X82614Y104013
X82614Y104902
X82614Y106807
X82614Y108077
X82614Y109347
X80772Y109283
X80772Y107823
X80772Y106426
X80772Y105029
X80772Y103632
X81026Y111760
X81788Y111760
X80963Y92583
X84519Y93535
X79693Y90170
X79693Y88963
X84836Y113411
X86170Y116332
X80899Y117792
X84074Y113982
X83757Y90297
X83757Y89662
X84709Y114681
X87566Y119062
X80328Y120713
X81598Y119443
X83566Y119570
X82360Y117284
X84709Y116459
X86551Y112395
X86551Y115316
X79693Y113982
X86233Y83947
X88074Y83820
X83122Y88138
X86551Y120777
X86932Y94297
X79121Y111506
X79121Y120523
X85852Y99060
X83566Y84392
X80074Y85408
X85662Y88011
X85535Y101473
X85598Y118935
X84163Y109055
X79566Y86678
X87566Y100873
X87581Y117221
X87566Y100266
X87566Y117856
X80518Y114363
X84074Y92265
X83439Y92265
X86648Y116649
X86980Y116317
X87593Y98441
X86614Y95313
X87503Y87439
X87566Y96266
X85852Y94107
X87593Y91376
X87566Y96837
X87566Y97409
X81826Y94996
X85852Y121412
X84669Y87463
X82334Y94996
X85411Y121094
X85082Y88019
X82842Y94996
X84842Y120904
X83630Y88582
X80810Y94996
X85789Y86932
X84773Y86614
X80137Y95504
X84709Y85471
X80302Y94996
X87249Y102298
X87566Y101473
X79095Y98490
X84201Y94994
X83639Y94996
X84138Y104140
X80899Y103126
X82245Y103126
X84563Y103189
X79665Y103414
X79134Y97980
X79086Y98996
X79375Y102064
X79083Y101648
X79121Y112014
X79756Y120534
X87555Y118491
X82677Y84455
X80074Y113601
X80518Y117348
X87566Y99695
X79121Y111001
X80455Y118237
X84074Y111506
X84074Y106616
X84011Y89090
X81459Y92138
X81318Y94996
X84836Y120399
X80959Y118465
X85160Y120009
X84138Y83757
X85538Y119615
X83566Y83757
X81617Y118916
X80772Y88646
X79805Y86219
X80963Y119443
X82804Y83757
X80391Y119570
X82677Y85789
X80391Y120142
X82233Y85154
X86233Y91376
X84582Y91376
X86868Y83820
X86868Y85090
X80328Y83757
X80328Y121475
X86808Y121412
X87439Y120969
X86868Y87439
X86360Y87439
X79820Y121475
X79724Y83757
X88011Y120523
X88519Y120523
X96012Y103632
X96012Y108077
X96012Y106807
X96012Y105537
X96012Y104267
X97726Y104902
X97726Y103632
X97726Y107442
X97726Y108712
X93853Y101473
X93853Y99060
X92265Y99060
X92265Y101473
X92202Y96647
X93853Y96647
X95377Y96647
X97028Y96647
X97726Y106172
X97726Y109982
X96012Y109347
X96012Y110617
X96012Y111887
X93789Y104013
X93789Y104902
X93789Y106807
X93789Y108077
X93789Y109347
X91948Y109283
X91948Y107823
X91948Y106426
X91948Y105029
X91948Y103632
X92202Y111760
X92964Y111760
X92138Y92583
X95694Y93535
X90868Y90170
X90868Y88963
X96012Y113411
X97345Y116332
X92075Y117792
X95250Y113982
X94932Y90297
X94932Y89662
X95885Y114681
X98742Y119062
X91503Y120713
X92773Y119443
X94742Y119570
X93535Y117284
X95885Y116459
X97726Y112395
X97726Y115316
X90868Y113982
X97409Y83947
X99250Y83820
X94297Y88138
X97726Y120777
X98107Y94297
X90297Y111506
X90297Y120523
X97028Y99060
X94742Y84392
X91249Y85408
X96837Y88011
X96710Y101473
X96774Y118935
X95339Y109055
X90741Y86678
X98742Y100873
X98757Y117221
X98742Y100266
X98742Y117856
X91694Y114363
X95250Y92265
X94615Y92265
X97824Y116649
X98156Y116317
X98769Y98441
X97790Y95313
X98679Y87439
X98742Y96266
X97028Y94107
X98769Y91376
X98742Y96837
X98742Y97409
X93002Y94996
X97028Y121412
X95845Y87463
X93510Y94996
X96587Y121094
X96258Y88019
X94018Y94996
X96018Y120904
X94805Y88582
X91986Y94996
X96964Y86932
X95948Y86614
X91313Y95504
X95885Y85471
X91478Y94996
X98425Y102298
X98742Y101473
X90270Y98490
X95377Y94994
X94815Y94996
X95313Y104140
X92075Y103126
X93421Y103126
X95739Y103189
X90841Y103414
X90310Y97980
X90262Y98996
X90551Y102064
X90259Y101648
X90297Y112014
X90932Y120534
X98731Y118491
X93853Y84455
X91249Y113601
X91694Y117348
X98742Y99695
X90297Y111001
X91630Y118237
X95250Y111506
X95250Y106616
X95186Y89090
X92635Y92138
X92494Y94996
X96012Y120399
X92135Y118465
X96336Y120009
X95313Y83757
X96714Y119615
X94742Y83757
X92792Y118916
X91948Y88646
X90981Y86219
X92138Y119443
X93980Y83757
X91567Y119570
X93853Y85789
X91567Y120142
X93408Y85154
X97409Y91376
X95758Y91376
X98044Y83820
X98044Y85090
X91503Y83757
X91503Y121475
X97984Y121412
X98615Y120969
X98044Y87439
X97536Y87439
X90995Y121475
X90900Y83757
X99187Y120523
X99695Y120523
X107188Y103632
X107188Y108077
X107188Y106807
X107188Y105537
X107188Y104267
X108902Y104902
X108902Y103632
X108902Y107442
X108902Y108712
X105029Y101473
X105029Y99060
X103441Y99060
X103441Y101473
X103378Y96647
X105029Y96647
X106553Y96647
X108204Y96647
X108902Y106172
X108902Y109982
X107188Y109347
X107188Y110617
X107188Y111887
X104965Y104013
X104965Y104902
X104965Y106807
X104965Y108077
X104965Y109347
X103124Y109283
X103124Y107823
X103124Y106426
X103124Y105029
X103124Y103632
X103378Y111760
X104140Y111760
X103314Y92583
X106870Y93535
X102044Y90170
X102044Y88963
X107188Y113411
X108521Y116332
X103251Y117792
X106426Y113982
X106108Y90297
X106108Y89662
X107061Y114681
X109918Y119062
X102679Y120713
X103949Y119443
X105918Y119570
X104711Y117284
X107061Y116459
X108902Y112395
X108902Y115316
X102044Y113982
X108585Y83947
X110426Y83820
X105473Y88138
X108902Y120777
X109283Y94297
X101473Y111506
X101473Y120523
X108204Y99060
X105918Y84392
X102425Y85408
X108013Y88011
X107886Y101473
X107950Y118935
X106515Y109055
X101917Y86678
X109918Y100873
X109933Y117221
X109918Y100266
X109918Y117856
X102870Y114363
X106426Y92265
X105791Y92265
X109000Y116649
X109332Y116317
X109945Y98441
X108966Y95313
X109855Y87439
X109918Y96266
X108204Y94107
X109945Y91376
X109918Y96837
X109918Y97409
X104178Y94996
X108204Y121412
X107021Y87463
X104686Y94996
X107763Y121094
X107434Y88019
X105194Y94996
X107194Y120904
X105981Y88582
X103162Y94996
X108140Y86932
X107124Y86614
X102489Y95504
X107061Y85471
X102654Y94996
X109601Y102298
X109918Y101473
X101446Y98490
X106553Y94994
X105991Y94996
X106489Y104140
X103251Y103126
X104597Y103126
X106915Y103189
X102017Y103414
X101486Y97980
X101438Y98996
X101727Y102064
X101435Y101648
X101473Y112014
X102108Y120534
X109907Y118491
X105029Y84455
X102425Y113601
X102870Y117348
X109918Y99695
X101473Y111001
X102806Y118237
X106426Y111506
X106426Y106616
X106362Y89090
X103811Y92138
X103670Y94996
X107188Y120399
X103311Y118465
X107512Y120009
X106489Y83757
X107890Y119615
X105918Y83757
X103968Y118916
X103124Y88646
X102157Y86219
X103314Y119443
X105156Y83757
X102743Y119570
X105029Y85789
X102743Y120142
X104584Y85154
X108585Y91376
X106934Y91376
X109220Y83820
X109220Y85090
X102679Y83757
X102679Y121475
X109160Y121412
X109791Y120969
X109220Y87439
X108712Y87439
X102171Y121475
X102076Y83757
X110363Y120523
X110871Y120523
X118364Y103632
X118364Y108077
X118364Y106807
X118364Y105537
X118364Y104267
X120078Y104902
X120078Y103632
X120078Y107442
X120078Y108712
X116205Y101473
X116205Y99060
X114617Y99060
X114617Y101473
X114554Y96647
X116205Y96647
X117729Y96647
X119380Y96647
X120078Y106172
X120078Y109982
X118364Y109347
X118364Y110617
X118364Y111887
X116141Y104013
X116141Y104902
X116141Y106807
X116141Y108077
X116141Y109347
X114300Y109283
X114300Y107823
X114300Y106426
X114300Y105029
X114300Y103632
X114554Y111760
X115316Y111760
X114490Y92583
X118046Y93535
X113220Y90170
X113220Y88963
X118364Y113411
X119697Y116332
X114427Y117792
X117602Y113982
X117284Y90297
X117284Y89662
X118237Y114681
X121094Y119062
X113855Y120713
X115125Y119443
X117094Y119570
X115887Y117284
X118237Y116459
X120078Y112395
X120078Y115316
X113220Y113982
X119761Y83947
X121602Y83820
X116649Y88138
X120078Y120777
X120459Y94297
X112649Y111506
X112649Y120523
X119380Y99060
X117094Y84392
X113601Y85408
X119189Y88011
X119062Y101473
X119126Y118935
X117691Y109055
X113093Y86678
X121094Y100873
X121109Y117221
X121094Y100266
X121094Y117856
X114046Y114363
X117602Y92265
X116967Y92265
X120176Y116649
X120508Y116317
X121121Y98441
X120142Y95313
X121031Y87439
X121094Y96266
X119380Y94107
X121121Y91376
X121094Y96837
X121094Y97409
X115354Y94996
X119380Y121412
X118197Y87463
X115862Y94996
X118939Y121094
X118610Y88019
X116370Y94996
X118370Y120904
X117157Y88582
X114338Y94996
X119316Y86932
X118300Y86614
X113665Y95504
X118237Y85471
X113830Y94996
X120777Y102298
X121094Y101473
X112622Y98490
X117729Y94994
X117167Y94996
X117665Y104140
X114427Y103126
X115773Y103126
X118091Y103189
X113193Y103414
X112662Y97980
X112614Y98996
X112903Y102064
X112611Y101648
X112649Y112014
X113284Y120534
X121083Y118491
X116205Y84455
X113601Y113601
X114046Y117348
X121094Y99695
X112649Y111001
X113982Y118237
X117602Y111506
X117602Y106616
X117538Y89090
X114987Y92138
X114846Y94996
X118364Y120399
X114487Y118465
X118688Y120009
X117665Y83757
X119066Y119615
X117094Y83757
X115144Y118916
X114300Y88646
X113333Y86219
X114490Y119443
X116332Y83757
X113919Y119570
X116205Y85789
X113919Y120142
X115760Y85154
X119761Y91376
X118110Y91376
X120396Y83820
X120396Y85090
X113855Y83757
X113855Y121475
X120336Y121412
X120967Y120969
X120396Y87439
X119888Y87439
X113347Y121475
X113252Y83757
X121539Y120523
X122047Y120523
X129540Y103632
X129540Y108077
X129540Y106807
X129540Y105537
X129540Y104267
X131255Y104902
X131255Y103632
X131255Y107442
X131255Y108712
X127381Y101473
X127381Y99060
X125793Y99060
X125793Y101473
X125730Y96647
X127381Y96647
X128905Y96647
X130556Y96647
X131255Y106172
X131255Y109982
X129540Y109347
X129540Y110617
X129540Y111887
X127317Y104013
X127317Y104902
X127317Y106807
X127317Y108077
X127317Y109347
X125476Y109283
X125476Y107823
X125476Y106426
X125476Y105029
X125476Y103632
X125730Y111760
X126492Y111760
X125666Y92583
X129222Y93535
X124396Y90170
X124396Y88963
X129540Y113411
X130873Y116332
X125603Y117792
X128778Y113982
X128460Y90297
X128460Y89662
X129413Y114681
X132271Y119062
X125031Y120713
X126301Y119443
X128270Y119570
X127063Y117284
X129413Y116459
X131255Y112395
X131255Y115316
X124396Y113982
X130937Y83947
X132779Y83820
X127825Y88138
X131255Y120777
X131636Y94297
X123825Y111506
X123825Y120523
X130556Y99060
X128270Y84392
X124777Y85408
X130365Y88011
X130238Y101473
X130302Y118935
X128867Y109055
X124269Y86678
X132271Y100873
X132285Y117221
X132271Y100266
X132271Y117856
X125222Y114363
X128778Y92265
X128143Y92265
X131352Y116649
X131684Y116317
X132298Y98441
X131318Y95313
X132207Y87439
X132271Y96266
X130556Y94107
X132298Y91376
X132271Y96837
X132271Y97409
X126530Y94996
X130556Y121412
X129373Y87463
X127038Y94996
X130115Y121094
X129786Y88019
X127546Y94996
X129546Y120904
X128333Y88582
X125514Y94996
X130492Y86932
X129476Y86614
X124841Y95504
X129413Y85471
X125006Y94996
X131953Y102298
X132271Y101473
X123798Y98490
X128905Y94994
X128343Y94996
X128841Y104140
X125603Y103126
X126949Y103126
X129267Y103189
X124369Y103414
X123838Y97980
X123790Y98996
X124079Y102064
X123787Y101648
X123825Y112014
X124460Y120534
X132259Y118491
X127381Y84455
X124777Y113601
X125222Y117348
X132271Y99695
X123825Y111001
X125158Y118237
X128778Y111506
X128778Y106616
X128714Y89090
X126163Y92138
X126022Y94996
X129540Y120399
X125663Y118465
X129864Y120009
X128841Y83757
X130242Y119615
X128270Y83757
X126320Y118916
X125476Y88646
X124509Y86219
X125666Y119443
X127508Y83757
X125095Y119570
X127381Y85789
X125095Y120142
X126936Y85154
X130937Y91376
X129286Y91376
X131572Y83820
X131572Y85090
X125031Y83757
X125031Y121475
X131512Y121412
X132144Y120969
X131572Y87439
X131064Y87439
X124523Y121475
X124428Y83757
X132715Y120523
X133223Y120523
X140716Y103632
X140716Y108077
X140716Y106807
X140716Y105537
X140716Y104267
X142431Y104902
X142431Y103632
X142431Y107442
X142431Y108712
X138557Y101473
X138557Y99060
X136970Y99060
X136970Y101473
X136906Y96647
X138557Y96647
X140081Y96647
X141732Y96647
X142431Y106172
X142431Y109982
X140716Y109347
X140716Y110617
X140716Y111887
X138494Y104013
X138494Y104902
X138494Y106807
X138494Y108077
X138494Y109347
X136652Y109283
X136652Y107823
X136652Y106426
X136652Y105029
X136652Y103632
X136906Y111760
X137668Y111760
X136843Y92583
X140399Y93535
X135573Y90170
X135573Y88963
X140716Y113411
X142050Y116332
X136779Y117792
X139954Y113982
X139637Y90297
X139637Y89662
X140589Y114681
X143447Y119062
X136208Y120713
X137478Y119443
X139446Y119570
X138240Y117284
X140589Y116459
X142431Y112395
X142431Y115316
X135573Y113982
X142113Y83947
X143955Y83820
X139002Y88138
X142431Y120777
X142812Y94297
X135001Y111506
X135001Y120523
X141732Y99060
X139446Y84392
X135954Y85408
X141542Y88011
X141415Y101473
X141478Y118935
X140043Y109055
X135446Y86678
X143447Y100873
X143461Y117221
X143447Y100266
X143447Y117856
X136398Y114363
X139954Y92265
X139319Y92265
X142528Y116649
X142860Y116317
X143474Y98441
X142494Y95313
X143383Y87439
X143447Y96266
X141732Y94107
X143474Y91376
X143447Y96837
X143447Y97409
X137706Y94996
X141732Y121412
X140549Y87463
X138214Y94996
X141291Y121094
X140962Y88019
X138722Y94996
X140722Y120904
X139510Y88582
X136690Y94996
X141669Y86932
X140653Y86614
X136017Y95504
X140589Y85471
X136182Y94996
X143129Y102298
X143447Y101473
X134975Y98490
X140081Y94994
X139519Y94996
X140018Y104140
X136779Y103126
X138125Y103126
X140443Y103189
X135545Y103414
X135014Y97980
X134966Y98996
X135255Y102064
X134963Y101648
X135001Y112014
X135636Y120534
X143435Y118491
X138557Y84455
X135954Y113601
X136398Y117348
X143447Y99695
X135001Y111001
X136335Y118237
X139954Y111506
X139954Y106616
X139891Y89090
X137339Y92138
X137198Y94996
X140716Y120399
X136839Y118465
X141040Y120009
X140018Y83757
X141418Y119615
X139446Y83757
X137497Y118916
X136652Y88646
X135685Y86219
X136843Y119443
X138684Y83757
X136271Y119570
X138557Y85789
X136271Y120142
X138113Y85154
X142113Y91376
X140462Y91376
X142748Y83820
X142748Y85090
X136208Y83757
X136208Y121475
X142688Y121412
X143320Y120969
X142748Y87439
X142240Y87439
X135700Y121475
X135604Y83757
X143891Y120523
X144399Y120523
X151892Y103632
X151892Y108077
X151892Y106807
X151892Y105537
X151892Y104267
X153607Y104902
X153607Y103632
X153607Y107442
X153607Y108712
X149733Y101473
X149733Y99060
X148146Y99060
X148146Y101473
X148082Y96647
X149733Y96647
X151257Y96647
X152908Y96647
X153607Y106172
X153607Y109982
X151892Y109347
X151892Y110617
X151892Y111887
X149670Y104013
X149670Y104902
X149670Y106807
X149670Y108077
X149670Y109347
X147828Y109283
X147828Y107823
X147828Y106426
X147828Y105029
X147828Y103632
X148082Y111760
X148844Y111760
X148019Y92583
X151575Y93535
X146749Y90170
X146749Y88963
X151892Y113411
X153226Y116332
X147955Y117792
X151130Y113982
X150813Y90297
X150813Y89662
X151765Y114681
X154623Y119062
X147384Y120713
X148654Y119443
X150622Y119570
X149416Y117284
X151765Y116459
X153607Y112395
X153607Y115316
X146749Y113982
X153289Y83947
X155131Y83820
X150178Y88138
X153607Y120777
X153988Y94297
X146177Y111506
X146177Y120523
X152908Y99060
X150622Y84392
X147130Y85408
X152718Y88011
X152591Y101473
X152654Y118935
X151219Y109055
X146622Y86678
X154623Y100873
X154637Y117221
X154623Y100266
X154623Y117856
X147574Y114363
X151130Y92265
X150495Y92265
X153704Y116649
X154036Y116317
X154650Y98441
X153670Y95313
X154559Y87439
X154623Y96266
X152908Y94107
X154650Y91376
X154623Y96837
X154623Y97409
X148882Y94996
X152908Y121412
X151725Y87463
X149390Y94996
X152467Y121094
X152138Y88019
X149898Y94996
X151898Y120904
X150686Y88582
X147866Y94996
X152845Y86932
X151829Y86614
X147193Y95504
X151765Y85471
X147358Y94996
X154305Y102298
X154623Y101473
X146151Y98490
X151257Y94994
X150695Y94996
X151194Y104140
X147955Y103126
X149301Y103126
X151619Y103189
X146721Y103414
X146190Y97980
X146142Y98996
X146431Y102064
X146139Y101648
X146177Y112014
X146812Y120534
X154611Y118491
X149733Y84455
X147130Y113601
X147574Y117348
X154623Y99695
X146177Y111001
X147511Y118237
X151130Y111506
X151130Y106616
X151067Y89090
X148515Y92138
X148374Y94996
X151892Y120399
X148015Y118465
X152216Y120009
X151194Y83757
X152594Y119615
X150622Y83757
X148673Y118916
X147828Y88646
X146861Y86219
X148019Y119443
X149860Y83757
X147447Y119570
X149733Y85789
X147447Y120142
X149289Y85154
X153289Y91376
X151638Y91376
X153924Y83820
X153924Y85090
X147384Y83757
X147384Y121475
X153864Y121412
X154496Y120969
X153924Y87439
X153416Y87439
X146876Y121475
X146780Y83757
X155067Y120523
X155575Y120523
X163068Y103632
X163068Y108077
X163068Y106807
X163068Y105537
X163068Y104267
X164783Y104902
X164783Y103632
X164783Y107442
X164783Y108712
X160909Y101473
X160909Y99060
X159322Y99060
X159322Y101473
X159258Y96647
X160909Y96647
X162433Y96647
X164084Y96647
X164783Y106172
X164783Y109982
X163068Y109347
X163068Y110617
X163068Y111887
X160846Y104013
X160846Y104902
X160846Y106807
X160846Y108077
X160846Y109347
X159004Y109283
X159004Y107823
X159004Y106426
X159004Y105029
X159004Y103632
X159258Y111760
X160020Y111760
X159195Y92583
X162751Y93535
X157925Y90170
X157925Y88963
X163068Y113411
X164402Y116332
X159131Y117792
X162306Y113982
X161989Y90297
X161989Y89662
X162941Y114681
X165799Y119062
X158560Y120713
X159830Y119443
X161798Y119570
X160592Y117284
X162941Y116459
X164783Y112395
X164783Y115316
X157925Y113982
X164465Y83947
X166307Y83820
X161354Y88138
X164783Y120777
X165164Y94297
X157353Y111506
X157353Y120523
X164084Y99060
X161798Y84392
X158306Y85408
X163894Y88011
X163767Y101473
X163830Y118935
X162395Y109055
X157798Y86678
X165799Y100873
X165813Y117221
X165799Y100266
X165799Y117856
X158750Y114363
X162306Y92265
X161671Y92265
X164880Y116649
X165212Y116317
X165826Y98441
X164846Y95313
X165735Y87439
X165799Y96266
X164084Y94107
X165826Y91376
X165799Y96837
X165799Y97409
X160058Y94996
X164084Y121412
X162901Y87463
X160566Y94996
X163643Y121094
X163314Y88019
X161074Y94996
X163074Y120904
X161862Y88582
X159042Y94996
X164021Y86932
X163005Y86614
X158369Y95504
X162941Y85471
X158534Y94996
X165481Y102298
X165799Y101473
X157327Y98490
X162433Y94994
X161871Y94996
X162370Y104140
X159131Y103126
X160477Y103126
X162795Y103189
X157897Y103414
X157366Y97980
X157318Y98996
X157607Y102064
X157315Y101648
X157353Y112014
X157988Y120534
X165787Y118491
X160909Y84455
X158306Y113601
X158750Y117348
X165799Y99695
X157353Y111001
X158687Y118237
X162306Y111506
X162306Y106616
X162243Y89090
X159691Y92138
X159550Y94996
X163068Y120399
X159191Y118465
X163392Y120009
X162370Y83757
X163770Y119615
X161798Y83757
X159849Y118916
X159004Y88646
X158037Y86219
X159195Y119443
X161036Y83757
X158623Y119570
X160909Y85789
X158623Y120142
X160465Y85154
X164465Y91376
X162814Y91376
X165100Y83820
X165100Y85090
X158560Y83757
X158560Y121475
X165040Y121412
X165672Y120969
X165100Y87439
X164592Y87439
X158052Y121475
X157956Y83757
X166243Y120523
X166751Y120523
X174244Y103632
X174244Y108077
X174244Y106807
X174244Y105537
X174244Y104267
X175958Y104902
X175958Y103632
X175958Y107442
X175958Y108712
X172085Y101473
X172085Y99060
X170498Y99060
X170498Y101473
X170434Y96647
X172085Y96647
X173609Y96647
X175260Y96647
X175958Y106172
X175958Y109982
X174244Y109347
X174244Y110617
X174244Y111887
X172022Y104013
X172022Y104902
X172022Y106807
X172022Y108077
X172022Y109347
X170180Y109283
X170180Y107823
X170180Y106426
X170180Y105029
X170180Y103632
X170434Y111760
X171196Y111760
X170371Y92583
X173927Y93535
X169101Y90170
X169101Y88963
X174244Y113411
X175577Y116332
X170307Y117792
X173482Y113982
X173165Y90297
X173165Y89662
X174117Y114681
X176974Y119062
X169736Y120713
X171006Y119443
X172974Y119570
X171768Y117284
X174117Y116459
X175958Y112395
X175958Y115316
X169101Y113982
X175641Y83947
X177482Y83820
X172530Y88138
X175958Y120777
X176339Y94297
X168529Y111506
X168529Y120523
X175260Y99060
X172974Y84392
X169482Y85408
X175069Y88011
X174942Y101473
X175006Y118935
X173571Y109055
X168974Y86678
X176974Y100873
X176989Y117221
X176974Y100266
X176974Y117856
X169926Y114363
X173482Y92265
X172847Y92265
X176056Y116649
X176388Y116317
X177001Y98441
X176022Y95313
X176911Y87439
X176974Y96266
X175260Y94107
X177001Y91376
X176974Y96837
X176974Y97409
X171234Y94996
X175260Y121412
X174077Y87463
X171742Y94996
X174819Y121094
X174490Y88019
X172250Y94996
X174250Y120904
X173038Y88582
X170218Y94996
X175196Y86932
X174181Y86614
X169545Y95504
X174117Y85471
X169710Y94996
X176657Y102298
X176974Y101473
X168503Y98490
X173609Y94994
X173047Y94996
X173546Y104140
X170307Y103126
X171653Y103126
X173971Y103189
X169073Y103414
X168542Y97980
X168494Y98996
X168783Y102064
X168491Y101648
X168529Y112014
X169164Y120534
X176963Y118491
X172085Y84455
X169482Y113601
X169926Y117348
X176974Y99695
X168529Y111001
X169863Y118237
X173482Y111506
X173482Y106616
X173419Y89090
X170867Y92138
X170726Y94996
X174244Y120399
X170367Y118465
X174568Y120009
X173546Y83757
X174946Y119615
X172974Y83757
X171025Y118916
X170180Y88646
X169213Y86219
X170371Y119443
X172212Y83757
X169799Y119570
X172085Y85789
X169799Y120142
X171641Y85154
X175641Y91376
X173990Y91376
X176276Y83820
X176276Y85090
X169736Y83757
X169736Y121475
X176216Y121412
X176847Y120969
X176276Y87439
X175768Y87439
X169228Y121475
X169132Y83757
X177419Y120523
X177927Y120523
M30